<REAPER_PROJECT 0.1 "6.82/macOS-arm64" 1695398613
  <NOTES 0 2
  >
  RIPPLE 1
  GROUPOVERRIDE 0 0 0
  AUTOXFADE 129
  ENVATTACH 3
  POOLEDENVATTACH 0
  MIXERUIFLAGS 11 48
  PEAKGAIN 1
  FEEDBACK 0
  PANLAW 1
  PROJOFFS 0 0 0
  MAXPROJLEN 0 0
  GRID 3198 8 1 8 1 0 0 0
  TIMEMODE 1 5 -1 30 0 0 -1
  VIDEO_CONFIG 0 0 256
  PANMODE 3
  CURSOR 0
  ZOOM 4.55774915648438 5 0
  VZOOMEX 6 0
  USE_REC_CFG 0
  RECMODE 1
  SMPTESYNC 0 30 100 40 1000 300 0 0 1 0 0
  LOOP 0
  LOOPGRAN 0 4
  RECORD_PATH "" ""
  <RECORD_CFG
    ZXZhdxgAAQ==
  >
  <APPLYFX_CFG
  >
  RENDER_FILE ""
  RENDER_PATTERN burn
  RENDER_FMT 0 2 48000
  RENDER_1X 0
  RENDER_RANGE 1 0 0 18 1000
  RENDER_RESAMPLE 3 0 1
  RENDER_ADDTOPROJ 0
  RENDER_STEMS 0
  RENDER_DITHER 0
  TIMELOCKMODE 1
  TEMPOENVLOCKMODE 1
  ITEMMIX 1
  DEFPITCHMODE 589824 0
  TAKELANE 1
  SAMPLERATE 44100 0 0
  <RENDER_CFG
    ZXZhdxgAAQ==
  >
  LOCK 1
  <METRONOME 6 2
    VOL 0.25 0.125
    FREQ 800 1600 1
    BEATLEN 4
    SAMPLES "" ""
    PATTERN 2863311530 2863311529
    MULT 1
  >
  GLOBAL_AUTO -1
  TEMPO 120 4 4
  PLAYRATE 1 0 0.25 4
  SELECTION 0 0
  SELECTION2 0 0
  MASTERAUTOMODE 0
  MASTERTRACKHEIGHT 0 0
  MASTERPEAKCOL 16576
  MASTERMUTESOLO 0
  MASTERTRACKVIEW 0 0.6667 0.5 0.5 0 0 0 0 0 0 0 0 0
  MASTERHWOUT 0 0 1 0 0 0 0 -1
  MASTER_NCH 2 2
  MASTER_VOLUME 3.65334172353972 -0.12 -1 -1 1
  MASTER_PANMODE 3
  MASTER_FX 1
  MASTER_SEL 0
  <MASTERFXLIST
    SHOW 0
    LASTSEL 0
    DOCKED 0
  >
  <MASTERPLAYSPEEDENV
    EGUID {C830330C-D48D-B94C-B96F-66EADAFCDA8E}
    ACT 0 -1
    VIS 0 1 1
    LANEHEIGHT 0 0
    ARM 0
    DEFSHAPE 0 -1 -1
  >
  <TEMPOENVEX
    EGUID {946BE5CA-3F31-E04A-A600-C39CDAD1804C}
    ACT 1 -1
    VIS 1 0 1
    LANEHEIGHT 0 0
    ARM 0
    DEFSHAPE 1 -1 -1
    PT 0.000000000000 72.0000288000 1 262148 0 1
    PT 109.999956000000 141.9997349338 1
    PT 123.521108000003 72.0000000000 1
    PT 143.521108000003 142.0000710000 1
    PT 170.563348000009 72.0000288000 1
    PT 237.229988000020 142.0000000000 1 262149 0 1
    PT 260.469424619738 72.0000000000 1 262148 0 1
    PT 340.469424619738 71.7820123848 1
    PT 340.539079953071 71.5925524654 1
    PT 340.608919619738 71.3195543954 1
    PT 340.679026619738 71.0453494306 1
    PT 340.749404203071 70.7700727516 1
    PT 340.820055536405 70.4936908147 1
    PT 340.890983869738 70.2160078455 1
    PT 340.962192703071 69.9372429806 1
    PT 341.033685369738 69.6572861521 1
    PT 341.105465369738 69.3761924033 1
    PT 341.177536203071 69.0938570955 1
    PT 341.249901536405 68.8104169797 1
    PT 341.322564953072 68.5256925663 1
    PT 341.395530286406 68.2397444194 1
    PT 341.468801369739 67.9527864040 1
    PT 341.542381869739 67.6644160730 1
    PT 341.616275953072 67.3749268701 1
    PT 341.690487536406 67.0841537166 1
    PT 341.765020786406 66.7922360705 1
    PT 341.839879786406 66.4990889625 1
    PT 341.915068786406 66.2047049477 1
    PT 341.990592119739 65.9090060263 1
    PT 342.066454286406 65.6122056199 1
    PT 342.142659619739 65.3140134482 1
    PT 342.219212869738 65.0146445487 1
    PT 342.296118619738 64.7139589088 1
    PT 342.373381703071 64.4121000277 1
    PT 342.451006869738 64.1089339005 1
    PT 342.528999119738 63.8044690777 1
    PT 342.607363536405 63.4987157385 1
    PT 342.686105286405 63.1917522125 1
    PT 342.765229536405 62.8833921817 1
    PT 342.844741786405 62.5737849214 1
    PT 342.924647453071 62.2629468015 1
    PT 343.004952036405 61.9507037600 1
    PT 343.085661369738 61.6371441867 1
    PT 343.166781286405 61.3223552690 1
    PT 343.248317619738 61.0061748417 1
    PT 343.330276536405 60.6886339292 1
    PT 343.412664286405 60.3698862933 1
    PT 343.495487036405 60.0496610697 1
    PT 343.578751453071 59.7281770662 1
    PT 343.662464036405 59.4052936057 1
    PT 343.746631619738 59.0811114733 1
    PT 343.831261036405 58.7554997596 1
    PT 343.916359453071 58.4285068790 1
    PT 344.001934119738 58.1002384046 1
    PT 344.087992286405 57.7704644649 1
    PT 344.174541703072 30.0000000000 1
    PT 347.174541703072 40.0000000000 1
    PT 347.924541703072 43.8406771339 1
    PT 348.038591036406 43.5186891010 1
    PT 348.153484203072 43.1910404506 1
    PT 348.269248953072 42.8576020457 1
    PT 348.385914369739 42.5183023576 1
    PT 348.503510786406 42.1730656093 1
    PT 348.622069869739 41.8217556773 1
    PT 348.741624869739 41.4642405479 1
    PT 348.862210703072 41.1004508719 1
    PT 348.983863869739 40.7302665253 1
    PT 349.106622703072 40.3535780509 1
    PT 349.230527453072 39.9702621250 1
    PT 349.355620453072 39.5801861588 1
    PT 349.481946286406 39.1832640443 1
    PT 349.609551786406 38.7793551640 1
    PT 349.738486369739 38.3683721834 1
    PT 349.868802036406 37.9501120477 1
    PT 350.000553953072 37.5245551308 1
    PT 350.133800036406 37.0914607421 1
    PT 350.268601953072 36.6507561662 1
    PT 350.405024786406 36.2023275683 1
    PT 350.543137453072 35.7460102984 1
    PT 350.683013203072 35.2816445480 1
    PT 350.824729953072 35.0023626595 1
    PT 350.967577453071 64.0000000000 1
  >
  MARKER 1 9.999996 "Verse 1 (A)" 0 0 1 B {EB1376C8-A15F-2848-97DB-EF6320BC4828}
  MARKER 2 49.99998 "Verse 2" 0 0 1 B {82D04742-BBD7-3D4C-BB55-097E978B7602}
  MARKER 3 89.999964 "Chorus 1 (B)" 0 0 1 B {C6189D0A-4470-9548-8F6C-B5AC6E569927}
  MARKER 4 109.999956 "Cut Time 1" 0 0 1 B {F6E60164-EA0C-704A-9B7A-8CC9B553A407}
  MARKER 5 123.52110800000197 "Chorus 2 (4/4)" 0 0 1 B {C26D0E16-FDD4-3749-9118-E915E2C2D991}
  MARKER 6 143.52110799993238 "Cut Time 2" 0 0 1 B {D40DA694-D5F6-6F49-9B8B-9310289282BE}
  MARKER 7 157.04222799999354 "Key Change" 0 0 1 B {645A1293-2CB1-1947-AC0E-7043839531C2}
  MARKER 8 170.56334800000536 "Chorus 3 (C) (4/4)" 0 0 1 B {9AA530F2-161F-A24D-A4CB-36CB8293DE7B}
  MARKER 9 210.56333199997803 "Percussion Double Time" 0 0 1 B {F1BC1B3F-6AA5-9446-9F8E-3A9D51E860B1}
  MARKER 10 237.22998799985672 "Instrumental (D) (5/4)" 0 0 1 B {D045AC6D-D4B7-554B-8288-7D4406F9D174}
  MARKER 11 260.46942461973146 "Meter Change" 0 0 1 B {7A5A899E-A561-824F-B38F-19FE55B6CCD5}
  MARKER 12 270.46942461968325 "Verse 3 (E)" 0 0 1 B {5D03B9B9-00F5-DF4B-8DF6-77D3BCB63A56}
  MARKER 13 310.46942461967683 "Verse 4" 0 0 1 B {B72F61FB-6D75-3C40-8E99-6A385DBC4BCC}
  <PROJBAY
  >
  <TRACK {3040AEFF-B6A1-384F-8256-D751B43F74E4}
    NAME Melody
    PEAKCOL 16576
    BEAT -1
    AUTOMODE 0
    VOLPAN 0.23293747634546 0 -1 -1 1
    MUTESOLO 0 0 0
    IPHASE 0
    PLAYOFFS 0 1
    ISBUS 0 0
    BUSCOMP 0 0 0 0 0
    SHOWINMIX 1 0.6667 0.5 1 0.5 0 0 0
    SEL 0
    REC 0 0 1 0 0 0 0 0
    VU 2
    TRACKHEIGHT 62 0 0 0 0 0
    INQ 0 0 0 0.5 100 0 0 100
    NCHAN 2
    FX 1
    TRACKID {3040AEFF-B6A1-384F-8256-D751B43F74E4}
    PERF 0
    MIDIOUT -1
    MAINSEND 1 0
    <FXCHAIN
      WNDRECT 0 296 1496 561
      SHOW 1
      LASTSEL 0
      DOCKED 0
      BYPASS 0 0 0
      <VST "VST3i: Synthesizer V Studio Plugin (Dreamtonics Co., Ltd.) (32 out)" "Synthesizer V Studio Pro.vst3" 0 "" 1933839491{ABCDEF019182FAEB44746E6353565232} ""
        gwxEc+5e7f4AAAAAIAAAAAEAAAAAAAAAAgAAAAAAAAAEAAAAAAAAAAgAAAAAAAAAEAAAAAAAAAAgAAAAAAAAAEAAAAAAAAAAgAAAAAAAAAAAAQAAAAAAAAACAAAAAAAA
        AAQAAAAAAAAACAAAAAAAAAAQAAAAAAAAACAAAAAAAAAAQAAAAAAAAACAAAAAAAAAAAABAAAAAAAAAAIAAAAAAAAABAAAAAAAAAAIAAAAAAAAABAAAAAAAAAAIAAAAAAA
        AABAAAAAAAAAAIAAAAAAAAAAAAEAAAAAAAAAAgAAAAAAAAAEAAAAAAAAAAgAAAAAAAAAEAAAAAAAAAAgAAAAAAAAAEAAAAAAAAAAgAAAAADRAAAAAQAAAP//EAA=
        wQAAAAEAAAB7InByb2plY3RQYXRoIjogIi9Vc2Vycy9jaHJpc3RpYW50enVyY2FudS9Eb3dubG9hZHMvSkNTX21pZGkvaWxsQnVybi12b2MyLnN2cCIsICJzZXNzaW9u
        Q29uZmlndXJhdGlvbiI6IHsiY2hhbm5lbExheW91dCI6IDUzNjg3MDkyOX19AAAAAAAAAABKVUNFUHJpdmF0ZURhdGEAAQFCeXBhc3MAAQEDAB0AAAAAAAAASlVDRVBy
        aXZhdGVEYXRhAAAAAAAAAAA=
        AFByb2dyYW0gMQAQAAAA
      >
      FLOATPOS 0 0 0 0
      FXID {F9361B51-DF65-9D48-ABC2-C3602744B800}
      WAK 0 0
    >
    <ITEM
      POSITION 0
      SNAPOFFS 0
      LENGTH 354.71757745299715
      LOOP 1
      ALLTAKES 0
      FADEIN 1 0 0 1 0 0 0
      FADEOUT 1 0 0 1 0 0 0
      MUTE 0 0
      SEL 0
      IGUID {F0D28199-3B68-9E49-9688-3E19326DCD06}
      IID 1
      NAME "Melody - 1-6--3-2_geth-1.mid"
      VOLPAN 1 0 1 -1
      SOFFS 0 0
      PLAYRATE 1 1 0 -1 0 0.0025
      CHANMODE 0
      GUID {10301466-CA82-3C4B-B907-56C1A5859122}
      <SOURCE MIDI
        HASDATA 1 480 QN
        CCINTERP 32
        POOLEDEVTS {2021B773-FAD9-394B-BEDE-F3DB43FC0222}
        <X 0 0 0 0 3 Melody
          /wNNZWxvZHk=
        >
        E 0 b0 00 00
        E 0 b0 20 01
        E 0 c0 4b 00
        E 0 b0 07 7f
        E 0 b0 0a 34
        E 5774 90 41 53
        E 423 80 41 5f
        E 35 90 41 4a
        E 214 90 46 53
        E 15 80 41 59
        E 250 90 48 52
        E 3 80 46 64
        E 486 90 46 55
        E 23 80 48 54
        E 429 80 46 55
        E 3 90 41 4a
        E 678 b0 01 01
        E 11 b0 01 02
        E 8 b0 01 03
        E 5 b0 01 04
        E 6 b0 01 05
        E 6 b0 01 06
        E 11 b0 01 07
        E 6 b0 01 08
        E 6 b0 01 09
        E 7 b0 01 0a
        E 4 b0 01 0b
        E 8 b0 01 0c
        E 5 b0 01 0d
        E 6 b0 01 0e
        E 6 b0 01 0f
        E 6 b0 01 10
        E 5 b0 01 12
        E 6 b0 01 13
        E 6 b0 01 14
        E 6 b0 01 15
        E 13 b0 01 16
        E 11 b0 01 17
        E 6 b0 01 18
        E 11 b0 01 19
        E 6 b0 01 1a
        E 13 b0 01 1b
        E 12 b0 01 1c
        E 17 b0 01 1d
        E 17 b0 01 1e
        E 13 b0 01 1f
        E 59 b0 01 21
        E 12 b0 01 22
        E 23 b0 01 23
        E 11 b0 01 24
        E 13 b0 01 25
        E 12 b0 01 26
        E 11 b0 01 27
        E 77 b0 01 27
        E 5 b0 01 26
        E 13 b0 01 25
        E 6 b0 01 23
        E 6 b0 01 22
        E 6 b0 01 21
        E 5 b0 01 1f
        E 6 b0 01 1e
        E 7 b0 01 1d
        E 12 b0 01 1c
        E 6 b0 01 1b
        E 5 b0 01 1a
        E 12 b0 01 19
        E 11 b0 01 18
        E 12 b0 01 16
        E 7 b0 01 15
        E 12 b0 01 14
        E 5 b0 01 13
        E 6 b0 01 12
        E 6 b0 01 11
        E 6 b0 01 10
        E 11 b0 01 0e
        E 7 b0 01 0d
        E 12 b0 01 0c
        E 11 b0 01 0a
        E 6 b0 01 09
        E 6 b0 01 08
        E 6 b0 01 07
        E 11 b0 01 06
        E 7 b0 01 04
        E 6 b0 01 03
        E 6 b0 01 02
        E 6 b0 01 00
        E 173 80 41 17
        E 826 90 42 5a
        E 242 90 48 54
        E 12 80 42 62
        E 236 80 48 63
        E 1 90 49 59
        E 477 90 48 54
        E 16 80 49 51
        E 463 90 42 55
        E 9 80 48 57
        E 347 b0 01 01
        E 6 b0 01 02
        E 5 b0 01 03
        E 6 b0 01 04
        E 7 b0 01 06
        E 6 b0 01 07
        E 5 b0 01 08
        E 7 b0 01 09
        E 5 b0 01 0a
        E 6 b0 01 0b
        E 6 b0 01 0d
        E 6 b0 01 0e
        E 6 b0 01 0f
        E 5 b0 01 10
        E 6 b0 01 11
        E 7 b0 01 12
        E 6 b0 01 13
        E 6 b0 01 14
        E 6 b0 01 16
        E 5 b0 01 17
        E 6 b0 01 18
        E 6 b0 01 19
        E 6 b0 01 1a
        E 13 b0 01 1b
        E 5 b0 01 1c
        E 6 b0 01 1d
        E 6 b0 01 1e
        E 6 b0 01 1f
        E 5 b0 01 20
        E 6 b0 01 21
        E 6 b0 01 22
        E 6 b0 01 23
        E 18 b0 01 25
        E 12 b0 01 26
        E 11 b0 01 28
        E 12 b0 01 29
        E 13 b0 01 2a
        E 11 b0 01 2b
        E 12 b0 01 2c
        E 11 b0 01 2d
        E 18 b0 01 2f
        E 13 b0 01 30
        E 23 b0 01 31
        E 24 b0 01 32
        E 23 b0 01 33
        E 29 b0 01 34
        E 66 b0 01 35
        E 41 b0 01 34
        E 13 b0 01 33
        E 10 b0 01 31
        E 13 b0 01 30
        E 5 b0 01 2f
        E 12 b0 01 2d
        E 6 b0 01 2c
        E 7 b0 01 2b
        E 6 b0 01 2a
        E 11 b0 01 29
        E 6 b0 01 28
        E 6 b0 01 27
        E 11 b0 01 26
        E 6 b0 01 25
        E 6 b0 01 24
        E 7 b0 01 23
        E 6 b0 01 22
        E 5 b0 01 21
        E 12 b0 01 20
        E 11 b0 01 1f
        E 13 b0 01 1d
        E 18 b0 01 1c
        E 5 b0 01 1b
        E 12 b0 01 1a
        E 11 b0 01 18
        E 6 b0 01 17
        E 7 b0 01 16
        E 6 b0 01 15
        E 6 b0 01 14
        E 6 b0 01 12
        E 5 b0 01 11
        E 6 b0 01 10
        E 6 b0 01 0f
        E 6 b0 01 0e
        E 5 b0 01 0d
        E 6 b0 01 0c
        E 7 b0 01 0a
        E 6 b0 01 09
        E 6 b0 01 08
        E 6 b0 01 06
        E 5 b0 01 05
        E 6 b0 01 03
        E 6 b0 01 02
        E 6 b0 01 00
        E 570 80 42 54
        E 636 90 44 68
        E 241 90 48 54
        E 20 80 44 57
        E 213 90 49 5c
        E 3 80 48 5f
        E 726 90 4b 5e
        E 6 80 49 6a
        E 253 90 4e 5a
        E 4 80 4b 62
        E 699 90 4d 52
        E 3 80 4e 76
        E 239 90 4b 61
        E 23 80 4d 51
        E 207 80 4b 61
        E 6 90 49 5c
        E 374 80 49 69
        E 59 90 49 6c
        E 261 80 49 75
        E 6 90 4d 56
        E 494 90 4b 5d
        E 24 80 4d 53
        E 457 90 49 59
        E 13 80 4b 5a
        E 230 90 48 53
        E 7 80 49 71
        E 654 90 4b 5d
        E 26 80 48 5e
        E 743 90 49 5c
        E 17 80 4b 5a
        E 225 90 48 53
        E 3 80 49 75
        E 246 90 46 56
        E 29 80 48 58
        E 746 80 46 6a
        E 427 90 49 61
        E 249 80 49 73
        E 6 90 48 54
        E 226 90 46 5a
        E 20 80 48 58
        E 419 80 46 5b
        E 58 90 46 44
        E 488 80 46 6a
        E 425 90 46 63
        E 233 90 41 55
        E 5 80 46 72
        E 243 90 3f 5a
        E 26 80 41 57
        E 685 80 3f 66
        E 6 90 3d 5c
        E 264 90 3c 4e
        E 7 80 3d 5e
        E 235 90 3d 59
        E 21 80 3c 4f
        E 219 90 3c 52
        E 6 80 3d 6b
        E 294 b0 01 01
        E 11 b0 01 02
        E 6 b0 01 04
        E 7 b0 01 05
        E 6 b0 01 06
        E 6 b0 01 07
        E 5 b0 01 08
        E 6 b0 01 0a
        E 6 b0 01 0b
        E 6 b0 01 0c
        E 5 b0 01 0d
        E 6 b0 01 0e
        E 6 b0 01 0f
        E 6 b0 01 10
        E 7 b0 01 11
        E 6 b0 01 12
        E 5 b0 01 13
        E 6 b0 01 14
        E 6 b0 01 15
        E 6 b0 01 16
        E 5 b0 01 17
        E 6 b0 01 18
        E 6 b0 01 19
        E 7 b0 01 1a
        E 6 b0 01 1b
        E 6 b0 01 1d
        E 5 b0 01 1e
        E 6 b0 01 1f
        E 6 b0 01 20
        E 6 b0 01 21
        E 5 b0 01 22
        E 6 b0 01 23
        E 7 b0 01 24
        E 6 b0 01 25
        E 6 b0 01 26
        E 6 b0 01 27
        E 5 b0 01 28
        E 6 b0 01 29
        E 6 b0 01 2b
        E 6 b0 01 2c
        E 5 b0 01 2d
        E 13 b0 01 2e
        E 6 b0 01 2f
        E 12 b0 01 31
        E 5 b0 01 32
        E 12 b0 01 33
        E 6 b0 01 34
        E 6 b0 01 35
        E 5 b0 01 36
        E 13 b0 01 37
        E 6 b0 01 38
        E 6 b0 01 39
        E 6 b0 01 3a
        E 11 b0 01 3b
        E 6 b0 01 3c
        E 6 b0 01 3d
        E 7 b0 01 3e
        E 6 b0 01 3f
        E 5 b0 01 40
        E 12 b0 01 42
        E 6 b0 01 43
        E 11 b0 01 44
        E 6 b0 01 45
        E 6 b0 01 46
        E 7 b0 01 47
        E 6 b0 01 48
        E 5 b0 01 49
        E 12 b0 01 4a
        E 6 b0 01 4b
        E 11 b0 01 4c
        E 7 b0 01 4d
        E 6 b0 01 4e
        E 12 b0 01 4f
        E 11 b0 01 50
        E 29 b0 01 4f
        E 7 b0 01 4d
        E 6 b0 01 4c
        E 6 b0 01 4a
        E 5 b0 01 48
        E 6 b0 01 46
        E 6 b0 01 44
        E 6 b0 01 41
        E 5 b0 01 3e
        E 6 b0 01 3b
        E 7 b0 01 38
        E 6 b0 01 35
        E 6 b0 01 33
        E 6 b0 01 2f
        E 5 b0 01 2c
        E 6 b0 01 29
        E 6 b0 01 25
        E 6 b0 01 22
        E 5 b0 01 1e
        E 6 b0 01 1a
        E 7 b0 01 17
        E 6 b0 01 13
        E 6 b0 01 10
        E 6 b0 01 0c
        E 5 b0 01 09
        E 6 b0 01 06
        E 6 b0 01 02
        E 6 b0 01 00
        E 108 80 3c 5b
        E 62 90 3c 5a
        E 196 80 3c 58
        E 67 90 3c 59
        E 497 90 3d 68
        E 32 80 3c 66
        E 471 90 3f 5d
        E 53 80 3d 4f
        E 173 90 41 5a
        E 4 80 3f 6d
        E 579 80 41 62
        E 75 90 41 63
        E 515 90 46 5e
        E 13 80 41 5a
        E 451 80 46 75
        E 3 90 48 5e
        E 481 90 46 59
        E 18 80 48 58
        E 461 80 46 6a
        E 5 90 41 5a
        E 112 b0 01 01
        E 6 b0 01 02
        E 11 b0 01 03
        E 6 b0 01 04
        E 11 b0 01 05
        E 12 b0 01 06
        E 13 b0 01 07
        E 11 b0 01 08
        E 12 b0 01 09
        E 12 b0 01 0a
        E 11 b0 01 0c
        E 25 b0 01 0e
        E 5 b0 01 0f
        E 6 b0 01 10
        E 6 b0 01 11
        E 6 b0 01 12
        E 5 b0 01 13
        E 6 b0 01 14
        E 7 b0 01 15
        E 5 b0 01 17
        E 7 b0 01 18
        E 6 b0 01 19
        E 5 b0 01 1a
        E 6 b0 01 1b
        E 6 b0 01 1c
        E 6 b0 01 1d
        E 13 b0 01 1e
        E 5 b0 01 1f
        E 12 b0 01 20
        E 6 b0 01 21
        E 5 b0 01 22
        E 6 b0 01 23
        E 6 b0 01 24
        E 19 b0 01 26
        E 11 b0 01 27
        E 12 b0 01 29
        E 11 b0 01 2a
        E 12 b0 01 2c
        E 7 b0 01 2d
        E 11 b0 01 2e
        E 6 b0 01 2f
        E 12 b0 01 30
        E 5 b0 01 31
        E 12 b0 01 33
        E 13 b0 01 34
        E 11 b0 01 35
        E 29 b0 01 36
        E 19 b0 01 37
        E 23 b0 01 38
        E 13 b0 01 39
        E 23 b0 01 3a
        E 17 b0 01 3b
        E 19 b0 01 3c
        E 12 b0 01 3d
        E 17 b0 01 3e
        E 11 b0 01 3f
        E 12 b0 01 40
        E 19 b0 01 41
        E 11 b0 01 42
        E 12 b0 01 43
        E 23 b0 01 44
        E 18 b0 01 45
        E 23 b0 01 46
        E 31 b0 01 47
        E 11 b0 01 48
        E 12 b0 01 49
        E 17 b0 01 4a
        E 13 b0 01 4b
        E 29 b0 01 4d
        E 17 b0 01 4e
        E 13 b0 01 4f
        E 11 b0 01 50
        E 12 b0 01 51
        E 17 b0 01 53
        E 13 b0 01 54
        E 6 b0 01 55
        E 12 b0 01 56
        E 11 b0 01 57
        E 12 b0 01 58
        E 13 b0 01 59
        E 5 b0 01 5a
        E 23 b0 01 5b
        E 71 b0 01 5a
        E 13 b0 01 59
        E 6 b0 01 58
        E 11 b0 01 57
        E 6 b0 01 56
        E 11 b0 01 55
        E 6 b0 01 54
        E 13 b0 01 53
        E 6 b0 01 52
        E 6 b0 01 50
        E 5 b0 01 4f
        E 6 b0 01 4e
        E 6 b0 01 4d
        E 6 b0 01 4b
        E 5 b0 01 4a
        E 6 b0 01 49
        E 7 b0 01 47
        E 6 b0 01 45
        E 6 b0 01 44
        E 6 b0 01 42
        E 5 b0 01 41
        E 6 b0 01 3f
        E 6 b0 01 3d
        E 6 b0 01 3b
        E 5 b0 01 39
        E 8 b0 01 37
        E 5 b0 01 35
        E 6 b0 01 33
        E 6 b0 01 31
        E 6 b0 01 2f
        E 5 b0 01 2c
        E 6 b0 01 29
        E 6 b0 01 27
        E 6 b0 01 24
        E 6 b0 01 21
        E 5 b0 01 1e
        E 7 b0 01 1b
        E 6 b0 01 17
        E 6 b0 01 14
        E 6 b0 01 11
        E 6 b0 01 0f
        E 5 b0 01 0c
        E 6 b0 01 09
        E 6 b0 01 07
        E 6 b0 01 04
        E 7 b0 01 02
        E 6 b0 01 00
        E 264 80 41 41
        E 232 90 42 68
        E 441 90 48 5d
        E 13 80 42 6e
        E 456 90 49 63
        E 5 80 48 66
        E 489 90 48 58
        E 23 80 49 54
        E 455 80 48 60
        E 9 90 42 5e
        E 485 b0 01 01
        E 12 b0 01 03
        E 6 b0 01 04
        E 7 b0 01 05
        E 6 b0 01 06
        E 5 b0 01 07
        E 6 b0 01 08
        E 6 b0 01 09
        E 6 b0 01 0a
        E 5 b0 01 0b
        E 6 b0 01 0c
        E 6 b0 01 0d
        E 6 b0 01 0e
        E 5 b0 01 0f
        E 13 b0 01 10
        E 12 b0 01 11
        E 6 b0 01 12
        E 11 b0 01 13
        E 12 b0 01 15
        E 13 b0 01 16
        E 11 b0 01 17
        E 12 b0 01 18
        E 11 b0 01 1a
        E 13 b0 01 1b
        E 6 b0 01 1c
        E 6 b0 01 1d
        E 11 b0 01 1f
        E 12 b0 01 20
        E 5 b0 01 21
        E 6 b0 01 22
        E 7 b0 01 23
        E 6 b0 01 24
        E 6 b0 01 25
        E 4 b0 01 26
        E 7 b0 01 27
        E 18 b0 01 29
        E 6 b0 01 2a
        E 5 b0 01 2b
        E 13 b0 01 2c
        E 6 b0 01 2d
        E 12 b0 01 2e
        E 11 b0 01 30
        E 6 b0 01 31
        E 6 b0 01 32
        E 13 b0 01 33
        E 5 b0 01 34
        E 12 b0 01 35
        E 6 b0 01 36
        E 5 b0 01 37
        E 6 b0 01 38
        E 6 b0 01 39
        E 6 b0 01 3a
        E 7 b0 01 3b
        E 6 b0 01 3c
        E 5 b0 01 3d
        E 6 b0 01 3e
        E 6 b0 01 3f
        E 6 b0 01 40
        E 5 b0 01 41
        E 6 b0 01 42
        E 6 b0 01 43
        E 7 b0 01 44
        E 6 b0 01 45
        E 6 b0 01 46
        E 5 b0 01 47
        E 6 b0 01 48
        E 6 b0 01 49
        E 11 b0 01 4a
        E 6 b0 01 4b
        E 13 b0 01 4c
        E 12 b0 01 4d
        E 5 b0 01 4e
        E 12 b0 01 4f
        E 11 b0 01 50
        E 12 b0 01 52
        E 13 b0 01 53
        E 11 b0 01 54
        E 12 b0 01 55
        E 19 b0 01 56
        E 11 b0 01 58
        E 12 b0 01 59
        E 11 b0 01 5a
        E 12 b0 01 5b
        E 6 b0 01 5c
        E 12 b0 01 5d
        E 12 b0 01 5e
        E 6 b0 01 5f
        E 11 b0 01 60
        E 12 b0 01 62
        E 19 b0 01 64
        E 5 b0 01 65
        E 18 b0 01 66
        E 23 b0 01 67
        E 36 b0 01 66
        E 11 b0 01 65
        E 6 b0 01 63
        E 7 b0 01 62
        E 6 b0 01 60
        E 6 b0 01 5e
        E 5 b0 01 5c
        E 6 b0 01 59
        E 6 b0 01 57
        E 6 b0 01 54
        E 5 b0 01 52
        E 6 b0 01 4f
        E 7 b0 01 4c
        E 6 b0 01 4a
        E 6 b0 01 47
        E 6 b0 01 44
        E 5 b0 01 41
        E 6 b0 01 3e
        E 6 b0 01 3a
        E 6 b0 01 36
        E 5 b0 01 33
        E 6 b0 01 2f
        E 7 b0 01 2b
        E 6 b0 01 26
        E 6 b0 01 22
        E 6 b0 01 1d
        E 5 b0 01 18
        E 6 b0 01 13
        E 6 b0 01 0f
        E 6 b0 01 0a
        E 5 b0 01 06
        E 8 b0 01 02
        E 5 b0 01 00
        E 356 80 42 5b
        E 457 90 44 7c
        E 256 90 48 68
        E 16 80 44 6f
        E 246 90 49 75
        E 14 80 48 40
        E 707 90 4b 75
        E 3 80 49 6e
        E 245 90 4e 75
        E 10 80 4b 66
        E 699 90 4d 59
        E 2 80 4e 79
        E 252 90 4b 6e
        E 24 80 4d 5b
        E 233 90 49 6c
        E 1 80 4b 6b
        E 853 80 49 70
        E 325 90 4d 68
        E 232 90 4b 6c
        E 19 80 4d 51
        E 219 90 49 6c
        E 2 80 4b 76
        E 247 80 49 7a
        E 3 90 48 6c
        E 701 90 4b 6c
        E 16 80 48 61
        E 270 b0 01 01
        E 6 b0 01 03
        E 6 b0 01 04
        E 6 b0 01 06
        E 13 b0 01 07
        E 5 b0 01 09
        E 6 b0 01 0a
        E 6 b0 01 0b
        E 6 b0 01 0c
        E 5 b0 01 0e
        E 6 b0 01 0f
        E 12 b0 01 10
        E 13 b0 01 11
        E 5 b0 01 12
        E 6 b0 01 13
        E 6 b0 01 14
        E 6 b0 01 15
        E 6 b0 01 16
        E 5 b0 01 17
        E 13 b0 01 18
        E 6 b0 01 19
        E 6 b0 01 1a
        E 6 b0 01 1b
        E 5 b0 01 1d
        E 6 b0 01 1e
        E 6 b0 01 20
        E 6 b0 01 21
        E 5 b0 01 23
        E 8 b0 01 25
        E 5 b0 01 27
        E 6 b0 01 28
        E 6 b0 01 2a
        E 6 b0 01 2c
        E 5 b0 01 2e
        E 6 b0 01 30
        E 6 b0 01 32
        E 6 b0 01 34
        E 5 b0 01 36
        E 6 b0 01 39
        E 7 b0 01 3a
        E 6 b0 01 3c
        E 6 b0 01 3e
        E 6 b0 01 3f
        E 5 b0 01 41
        E 6 b0 01 42
        E 6 b0 01 44
        E 6 b0 01 45
        E 7 b0 01 47
        E 6 b0 01 48
        E 5 b0 01 4a
        E 6 b0 01 4b
        E 6 b0 01 4c
        E 6 b0 01 4d
        E 5 b0 01 4e
        E 18 b0 01 4f
        E 13 b0 01 4e
        E 5 b0 01 4d
        E 6 b0 01 4b
        E 6 b0 01 49
        E 6 b0 01 46
        E 5 b0 01 43
        E 6 b0 01 40
        E 7 b0 01 3c
        E 6 b0 01 37
        E 6 b0 01 31
        E 6 b0 01 2b
        E 5 b0 01 23
        E 6 b0 01 1a
        E 6 b0 01 12
        E 6 b0 01 0b
        E 5 b0 01 04
        E 6 b0 01 00
        E 15 90 49 6c
        E 5 80 4b 69
        E 209 80 49 78
        E 0 90 48 5d
        E 248 90 46 5e
        E 26 80 48 5e
        E 196 b0 01 01
        E 5 b0 01 03
        E 6 b0 01 05
        E 6 b0 01 07
        E 6 b0 01 09
        E 5 b0 01 0b
        E 6 b0 01 0d
        E 7 b0 01 0f
        E 6 b0 01 10
        E 6 b0 01 12
        E 6 b0 01 13
        E 5 b0 01 14
        E 6 b0 01 16
        E 6 b0 01 17
        E 6 b0 01 18
        E 5 b0 01 19
        E 6 b0 01 1b
        E 7 b0 01 1c
        E 6 b0 01 1d
        E 6 b0 01 1f
        E 6 b0 01 20
        E 5 b0 01 21
        E 6 b0 01 23
        E 6 b0 01 24
        E 6 b0 01 26
        E 7 b0 01 27
        E 6 b0 01 28
        E 5 b0 01 2a
        E 6 b0 01 2b
        E 6 b0 01 2c
        E 6 b0 01 2e
        E 6 b0 01 2f
        E 5 b0 01 30
        E 6 b0 01 32
        E 6 b0 01 33
        E 6 b0 01 34
        E 7 b0 01 36
        E 6 b0 01 37
        E 5 b0 01 38
        E 6 b0 01 39
        E 6 b0 01 3b
        E 6 b0 01 3c
        E 5 b0 01 3d
        E 6 b0 01 3e
        E 6 b0 01 3f
        E 7 b0 01 40
        E 12 b0 01 41
        E 5 b0 01 42
        E 6 b0 01 43
        E 6 b0 01 44
        E 6 b0 01 45
        E 11 b0 01 46
        E 7 b0 01 47
        E 6 b0 01 48
        E 6 b0 01 49
        E 6 b0 01 4a
        E 11 b0 01 4b
        E 12 b0 01 4c
        E 72 b0 01 4b
        E 5 b0 01 4a
        E 6 b0 01 49
        E 6 b0 01 48
        E 6 b0 01 47
        E 5 b0 01 46
        E 6 b0 01 45
        E 6 b0 01 43
        E 6 b0 01 42
        E 5 b0 01 40
        E 8 b0 01 3e
        E 5 b0 01 3c
        E 6 b0 01 39
        E 6 b0 01 36
        E 6 b0 01 33
        E 5 b0 01 30
        E 6 b0 01 2c
        E 6 b0 01 28
        E 6 b0 01 23
        E 6 b0 01 1e
        E 7 b0 01 17
        E 5 b0 01 11
        E 6 b0 01 0c
        E 6 b0 01 06
        E 3 80 46 53
        E 3 b0 01 01
        E 6 b0 01 00
        E 390 90 49 6a
        E 260 90 48 59
        E 13 80 49 61
        E 169 80 48 5f
        E 47 90 48 51
        E 454 90 46 61
        E 9 80 48 67
        E 714 80 46 62
        E 263 90 46 6c
        E 241 80 46 73
        E 3 90 41 5d
        E 260 90 3f 6a
        E 19 80 41 60
        E 576 80 3f 4a
        E 121 90 3d 6e
        E 233 80 3d 66
        E 20 90 41 5d
        E 624 80 41 5c
        E 59 90 41 65
        E 261 80 41 58
        E 11 90 49 75
        E 205 80 49 70
        E 17 90 48 6c
        E 238 90 46 78
        E 18 80 48 54
        E 202 80 46 72
        E 7 90 45 63
        E 249 90 46 78
        E 9 80 45 69
        E 1690 80 46 70
        E 228 b0 00 00
        E 0 b0 20 01
        E 0 c0 52 00
        E 2 b0 0a 5a
        E 2 90 46 6b
        E 18 b0 07 78
        E 959 90 44 6b
        E 4 80 46 6d
        E 932 80 44 69
        E 5 90 42 66
        E 941 80 42 75
        E 7 90 41 64
        E 802 80 41 44
        E 138 90 46 66
        E 203 80 46 6e
        E 58 90 46 69
        E 239 80 46 76
        E 3 90 48 59
        E 242 90 46 5d
        E 20 80 48 5a
        E 203 80 46 70
        E 0 90 44 62
        E 209 80 44 6f
        E 50 90 44 5b
        E 230 90 46 54
        E 12 80 44 72
        E 226 90 44 54
        E 14 80 46 62
        E 218 80 44 70
        E 3 90 42 66
        E 198 80 42 5f
        E 52 90 42 5b
        E 249 90 44 5d
        E 13 80 42 61
        E 216 80 44 70
        E 10 90 42 5f
        E 221 80 42 64
        E 36 90 41 5d
        E 897 80 41 2a
        E 24 90 46 5d
        E 203 80 46 6f
        E 62 90 46 5f
        E 237 80 46 76
        E 4 90 48 54
        E 243 90 46 5f
        E 19 80 48 61
        E 207 80 46 69
        E 9 90 44 5d
        E 174 80 44 6f
        E 62 90 44 5f
        E 245 90 46 5b
        E 11 80 44 68
        E 226 80 46 64
        E 0 90 44 5d
        E 227 80 44 75
        E 7 90 42 62
        E 190 80 42 59
        E 50 90 42 46
        E 248 90 44 5f
        E 9 80 42 62
        E 239 80 44 69
        E 0 90 42 54
        E 190 80 42 69
        E 69 90 41 5d
        E 350 b0 01 01
        E 4 b0 01 03
        E 7 b0 01 05
        E 6 b0 01 07
        E 6 b0 01 09
        E 6 b0 01 0b
        E 5 b0 01 0d
        E 6 b0 01 0e
        E 6 b0 01 0f
        E 13 b0 01 10
        E 11 b0 01 12
        E 12 b0 01 13
        E 11 b0 01 15
        E 18 b0 01 16
        E 13 b0 01 17
        E 11 b0 01 19
        E 6 b0 01 1a
        E 6 b0 01 1b
        E 5 b0 01 1d
        E 6 b0 01 1f
        E 6 b0 01 20
        E 7 b0 01 22
        E 6 b0 01 24
        E 6 b0 01 26
        E 5 b0 01 27
        E 6 b0 01 29
        E 6 b0 01 2b
        E 6 b0 01 2c
        E 5 b0 01 2e
        E 8 b0 01 30
        E 4 b0 01 32
        E 7 b0 01 33
        E 6 b0 01 35
        E 6 b0 01 36
        E 5 b0 01 37
        E 6 b0 01 39
        E 6 b0 01 3a
        E 6 b0 01 3b
        E 5 b0 01 3c
        E 6 b0 01 3d
        E 7 b0 01 3f
        E 6 b0 01 40
        E 6 b0 01 42
        E 6 b0 01 43
        E 5 b0 01 45
        E 6 b0 01 46
        E 6 b0 01 48
        E 6 b0 01 4a
        E 5 b0 01 4b
        E 6 b0 01 4d
        E 6 b0 01 4f
        E 7 b0 01 50
        E 6 b0 01 52
        E 6 b0 01 54
        E 5 b0 01 55
        E 21 80 41 69
        E 3 b0 01 54
        E 7 b0 01 51
        E 5 b0 01 4d
        E 6 b0 01 47
        E 6 b0 01 40
        E 6 b0 01 38
        E 6 b0 01 2e
        E 5 b0 01 24
        E 6 b0 01 1c
        E 7 b0 01 13
        E 6 b0 01 0a
        E 6 b0 01 00
        E 184 90 3a 62
        E 193 80 3a 61
        E 48 90 44 6f
        E 270 80 44 16
        E 128 90 41 52
        E 150 80 41 5c
        E 139 90 44 73
        E 298 80 44 4a
        E 196 90 3a 69
        E 151 80 3a 64
        E 97 90 44 73
        E 315 80 44 55
        E 91 90 41 4f
        E 184 80 41 45
        E 88 90 44 66
        E 176 80 44 58
        E 262 90 44 6f
        E 116 80 44 78
        E 364 90 49 6f
        E 82 80 49 78
        E 395 90 3a 66
        E 150 80 3a 58
        E 131 90 44 5d
        E 341 80 44 57
        E 93 90 41 4b
        E 123 80 41 5e
        E 153 90 44 6f
        E 321 80 44 4b
        E 167 90 3a 66
        E 131 80 3a 61
        E 108 90 44 73
        E 409 80 44 4b
        E 54 90 41 4c
        E 184 80 41 53
        E 83 90 44 6b
        E 184 80 44 5a
        E 256 90 44 69
        E 97 80 44 78
        E 394 90 49 6d
        E 233 80 49 63
        E 261 90 41 59
        E 168 80 41 58
        E 114 90 49 6b
        E 355 80 49 50
        E 73 90 46 69
        E 106 80 46 6e
        E 159 90 49 73
        E 306 80 49 3b
        E 159 90 41 54
        E 125 80 41 5a
        E 122 90 49 73
        E 401 80 49 50
        E 42 90 46 5f
        E 103 80 46 69
        E 150 90 49 6f
        E 253 80 49 54
        E 202 90 49 6f
        E 264 80 49 5e
        E 204 90 4b 73
        E 256 80 4b 6e
        E 281 90 41 5b
        E 173 80 41 5a
        E 88 90 49 6f
        E 347 80 49 4f
        E 93 90 46 66
        E 80 80 46 73
        E 182 90 49 73
        E 375 80 49 26
        E 110 90 41 4d
        E 179 80 41 5b
        E 74 90 49 6d
        E 406 80 49 4d
        E 43 90 46 4f
        E 91 80 46 6e
        E 153 90 49 6f
        E 168 80 49 59
        E 289 90 49 69
        E 145 80 49 6b
        E 330 90 4b 75
        E 227 80 4b 5b
        E 319 90 46 69
        E 974 90 44 69
        E 18 80 46 62
        E 916 90 42 66
        E 4 80 44 6b
        E 927 80 42 75
        E 7 90 41 64
        E 890 80 41 5c
        E 36 90 46 62
        E 206 80 46 6d
        E 58 90 46 6b
        E 240 80 46 6d
        E 2 90 48 5b
        E 227 90 46 66
        E 28 80 48 66
        E 194 80 46 72
        E 9 90 44 66
        E 188 80 44 6e
        E 52 90 44 66
        E 242 90 46 62
        E 16 80 44 6d
        E 229 90 44 5d
        E 6 80 46 67
        E 229 80 44 6f
        E 5 90 42 62
        E 221 80 42 63
        E 42 90 42 5d
        E 239 90 44 5f
        E 15 80 42 58
        E 215 80 44 76
        E 9 90 42 66
        E 256 90 41 62
        E 4 80 42 79
        E 304 b0 01 01
        E 6 b0 01 03
        E 6 b0 01 05
        E 5 b0 01 07
        E 6 b0 01 09
        E 6 b0 01 0b
        E 6 b0 01 0c
        E 7 b0 01 0e
        E 6 b0 01 0f
        E 5 b0 01 10
        E 6 b0 01 12
        E 6 b0 01 13
        E 6 b0 01 14
        E 5 b0 01 16
        E 6 b0 01 18
        E 6 b0 01 19
        E 7 b0 01 1b
        E 6 b0 01 1d
        E 6 b0 01 1f
        E 5 b0 01 22
        E 6 b0 01 24
        E 6 b0 01 26
        E 6 b0 01 28
        E 5 b0 01 2a
        E 6 b0 01 2c
        E 6 b0 01 2e
        E 7 b0 01 30
        E 6 b0 01 32
        E 6 b0 01 33
        E 5 b0 01 34
        E 6 b0 01 36
        E 6 b0 01 37
        E 6 b0 01 38
        E 5 b0 01 3a
        E 6 b0 01 3b
        E 6 b0 01 3d
        E 7 b0 01 3e
        E 6 b0 01 40
        E 6 b0 01 41
        E 5 b0 01 42
        E 6 b0 01 43
        E 6 b0 01 45
        E 6 b0 01 46
        E 6 b0 01 47
        E 5 b0 01 48
        E 13 b0 01 49
        E 12 b0 01 4b
        E 6 b0 01 4c
        E 5 b0 01 4d
        E 6 b0 01 4f
        E 6 b0 01 50
        E 6 b0 01 51
        E 7 b0 01 53
        E 6 b0 01 54
        E 5 b0 01 55
        E 6 b0 01 56
        E 6 b0 01 57
        E 6 b0 01 58
        E 5 b0 01 59
        E 6 b0 01 5a
        E 6 b0 01 5b
        E 42 b0 01 5a
        E 5 b0 01 59
        E 6 b0 01 58
        E 6 b0 01 57
        E 6 b0 01 55
        E 7 b0 01 53
        E 6 b0 01 4f
        E 5 b0 01 4c
        E 6 b0 01 47
        E 6 b0 01 43
        E 6 b0 01 3d
        E 5 b0 01 37
        E 6 b0 01 30
        E 6 b0 01 28
        E 7 b0 01 20
        E 6 b0 01 19
        E 6 b0 01 13
        E 5 b0 01 0d
        E 6 b0 01 08
        E 6 b0 01 02
        E 6 b0 01 00
        E 62 80 41 59
        E 56 90 46 69
        E 190 80 46 68
        E 59 90 46 69
        E 242 80 46 75
        E 6 90 48 5b
        E 257 90 46 5d
        E 18 80 48 5b
        E 190 80 46 71
        E 13 90 44 69
        E 181 80 44 6f
        E 61 90 44 66
        E 247 90 46 5d
        E 16 80 44 67
        E 213 90 44 5b
        E 23 80 46 55
        E 198 80 44 72
        E 8 90 42 6b
        E 177 80 42 64
        E 55 90 42 62
        E 232 90 44 62
        E 8 80 42 53
        E 250 90 42 59
        E 27 80 44 60
        E 144 80 42 4c
        E 89 90 41 5f
        E 164 b0 01 01
        E 6 b0 01 02
        E 6 b0 01 04
        E 6 b0 01 05
        E 5 b0 01 07
        E 8 b0 01 09
        E 5 b0 01 0b
        E 6 b0 01 0c
        E 6 b0 01 0e
        E 6 b0 01 0f
        E 5 b0 01 10
        E 6 b0 01 11
        E 6 b0 01 12
        E 7 b0 01 13
        E 6 b0 01 15
        E 6 b0 01 16
        E 5 b0 01 17
        E 6 b0 01 19
        E 6 b0 01 1a
        E 6 b0 01 1c
        E 5 b0 01 1d
        E 6 b0 01 1f
        E 6 b0 01 21
        E 6 b0 01 23
        E 7 b0 01 25
        E 6 b0 01 27
        E 5 b0 01 28
        E 6 b0 01 2a
        E 6 b0 01 2b
        E 6 b0 01 2c
        E 6 b0 01 2e
        E 5 b0 01 2f
        E 6 b0 01 30
        E 7 b0 01 31
        E 6 b0 01 33
        E 6 b0 01 34
        E 6 b0 01 36
        E 5 b0 01 37
        E 6 b0 01 39
        E 6 b0 01 3b
        E 6 b0 01 3c
        E 5 b0 01 3e
        E 8 b0 01 40
        E 5 b0 01 42
        E 6 b0 01 44
        E 6 b0 01 45
        E 6 b0 01 48
        E 5 b0 01 4a
        E 6 b0 01 4c
        E 6 b0 01 4d
        E 6 b0 01 4f
        E 7 b0 01 51
        E 6 b0 01 52
        E 4 b0 01 54
        E 7 b0 01 55
        E 6 b0 01 57
        E 6 b0 01 59
        E 5 b0 01 5b
        E 6 b0 01 5c
        E 6 b0 01 5e
        E 6 b0 01 60
        E 5 b0 01 61
        E 8 b0 01 62
        E 5 b0 01 63
        E 6 b0 01 64
        E 6 b0 01 65
        E 11 b0 01 66
        E 12 b0 01 67
        E 6 b0 01 68
        E 18 b0 01 69
        E 42 b0 01 6a
        E 17 b0 01 69
        E 6 b0 01 68
        E 6 b0 01 67
        E 6 b0 01 65
        E 5 b0 01 63
        E 6 b0 01 60
        E 3 80 41 68
        E 4 b0 01 5c
        E 6 b0 01 57
        E 6 b0 01 52
        E 6 b0 01 4b
        E 5 b0 01 44
        E 6 b0 01 3b
        E 6 b0 01 31
        E 7 b0 01 25
        E 5 b0 01 1b
        E 7 b0 01 11
        E 5 b0 01 06
        E 6 b0 01 00
        E 193 90 3a 62
        E 170 80 3a 67
        E 74 90 44 6d
        E 258 80 44 4d
        E 174 90 41 52
        E 213 80 41 4c
        E 93 90 44 6f
        E 284 80 44 16
        E 176 90 3a 66
        E 188 80 3a 5f
        E 71 90 44 6b
        E 426 80 44 4b
        E 37 90 41 52
        E 165 80 41 59
        E 99 90 44 6d
        E 167 80 44 61
        E 256 90 44 6d
        E 261 80 44 69
        E 216 90 49 75
        E 256 80 49 6f
        E 216 90 3a 5f
        E 162 80 3a 54
        E 113 90 44 69
        E 378 80 44 50
        E 45 90 41 4f
        E 128 80 41 59
        E 156 90 44 73
        E 369 80 44 39
        E 94 90 3a 5f
        E 137 80 3a 5f
        E 107 90 44 6d
        E 438 80 44 43
        E 37 90 41 4c
        E 201 80 41 51
        E 69 90 44 6f
        E 210 80 44 5e
        E 218 90 44 6d
        E 262 80 44 64
        E 227 90 49 6f
        E 326 80 49 5e
        E 165 90 41 4f
        E 154 80 41 60
        E 124 90 49 6d
        E 387 80 49 57
        E 51 90 46 62
        E 94 80 46 6e
        E 167 90 49 73
        E 375 80 49 27
        E 102 90 41 52
        E 145 80 41 5a
        E 105 90 49 6f
        E 420 80 49 53
        E 46 90 46 5d
        E 111 80 46 67
        E 153 90 49 73
        E 244 80 49 5f
        E 188 90 49 6f
        E 284 80 49 6a
        E 184 90 4b 6f
        E 253 80 4b 60
        E 273 90 41 59
        E 199 80 41 57
        E 59 90 49 6d
        E 412 80 49 52
        E 43 90 46 66
        E 93 80 46 71
        E 165 90 49 75
        E 409 80 49 17
        E 68 90 41 4a
        E 159 80 41 59
        E 94 90 49 73
        E 397 80 49 51
        E 54 90 46 5d
        E 131 80 46 62
        E 131 90 49 6f
        E 196 80 49 5f
        E 233 90 49 6b
        E 218 80 49 61
        E 239 90 4b 6f
        E 284 80 4b 5f
        E 517 90 48 69
        E 411 80 48 5c
        E 43 90 43 52
        E 168 80 43 5a
        E 93 90 48 73
        E 455 80 48 67
        E 31 90 43 4b
        E 122 80 43 62
        E 131 90 48 71
        E 426 80 48 68
        E 28 90 43 4e
        E 151 80 43 5a
        E 91 90 48 71
        E 306 80 48 68
        E 156 90 48 73
        E 179 80 48 67
        E 304 90 4b 75
        E 301 80 4b 59
        E 423 90 48 71
        E 398 80 48 4f
        E 60 90 43 52
        E 110 80 43 60
        E 162 90 48 75
        E 455 80 48 62
        E 48 90 43 56
        E 119 80 43 60
        E 128 90 48 75
        E 415 80 48 61
        E 42 90 43 4e
        E 140 80 43 5e
        E 107 90 48 73
        E 239 80 48 57
        E 182 90 48 69
        E 193 80 48 5f
        E 287 90 4b 69
        E 275 80 4b 67
        E 276 90 4f 6b
        E 99 80 4f 6b
        E 142 90 4f 6d
        E 295 80 4f 67
        E 134 90 4f 62
        E 91 80 4f 69
        E 173 90 4f 6f
        E 301 80 4f 63
        E 170 90 4f 5f
        E 94 80 4f 68
        E 154 90 4f 69
        E 309 80 4f 62
        E 165 90 4f 66
        E 99 80 4f 6b
        E 142 90 4f 6d
        E 318 80 4f 62
        E 139 90 4f 71
        E 324 80 4f 62
        E 137 90 4d 5f
        E 190 80 4d 63
        E 34 90 4b 6f
        E 96 80 4b 77
        E 177 90 4f 66
        E 99 80 4f 6b
        E 156 90 4f 6b
        E 313 80 4f 67
        E 147 90 4f 5d
        E 83 80 4f 6b
        E 176 90 4f 6d
        E 343 80 4f 69
        E 145 90 4f 64
        E 100 80 4f 69
        E 142 90 4f 6d
        E 312 80 4f 68
        E 156 90 4f 62
        E 102 80 4f 69
        E 151 90 4f 6b
        E 307 80 4f 64
        E 147 90 4f 6f
        E 290 80 4f 5e
        E 156 90 4d 59
        E 162 80 4d 62
        E 68 90 4b 6d
        E 80 80 4b 78
        E 253 90 54 6f
        E 180 b0 01 01
        E 6 b0 01 02
        E 6 b0 01 04
        E 7 b0 01 05
        E 5 b0 01 06
        E 6 b0 01 07
        E 6 b0 01 08
        E 6 b0 01 09
        E 11 b0 01 0a
        E 13 b0 01 0c
        E 18 b0 01 0e
        E 5 b0 01 0f
        E 6 b0 01 10
        E 6 b0 01 11
        E 6 b0 01 13
        E 5 b0 01 14
        E 6 b0 01 16
        E 6 b0 01 18
        E 6 b0 01 1a
        E 7 b0 01 1c
        E 6 b0 01 1e
        E 5 b0 01 20
        E 6 b0 01 22
        E 6 b0 01 23
        E 6 b0 01 25
        E 5 b0 01 27
        E 6 b0 01 29
        E 7 b0 01 2b
        E 6 b0 01 2d
        E 6 b0 01 2e
        E 6 b0 01 30
        E 5 b0 01 31
        E 6 b0 01 33
        E 6 b0 01 34
        E 6 b0 01 35
        E 5 b0 01 36
        E 8 b0 01 37
        E 5 b0 01 39
        E 6 b0 01 3a
        E 6 b0 01 3b
        E 6 b0 01 3d
        E 5 b0 01 3e
        E 6 b0 01 40
        E 6 b0 01 41
        E 6 b0 01 42
        E 5 b0 01 44
        E 8 b0 01 45
        E 4 b0 01 46
        E 6 b0 01 48
        E 7 b0 01 49
        E 6 b0 01 4a
        E 5 b0 01 4b
        E 6 b0 01 4c
        E 6 b0 01 4d
        E 6 b0 01 4e
        E 5 b0 01 4f
        E 8 b0 01 50
        E 5 b0 01 52
        E 3 b0 01 53
        E 9 b0 01 54
        E 6 b0 01 55
        E 11 b0 01 56
        E 13 b0 01 57
        E 12 b0 01 59
        E 5 b0 01 5a
        E 12 b0 01 5b
        E 6 b0 01 5c
        E 6 b0 01 5d
        E 11 b0 01 5e
        E 25 b0 01 5f
        E 41 b0 01 5d
        E 5 b0 01 5c
        E 7 b0 01 5b
        E 6 b0 01 59
        E 5 b0 01 57
        E 6 b0 01 55
        E 6 b0 01 52
        E 6 b0 01 4f
        E 5 b0 01 4b
        E 6 b0 01 47
        E 7 b0 01 43
        E 6 b0 01 3f
        E 6 b0 01 3a
        E 6 b0 01 35
        E 5 b0 01 30
        E 6 b0 01 2b
        E 6 b0 01 26
        E 6 b0 01 21
        E 5 b0 01 1d
        E 8 b0 01 19
        E 5 b0 01 16
        E 6 b0 01 12
        E 6 b0 01 10
        E 6 b0 01 0d
        E 5 b0 01 0a
        E 6 b0 01 07
        E 6 b0 01 03
        E 6 b0 01 01
        E 7 b0 01 00
        E 65 90 52 77
        E 20 80 54 60
        E 222 b0 01 01
        E 5 b0 01 02
        E 6 b0 01 03
        E 6 b0 01 04
        E 7 b0 01 05
        E 4 b0 01 06
        E 8 b0 01 08
        E 5 b0 01 09
        E 6 b0 01 0b
        E 6 b0 01 0d
        E 6 b0 01 0e
        E 5 b0 01 10
        E 6 b0 01 12
        E 6 b0 01 13
        E 6 b0 01 15
        E 7 b0 01 16
        E 6 b0 01 17
        E 5 b0 01 19
        E 6 b0 01 1a
        E 6 b0 01 1c
        E 6 b0 01 1d
        E 5 b0 01 1e
        E 6 b0 01 1f
        E 6 b0 01 20
        E 7 b0 01 21
        E 6 b0 01 22
        E 6 b0 01 23
        E 5 b0 01 25
        E 6 b0 01 26
        E 6 b0 01 27
        E 6 b0 01 29
        E 5 b0 01 2a
        E 8 b0 01 2b
        E 5 b0 01 2d
        E 6 b0 01 2e
        E 6 b0 01 2f
        E 6 b0 01 31
        E 5 b0 01 32
        E 6 b0 01 34
        E 6 b0 01 35
        E 6 b0 01 36
        E 6 b0 01 37
        E 5 b0 01 39
        E 6 b0 01 3a
        E 7 b0 01 3b
        E 6 b0 01 3c
        E 6 b0 01 3e
        E 6 b0 01 3f
        E 5 b0 01 40
        E 6 b0 01 41
        E 6 b0 01 43
        E 6 b0 01 45
        E 7 b0 01 47
        E 6 b0 01 49
        E 5 b0 01 4b
        E 6 b0 01 4c
        E 6 b0 01 4e
        E 6 b0 01 4f
        E 5 b0 01 50
        E 6 b0 01 51
        E 6 b0 01 52
        E 6 b0 01 54
        E 7 b0 01 55
        E 6 b0 01 56
        E 5 b0 01 57
        E 18 b0 01 59
        E 47 b0 01 58
        E 12 b0 01 56
        E 5 b0 01 55
        E 6 b0 01 54
        E 7 b0 01 53
        E 5 b0 01 52
        E 7 b0 01 51
        E 6 b0 01 50
        E 5 b0 01 4f
        E 6 b0 01 4e
        E 6 b0 01 4c
        E 6 b0 01 4b
        E 5 b0 01 4a
        E 6 b0 01 49
        E 6 b0 01 47
        E 7 b0 01 46
        E 6 b0 01 45
        E 6 b0 01 44
        E 5 b0 01 42
        E 6 b0 01 41
        E 6 b0 01 3f
        E 6 b0 01 3e
        E 5 b0 01 3c
        E 6 b0 01 3a
        E 6 b0 01 39
        E 7 b0 01 37
        E 6 b0 01 35
        E 6 b0 01 33
        E 5 b0 01 30
        E 6 b0 01 2d
        E 6 b0 01 2a
        E 6 b0 01 27
        E 6 b0 01 23
        E 7 b0 01 1e
        E 5 b0 01 19
        E 6 b0 01 15
        E 6 b0 01 10
        E 6 b0 01 0c
        E 6 b0 01 07
        E 5 b0 01 02
        E 6 b0 01 00
        E 75 80 52 6a
        E 225 90 50 75
        E 221 80 50 5b
        E 26 90 52 75
        E 124 80 52 53
        E 6 90 50 73
        E 318 80 50 58
        E 19 90 4f 6f
        E 168 b0 01 01
        E 6 b0 01 02
        E 7 b0 01 05
        E 6 b0 01 07
        E 6 b0 01 09
        E 6 b0 01 0b
        E 5 b0 01 0e
        E 6 b0 01 10
        E 6 b0 01 13
        E 6 b0 01 17
        E 5 b0 01 1a
        E 6 b0 01 1d
        E 6 b0 01 20
        E 7 b0 01 21
        E 6 b0 01 23
        E 6 b0 01 25
        E 5 b0 01 26
        E 6 b0 01 28
        E 6 b0 01 2a
        E 6 b0 01 2c
        E 7 b0 01 2e
        E 6 b0 01 31
        E 5 b0 01 32
        E 6 b0 01 34
        E 6 b0 01 35
        E 6 b0 01 36
        E 11 b0 01 37
        E 6 b0 01 38
        E 7 b0 01 39
        E 6 b0 01 3a
        E 6 b0 01 3c
        E 5 b0 01 3e
        E 6 b0 01 3f
        E 6 b0 01 40
        E 6 b0 01 41
        E 5 b0 01 42
        E 6 b0 01 43
        E 7 b0 01 44
        E 12 b0 01 46
        E 6 b0 01 47
        E 5 b0 01 49
        E 6 b0 01 4a
        E 6 b0 01 4b
        E 6 b0 01 4c
        E 5 b0 01 4e
        E 6 b0 01 4f
        E 6 b0 01 50
        E 7 b0 01 51
        E 6 b0 01 53
        E 6 b0 01 54
        E 5 b0 01 56
        E 6 b0 01 58
        E 6 b0 01 5b
        E 6 b0 01 5d
        E 5 b0 01 5f
        E 6 b0 01 61
        E 6 b0 01 62
        E 7 b0 01 64
        E 5 b0 01 65
        E 7 b0 01 66
        E 5 b0 01 68
        E 6 b0 01 69
        E 6 b0 01 6b
        E 6 b0 01 6d
        E 6 b0 01 6e
        E 7 b0 01 70
        E 5 b0 01 71
        E 6 b0 01 72
        E 6 b0 01 73
        E 6 b0 01 75
        E 6 b0 01 76
        E 5 b0 01 77
        E 6 b0 01 78
        E 6 b0 01 79
        E 7 b0 01 7a
        E 4 b0 01 7b
        E 13 b0 01 7c
        E 6 b0 01 7d
        E 12 b0 01 7e
        E 11 b0 01 7f
        E 36 b0 01 7e
        E 6 b0 01 7d
        E 6 b0 01 7a
        E 5 b0 01 77
        E 6 b0 01 73
        E 6 b0 01 6f
        E 7 b0 01 6a
        E 6 b0 01 65
        E 6 b0 01 5f
        E 5 b0 01 58
        E 6 b0 01 50
        E 6 b0 01 47
        E 6 b0 01 3c
        E 5 b0 01 30
        E 6 b0 01 25
        E 7 b0 01 1a
        E 6 b0 01 10
        E 6 b0 01 04
        E 6 b0 01 00
        E 123 80 4f 63
        E 26 90 54 71
        E 942 90 52 77
        E 4 80 54 44
        E 193 b0 01 02
        E 6 b0 01 04
        E 6 b0 01 05
        E 6 b0 01 07
        E 5 b0 01 08
        E 6 b0 01 09
        E 7 b0 01 0a
        E 6 b0 01 0b
        E 6 b0 01 0c
        E 6 b0 01 0d
        E 5 b0 01 0f
        E 6 b0 01 10
        E 6 b0 01 12
        E 6 b0 01 14
        E 6 b0 01 16
        E 7 b0 01 17
        E 5 b0 01 18
        E 6 b0 01 19
        E 6 b0 01 1a
        E 6 b0 01 1c
        E 6 b0 01 1d
        E 5 b0 01 1e
        E 6 b0 01 1f
        E 6 b0 01 20
        E 7 b0 01 21
        E 6 b0 01 23
        E 6 b0 01 24
        E 5 b0 01 26
        E 6 b0 01 27
        E 6 b0 01 28
        E 6 b0 01 2a
        E 5 b0 01 2b
        E 6 b0 01 2d
        E 6 b0 01 2e
        E 6 b0 01 30
        E 5 b0 01 32
        E 8 b0 01 34
        E 5 b0 01 36
        E 6 b0 01 38
        E 6 b0 01 39
        E 6 b0 01 3b
        E 5 b0 01 3d
        E 6 b0 01 3e
        E 6 b0 01 40
        E 6 b0 01 41
        E 7 b0 01 43
        E 6 b0 01 44
        E 5 b0 01 46
        E 6 b0 01 48
        E 6 b0 01 4a
        E 6 b0 01 4b
        E 5 b0 01 4c
        E 6 b0 01 4d
        E 12 b0 01 4e
        E 7 b0 01 4f
        E 6 b0 01 50
        E 5 b0 01 51
        E 6 b0 01 52
        E 6 b0 01 53
        E 6 b0 01 54
        E 11 b0 01 55
        E 13 b0 01 56
        E 6 b0 01 57
        E 11 b0 01 58
        E 6 b0 01 59
        E 6 b0 01 5a
        E 6 b0 01 5b
        E 11 b0 01 5c
        E 7 b0 01 5d
        E 12 b0 01 5e
        E 23 b0 01 60
        E 65 b0 01 5e
        E 6 b0 01 5d
        E 7 b0 01 5c
        E 4 b0 01 5b
        E 7 b0 01 59
        E 6 b0 01 58
        E 6 b0 01 56
        E 6 b0 01 54
        E 5 b0 01 52
        E 6 b0 01 50
        E 7 b0 01 4e
        E 6 b0 01 4b
        E 6 b0 01 48
        E 6 b0 01 46
        E 5 b0 01 43
        E 6 b0 01 40
        E 6 b0 01 3c
        E 6 b0 01 39
        E 5 b0 01 36
        E 6 b0 01 32
        E 6 b0 01 2e
        E 7 b0 01 2a
        E 6 b0 01 26
        E 6 b0 01 21
        E 5 b0 01 1b
        E 6 b0 01 16
        E 6 b0 01 11
        E 6 b0 01 0d
        E 5 b0 01 08
        E 6 b0 01 04
        E 7 b0 01 00
        E 65 80 52 71
        E 241 90 57 77
        E 197 80 57 75
        E 59 90 57 7b
        E 109 80 57 6f
        E 18 90 54 66
        E 252 80 54 60
        E 72 90 54 77
        E 175 e0 0d 41
        E 12 e0 1a 42
        E 11 e0 27 43
        E 6 e0 34 44
        E 6 e0 42 45
        E 6 e0 4f 46
        E 5 e0 5c 47
        E 6 e0 69 48
        E 6 e0 77 49
        E 7 e0 04 4b
        E 6 e0 11 4c
        E 6 e0 58 4c
        E 5 e0 65 4d
        E 6 e0 72 4e
        E 6 e0 7f 4f
        E 6 e0 0d 51
        E 5 e0 1a 52
        E 6 e0 27 53
        E 6 e0 34 54
        E 7 e0 42 55
        E 6 e0 08 56
        E 6 e0 16 57
        E 5 e0 23 58
        E 12 e0 30 59
        E 12 e0 04 5b
        E 5 e0 4b 5b
        E 7 e0 58 5c
        E 6 e0 65 5d
        E 6 e0 72 5e
        E 6 e0 7f 5f
        E 6 e0 46 60
        E 5 e0 53 61
        E 6 e0 1a 62
        E 6 e0 27 63
        E 6 e0 34 64
        E 13 e0 4f 66
        E 5 e0 5c 67
        E 6 e0 69 68
        E 6 e0 77 69
        E 6 e0 04 6b
        E 5 e0 11 6c
        E 12 e0 1e 6d
        E 7 e0 65 6d
        E 6 e0 72 6e
        E 6 e0 00 70
        E 5 e0 0d 71
        E 6 e0 1a 72
        E 6 e0 27 73
        E 6 e0 34 74
        E 5 e0 08 76
        E 6 e0 5c 77
        E 6 e0 69 78
        E 6 e0 77 79
        E 7 e0 4b 7b
        E 6 e0 58 7c
        E 5 e0 65 7d
        E 6 e0 72 7e
        E 6 e0 7f 7f
        E 422 e0 00 40
        E 0 80 54 40
        E 3 90 48 6b
        E 211 80 48 6a
        E 46 90 48 6b
        E 225 90 4a 54
        E 19 80 48 4b
        E 232 90 48 5f
        E 28 80 4a 63
        E 211 90 46 69
        E 8 80 48 62
        E 180 80 46 6f
        E 59 90 46 69
        E 237 90 48 5d
        E 17 80 46 59
        E 217 90 46 66
        E 7 80 48 6b
        E 214 80 46 73
        E 2 90 44 6f
        E 191 80 44 5e
        E 63 90 44 5b
        E 227 90 46 6d
        E 13 80 44 6e
        E 221 80 46 61
        E 5 90 44 6f
        E 229 80 44 78
        E 10 90 43 66
        E 882 80 43 54
        E 83 90 48 66
        E 190 80 48 66
        E 52 90 48 62
        E 252 90 4a 56
        E 10 80 48 50
        E 229 90 48 5b
        E 36 80 4a 58
        E 198 90 46 69
        E 8 80 48 64
        E 176 80 46 6a
        E 57 90 46 6b
        E 235 90 48 59
        E 16 80 46 66
        E 230 90 46 5f
        E 18 80 48 63
        E 232 80 46 5e
        E 0 90 44 6d
        E 180 80 44 67
        E 47 90 44 69
        E 239 90 46 62
        E 13 80 44 62
        E 215 90 44 66
        E 8 80 46 64
        E 160 80 44 72
        E 66 90 43 64
        E 637 80 43 61
        E 65 90 43 5b
        E 229 90 48 6d
        E 10 80 43 52
        E 211 80 48 64
        E 38 90 48 5f
        E 230 80 48 60
        E 15 90 4a 56
        E 237 90 48 5f
        E 40 80 4a 5a
        E 180 80 48 6d
        E 11 90 46 6b
        E 210 80 46 64
        E 60 90 46 66
        E 218 80 46 57
        E 17 90 48 64
        E 238 80 48 6b
        E 8 90 46 5d
        E 232 80 46 76
        E 6 90 44 6d
        E 178 80 44 62
        E 58 90 44 6f
        E 243 90 46 62
        E 19 80 44 5b
        E 216 90 44 66
        E 2 80 46 6d
        E 158 80 44 6a
        E 75 90 43 59
        E 635 80 43 5c
        E 79 90 43 66
        E 238 90 48 6d
        E 7 80 43 59
        E 184 80 48 67
        E 53 90 48 6b
        E 219 80 48 63
        E 8 90 4a 56
        E 243 90 48 62
        E 32 80 4a 60
        E 194 80 48 69
        E 7 90 46 69
        E 179 80 46 6b
        E 75 90 46 66
        E 206 80 46 55
        E 31 90 48 69
        E 244 80 48 6b
        E 0 90 46 6b
        E 234 80 46 73
        E 5 90 44 6f
        E 168 80 44 60
        E 72 90 44 6d
        E 248 90 46 69
        E 20 80 44 5b
        E 229 90 44 62
        E 10 80 46 63
        E 157 80 44 5a
        E 75 90 43 5f
        E 979 80 43 61
        E 1 90 48 6b
        E 467 90 4b 73
        E 17 80 48 6b
        E 457 80 4b 70
        E 3 90 4d 5f
        E 802 80 4d 64
        E 295 90 50 75
        E 566 80 50 72
        E 16 90 4f 62
        E 98 90 50 6d
        E 10 80 4f 67
        E 67 80 50 6a
        E 38 90 4f 71
        E 841 80 4f 67
        E 23 90 52 27
        E 46 90 4f 56
        E 11 80 52 5c
        E 41 90 54 5d
        E 26 80 4f 6d
        E 370 80 54 64
        E 57 90 54 6b
        E 527 90 52 77
        E 26 80 54 5e
        E 884 80 52 45
        E 264 90 50 6f
        E 422 80 50 64
        E 65 90 50 6d
        E 223 80 50 58
        E 11 90 4f 66
        E 923 80 4f 4f
        E 48 90 54 6d
        E 137 e0 2c 3e
        E 6 e0 1e 3d
        E 7 e0 4b 3b
        E 5 e0 77 39
        E 6 e0 69 38
        E 6 e0 16 37
        E 6 e0 08 36
        E 6 e0 7b 34
        E 5 e0 34 34
        E 12 e0 27 33
        E 13 e0 1a 32
        E 11 e0 0d 31
        E 6 e0 7f 2f
        E 6 e0 39 2f
        E 6 e0 2c 2e
        E 5 e0 65 2d
        E 12 e0 11 2c
        E 13 e0 3d 2a
        E 11 e0 30 29
        E 6 e0 69 28
        E 25 e0 5c 27
        E 46 e0 30 29
        E 5 e0 3d 2a
        E 6 e0 4b 2b
        E 7 e0 1e 2d
        E 6 e0 72 2e
        E 6 e0 0d 31
        E 6 e0 61 32
        E 4 e0 08 36
        E 7 e0 77 39
        E 6 e0 72 3e
        E 0 80 54 5a
        E 6 e0 00 40
        E 52 90 54 6f
        E 1 e0 72 3e
        E 6 e0 65 3d
        E 5 e0 58 3c
        E 8 e0 4b 3b
        E 23 e0 04 3b
        E 23 e0 77 39
        E 13 e0 23 38
        E 11 e0 4f 36
        E 6 e0 7b 34
        E 6 e0 34 34
        E 6 e0 27 33
        E 5 e0 1a 32
        E 12 e0 46 30
        E 13 e0 72 2e
        E 6 e0 65 2d
        E 11 e0 11 2c
        E 6 e0 04 2b
        E 6 e0 3d 2a
        E 5 e0 30 29
        E 6 e0 23 28
        E 7 e0 5c 27
        E 12 e0 08 26
        E 6 e0 7b 24
        E 11 e0 27 23
        E 6 e0 61 22
        E 11 e0 53 21
        E 67 e0 27 23
        E 5 e0 34 24
        E 6 e0 08 26
        E 6 e0 4f 26
        E 6 e0 5c 27
        E 5 e0 30 29
        E 6 e0 04 2b
        E 6 e0 58 2c
        E 6 e0 72 2e
        E 7 e0 53 31
        E 6 e0 7b 34
        E 5 e0 23 38
        E 6 e0 11 3c
        E 6 e0 39 3f
        E 6 e0 00 40
        E 40 80 54 62
        E 49 e0 2c 3e
        E 0 90 54 64
        E 6 e0 4b 3b
        E 5 e0 69 38
        E 6 e0 42 35
        E 6 e0 1a 32
        E 6 e0 2c 2e
        E 6 e0 3d 2a
        E 7 e0 4f 26
        E 5 e0 27 23
        E 6 e0 00 20
        E 6 e0 2c 1e
        E 6 e0 1e 1d
        E 34 e0 65 1d
        E 25 e0 39 1f
        E 11 e0 46 20
        E 48 e0 53 21
        E 6 e0 1a 22
        E 5 e0 27 23
        E 6 e0 6e 23
        E 19 e0 7b 24
        E 23 e0 08 26
        E 6 e0 4f 26
        E 5 e0 5c 27
        E 6 e0 69 28
        E 6 e0 3d 2a
        E 7 e0 4b 2b
        E 23 e0 11 2c
        E 36 e0 65 2d
        E 6 e0 72 2e
        E 6 e0 7f 2f
        E 5 e0 53 31
        E 6 e0 27 33
        E 6 e0 34 34
        E 6 e0 08 36
        E 5 e0 5c 37
        E 6 e0 23 38
        E 6 e0 30 39
        E 7 e0 3d 3a
        E 6 e0 4b 3b
        E 6 e0 58 3c
        E 5 e0 65 3d
        E 6 e0 72 3e
        E 6 e0 00 40
        E 55 80 54 60
        E 29 e0 2c 3e
        E 5 e0 04 3b
        E 6 e0 16 37
        E 4 90 54 69
        E 2 e0 27 33
        E 6 e0 46 30
        E 5 e0 65 2d
        E 6 e0 11 2c
        E 6 e0 77 29
        E 6 e0 69 28
        E 13 e0 5c 27
        E 70 e0 23 28
        E 42 e0 5c 27
        E 47 e0 69 28
        E 6 e0 77 29
        E 12 e0 04 2b
        E 17 e0 4b 2b
        E 112 e0 58 2c
        E 12 e0 2c 2e
        E 6 e0 46 30
        E 7 e0 61 32
        E 6 e0 34 34
        E 5 e0 08 36
        E 12 e0 16 37
        E 11 e0 5c 37
        E 25 e0 30 39
        E 6 e0 77 39
        E 5 e0 4b 3b
        E 6 e0 1e 3d
        E 6 e0 2c 3e
        E 6 e0 39 3f
        E 11 e0 00 40
        E 170 80 54 5e
        E 65 90 54 69
        E 190 80 54 63
        E 58 90 54 5d
        E 112 80 54 5f
        E 16 90 52 6f
        E 102 80 52 6d
        E 11 90 50 6d
        E 173 80 50 60
        E 52 90 56 71
        E 789 80 56 61
        E 402 90 57 77
        E 727 80 57 70
        E 6 90 56 71
        E 981 80 56 62
        E 207 90 54 6d
        E 176 80 54 58
        E 95 90 54 59
        E 8 90 56 4b
        E 23 80 56 64
        E 224 90 50 73
        E 11 80 54 69
        E 199 80 50 73
        E 10 90 4f 6f
        E 1023 80 4f 6d
        E 32118 b0 00 00
        E 0 b0 20 01
        E 0 c0 4b 00
        E 0 b0 07 62
        E 8 90 43 6c
        E 499 90 48 6c
        E 27 80 43 54
        E 436 90 4a 6c
        E 13 80 48 59
        E 460 90 48 6c
        E 37 80 4a 50
        E 418 90 43 6c
        E 20 80 48 63
        E 304 b0 01 01
        E 11 b0 01 03
        E 6 b0 01 04
        E 6 b0 01 05
        E 6 b0 01 06
        E 5 b0 01 07
        E 13 b0 01 09
        E 6 b0 01 0a
        E 6 b0 01 0b
        E 17 b0 01 0d
        E 12 b0 01 0e
        E 13 b0 01 0f
        E 11 b0 01 10
        E 12 b0 01 12
        E 11 b0 01 13
        E 13 b0 01 14
        E 12 b0 01 15
        E 5 b0 01 16
        E 12 b0 01 17
        E 6 b0 01 18
        E 11 b0 01 19
        E 12 b0 01 1b
        E 18 b0 01 1d
        E 12 b0 01 1f
        E 11 b0 01 20
        E 12 b0 01 22
        E 7 b0 01 23
        E 6 b0 01 24
        E 6 b0 01 25
        E 11 b0 01 26
        E 12 b0 01 27
        E 11 b0 01 28
        E 13 b0 01 2a
        E 17 b0 01 2c
        E 6 b0 01 2d
        E 12 b0 01 2e
        E 13 b0 01 2f
        E 11 b0 01 30
        E 6 b0 01 31
        E 11 b0 01 32
        E 12 b0 01 33
        E 24 b0 01 34
        E 12 b0 01 35
        E 17 b0 01 36
        E 12 b0 01 37
        E 13 b0 01 38
        E 11 b0 01 39
        E 88 b0 01 38
        E 36 b0 01 37
        E 17 b0 01 36
        E 13 b0 01 35
        E 12 b0 01 34
        E 11 b0 01 33
        E 6 b0 01 32
        E 6 b0 01 31
        E 6 b0 01 30
        E 5 b0 01 2f
        E 6 b0 01 2e
        E 7 b0 01 2d
        E 6 b0 01 2c
        E 6 b0 01 2b
        E 6 b0 01 2a
        E 5 b0 01 29
        E 6 b0 01 28
        E 6 b0 01 27
        E 6 b0 01 26
        E 5 b0 01 25
        E 8 b0 01 24
        E 5 b0 01 23
        E 6 b0 01 22
        E 6 b0 01 21
        E 6 b0 01 20
        E 5 b0 01 1f
        E 6 b0 01 1e
        E 12 b0 01 1d
        E 7 b0 01 1c
        E 6 b0 01 1b
        E 5 b0 01 1a
        E 6 b0 01 19
        E 6 b0 01 18
        E 6 b0 01 17
        E 6 b0 01 16
        E 5 b0 01 15
        E 6 b0 01 14
        E 7 b0 01 13
        E 6 b0 01 11
        E 6 b0 01 10
        E 6 b0 01 0f
        E 11 b0 01 0e
        E 6 b0 01 0d
        E 6 b0 01 0c
        E 5 b0 01 0b
        E 6 b0 01 0a
        E 6 b0 01 09
        E 7 b0 01 08
        E 6 b0 01 07
        E 6 b0 01 06
        E 5 b0 01 05
        E 6 b0 01 04
        E 6 b0 01 03
        E 6 b0 01 02
        E 5 b0 01 01
        E 6 b0 01 00
        E 475 80 43 4f
        E 134 90 44 77
        E 506 90 4a 6c
        E 14 80 44 6e
        E 452 80 4a 63
        E 0 90 4b 6d
        E 468 90 4a 6c
        E 13 80 4b 54
        E 460 80 4a 62
        E 8 90 44 6c
        E 510 b0 01 01
        E 11 b0 01 03
        E 6 b0 01 05
        E 6 b0 01 07
        E 6 b0 01 09
        E 6 b0 01 0a
        E 7 b0 01 0c
        E 5 b0 01 0d
        E 6 b0 01 0f
        E 6 b0 01 11
        E 6 b0 01 12
        E 6 b0 01 14
        E 5 b0 01 16
        E 6 b0 01 18
        E 6 b0 01 19
        E 7 b0 01 1b
        E 6 b0 01 1d
        E 6 b0 01 1e
        E 5 b0 01 1f
        E 6 b0 01 20
        E 6 b0 01 21
        E 6 b0 01 22
        E 5 b0 01 23
        E 6 b0 01 24
        E 12 b0 01 25
        E 7 b0 01 26
        E 11 b0 01 28
        E 12 b0 01 29
        E 11 b0 01 2a
        E 12 b0 01 2b
        E 13 b0 01 2c
        E 11 b0 01 2d
        E 6 b0 01 2e
        E 12 b0 01 2f
        E 5 b0 01 30
        E 6 b0 01 31
        E 13 b0 01 33
        E 12 b0 01 34
        E 11 b0 01 35
        E 12 b0 01 36
        E 13 b0 01 37
        E 10 b0 01 38
        E 13 b0 01 39
        E 11 b0 01 3a
        E 12 b0 01 3b
        E 11 b0 01 3c
        E 13 b0 01 3d
        E 12 b0 01 3e
        E 11 b0 01 3f
        E 12 b0 01 40
        E 42 b0 01 41
        E 11 b0 01 40
        E 6 b0 01 3f
        E 7 b0 01 3e
        E 6 b0 01 3d
        E 6 b0 01 3c
        E 5 b0 01 3a
        E 6 b0 01 38
        E 6 b0 01 37
        E 6 b0 01 35
        E 7 b0 01 33
        E 6 b0 01 31
        E 5 b0 01 2f
        E 6 b0 01 2d
        E 6 b0 01 2b
        E 6 b0 01 28
        E 5 b0 01 26
        E 6 b0 01 23
        E 6 b0 01 21
        E 6 b0 01 1e
        E 5 b0 01 1b
        E 6 b0 01 18
        E 7 b0 01 15
        E 6 b0 01 11
        E 6 b0 01 0d
        E 6 b0 01 09
        E 5 b0 01 06
        E 6 b0 01 03
        E 6 b0 01 02
        E 6 b0 01 00
        E 699 80 44 72
        E 529 90 3a 7b
        E 253 90 3e 6c
        E 21 80 3a 6a
        E 224 90 3f 7f
        E 9 80 3e 69
        E 672 80 3f 78
        E 5 90 41 6c
        E 256 90 44 7f
        E 3 80 41 63
        E 708 80 44 67
        E 0 90 43 74
        E 245 80 43 69
        E 0 90 41 70
        E 243 90 3f 79
        E 25 80 41 61
        E 750 80 3f 6e
        E 406 90 43 77
        E 236 90 41 6c
        E 25 80 43 59
        E 216 90 3f 77
        E 16 80 41 5f
        E 252 80 3f 63
        E 3 90 3e 6c
        E 699 90 41 6c
        E 8 80 3e 69
        E 502 90 3f 77
        E 29 80 41 5f
        E 436 80 3f 6b
        E 0 90 3e 6c
        E 267 80 3e 68
        E 7 90 3c 77
        E 685 90 3f 6d
        E 19 80 3c 5f
        E 716 80 3f 6f
        E 0 90 3e 6c
        E 230 90 3f 6d
        E 13 80 3e 62
        E 236 80 3f 73
        E 13 90 3c 6c
        E 717 80 3c 64
        E 468 90 48 7f
        E 228 90 43 72
        E 13 80 48 61
        E 225 80 43 69
        E 4 90 41 74
        E 240 90 3f 7b
        E 23 80 41 60
        E 705 80 3f 76
        E 469 90 3e 74
        E 243 90 3f 77
        E 23 80 3e 61
        E 226 80 3f 62
        E 0 90 3e 6c
        E 254 90 3f 70
        E 13 80 3e 64
        E 681 80 3f 75
        E 491 90 3e 7d
        E 222 80 3e 5e
        E 4 90 3f 7f
        E 52 80 3f 78
        E 53 90 3f 7f
        E 98 80 3f 68
        E 40 90 41 7d
        E 160 80 41 5f
        E 59 90 43 7f
        E 670 80 43 68
        E 50 90 43 7f
        E 527 90 48 7f
        E 10 80 43 59
        E 458 90 4a 72
        E 16 80 48 69
        E 483 90 48 7d
        E 7 80 4a 61
        E 456 80 48 6d
        E 5 90 43 7f
        E 102 b0 01 02
        E 6 b0 01 03
        E 5 b0 01 05
        E 6 b0 01 06
        E 6 b0 01 08
        E 6 b0 01 09
        E 5 b0 01 0a
        E 8 b0 01 0b
        E 5 b0 01 0c
        E 12 b0 01 0e
        E 6 b0 01 0f
        E 11 b0 01 10
        E 6 b0 01 11
        E 11 b0 01 12
        E 6 b0 01 13
        E 6 b0 01 14
        E 30 b0 01 15
        E 12 b0 01 16
        E 18 b0 01 18
        E 12 b0 01 19
        E 11 b0 01 1a
        E 31 b0 01 1b
        E 17 b0 01 1d
        E 12 b0 01 1e
        E 11 b0 01 1f
        E 13 b0 01 20
        E 12 b0 01 21
        E 11 b0 01 23
        E 12 b0 01 24
        E 5 b0 01 25
        E 13 b0 01 26
        E 6 b0 01 27
        E 12 b0 01 28
        E 11 b0 01 29
        E 12 b0 01 2a
        E 11 b0 01 2c
        E 12 b0 01 2d
        E 7 b0 01 2e
        E 23 b0 01 2f
        E 19 b0 01 30
        E 5 b0 01 31
        E 12 b0 01 32
        E 11 b0 01 33
        E 12 b0 01 34
        E 13 b0 01 35
        E 11 b0 01 36
        E 12 b0 01 37
        E 11 b0 01 38
        E 12 b0 01 39
        E 11 b0 01 3a
        E 13 b0 01 3b
        E 12 b0 01 3c
        E 11 b0 01 3d
        E 31 b0 01 3f
        E 23 b0 01 41
        E 11 b0 01 42
        E 6 b0 01 43
        E 13 b0 01 44
        E 12 b0 01 45
        E 17 b0 01 46
        E 11 b0 01 47
        E 13 b0 01 48
        E 12 b0 01 49
        E 11 b0 01 4a
        E 12 b0 01 4c
        E 6 b0 01 4d
        E 5 b0 01 4e
        E 6 b0 01 4f
        E 13 b0 01 50
        E 12 b0 01 52
        E 17 b0 01 54
        E 6 b0 01 55
        E 11 b0 01 56
        E 19 b0 01 57
        E 59 b0 01 55
        E 6 b0 01 54
        E 5 b0 01 53
        E 6 b0 01 52
        E 6 b0 01 51
        E 6 b0 01 50
        E 7 b0 01 4f
        E 6 b0 01 4d
        E 5 b0 01 4c
        E 6 b0 01 4b
        E 6 b0 01 49
        E 6 b0 01 48
        E 5 b0 01 46
        E 6 b0 01 45
        E 6 b0 01 44
        E 7 b0 01 42
        E 6 b0 01 41
        E 6 b0 01 3f
        E 5 b0 01 3e
        E 6 b0 01 3c
        E 6 b0 01 3b
        E 6 b0 01 39
        E 6 b0 01 38
        E 5 b0 01 36
        E 6 b0 01 35
        E 6 b0 01 34
        E 7 b0 01 32
        E 6 b0 01 31
        E 6 b0 01 30
        E 5 b0 01 2e
        E 6 b0 01 2d
        E 6 b0 01 2c
        E 6 b0 01 2a
        E 5 b0 01 29
        E 6 b0 01 28
        E 7 b0 01 26
        E 6 b0 01 25
        E 6 b0 01 24
        E 6 b0 01 23
        E 5 b0 01 22
        E 6 b0 01 21
        E 6 b0 01 1f
        E 6 b0 01 1e
        E 7 b0 01 1d
        E 6 b0 01 1c
        E 5 b0 01 1a
        E 6 b0 01 18
        E 6 b0 01 17
        E 6 b0 01 15
        E 5 b0 01 13
        E 6 b0 01 11
        E 6 b0 01 10
        E 7 b0 01 0e
        E 6 b0 01 0c
        E 6 b0 01 0b
        E 5 b0 01 09
        E 6 b0 01 07
        E 6 b0 01 06
        E 6 b0 01 04
        E 5 b0 01 02
        E 6 b0 01 01
        E 6 b0 01 00
        E 240 80 43 68
        E 42 90 43 79
        E 251 90 44 7f
        E 16 80 43 67
        E 694 90 4a 74
        E 13 80 44 71
        E 269 90 4b 7d
        E 9 80 4a 64
        E 444 90 4a 6d
        E 9 80 4b 6e
        E 459 80 4a 68
        E 6 90 44 7f
        E 416 b0 01 01
        E 6 b0 01 02
        E 6 b0 01 03
        E 6 b0 01 04
        E 5 b0 01 05
        E 6 b0 01 06
        E 19 b0 01 08
        E 6 b0 01 09
        E 5 b0 01 0a
        E 12 b0 01 0b
        E 11 b0 01 0c
        E 6 b0 01 0d
        E 12 b0 01 0f
        E 13 b0 01 10
        E 5 b0 01 11
        E 6 b0 01 12
        E 6 b0 01 13
        E 6 b0 01 14
        E 6 b0 01 15
        E 5 b0 01 16
        E 6 b0 01 17
        E 6 b0 01 18
        E 6 b0 01 1a
        E 5 b0 01 1b
        E 13 b0 01 1c
        E 6 b0 01 1d
        E 12 b0 01 1e
        E 11 b0 01 1f
        E 6 b0 01 20
        E 13 b0 01 21
        E 11 b0 01 23
        E 12 b0 01 24
        E 6 b0 01 25
        E 5 b0 01 26
        E 13 b0 01 27
        E 12 b0 01 29
        E 11 b0 01 2b
        E 12 b0 01 2d
        E 6 b0 01 2e
        E 11 b0 01 2f
        E 6 b0 01 30
        E 7 b0 01 32
        E 12 b0 01 33
        E 11 b0 01 35
        E 12 b0 01 36
        E 18 b0 01 38
        E 18 b0 01 3a
        E 23 b0 01 3b
        E 11 b0 01 3c
        E 13 b0 01 3e
        E 12 b0 01 3f
        E 5 b0 01 40
        E 12 b0 01 41
        E 13 b0 01 42
        E 17 b0 01 43
        E 12 b0 01 44
        E 6 b0 01 45
        E 17 b0 01 46
        E 30 b0 01 47
        E 29 b0 01 46
        E 7 b0 01 45
        E 12 b0 01 44
        E 5 b0 01 43
        E 6 b0 01 42
        E 6 b0 01 41
        E 6 b0 01 40
        E 5 b0 01 3f
        E 6 b0 01 3d
        E 6 b0 01 3c
        E 7 b0 01 3b
        E 6 b0 01 39
        E 6 b0 01 38
        E 5 b0 01 36
        E 6 b0 01 35
        E 6 b0 01 34
        E 6 b0 01 32
        E 5 b0 01 30
        E 8 b0 01 2f
        E 5 b0 01 2e
        E 6 b0 01 2c
        E 6 b0 01 2a
        E 6 b0 01 29
        E 5 b0 01 27
        E 6 b0 01 25
        E 6 b0 01 23
        E 7 b0 01 21
        E 6 b0 01 1f
        E 6 b0 01 1d
        E 5 b0 01 1b
        E 6 b0 01 18
        E 6 b0 01 16
        E 6 b0 01 14
        E 5 b0 01 12
        E 6 b0 01 10
        E 6 b0 01 0e
        E 6 b0 01 0c
        E 5 b0 01 0a
        E 8 b0 01 09
        E 5 b0 01 07
        E 6 b0 01 06
        E 6 b0 01 04
        E 6 b0 01 03
        E 5 b0 01 01
        E 6 b0 01 00
        E 592 80 44 7a
        E 508 90 46 7f
        E 235 90 4a 70
        E 20 80 46 6e
        E 215 80 4a 5b
        E 21 90 4b 7f
        E 692 80 4b 77
        E 3 90 4d 72
        E 226 90 50 7f
        E 8 80 4d 63
        E 713 90 4f 7d
        E 3 80 50 70
        E 242 80 4f 6a
        E 0 90 4d 77
        E 252 90 4b 7f
        E 20 80 4d 62
        E 677 80 4b 76
        E 511 90 4f 7f
        E 215 90 4d 6c
        E 25 80 4f 67
        E 221 90 4b 7f
        E 20 80 4d 5f
        E 468 90 4a 7d
        E 6 80 4b 6f
        E 481 90 4d 7f
        E 3 80 4a 69
        E 509 90 4b 7f
        E 16 80 4d 61
        E 441 80 4b 60
        E 1 90 4a 6c
        E 252 90 48 7d
        E 6 80 4a 69
        E 687 80 48 5b
        E 55 90 4b 7f
        E 715 80 4b 6e
        E 5 90 4a 77
        E 206 80 4a 68
        E 51 90 4a 7b
        E 229 80 4a 69
        E 3 90 48 7f
        E 989 80 48 61
        E 178 90 48 7f
        E 236 90 43 7d
        E 7 80 48 67
        E 256 80 43 69
        E 6 90 41 7b
        E 246 90 3f 7f
        E 26 80 41 67
        E 676 90 43 7f
        E 1 80 3f 79
        E 479 80 43 63
        E 222 90 43 78
        E 252 90 4b 7d
        E 2 80 43 5f
        E 234 80 4b 73
        E 0 90 4a 6a
        E 254 90 48 68
        E 10 80 4a 69
        E 225 90 47 6f
        E 26 80 48 6d
        E 230 90 48 78
        E 7 80 47 69
        E 298 b0 01 01
        E 23 b0 01 03
        E 12 b0 01 04
        E 13 b0 01 05
        E 5 b0 01 06
        E 12 b0 01 07
        E 12 b0 01 08
        E 11 b0 01 09
        E 12 b0 01 0a
        E 7 b0 01 0b
        E 6 b0 01 0c
        E 5 b0 01 0d
        E 6 b0 01 0e
        E 12 b0 01 0f
        E 11 b0 01 10
        E 13 b0 01 11
        E 12 b0 01 12
        E 11 b0 01 14
        E 19 b0 01 15
        E 17 b0 01 16
        E 12 b0 01 17
        E 11 b0 01 18
        E 12 b0 01 1a
        E 13 b0 01 1b
        E 11 b0 01 1c
        E 12 b0 01 1d
        E 5 b0 01 1e
        E 6 b0 01 1f
        E 6 b0 01 20
        E 7 b0 01 21
        E 6 b0 01 22
        E 4 b0 01 23
        E 7 b0 01 24
        E 6 b0 01 25
        E 6 b0 01 26
        E 11 b0 01 27
        E 6 b0 01 28
        E 12 b0 01 2a
        E 13 b0 01 2b
        E 5 b0 01 2c
        E 12 b0 01 2d
        E 17 b0 01 2e
        E 13 b0 01 30
        E 12 b0 01 31
        E 11 b0 01 32
        E 12 b0 01 33
        E 11 b0 01 34
        E 13 b0 01 35
        E 12 b0 01 37
        E 23 b0 01 38
        E 19 b0 01 39
        E 11 b0 01 3a
        E 17 b0 01 3b
        E 18 b0 01 3c
        E 11 b0 01 3d
        E 13 b0 01 3e
        E 12 b0 01 3f
        E 5 b0 01 40
        E 12 b0 01 41
        E 11 b0 01 42
        E 19 b0 01 44
        E 12 b0 01 45
        E 11 b0 01 46
        E 25 b0 01 47
        E 17 b0 01 48
        E 11 b0 01 49
        E 19 b0 01 4a
        E 65 b0 01 49
        E 6 b0 01 48
        E 5 b0 01 47
        E 6 b0 01 46
        E 6 b0 01 45
        E 6 b0 01 44
        E 6 b0 01 43
        E 5 b0 01 42
        E 7 b0 01 41
        E 5 b0 01 40
        E 7 b0 01 3f
        E 6 b0 01 3d
        E 6 b0 01 3c
        E 5 b0 01 3b
        E 6 b0 01 3a
        E 6 b0 01 39
        E 6 b0 01 38
        E 7 b0 01 37
        E 6 b0 01 36
        E 11 b0 01 34
        E 6 b0 01 33
        E 11 b0 01 32
        E 6 b0 01 31
        E 6 b0 01 30
        E 7 b0 01 2f
        E 12 b0 01 2e
        E 5 b0 01 2d
        E 6 b0 01 2c
        E 6 b0 01 2b
        E 6 b0 01 29
        E 5 b0 01 28
        E 6 b0 01 27
        E 6 b0 01 26
        E 6 b0 01 25
        E 5 b0 01 24
        E 8 b0 01 23
        E 5 b0 01 22
        E 6 b0 01 21
        E 6 b0 01 20
        E 6 b0 01 1f
        E 5 b0 01 1d
        E 6 b0 01 1c
        E 6 b0 01 1b
        E 6 b0 01 1a
        E 7 b0 01 18
        E 6 b0 01 17
        E 5 b0 01 16
        E 6 b0 01 15
        E 6 b0 01 14
        E 6 b0 01 13
        E 5 b0 01 12
        E 6 b0 01 11
        E 6 b0 01 0f
        E 7 b0 01 0e
        E 12 b0 01 0d
        E 5 b0 01 0c
        E 6 b0 01 0b
        E 6 b0 01 0a
        E 19 b0 01 08
        E 11 b0 01 06
        E 12 b0 01 05
        E 5 b0 01 04
        E 6 b0 01 03
        E 6 b0 01 01
        E 6 b0 01 00
        E 345 80 48 67
        E 2 b0 7b 00
        CCINTERP 32
        CHASE_CC_TAKEOFFS 1
        GUID {C43DD70D-AA68-A24B-A17C-A2949C89D600}
        IGNTEMPO 0 120 4 4
        SRCCOLOR 1
        VELLANE -1 100 0
      >
    >
  >
  <TRACK {8296FF66-BBD7-D44D-9D25-6A5B5AEA00F9}
    NAME "Muted Gtr"
    PEAKCOL 16576
    BEAT -1
    AUTOMODE 0
    VOLPAN 0.01629561165248 0 -1 -1 1
    MUTESOLO 0 0 0
    IPHASE 0
    PLAYOFFS 0 1
    ISBUS 0 0
    BUSCOMP 0 0 0 0 0
    SHOWINMIX 1 0.6667 0.5 1 0.5 0 0 0
    SEL 0
    REC 0 0 0 0 0 0 0 0
    VU 2
    TRACKHEIGHT 61 0 0 0 0 0
    INQ 0 0 0 0.5 100 0 0 100
    NCHAN 2
    FX 1
    TRACKID {8296FF66-BBD7-D44D-9D25-6A5B5AEA00F9}
    PERF 0
    MIDIOUT -1
    MAINSEND 1 0
    <FXCHAIN
      WNDRECT 576 201 829 704
      SHOW 1
      LASTSEL 0
      DOCKED 0
      BYPASS 0 0 0
      <VST "VST3: Cardinal (DISTRHO) (18ch)" Cardinal.vst3 0 "" 1337116505{2046504473616C636E64436400000000} ""
        WceyT+5e7f4SAAAAAQAAAAAAAAACAAAAAAAAAAQAAAAAAAAACAAAAAAAAAAQAAAAAAAAACAAAAAAAAAAQAAAAAAAAACAAAAAAAAAAAABAAAAAAAAAAIAAAAAAAAABAAA
        AAAAAAAIAAAAAAAAABAAAAAAAAAAIAAAAAAAAABAAAAAAAAAAIAAAAAAAAAAAAEAAAAAAAAAAgAAAAAAEgAAAAEAAAAAAAAAAgAAAAAAAAAEAAAAAAAAAAgAAAAAAAAA
        EAAAAAAAAAAgAAAAAAAAAEAAAAAAAAAAgAAAAAAAAAAAAQAAAAAAAAACAAAAAAAAAAQAAAAAAAAACAAAAAAAAAAQAAAAAAAAACAAAAAAAAAAQAAAAAAAAACAAAAAAAAA
        AAABAAAAAAAAAAIAAAAAAAoSAAABAAAA//8QAA==
        +hEAAAEAAABfX2RwZl9zdGF0ZV9iZWdpbl9fAGNvbW1lbnQAAG1vZHVsZUluZm9zAHt9AHBhdGNoAEtMVXYvUUJJSlYwQUdwMGdHejlBYmRJWU0rTVlobUVZaGdkbWJI
        YjQwWU1kbzRtd3VudTdpYkkxK3BMS0lnVHhkYXlMdURGOGxRMVFRUDVQUDZXVVVpSmtLM0QrV0l1Y3UxbUpVUWF4QVpRQm93Rk9XV3YvbmM2VzllN201ckxQOXMvcHZG
        c1o5MnF1YTgvU1c1bXhERlhXM2puSHI4Mnhmc2F1MzdXV25iMnMzTFk1YzhkU20zUE56OXd0ODVuajFzMDNXYnY4WDhmZTY5K3lYMWw2WStaeTJlMXFCNGlKa09VOHk1
        RUlXYThDTlJZTEViR2lvWm9wS3locFFra1U5VFFzaEN6b09WTEZ1bmdRMUVpd0VMS2laNklDVFJDWnVxbnR5cnZPelJDeW5HY2hJaUl5T0tBOHFPSklGUXVSQWJFQmtm
        SDl6dFl4NXRvOTg5bVJpSWdNQ01mY3VrMTN6WGFhRGw1RVJFWUZDRm5WbzB3bUdKeUhtbGlJREloMEtFSldoU1J0c0JBWkVNdENZdUZ3bW9sNkZOVUNrVVlrdzRVTUZS
        NlVSeUdwbXVrQk5kSGpVQTJGUjBWSjAxU0p3RWg2cWtieVFOTTA0WEZCTlpURTg4QmpJV1JSVk0yMEVCa1FTeDNxMklXUUZVa1BoWG9XQzVIQkFUUE81ZWQ5VisxbW1S
        bEpGQXNjRkpLcW1TS09oOE54YWNhWnVTd1BSd09FQTBSb1lBUVAzQ0lCZ09WSm9pWjZGaEkxT1I0MFRZMmpRcElVQU1CQ3dMSXNIeXpMRXNLU1FZT0dDVXNJeTdKSVdK
        WUZnMlZaZGxtV0FaWmxrYkFnQlJpQkFTWE5oV1dSc0FoZ1FBQ1lDOVZVbEVyaXd0WS9FMzNabVRtOUZiazNNeGQwLzh4Y0hCRkh2ZzdHZ05CazJlK2MwMit2ckRubmN0
        dDB6NmxObXpxNi9kMm12N0pybHF5N2FXdXpYcWJkemZHY3VlNHVzN21idStPWCt6M1plekxYT0owQm9kbXZqRmxmR1h2bVN2T3FCb29ndGJIV2NyY3hzN3RsVFRIeFVP
        cTRwVFozYjdaM2k0eUtrcUFwNGtrZXFtb3NvQ2FpZWFnSjZvOENOUk9FTEtxQnBPbUpLaFFKS2JvZ1FrbFZJM21jNkZtSXIwSlZDRmtWRmNxU2NDTFIwMHhFcXNvVVBS
        V1JpZWlacGdlUy9HNXIxOTN5L2I4aFpEa1dIbFJ4cEF2VjVFSEllTmFZYmt0bnJabTV5cHF6L3MxMDV4enZ2bnV6ZlczS25IT3V6ZXJMKzlxWm1abk1yTFhQWmRvY2M4
        NXhybXZNTlZ2bmZPY2NxMm8vdXp0dnUzUHVjNXNiYjNKYnpzeGxxazJEaDZxYUN3M3BjU3JOaEtSQTI5OXUzVzI5amhjaHkza1dZNE5LMDlwUWdVVXpBZlVvRmNxVFBK
        SUVGWlhJNHFra0U1em1VUk1GZWhidmdhb3lWUlVNVDFKeEhpVjVKQW9La3VpQzRrZ1hKaWJvb29FbXl1TXNoS3dIWFZRUjBJdWFhZVZDVmxNMXp0cUFqSFIxN1prM2Iy
        dG51OGJNelpqbWRpL2pUZmJsWlc1bC9QcmJiQm56WmVaZDV3S1B3dXFSd0Fhck40RlJJNG1ZaUhGSVVNL2lVVWhCcVVCNDBUd0twS2llRE5CcEpwUThrVFJkUU5LRVQv
        SklGdGdpSm1JaVJpSURwOUZvTEtheG1FYWowV2cwR2cxRVRNQUI0VUFnQVF3UUdCQ0FpRUFnQitTQUdER0lDeUdyMHVCVmJ5RytTSUpnSVdSTlJBMjBFQi8wVEJZaUpW
        V1BzMENsd2RPZ2J2dTlhVzg3ZCt1c09USlVYWHZtMmNxdWs1bG42djg2WmxWMjZwYlZ0ZnZtMnBHTlpVQm9wMnV2djgwMTNlNjNReHNZR0tnb0pwNEYvcjgxODI1N3Av
        MHNHNi91djNaenU3ZG54K3FEcHVuSlFLbWlWMUdoS2twazRVRVNqMU9aa000T1JjaXFxR2NSUGNoUVpaYXVXZlBjVkhma2NtdWU3YjlNMC9tN0k1R1J1K3lXTWV1NjFm
        Yk1YRTd2L3Q0TUVSVW1OQmpUYmRxTzJXMnJhNjI5UDA4VUo1S2VxcUVxVlJOUlZhYXFJbDFVajhWVFBaVG9SVlNWS1hxaUZ5RUJoWXNHZWhVZU5TM0VxakpGRmg2bE1w
        azhqdk9pU3ZXZ2lRbEp3OXZnUFdxeUVKRUJFYjBOSkdxQ2pHUjEyOVlsYzgzTW5jblNHZlBtMVZ6WG5ubnJxaU1aeXZLVGFXT1dMbDI2YkcyZjJkd3A2M3RiZHFUNy9Q
        NTAvUDF1TlZ0ait0MDhtVFcvQ3gwd05pQXlXcFBzWEZ0M3F0cFcxL1YzV1orOTMxV1owOWJZZWp1VFNmTHpNdit1dW0zdXo1dzZ6djluN3U2eTNmTTZ1OG5Fc2FCTlcv
        ZStNc3UyM3M3Y3ErL08ydXUzc3o2WjhMKzNWc2FzL1hMdmJ6TFd5ODJPdmIzZjJaTlFiVzNiTS9ldU5lTnN5Zi9kUEx1MXRqK1pyRC83Nzh4MnpHMjJ1bmFlTWRmT3VM
        MDExWjlNbnNTNnV6THo5R3pQMUxWM3JiczE5V1h2MmN5OXFqNkp5V1NkV2ZYZFhYWS9hM2QrTWxuZjllejl4cjdPTzduWk05Vm1MWjFUdDdWZXh1dVRTV3VxaXZTNTJk
        cDVaNmRyMWpXWlRDYnJEd3NoaTVJZ1NSSTkwYk1zVkthcUlqWG51MzdOMXR3bmE0bEdVbFdrS0dvb0tGU1ZLWHFrQzA0YlFoYUZwSG9pcUNnTnRDNGdhVm9JV1JUb1JW
        RkRJVm1JeUlDZ3FDU3Bnckltb2laREJwT0ZDaFl1TEVNRzlTcm9ZVURpTEVSa3BLNzBPSlVKRlVWeVFCc1VsZk5rRURHUkRoSERNQStHUVlaNWVIaDRlSGpnNCtFaFlo
        NzQ2SUFkc0FQRElNTmdoNGg1NElOaGtHRTRkSWlZUnlTQ0dJa3dFZE9oUThRZzR1TVJpVVFpRE1Nd0hCb05EbytJaVJqS3EzaXFWeUZSc0lxYVNLSUVna3lvNHZJWU1n
        Z1pBQVRBQ0swQlFBSENDeEFHd3lnSnBiWE1BQkpnVUJnUXlMRWNoREFReEZBZ2hBQmlHRUlFQUFBSU1RQW9DRVF4QWdEWlJKOUJEQk5yRE5FcUFnWTE3Mzd1aWJmbHhz
        aDVHMFFMQk1TQ2tOaWl4RitnOWtEVkV6UVNPVGEwQ3lVNjlFL1UyVnBna2ZPNWdmQk9pR2VnVGswdm56b3FEUUNhN0RRZ0hzSkk2aE1vdHp5VUllZjlHNlVWZzQyS0ZS
        bmw4Y3RQU1ZnSzRya0FwSTJQYm5mNXFyRjdTODVuSTRGZ0dxcTBscVo3K1BmalNRN09rQStiVFNZeDlRSUNsVGpWdGRLckNVdnVUdUNoTzBlQXIzK21KSzA4cU1Jelk3
        RnZXaWxjZGcyWDhYSkFPVjVKUW9DcG1TVklnQndWOXNCOE5TRE53Z0FxOUFudHRhRWRiR2h1MzBhZ0RXN1FyeHFhSTJCTkxLakZLZm5WMWppOG9iQUc1MitoN3Y4ZER3
        RGI0UnlvOWtCU0k2a2FoeHJSTjRVVFJqZ2dHQ05vaHh0dmRUajNGYzlBbHlFb0prcmt6cFhWNVJRUVRqa2grczdKeU9FT0FoUzNidHUyZFc5cnlqYVgrM2c0NXlUK2Zh
        RHRnSk5uVGU5Y2t1STRwR1NseEV0Q2lhZFFUeU5zNnBvdEFZOWtiUFF1U0dtT0FoVWo1dHdnTFpFSDBRM0MxYzdOZ3FDNVFTRFBhSHlCSjNvNCtJNnRGby9tVEE5K2hm
        U3N1dm1ZTndVQUFHZjBjMTNaYjEzVmZXNldiYU9xTjgrRE1xOEdBRFp3bURNUXpKbTNWQVRTV1Z4aUZIL3FVYU1qc0lvU2FpT3FEZ0FzVWFtcFpWN2Uzc2hlOVpvT2cz
        NE1OU3VzQUhrc3FhTW9PaTN4ZU03V3pvRHBuSWgzbXA4VE5Dd3ZNMzIyR211R21KeW9BSkRsbmdWVDNMZENEenpXMnoxWVZRUkVTWTk1REtLUXgzQzVPelJzcUhTbGt6
        Q2pyRmFqMEY2Nit4Q25ETXdFd3NycVF5aFloQUZZNUJRNkNVNmNlSWlFNEI4UE1penFEV2VldWlmanByTWhaVDRnbExPeElxOTF5NlkxSldzdkdPdXNHbHZVek9TSGdQ
        M2M1UVFsc0UyTVd4RnNvZ3Mxa1hiWDBCSmhwMEJrYUYyK21PSmZQYW52ZjlnOUFvZnNQakYxZG9TVURPakRGMGhNbTFkYlRrdk5CUlkzM3NSNE9UQUM2WndRSlBMT1Iy
        WFN4QWU5WGVXbkZ3SWhiSU5XQTZGbHZFbFJXYkVnTUEyY2d0ZkxkdkZPQm9YVUw5bVdhaW9ha09PZkpLWlRaUzRoTEZHYVNxckRBMzNqdTRMb0dtWU9kWmJoTS8ycWhX
        R2g3cWVXaFVrSjE4SVFBN2FERGEwbWhueWJuS1Btd1VWdGlWRm1oNmhpVHdndlN3dGx2NUdXaDV4Z3NmSW5XK0pBSm1HQmF6NktvRlFaaGJjYXJXQlV1Y0FDeXBCVHo3
        NGNWUzhkVFQvOVdheXh2Z0pZWko2cm9HSVpmeE9nWDBsSmZJQWFmN25KLzhzaFBDMkZwVDQ4OEZ4THdMekdHUGRraUpsd2VNbm00M0NYVFVEU05HWk5aSjVwSkZKSkpj
        cUdmU1V5TUN2eVlFRjl3bFZJbGZnUW9vUHNLZFlOTEZ3OGJ1M2hFMTRGQzFqWldaSXNNcWgwWkpTQjlPL0xJeVdyWnFjWTQ5MUJmditQUGhqdDJCdytsVnJpVS8xVkFr
        R3FKRnNiaUZkTk91VW52UHFwOEhtbG1pOGpKQklSTGM5ejBCVW8xQkJVR09GMEtXc01jWDN5QkZ5USt1WGluYXVzeTFHSzZLZFZCdXpvdTE3clU1MEVmaHJ5NGFBVnJ1
        WXd4akxUYkt6TE93d1ZMeHh5N2hZWFl0WFpaYlNBZEFmRUEzSW0xWHRpZ3JidTV1QVJJWk1UbE9aQWNrRTZ6TFduUU9vRWhVR2ZIeUF3ak03UUFSR0syelJncVh3R1Zi
        ck40UnprNEk5SFhUMjJCcVVad0huekRvQ1dMd3Y2Z0xkTWlyN2ZIdVdobzFWZzZqSTBCckIzRGRIT0ZLMU42ZksvalVJaHhyQ3phUVU2NTVxdlJPOVkvb3JmN24zQmVU
        TzA5ckF5Zm12Sjh3PT0Ac2NyZWVuc2hvdAAAd2luZG93U2l6ZQA3MjQ6NjIzAF9fZHBmX3N0YXRlX2VuZF9fAF9fZHBmX3BhcmFtZXRlcnNfYmVnaW5fXwBwYXJhbV8x
        ADAAcGFyYW1fMgAwAHBhcmFtXzMAMABwYXJhbV80ADAAcGFyYW1fNQAwAHBhcmFtXzYAMABwYXJhbV83ADAAcGFyYW1fOAAwAHBhcmFtXzkAMABwYXJhbV8xMAAwAHBh
        cmFtXzExADAAcGFyYW1fMTIAMABwYXJhbV8xMwAwAHBhcmFtXzE0ADAAcGFyYW1fMTUAMABwYXJhbV8xNgAwAHBhcmFtXzE3ADAAcGFyYW1fMTgAMABwYXJhbV8xOQAw
        AHBhcmFtXzIwADAAcGFyYW1fMjEAMABwYXJhbV8yMgAwAHBhcmFtXzIzADAAcGFyYW1fMjQAMABkcGZfYnlwYXNzADAAdG9vbHRpcHMAMQBjYWJsZU9wYWNpdHkANTAA
        Y2FibGVUZW5zaW9uADc1AHJhY2tCcmlnaHRuZXNzADEwMABoYWxvQnJpZ2h0bmVzcwAyNQBrbm9iTW9kZQAwAGtub2JTY3JvbGwAMABrbm9iU2Nyb2xsU2Vuc2l0aXZp
        dHkAMQBsb2NrTW9kdWxlcwAwAHJhdGVMaW1pdAAwAGJyb3dzZXJTb3J0ADMAYnJvd3Nlclpvb20ANTAAaW52ZXJ0Wm9vbQAwAF9fZHBmX3BhcmFtZXRlcnNfZW5kX18A
        /gAAAAAAAAAAAA==
        AAAQAAAA
      >
      FLOATPOS 0 0 0 0
      FXID {9F04548F-FC45-AE42-BFCE-ECC73F9EC5C6}
      WAK 0 0
      <COMMENT
        IA==
      >
    >
    <ITEM
      POSITION 0
      SNAPOFFS 0
      LENGTH 350.96757745293559
      LOOP 1
      ALLTAKES 0
      FADEIN 1 0 0 1 0 0 0
      FADEOUT 1 0 0 1 0 0 0
      MUTE 0 0
      SEL 1
      IGUID {26BB701A-53D4-8B44-973E-E8CF24958C2E}
      IID 2
      NAME "Steel String/Muted Gtr. - 1-6--3-2_geth-1.mid"
      VOLPAN 1 0 1 -1
      SOFFS 0 0
      PLAYRATE 1 1 0 -1 0 0.0025
      CHANMODE 0
      GUID {8519019E-E84E-E045-89F6-5E11E22AC651}
      <SOURCE MIDI
        HASDATA 1 480 QN
        CCINTERP 32
        POOLEDEVTS {1BFE72D1-99B7-6540-981D-421050999F65}
        <X 0 0 0 0 3 "Steel String/Muted Gtr."
          /wNTdGVlbCBTdHJpbmcvTXV0ZWQgR3RyLg==
        >
        E 0 b1 00 00
        E 0 b1 20 01
        E 0 c1 19 00
        E 0 b1 07 72
        E 0 b1 0a 50
        E 1876 b1 40 7f
        E 0 91 2e 5b
        E 128 91 35 3d
        E 122 91 3a 3d
        E 114 81 3a 17
        E 17 91 3d 3f
        E 104 81 3d 53
        E 39 81 35 0d
        E 73 91 3c 42
        E 119 81 3c 50
        E 5 91 3a 44
        E 105 81 2e 45
        E 9 91 35 3a
        E 27 81 3a 1d
        E 91 b1 40 00
        E 0 91 2e 5b
        E 17 81 35 49
        E 71 b1 40 7f
        E 42 91 35 3b
        E 119 91 3a 3b
        E 126 81 3a 19
        E 4 91 3d 3a
        E 63 81 35 10
        E 26 81 3d 4f
        E 141 91 3c 43
        E 117 81 3c 54
        E 0 91 3a 49
        E 85 81 2e 54
        E 36 81 3a 4a
        E 0 91 35 39
        E 116 81 35 50
        E 6 b1 40 00
        E 2 91 2e 5f
        E 134 91 35 36
        E 118 91 3a 3f
        E 30 b1 40 7f
        E 101 81 3a 4a
        E 3 91 3d 3f
        E 128 81 3d 54
        E 40 81 35 1d
        E 66 91 3c 42
        E 114 81 3c 4c
        E 4 91 3a 4a
        E 113 81 3a 37
        E 1 81 2e 53
        E 3 91 35 39
        E 118 b1 40 00
        E 3 91 2e 5f
        E 3 81 35 48
        E 117 91 35 35
        E 2 b1 40 7f
        E 117 91 3a 44
        E 125 81 3a 21
        E 8 91 3d 42
        E 110 81 3d 4f
        E 34 81 35 02
        E 92 91 3c 43
        E 116 81 3c 4f
        E 0 91 3a 46
        E 104 81 2e 57
        E 6 91 35 3b
        E 6 81 3a 3e
        E 102 81 35 2a
        E 23 91 2e 5b
        E 3 b1 40 00
        E 112 b1 40 7f
        E 9 91 35 31
        E 129 91 3a 3f
        E 126 91 3d 47
        E 11 81 3a 54
        E 71 81 35 01
        E 28 81 3d 4d
        E 111 91 3c 42
        E 118 81 3c 48
        E 10 91 3a 41
        E 100 81 3a 4c
        E 7 91 35 3d
        E 104 81 35 3b
        E 8 b1 40 00
        E 9 81 2e 62
        E 3 91 2c 5f
        E 114 b1 40 7f
        E 11 91 35 37
        E 133 91 3a 46
        E 132 81 3a 55
        E 0 91 3d 46
        E 94 81 3d 4f
        E 39 81 35 1f
        E 83 91 3c 41
        E 112 91 3a 4a
        E 16 81 3c 44
        E 102 91 35 3e
        E 34 81 3a 26
        E 54 81 35 57
        E 35 91 2a 5d
        E 6 b1 40 00
        E 14 81 2c 6b
        E 97 91 35 3b
        E 48 b1 40 7f
        E 70 91 3a 47
        E 123 81 3a 3d
        E 12 91 3d 41
        E 43 81 35 01
        E 95 81 3d 54
        E 98 91 3c 3f
        E 114 81 3c 51
        E 1 91 3a 46
        E 77 81 2a 44
        E 34 91 35 3b
        E 6 81 3a 46
        E 92 81 35 49
        E 25 91 29 4c
        E 4 b1 40 00
        E 108 91 35 31
        E 20 b1 40 7f
        E 99 91 3a 42
        E 117 81 3a 2e
        E 19 91 3d 46
        E 83 81 35 01
        E 16 81 3d 40
        E 136 91 3c 3f
        E 116 91 3a 4d
        E 22 81 3c 37
        E 88 91 35 3e
        E 46 81 3a 58
        E 13 81 35 57
        E 72 81 29 55
        E 1 b1 40 00
        E 3 91 27 54
        E 114 91 36 46
        E 7 b1 40 7f
        E 128 91 3a 43
        E 118 91 3f 4b
        E 16 81 3a 18
        E 60 81 3f 60
        E 35 81 36 01
        E 122 91 3d 49
        E 119 81 3d 2a
        E 12 91 3c 42
        E 6 81 27 4f
        E 88 81 3c 57
        E 22 91 3a 4e
        E 76 81 3a 50
        E 26 b1 40 00
        E 22 91 25 52
        E 106 91 36 43
        E 14 b1 40 7f
        E 107 91 3a 43
        E 122 91 3f 49
        E 19 81 3a 4f
        E 25 81 36 2d
        E 54 81 3f 4c
        E 143 91 3d 4a
        E 109 81 3d 44
        E 16 91 3c 3d
        E 7 81 25 51
        E 87 81 3c 51
        E 19 91 3a 46
        E 69 81 3a 50
        E 10 b1 40 00
        E 53 91 24 4d
        E 1 91 30 44
        E 113 91 36 3f
        E 21 b1 40 7f
        E 110 91 3a 3f
        E 119 91 3f 44
        E 81 81 36 01
        E 68 81 3f 4a
        E 75 81 3a 01
        E 20 91 3d 49
        E 115 81 3d 52
        E 9 91 3c 3f
        E 48 81 24 3c
        E 26 81 30 0a
        E 23 81 3c 41
        E 18 91 3a 49
        E 116 b1 40 00
        E 6 91 2e 52
        E 6 81 3a 01
        E 0 91 22 4e
        E 111 91 36 41
        E 60 b1 40 7f
        E 58 91 3a 41
        E 114 91 3f 4e
        E 33 81 3a 42
        E 16 81 36 0a
        E 61 81 3f 39
        E 123 91 3d 52
        E 118 91 3c 43
        E 10 81 3d 36
        E 10 81 2e 54
        E 26 81 22 4c
        E 63 81 3c 57
        E 5 91 3a 4f
        E 56 81 3a 66
        E 52 b1 40 00
        E 13 91 2c 5d
        E 100 b1 40 7f
        E 19 91 33 47
        E 131 91 38 4a
        E 72 81 33 11
        E 36 81 38 5e
        E 6 91 3c 46
        E 176 81 3c 02
        E 80 91 38 44
        E 68 81 38 52
        E 46 91 33 4a
        E 95 81 2c 58
        E 22 81 33 48
        E 0 91 38 4a
        E 69 81 38 59
        E 32 b1 40 00
        E 15 91 2c 5f
        E 103 b1 40 7f
        E 21 91 33 44
        E 120 91 38 4d
        E 101 81 33 01
        E 20 91 3d 5d
        E 8 81 38 58
        E 232 81 3d 5a
        E 10 91 38 4e
        E 85 81 38 54
        E 32 81 2c 5b
        E 14 91 33 59
        E 94 81 33 59
        E 16 91 38 4e
        E 50 81 38 6a
        E 66 b1 40 00
        E 5 91 31 54
        E 118 91 38 4b
        E 7 b1 40 7f
        E 111 91 3d 4d
        E 72 81 38 24
        E 21 81 3d 48
        E 23 91 42 4b
        E 84 81 42 59
        E 145 91 41 3e
        E 123 81 41 44
        E 13 91 3d 4d
        E 93 81 3d 55
        E 15 91 38 4a
        E 67 81 38 60
        E 67 b1 40 00
        E 0 91 25 54
        E 109 91 35 3e
        E 9 b1 40 7f
        E 118 91 38 47
        E 118 91 3f 4e
        E 79 81 3f 57
        E 6 81 35 02
        E 32 81 38 01
        E 142 91 3d 46
        E 43 81 3d 52
        E 74 91 3c 4b
        E 93 81 31 58
        E 5 81 3c 57
        E 3 81 25 50
        E 11 91 38 5d
        E 98 81 38 70
        E 15 b1 40 00
        E 7 91 29 5f
        E 111 91 39 44
        E 110 91 3c 44
        E 123 91 41 46
        E 19 b1 40 7f
        E 139 81 39 55
        E 71 81 41 53
        E 6 91 39 41
        E 53 81 3c 3c
        E 69 91 3c 2b
        E 14 91 3f 4b
        E 6 81 39 57
        E 107 91 39 43
        E 23 81 29 48
        E 56 81 3f 01
        E 23 b1 40 00
        E 4 81 3c 2f
        E 17 81 39 53
        E 2 91 29 56
        E 4 91 35 4e
        E 108 91 39 42
        E 120 91 3c 43
        E 115 91 3d 5b
        E 14 81 3c 61
        E 124 b1 40 7f
        E 92 81 39 4a
        E 9 91 3c 44
        E 40 81 3d 52
        E 12 b1 40 00
        E 70 91 39 46
        E 6 81 3c 5f
        E 26 b1 40 7f
        E 81 91 3c 44
        E 52 81 39 5a
        E 2 81 3c 69
        E 8 81 35 59
        E 51 b1 40 00
        E 11 91 2e 62
        E 13 81 29 5f
        E 100 91 35 41
        E 128 91 3a 4d
        E 130 91 3f 4b
        E 50 b1 40 7f
        E 110 81 3f 53
        E 89 91 3d 4b
        E 30 81 3a 4a
        E 59 81 3d 58
        E 31 91 3c 45
        E 16 81 35 01
        E 99 81 3c 46
        E 1 91 35 43
        E 103 b1 40 00
        E 7 91 22 5b
        E 30 81 35 58
        E 94 b1 40 7f
        E 0 91 35 32
        E 119 91 3a 49
        E 120 91 3d 4b
        E 5 81 3a 50
        E 16 81 22 55
        E 78 81 3d 53
        E 71 81 35 0f
        E 62 91 3c 43
        E 122 91 3a 52
        E 24 81 3c 3c
        E 84 91 35 3f
        E 45 81 3a 2e
        E 21 b1 40 00
        E 16 81 35 57
        E 17 81 2e 62
        E 31 91 2a 54
        E 122 91 36 43
        E 104 b1 40 7f
        E 23 91 3a 47
        E 118 91 3d 49
        E 5 81 3a 48
        E 98 81 36 25
        E 8 81 3d 4c
        E 141 91 3c 41
        E 119 91 3a 46
        E 5 81 3c 5c
        E 90 81 2a 4b
        E 23 91 36 41
        E 12 81 3a 3b
        E 91 b1 40 00
        E 30 91 2a 4f
        E 1 81 36 46
        E 105 b1 40 7f
        E 12 91 36 3f
        E 104 91 3a 46
        E 126 91 3d 46
        E 7 81 3a 53
        E 64 81 36 01
        E 29 81 3d 4b
        E 144 91 3c 41
        E 116 91 3a 46
        E 2 81 3c 55
        E 88 81 2a 3c
        E 20 91 36 3f
        E 18 81 3a 43
        E 61 81 36 45
        E 53 91 29 4f
        E 7 b1 40 00
        E 103 91 35 3b
        E 115 91 3a 49
        E 37 b1 40 7f
        E 88 91 3d 4a
        E 30 81 3a 26
        E 105 81 3d 4d
        E 12 81 35 01
        E 82 91 3c 44
        E 120 81 3c 50
        E 2 91 3a 4d
        E 111 91 35 3e
        E 6 81 3a 43
        E 33 81 29 52
        E 79 b1 40 00
        E 0 91 29 4d
        E 8 81 35 4f
        E 115 91 35 37
        E 24 b1 40 7f
        E 88 91 3a 49
        E 136 91 3d 46
        E 7 81 3a 50
        E 73 81 35 01
        E 40 81 3d 52
        E 114 91 3c 44
        E 123 81 29 5e
        E 8 91 3a 4d
        E 10 81 3c 3b
        E 90 81 3a 51
        E 0 91 35 36
        E 102 81 35 54
        E 30 91 30 4d
        E 2 b1 40 00
        E 118 91 34 3b
        E 59 b1 40 7f
        E 63 91 3a 46
        E 117 81 3a 3e
        E 14 91 3c 42
        E 127 81 34 01
        E 47 81 3c 01
        E 55 91 3a 4a
        E 111 81 3a 50
        E 17 91 34 3b
        E 110 81 30 52
        E 0 91 3a 4e
        E 96 81 34 17
        E 6 b1 40 00
        E 9 91 30 4f
        E 115 81 3a 4b
        E 11 b1 40 7f
        E 0 91 34 3b
        E 118 91 3a 47
        E 118 81 3a 66
        E 0 91 3c 4a
        E 188 81 34 34
        E 41 81 3c 26
        E 9 91 3a 4e
        E 111 81 3a 5b
        E 19 91 34 45
        E 112 91 3a 4a
        E 36 81 34 4b
        E 52 b1 40 00
        E 0 81 3a 5f
        E 17 81 30 61
        E 12 91 29 59
        E 131 91 35 3b
        E 83 b1 40 7f
        E 51 91 39 43
        E 129 91 3c 49
        E 12 81 35 0a
        E 4 81 39 40
        E 229 81 3c 52
        E 3 91 35 41
        E 121 91 3c 45
        E 6 91 39 41
        E 8 81 35 52
        E 45 81 29 3d
        E 55 81 3c 49
        E 5 81 39 24
        E 3 91 35 3f
        E 97 b1 40 00
        E 0 81 35 51
        E 28 91 29 5b
        E 91 b1 40 7f
        E 25 91 39 42
        E 111 91 3c 44
        E 122 91 3f 4e
        E 47 81 39 01
        E 185 81 3f 51
        E 8 91 39 3d
        E 26 81 3c 43
        E 84 91 41 4c
        E 6 91 3c 45
        E 5 81 39 51
        E 110 91 39 45
        E 44 81 41 3e
        E 9 81 3c 44
        E 26 81 39 5b
        E 20 b1 40 00
        E 19 91 2e 66
        E 7 81 29 63
        E 98 91 35 3d
        E 53 b1 40 7f
        E 81 91 3a 4a
        E 118 91 3d 4f
        E 7 81 3a 49
        E 91 81 35 01
        E 34 81 3d 57
        E 96 91 3c 47
        E 119 91 3a 54
        E 19 81 3c 53
        E 88 91 35 3f
        E 8 81 3a 46
        E 84 b1 40 00
        E 7 81 35 4f
        E 22 81 2e 61
        E 5 91 2c 5f
        E 123 91 35 3a
        E 79 b1 40 7f
        E 47 91 3a 4a
        E 123 91 3d 4d
        E 6 81 3a 2e
        E 129 81 3d 54
        E 20 81 35 09
        E 80 91 3c 46
        E 121 91 3a 54
        E 15 81 3c 4c
        E 104 91 35 3f
        E 48 81 3a 01
        E 40 81 35 53
        E 19 b1 40 00
        E 8 91 2a 5f
        E 7 81 2c 62
        E 120 91 35 41
        E 121 91 3a 49
        E 130 91 3d 44
        E 4 81 3a 52
        E 23 b1 40 7f
        E 125 81 3d 55
        E 58 81 35 03
        E 33 91 3c 42
        E 108 81 2a 1b
        E 6 91 3a 4f
        E 20 81 3c 50
        E 88 91 35 3d
        E 15 81 3a 4a
        E 88 91 29 4f
        E 9 b1 40 00
        E 10 81 35 30
        E 109 91 35 3d
        E 11 b1 40 7f
        E 110 91 3a 4d
        E 123 91 3d 4a
        E 10 81 3a 35
        E 127 81 3d 4f
        E 23 81 35 01
        E 63 91 3c 49
        E 75 81 29 54
        E 43 91 3a 4f
        E 38 81 3c 43
        E 69 91 35 42
        E 40 81 3a 68
        E 22 81 35 59
        E 85 b1 40 00
        E 0 91 33 54
        E 118 b1 40 7f
        E 0 91 36 3f
        E 121 91 3a 4b
        E 85 81 3a 4a
        E 41 91 3f 54
        E 97 81 3f 40
        E 3 81 36 01
        E 147 91 3d 3b
        E 40 81 3d 4b
        E 79 91 3c 42
        E 88 81 33 5e
        E 4 81 3c 61
        E 26 91 3a 44
        E 79 81 3a 4a
        E 29 b1 40 00
        E 16 91 31 54
        E 102 b1 40 7f
        E 20 91 36 4b
        E 111 91 3a 49
        E 127 91 3f 4d
        E 7 81 3a 24
        E 91 81 36 01
        E 3 81 3f 2d
        E 124 91 3d 3d
        E 33 81 3d 55
        E 88 91 3c 43
        E 53 81 31 58
        E 55 81 3c 5b
        E 8 91 3a 4a
        E 77 81 3a 55
        E 43 b1 40 00
        E 14 91 30 4a
        E 110 b1 40 7f
        E 7 91 36 3d
        E 131 91 3a 49
        E 114 91 3f 46
        E 18 81 3a 50
        E 58 81 3f 4a
        E 9 81 36 01
        E 161 91 3d 3f
        E 112 91 3c 41
        E 42 81 3d 26
        E 63 81 3c 54
        E 10 91 3a 4d
        E 81 81 30 2f
        E 20 81 3a 3a
        E 19 b1 40 00
        E 11 91 2e 62
        E 114 b1 40 7f
        E 3 91 36 46
        E 115 91 3a 4b
        E 117 91 3f 4e
        E 111 81 3f 53
        E 26 81 36 01
        E 30 81 3a 01
        E 63 91 3d 4f
        E 121 91 3c 46
        E 42 81 3d 43
        E 76 91 3a 4f
        E 13 81 3c 57
        E 41 81 3a 71
        E 40 b1 40 00
        E 10 81 2e 61
        E 14 91 2c 62
        E 121 91 33 4e
        E 32 b1 40 7f
        E 82 91 38 4f
        E 51 81 33 45
        E 66 91 3c 4b
        E 13 81 38 55
        E 197 81 3c 01
        E 26 91 33 4b
        E 125 91 38 4e
        E 41 81 33 4f
        E 70 91 3c 45
        E 9 81 2c 57
        E 4 81 38 4f
        E 84 b1 40 00
        E 21 81 3c 5c
        E 12 91 2c 5f
        E 124 91 33 4a
        E 10 b1 40 7f
        E 106 91 38 54
        E 69 81 33 3b
        E 54 91 3d 66
        E 27 81 38 0a
        E 194 81 3d 64
        E 25 91 33 4d
        E 137 91 3f 5b
        E 14 81 33 6d
        E 19 81 2c 57
        E 103 81 3f 6b
        E 116 91 31 5f
        E 5 b1 40 00
        E 105 91 38 4d
        E 6 b1 40 7f
        E 118 91 3d 4e
        E 120 91 42 59
        E 63 81 3d 14
        E 23 81 38 27
        E 18 81 42 55
        E 112 91 41 44
        E 134 91 3d 54
        E 10 81 41 54
        E 96 81 3d 4b
        E 0 91 38 4b
        E 9 81 31 43
        E 62 81 38 62
        E 57 b1 40 00
        E 9 91 31 62
        E 104 b1 40 7f
        E 3 91 35 42
        E 115 91 38 4d
        E 124 91 3f 59
        E 98 81 3f 54
        E 40 81 35 01
        E 35 81 38 1b
        E 47 91 3d 54
        E 97 81 31 77
        E 30 91 38 5d
        E 13 81 3d 41
        E 90 81 38 4c
        E 5 91 35 44
        E 109 81 35 4f
        E 5 b1 40 00
        E 15 91 29 5d
        E 108 b1 40 7f
        E 28 91 35 42
        E 116 91 39 45
        E 127 91 41 54
        E 30 81 35 2d
        E 188 81 41 3a
        E 11 81 39 48
        E 1 91 35 44
        E 117 81 35 44
        E 0 91 39 54
        E 75 81 29 37
        E 37 91 35 42
        E 36 81 39 11
        E 59 81 35 4b
        E 26 b1 40 00
        E 2 91 29 54
        E 116 91 35 3e
        E 6 b1 40 7f
        E 118 91 39 42
        E 134 91 3d 5b
        E 13 81 39 4a
        E 41 81 35 26
        E 33 81 3d 5a
        E 142 91 3c 4b
        E 133 81 3c 23
        E 17 91 39 4a
        E 96 81 39 58
        E 15 91 35 43
        E 104 81 35 46
        E 5 b1 40 00
        E 16 91 2e 62
        E 4 81 29 62
        E 120 91 35 3d
        E 33 b1 40 7f
        E 94 91 3a 52
        E 128 91 3f 54
        E 111 81 3f 57
        E 37 81 35 02
        E 85 91 3d 4a
        E 15 81 3a 01
        E 56 81 3d 52
        E 52 91 3c 4e
        E 97 81 3c 60
        E 23 91 3a 4f
        E 11 81 2e 58
        E 51 81 3a 68
        E 38 b1 40 00
        E 32 91 2e 66
        E 74 b1 40 7f
        E 32 91 35 42
        E 121 91 3a 4b
        E 102 81 3a 55
        E 13 91 3d 59
        E 110 81 3d 57
        E 3 81 35 11
        E 112 91 3c 45
        E 134 91 3a 4e
        E 8 81 3c 4c
        E 93 81 3a 50
        E 2 91 35 43
        E 60 81 2e 57
        E 31 81 35 55
        E 17 b1 40 00
        E 6 91 2a 5f
        E 126 b1 40 7f
        E 1 91 36 4f
        E 121 91 3a 4b
        E 76 81 36 0d
        E 32 81 3a 48
        E 13 91 3d 4d
        E 115 81 3d 53
        E 94 91 3c 44
        E 119 91 3a 4d
        E 9 81 3c 59
        E 89 81 3a 52
        E 10 81 2a 49
        E 10 91 36 4e
        E 156 b1 40 00
        E 3 81 36 41
        E 5 91 2a 66
        E 110 b1 40 7f
        E 10 91 36 4b
        E 121 91 3a 46
        E 83 81 36 27
        E 41 81 3a 4b
        E 0 91 3d 54
        E 139 81 3d 4f
        E 98 91 3c 43
        E 58 81 2a 4c
        E 56 81 3c 52
        E 0 91 3a 4b
        E 98 81 3a 4f
        E 0 91 36 4b
        E 94 81 36 54
        E 24 b1 40 00
        E 9 91 29 5d
        E 121 91 35 3d
        E 30 b1 40 7f
        E 101 91 3a 4e
        E 116 91 3d 5b
        E 18 81 3a 4a
        E 103 81 3d 57
        E 25 81 35 1b
        E 89 91 3c 47
        E 130 91 3a 52
        E 1 81 3c 4c
        E 89 81 3a 69
        E 19 91 35 47
        E 49 81 29 57
        E 82 b1 40 00
        E 6 91 29 5b
        E 27 81 35 51
        E 97 b1 40 7f
        E 0 91 35 3b
        E 135 91 3a 4e
        E 118 81 3a 3a
        E 0 91 3d 5b
        E 42 81 35 26
        E 88 81 3d 54
        E 104 91 3c 4a
        E 79 81 29 60
        E 49 91 3a 5f
        E 36 81 3c 51
        E 67 91 35 43
        E 46 81 3a 66
        E 16 81 35 61
        E 77 b1 40 00
        E 1 91 29 5b
        E 1 91 35 56
        E 121 b1 40 7f
        E 6 91 39 3f
        E 104 91 3c 4c
        E 92 81 39 0e
        E 30 91 41 54
        E 13 81 3c 64
        E 231 91 3c 4c
        E 50 81 41 21
        E 50 81 3c 62
        E 22 91 39 4c
        E 107 91 3c 4e
        E 1 81 39 2d
        E 3 81 29 49
        E 59 81 3c 6a
        E 14 81 35 44
        E 35 b1 40 00
        E 4 91 29 5f
        E 102 b1 40 7f
        E 25 91 35 3f
        E 107 91 39 4b
        E 77 81 35 30
        E 6 81 39 50
        E 43 91 3d 5f
        E 49 81 3d 5e
        E 170 91 3c 4d
        E 131 91 3a 66
        E 13 81 3c 2d
        E 95 81 3a 44
        E 9 91 39 52
        E 56 81 39 6b
        E 46 b1 40 00
        E 17 91 2e 62
        E 5 81 29 5b
        E 103 91 31 4a
        E 6 b1 40 7f
        E 118 91 35 46
        E 43 81 31 51
        E 68 81 35 3c
        E 19 91 3a 66
        E 93 81 3a 4c
        E 144 91 35 47
        E 88 81 35 53
        E 38 91 31 5b
        E 80 81 31 61
        E 25 81 2e 28
        E 1 91 35 49
        E 102 81 35 46
        E 31 91 2e 66
        E 13 b1 40 00
        E 106 91 31 52
        E 6 b1 40 7f
        E 112 91 35 45
        E 43 81 31 4d
        E 70 81 35 48
        E 11 91 3a 5d
        E 92 81 3a 36
        E 136 91 35 4a
        E 70 81 2e 28
        E 25 81 35 54
        E 47 91 31 6d
        E 42 81 31 7a
        E 210 b1 40 00
        E 20 91 2e 6f
        E 955 81 2e 7a
        E 6710 b1 00 00
        E 0 b1 20 01
        E 0 c1 1c 00
        E 0 b1 07 3c
        E 3840 91 2e 73
        E 238 81 2e 62
        E 20 91 3a 6f
        E 415 81 3a 68
        E 48 91 2e 66
        E 250 81 2e 64
        E 0 91 33 62
        E 179 81 33 5e
        E 48 91 35 5d
        E 173 81 35 42
        E 54 91 38 6b
        E 125 81 38 68
        E 119 91 2e 75
        E 290 81 2e 6e
        E 182 91 2e 6b
        E 173 81 2e 43
        E 74 91 3a 79
        E 128 81 3a 60
        E 88 91 35 52
        E 230 81 35 54
        E 14 91 38 6f
        E 159 81 38 61
        E 60 91 35 5b
        E 130 81 35 60
        E 114 91 33 6f
        E 324 81 33 5e
        E 136 91 2e 73
        E 216 81 2e 53
        E 40 91 3a 73
        E 414 81 3a 6d
        E 57 91 33 5f
        E 227 81 33 58
        E 20 91 35 5d
        E 219 81 35 55
        E 14 91 38 66
        E 156 81 38 5b
        E 102 91 33 5f
        E 171 81 33 58
        E 48 91 35 59
        E 142 81 35 55
        E 119 91 2e 73
        E 225 91 35 47
        E 28 81 2e 63
        E 151 81 35 55
        E 62 91 3a 75
        E 100 81 3a 71
        E 122 91 35 4b
        E 213 81 35 46
        E 48 91 38 73
        E 156 81 38 62
        E 46 91 35 54
        E 113 81 35 68
        E 154 91 33 6d
        E 346 81 33 64
        E 136 91 2e 6d
        E 225 81 2e 53
        E 22 91 3a 75
        E 409 81 3a 66
        E 74 91 33 5d
        E 202 81 33 53
        E 60 91 35 5d
        E 196 81 35 55
        E 36 91 38 69
        E 154 81 38 68
        E 85 91 2e 6f
        E 222 91 33 59
        E 11 81 2e 64
        E 213 81 33 59
        E 20 91 35 5b
        E 190 81 35 53
        E 45 91 38 69
        E 77 81 38 6b
        E 176 91 3a 79
        E 128 81 3a 6e
        E 105 91 35 4e
        E 188 81 35 51
        E 45 91 38 73
        E 179 81 38 60
        E 45 91 35 59
        E 125 81 35 5f
        E 139 91 33 6f
        E 330 81 33 66
        E 139 91 2e 73
        E 219 81 2e 5c
        E 40 91 3a 6d
        E 377 81 3a 64
        E 66 91 33 62
        E 215 81 33 52
        E 37 91 35 56
        E 210 81 35 57
        E 32 91 38 62
        E 153 81 38 52
        E 91 91 2e 6b
        E 190 81 2e 4f
        E 60 91 3a 75
        E 369 81 3a 67
        E 71 91 33 5f
        E 219 81 33 58
        E 31 91 35 5d
        E 210 81 35 59
        E 23 91 38 6b
        E 264 81 38 5b
        E 0 91 35 5d
        E 185 81 35 5e
        E 25 91 38 69
        E 111 81 38 71
        E 190 91 33 6b
        E 12 91 3a 6d
        E 286 81 33 64
        E 66 81 3a 6d
        E 128 91 2e 79
        E 492 81 2e 62
        E 11052 91 2e 73
        E 238 81 2e 62
        E 20 91 3a 6f
        E 415 81 3a 68
        E 48 91 2e 66
        E 250 81 2e 64
        E 0 91 33 62
        E 179 81 33 5e
        E 48 91 35 5d
        E 173 81 35 42
        E 54 91 38 6b
        E 125 81 38 68
        E 119 91 2e 75
        E 290 81 2e 6e
        E 182 91 2e 6b
        E 173 81 2e 43
        E 74 91 3a 79
        E 128 81 3a 60
        E 88 91 35 52
        E 230 81 35 54
        E 14 91 38 6f
        E 159 81 38 61
        E 60 91 35 5b
        E 130 81 35 60
        E 114 91 33 6f
        E 324 81 33 5e
        E 136 91 2e 73
        E 216 81 2e 53
        E 40 91 3a 73
        E 414 81 3a 6d
        E 57 91 33 5f
        E 227 81 33 58
        E 20 91 35 5d
        E 219 81 35 55
        E 14 91 38 66
        E 156 81 38 5b
        E 102 91 33 5f
        E 171 81 33 58
        E 48 91 35 59
        E 142 81 35 55
        E 119 91 2e 73
        E 225 91 35 47
        E 28 81 2e 63
        E 151 81 35 55
        E 62 91 3a 75
        E 100 81 3a 71
        E 122 91 35 4b
        E 213 81 35 46
        E 48 91 38 73
        E 156 81 38 62
        E 46 91 35 54
        E 113 81 35 68
        E 154 91 33 6d
        E 346 81 33 64
        E 136 91 2e 6d
        E 225 81 2e 53
        E 22 91 3a 75
        E 409 81 3a 66
        E 74 91 33 5d
        E 202 81 33 53
        E 60 91 35 5d
        E 196 81 35 55
        E 36 91 38 69
        E 154 81 38 68
        E 85 91 2e 6f
        E 222 91 33 59
        E 11 81 2e 64
        E 213 81 33 59
        E 20 91 35 5b
        E 190 81 35 53
        E 45 91 38 69
        E 77 81 38 6b
        E 176 91 3a 79
        E 128 81 3a 6e
        E 105 91 35 4e
        E 188 81 35 51
        E 45 91 38 73
        E 179 81 38 60
        E 45 91 35 59
        E 125 81 35 5f
        E 139 91 33 6f
        E 330 81 33 66
        E 139 91 2e 73
        E 219 81 2e 5c
        E 40 91 3a 6d
        E 377 81 3a 64
        E 66 91 33 62
        E 215 81 33 52
        E 37 91 35 56
        E 210 81 35 57
        E 32 91 38 62
        E 153 81 38 52
        E 91 91 2e 6b
        E 190 81 2e 4f
        E 60 91 3a 75
        E 369 81 3a 67
        E 71 91 33 5f
        E 219 81 33 58
        E 31 91 35 5d
        E 210 81 35 59
        E 23 91 38 6b
        E 264 81 38 5b
        E 0 91 35 5d
        E 185 81 35 5e
        E 25 91 38 69
        E 111 81 38 71
        E 190 91 33 6b
        E 298 81 33 64
        E 218 91 30 73
        E 238 81 30 62
        E 20 91 3c 6f
        E 415 81 3c 68
        E 48 91 30 66
        E 250 81 30 64
        E 0 91 35 62
        E 179 81 35 5e
        E 48 91 37 5d
        E 173 81 37 42
        E 54 91 3a 6b
        E 125 81 3a 68
        E 119 91 30 75
        E 290 81 30 6e
        E 182 91 30 6b
        E 173 81 30 43
        E 74 91 3c 79
        E 128 81 3c 60
        E 88 91 37 52
        E 230 81 37 54
        E 14 91 3a 6f
        E 159 81 3a 61
        E 60 91 37 5b
        E 130 81 37 60
        E 114 91 35 6f
        E 324 81 35 5e
        E 136 91 30 73
        E 216 81 30 53
        E 40 91 3c 73
        E 414 81 3c 6d
        E 57 91 35 5f
        E 227 81 35 58
        E 20 91 37 5d
        E 219 81 37 55
        E 14 91 3a 66
        E 156 81 3a 5b
        E 102 91 35 5f
        E 171 81 35 58
        E 48 91 37 59
        E 142 81 37 55
        E 119 91 30 73
        E 225 91 37 47
        E 28 81 30 63
        E 151 81 37 55
        E 62 91 3c 75
        E 100 81 3c 71
        E 122 91 37 4b
        E 213 81 37 46
        E 48 91 3a 73
        E 156 81 3a 62
        E 46 91 37 54
        E 113 81 37 68
        E 154 91 35 6d
        E 346 81 35 64
        E 136 91 30 6d
        E 225 81 30 53
        E 22 91 3c 75
        E 409 81 3c 66
        E 74 91 35 5d
        E 202 81 35 53
        E 60 91 37 5d
        E 196 81 37 55
        E 36 91 3a 69
        E 154 81 3a 68
        E 85 91 30 6f
        E 222 91 35 59
        E 11 81 30 64
        E 213 81 35 59
        E 20 91 37 5b
        E 190 81 37 53
        E 45 91 3a 69
        E 77 81 3a 6b
        E 176 91 3c 79
        E 128 81 3c 6e
        E 105 91 37 4e
        E 188 81 37 51
        E 45 91 3a 73
        E 179 81 3a 60
        E 45 91 37 59
        E 125 81 37 5f
        E 139 91 35 6f
        E 330 81 35 66
        E 139 91 30 73
        E 219 81 30 5c
        E 40 91 3c 6d
        E 377 81 3c 64
        E 66 91 35 62
        E 215 81 35 52
        E 37 91 37 56
        E 210 81 37 57
        E 32 91 3a 62
        E 153 81 3a 52
        E 91 91 30 6b
        E 190 81 30 4f
        E 60 91 3c 75
        E 369 81 3c 67
        E 71 91 35 5f
        E 219 81 35 58
        E 31 91 37 5d
        E 210 81 37 59
        E 23 91 3a 6b
        E 264 81 3a 5b
        E 0 91 37 5d
        E 185 81 37 5e
        E 25 91 3a 69
        E 111 81 3a 71
        E 190 91 35 6b
        E 298 81 35 64
        E 194 91 30 79
        E 492 81 30 62
        E 114252 b0 7b 00
        CCINTERP 32
        CHASE_CC_TAKEOFFS 1
        GUID {C18EEA6E-7DB3-4940-9191-EE55E436B392}
        IGNTEMPO 0 120 4 4
        SRCCOLOR 2
        VELLANE -1 100 0
      >
    >
  >
  <TRACK {C4E5A905-C89D-E144-BCDA-C1E1EE218FB5}
    NAME "Dist  Guitar"
    PEAKCOL 16576
    BEAT -1
    AUTOMODE 0
    VOLPAN 0.04086293263762 0 -1 -1 1
    MUTESOLO 0 0 0
    IPHASE 0
    PLAYOFFS 0 1
    ISBUS 0 0
    BUSCOMP 0 0 0 0 0
    SHOWINMIX 1 0.6667 0.5 1 0.5 0 0 0
    SEL 0
    REC 0 0 1 0 0 0 0 0
    VU 2
    TRACKHEIGHT 61 0 0 0 0 0
    INQ 0 0 0 0.5 100 0 0 100
    NCHAN 2
    FX 1
    TRACKID {C4E5A905-C89D-E144-BCDA-C1E1EE218FB5}
    PERF 0
    MIDIOUT -1
    MAINSEND 1 0
    <FXCHAIN
      WNDRECT 783 294 753 619
      SHOW 1
      LASTSEL 0
      DOCKED 0
      BYPASS 0 0 0
      <VST "VST3: Cardinal FX (DISTRHO)" CardinalFX.vst3 0 "" 1558924367{2046504473616C63466E436400000000} ""
        T0zrXO5e7f4CAAAAAQAAAAAAAAACAAAAAAAAAAIAAAABAAAAAAAAAAIAAAAAAAAAhg8AAAEAAAD//xAA
        dg8AAAEAAABfX2RwZl9zdGF0ZV9iZWdpbl9fAGNvbW1lbnQAAG1vZHVsZUluZm9zAHt9AHBhdGNoAEtMVXYvUUJJSFU0QVNvNElGenRRVFdJTVh6TUFBQUFBaUViMkZj
        UkN2VU5TdnVQMzVocDNveS8vTjlGZEl1akFteTNRZmFBUDZxZVVVa29wcFVROHRHejE3MGhuZkc4a0E2QUJQUUZXQVF2NVZZMmZWUjA3OVhYMXRxNnhkZUlybnR1djEv
        enVSTjdIMDkvMWRmdU1qTTlwYStxcHkvRTZNTFZZR3M1aXk5UmlhYVlIVTdFb3BSUUZFekVReTZDSmFEaFJBNHRhTEkrbUFWRlVlSmpnZ1VVdGxzZVptQjRRaCs5ejFW
        eGZPMTVMdFZnYXpxS1VVa29wSEVTYXg5U0FLQmFsRkljTVNpbHA2WC9LNkp5dDcyakxIcFJTU25Gb1hQdEdmTTNNekZ6OG9KUlNTZ1Zxc1VoTnhPR3cwSENpaVVVcHhj
        SFdxY1ZDQVVFYkxFb3BEa3NGbzJKVk5CRThZTUNZSGhjZUlwRW1tb0NpQ3c4VVVPTmhJcEI0a0tBQUF3WVB4Z0VSYVRRd0pBWUM4V0FlcHhFeENrQklFUVNCVEJIcWdS
        eUpZVGdQQ0dRQ3hJYUlpU3h3SUlCWTFHTFJJREdRUlNuRllibDFDeGUxV0I3SWlVUk54YUtVd2tHZkxmYmVxYktaUFZEa2dxV0JJVEVRaVFXeFZpWEthV1pKQXJFZVFE
        aEFoQVpHOE9BVENRQWtEZU5obnFZQ2lpQ3JlVUFnektLQUdBVUFrQkNRSk1rSFNaS0VrRVNBQWNPRUpJUWtTU1FrU1pKQmtpU1lKTWtBU1pKSVNCUUZLc0tDWWpBVmtr
        UkNJb0FCQVNoTElrYUtUS1lTeG0wenRaaWJtYlo2S2hYTkxGRzdiV2JKa2xnQng5YUdsbXpPSzlOWlVkMjNyM1V4MTNXYXUvS3V1WnJ4MG4vOFY5ZkV2ajdQWlc2Wm5w
        YVp2OW5PU3hFVi9kazB1eFV4bC9Pdjc3WWlIeVlhcjl4K2ZqOTM1ZmZQcFhqZmo2ZnJ1N2dMejcxN1hmK1pmYzhXdnJQcTk3a3hvcXZGMG5BV0pjTkJrRVVwRkZEallh
        SmxzVFFOcUVJak1STkxock96czFQcWxKS1lpY2lEY2FqRklrMFdOREFrNThKam9aR1lCcG9JZWlhY1JhbG1paVMxV0NZZTUzbW1hRmtzak1RMGxneEtTY016Zm0vZTI5
        dmIyOXZUMDFQV0IwVlZWYzNNNDlYRXMzeHZYazA4dzd0M056NVc1N1IzdHBXWGpxYUxiWGZYaTJ2dkdNMjNjWnV4MFhYWnN0NTJieTlidHRsaTVWUHVmZnU5czhQVmVk
        K3ViNTNvdWJzUW45ZVg3Yzk4YnkzWG5iZForcmJ5WnZyZjJsdmRUTjYxVDBTL1cvZWEzZmlMYWYvTzZtdTlFVEhYK3RSOWJiR1JlMDNUOG5MZE1RT2I3YXptMm56cXk3
        Wm9tTXhuNjNlb2ZyN3MwdDc5ck84NXNYMlpwWm8xcDE4NjcvYXlDZ29Ob01iamFJQUJnNG1PMXpjekxaL3hjVlhSK3MzMERoSnBQSkFqTWRFa01SSFNCSkVtYUlQa1ZE
        aVNFM21hQ0dtQ1BFN2thU0lrVUdBRDgyZ1dhQ0xJc2xpa0NmSlFhQ0tUdytFMEdzMHpTWThOVXNTamVSaEk4NWlZZ0RBMEd6Uk41SGlhRGFESW9SVExlMjllVGNSRHcv
        Zm1OVFhGNFc1dkZZZDM1RS9rTkxQOVYxN05VOGZyLzgxWHRydGxZaHFKZVZ4WU5qU1BCeU5CUDZJdXRuSWpJcDVTalBsTmU1bjNFZHNjM2ZyNVhMLy9rNW1mOWUwYi9m
        OStUVzAzTzc5OTAzNVRmYm52cjEvWitSdHpnaWlnQWZUNDlXWmJYZVl3and2UzAxQk1rUlI1S0RRUEM1ekdOSUhaZDMzMUU4OXR6ODd1emt4dDc1SHozRi9aYk4yYXZ4
        cWpLKzd1N3JwMXQ4VzBUblkxWHJhT252aXNxZmhvZDJ0Vi8vTVhiVkVkOFh0bDVqNTNzdmRybzk1NmJ1NUpCMG9HcFJUbWJuMnhGOTNVdUwxNWJIMTcxbFBWMDAzZmUr
        Wjd0cmRjdzh6bTVVNzA3RmJmTjFPSG8vazBqNU4xdWZPeFUzM05QNWs5Mlo5OThSVTMzK0hvYlB4UFBuNTE1ZWE3Tzk3RDgwZXpiWFpEdzFSYjVkTS85WFE0R28ycmlm
        cnRoM3gzeHNwcnU3aWNiSitYWjNxNHVBNUhIN0ltby9LZkpmcXpYVDlxYTY1aHQzYWVlYXF4YXpmaTk3czdISTBGdUJUdUdNMnNOMXViRjVlVFVkT1BUMWVmK1QwVnUz
        L1RXdS9aOVpYQjgwWS92M1hzWHovZk5MZHRmbjVkUGp6anpYM1U5UHR0WG5BZERtOFFXTlJpaWFBSHhNakhlWnhGTFpZR0JXbUNTQk5Fb1hsTURhaUNORUdrQ1VyMGQw
        OWY2K05GQ3hqR290eHYydC9uZFNhNkd6WVVEb1pjcFVTTjlIQVlZRFNVY2dnNWpXbUNGSUVjVU1yRTQyaVFJSWdpSWdGSkVoVU1DYW1KT0J5UVVrNXh3RHV6d0FBRUQ1
        RFRtSmdKS0lGMnRiOUd4dHRyNUdOVlNuT0NCcWh5Y2lFeHdBQUFBQUFJTFFOQUFwSU1BRUNLT1VaZHFRRVNBRkFBQ0lhUkZBVXdEQU5BS01jZ0JBQkhRUUFBQUFBQUJt
        aGxob1VCQVlIUktmdkJLU0Z5YUlqR3U0TmpnOUVyNnl5Y1JaclV6Z2VSNWVhVGRBQXFKS3BZMzBrakdtdStSRmE5MFVSZVZkUFFySS9hTklseHhZN1U0Tm94a2l4UEEw
        WFZNbms0SGVST3drTGtDZWdjTFFTSUMzZjRFbFprcVI5R21iTE5ZenNVSndrVzRuNXdRMFFHcUZlbTRkMkk0UStqVzhjL3ZHRzVBa1hqL3dvN3FSSncwOHdsM2ZOTklU
        YXE4dWgzVWhadzhINXNGOWdka21oaFBESlJRZ3lHdzRMTHIxZ1RpU0VUVFJRd1hUcVJrOGtSTGRMZllIaEw2YkF6OExoaERmUTlLQytSTUlFVnZZY0Z0dzZpRDJnT2s0
        VzFySC94OEZNNW42WnFPSjZSQ1k5N2hBSkNqZUxIQmVjbiswMWdsR1gzeVlibTArd1dsaVF5NkxTc3paTW05ZUwxb3FNSWxJeUhKeWtxMklKWHVMUE01dm1Id1FFRG9x
        ZEgxZWFiUUZJeDN6MDB3RmJjNWlnNXcxT0NVaXlFY29DU1hkRTMzNlU5Z1UyNGJCTWlCQ2VMaDlRQ25tV0c2Y3NzREZRam1jbGc5NmtBd0FRWEVXQVZOUVZhUlVPZWUw
        bnFVT0tBUDg3Ylk5b2FQZ1NYU0RZekFGV2hPMDVqVDJ3TkJvWDNqT1FUNXlGeHZiMnZ2OXFGTTJLM3ZIOEJhY2NYbE0rcTRLakhHT3J5azVIQXBwU2FVcmcyMld1VHFW
        T2lRaGxKeklMRFRzQlZpUXNJSHRLanRmYS9vUzRCVEQ0WkNobHpOUWkrTFlKeWlaOXdQOWdMWE1VbFVPTEdXcCtUR0NxKytZdS9zd28zUHY0WVRZRFZWZUNINEVJbWdj
        R1l2aDZnUnhjZEVORjhKSzRVVHQ2M0J3SzRFd1U2djlHSFRMM0JYV2QrVVBUcnJta1c3dmgyMGtyejNKWnoxZ0tTK0xJdXRiUHdKL0VDVWFadDFodVRGYnZiTWVyT0Nj
        TXhzd0tDdlJkZ3l6eDdDTkFqbVFZTmpoa25HVk1MbUxzQUkyR3o4UWlaMU5xZlBzSWhJeU1JOTdDa1FsMHlRSjd3UzZTTk5pVmtrTnZJTTVSZlcvMGNrZWI4TlFiMGZS
        QXQySWlZMHRFVENaZ3RFejRUTXJXdFRNeGlVUjN4M201bDRpQkFNVWt2WEVFdEJ6Sk14SytkQm9wQXNBSXVXVEt5ZmlWc24weTdEMmRSUDdNZEQwaFVOOVBzWGdJK3VP
        bmF4SWRSVVp4UmFDN3lvRWc3Y3BCMjU2Y3RnWVV5aHNqWVAwWTVQSmlKWFlpa2ZIZmtUWjRFRjJabUphR1NmQWg4L2xUMllxZ3dVNmRNWlU2bm1WQlRTazJKQ2hOM2tD
        VU45aVpjU2RTQ1h1d1V6eFpsRnIzaW56QTJNbmVRZ3laR0N5ZmpEVWkxbXBKSUYrVTl3VWcyR3F6QXVRZ05tMFUvTy9Fc3NydG9QM3RXZTBWSTNRMlFwYjRsVzNnT2RD
        R3VBKzludHoyTjRrRkNsSmVJSGdJZC9aQ2g3M2dsZHVoTDd5b0hobWsxaWNFendMY0RPZ0NIWjlueUQwZ3NzNUc1MzcwV1EvY1FnMjBYY2pGQWUrMk5OcVorcTB1LzZ5
        V2lsdmIrdjNFMUxNTGY0VW9HaGEyTDhWdmxBSFBlSUk3bUlnRjhINDdsAHNjcmVlbnNob3QAAHdpbmRvd1NpemUANjQ4OjUzOABfX2RwZl9zdGF0ZV9lbmRfXwBfX2Rw
        Zl9wYXJhbWV0ZXJzX2JlZ2luX18AcGFyYW1fMQAwAHBhcmFtXzIAMABwYXJhbV8zADAAcGFyYW1fNAAwAHBhcmFtXzUAMABwYXJhbV82ADAAcGFyYW1fNwAwAHBhcmFt
        XzgAMABwYXJhbV85ADAAcGFyYW1fMTAAMABwYXJhbV8xMQAwAHBhcmFtXzEyADAAcGFyYW1fMTMAMABwYXJhbV8xNAAwAHBhcmFtXzE1ADAAcGFyYW1fMTYAMABwYXJh
        bV8xNwAwAHBhcmFtXzE4ADAAcGFyYW1fMTkAMABwYXJhbV8yMAAwAHBhcmFtXzIxADAAcGFyYW1fMjIAMABwYXJhbV8yMwAwAHBhcmFtXzI0ADAAZHBmX2J5cGFzcwAw
        AHRvb2x0aXBzADEAY2FibGVPcGFjaXR5ADUwAGNhYmxlVGVuc2lvbgA3NQByYWNrQnJpZ2h0bmVzcwAxMDAAaGFsb0JyaWdodG5lc3MAMjUAa25vYk1vZGUAMABrbm9i
        U2Nyb2xsADAAa25vYlNjcm9sbFNlbnNpdGl2aXR5ADEAbG9ja01vZHVsZXMAMAByYXRlTGltaXQAMABicm93c2VyU29ydAAzAGJyb3dzZXJab29tADUwAGludmVydFpv
        b20AMABfX2RwZl9wYXJhbWV0ZXJzX2VuZF9fAP4AAAAAAAAAAAA=
        AAAQAAAA
      >
      FLOATPOS 0 0 0 0
      FXID {505D8738-F3C7-8147-A480-8EE68C91D729}
      WAK 0 0
    >
    <ITEM
      POSITION 0
      SNAPOFFS 0
      LENGTH 350.96757745293559
      LOOP 1
      ALLTAKES 0
      FADEIN 1 0 0 1 0 0 0
      FADEOUT 1 0 0 1 0 0 0
      MUTE 0 0
      SEL 0
      IGUID {40496394-1D6C-A94E-B610-AC06B773E026}
      IID 3
      NAME "Dist  Guitar - 1-6--3-2_geth-1.mid"
      VOLPAN 1 0 1 -1
      SOFFS 0 0
      PLAYRATE 1 1 0 -1 0 0.0025
      CHANMODE 0
      GUID {EFC61D5F-088B-D54F-9D71-E8CACD160722}
      <SOURCE MIDI
        HASDATA 1 480 QN
        CCINTERP 32
        POOLEDEVTS {D8CC8D9A-1432-3647-BA22-B59BE99D6EE8}
        <X 0 0 0 0 3 "Dist  Guitar"
          /wNEaXN0ICBHdWl0YXI=
        >
        E 0 b2 00 00
        E 0 b2 20 01
        E 0 c2 1e 00
        E 0 b2 07 52
        E 0 b2 0a 50
        E 51837 92 35 7f
        E 0 92 3a 7f
        E 979 92 33 7f
        E 0 92 38 7f
        E 19 82 35 6e
        E 0 82 3a 6e
        E 921 92 31 7f
        E 0 92 36 7f
        E 3 82 33 77
        E 0 82 38 77
        E 907 82 31 78
        E 0 82 36 78
        E 3 92 30 7f
        E 0 92 35 7f
        E 971 92 35 7f
        E 0 92 3a 7f
        E 14 82 30 60
        E 0 82 35 60
        E 955 92 33 7f
        E 0 92 38 7f
        E 19 82 35 69
        E 0 82 3a 69
        E 931 92 31 7f
        E 0 92 36 7f
        E 15 82 33 5e
        E 0 82 38 5e
        E 944 82 31 75
        E 0 82 36 75
        E 0 92 30 7b
        E 0 92 35 7b
        E 974 92 35 7f
        E 0 92 3a 7f
        E 16 82 30 67
        E 0 82 35 67
        E 950 92 33 7f
        E 0 92 38 7f
        E 11 82 35 66
        E 0 82 3a 66
        E 945 92 31 7f
        E 0 92 36 7f
        E 9 82 33 6b
        E 0 82 38 6b
        E 982 82 31 72
        E 0 82 36 72
        E 0 92 30 7f
        E 0 92 35 7f
        E 923 82 30 6b
        E 0 82 35 6b
        E 15385 92 35 7f
        E 0 92 3a 7f
        E 972 92 33 7f
        E 0 92 38 7f
        E 16 82 35 60
        E 0 82 3a 60
        E 924 92 31 7f
        E 0 92 36 7f
        E 6 82 33 71
        E 0 82 38 71
        E 939 82 31 77
        E 0 82 36 77
        E 0 92 30 7b
        E 0 92 35 7b
        E 965 92 35 7f
        E 0 92 3a 7f
        E 8 82 30 5a
        E 0 82 35 5a
        E 915 92 33 7f
        E 0 92 38 7f
        E 17 82 35 6b
        E 0 82 3a 6b
        E 959 92 31 7f
        E 0 92 36 7f
        E 13 82 33 61
        E 0 82 38 61
        E 976 82 31 75
        E 0 82 36 75
        E 2 92 30 7b
        E 0 92 35 7b
        E 973 92 35 7f
        E 0 92 3a 7f
        E 5 82 30 5e
        E 0 82 35 5e
        E 949 92 33 7f
        E 0 92 38 7f
        E 23 82 35 5e
        E 0 82 3a 5e
        E 921 92 31 77
        E 0 92 36 77
        E 12 82 33 62
        E 0 82 38 62
        E 956 82 31 71
        E 0 82 36 71
        E 0 92 30 7b
        E 0 92 35 7b
        E 988 82 30 6d
        E 0 82 35 6d
        E 30695 92 37 7f
        E 0 92 3c 7f
        E 951 92 35 7f
        E 0 92 3a 7f
        E 16 82 37 6a
        E 0 82 3c 6a
        E 953 92 33 7f
        E 0 92 38 7f
        E 1 82 35 70
        E 0 82 3a 70
        E 945 82 33 7a
        E 0 82 38 7a
        E 4 92 32 7f
        E 0 92 37 7f
        E 958 92 37 60
        E 0 92 3c 60
        E 19 82 32 55
        E 0 82 37 55
        E 947 92 35 7f
        E 0 92 3a 7f
        E 25 82 37 68
        E 0 82 3c 68
        E 965 92 33 7f
        E 0 92 38 7f
        E 4 82 35 67
        E 0 82 3a 67
        E 923 82 33 78
        E 0 82 38 78
        E 1 92 32 72
        E 0 92 37 72
        E 974 92 37 67
        E 0 92 3c 67
        E 6 82 32 61
        E 0 82 37 61
        E 961 92 35 7b
        E 0 92 3a 7b
        E 22 82 37 5c
        E 0 82 3c 5c
        E 932 92 33 7b
        E 0 92 38 7b
        E 10 82 35 61
        E 0 82 3a 61
        E 946 82 33 79
        E 0 82 38 79
        E 9 92 32 7d
        E 0 92 37 7d
        E 944 92 37 7b
        E 0 92 3c 7b
        E 13 82 32 52
        E 0 82 37 52
        E 948 92 35 7b
        E 0 92 3a 7b
        E 24 82 37 61
        E 0 82 3c 61
        E 926 92 33 7f
        E 0 92 38 7f
        E 4 82 35 6b
        E 0 82 3a 6b
        E 944 82 33 78
        E 0 82 38 78
        E 7 92 32 7f
        E 0 92 37 7f
        E 963 92 37 7b
        E 0 92 3c 7b
        E 7 82 32 5a
        E 0 82 37 5a
        E 955 92 35 7b
        E 0 92 3a 7b
        E 19 82 37 60
        E 0 82 3c 60
        E 926 92 33 7f
        E 0 92 38 7f
        E 1 82 35 6a
        E 0 82 3a 6a
        E 968 82 33 7a
        E 0 82 38 7a
        E 4 92 32 7f
        E 0 92 37 7f
        E 945 92 37 7f
        E 0 92 3c 7f
        E 11 82 32 60
        E 0 82 37 60
        E 946 92 35 77
        E 0 92 3a 77
        E 25 82 37 61
        E 0 82 3c 61
        E 919 92 33 7f
        E 0 92 38 7f
        E 1 82 35 6d
        E 0 82 3a 6d
        E 979 82 33 7a
        E 0 82 38 7a
        E 5 92 32 7f
        E 0 92 37 7f
        E 948 92 37 77
        E 0 92 3c 77
        E 11 82 32 59
        E 0 82 37 59
        E 960 92 35 7b
        E 0 92 3a 7b
        E 26 82 37 62
        E 0 82 3c 62
        E 947 92 33 7f
        E 0 92 38 7f
        E 6 82 35 68
        E 0 82 3a 68
        E 935 82 33 76
        E 0 82 38 76
        E 0 92 32 7b
        E 0 92 37 7b
        E 959 92 37 74
        E 0 92 3c 74
        E 13 82 32 5a
        E 0 82 37 5a
        E 966 92 35 77
        E 0 92 3a 77
        E 23 82 37 60
        E 0 82 3c 60
        E 935 82 35 69
        E 0 82 3a 69
        E 0 92 33 7f
        E 0 92 38 7f
        E 943 82 33 7a
        E 0 82 38 7a
        E 3 92 32 7f
        E 0 92 37 7f
        E 924 92 37 7f
        E 0 92 3c 7f
        E 13 82 32 61
        E 0 82 37 61
        E 952 92 35 77
        E 0 92 3a 77
        E 16 82 37 5c
        E 0 82 3c 5c
        E 983 82 35 67
        E 0 82 3a 67
        E 2 92 33 7f
        E 0 92 38 7f
        E 944 82 33 78
        E 0 82 38 78
        E 5 92 32 7d
        E 0 92 37 7d
        E 949 92 37 7f
        E 0 92 3c 7f
        E 7 82 32 5e
        E 0 82 37 5e
        E 976 92 35 7f
        E 0 92 3a 7f
        E 22 82 37 69
        E 0 82 3c 69
        E 936 82 35 6e
        E 0 82 3a 6e
        E 7 92 33 7f
        E 0 92 38 7f
        E 946 82 33 7a
        E 0 82 38 7a
        E 12 92 32 7f
        E 0 92 37 7f
        E 972 82 32 6e
        E 0 82 37 6e
        E 76336 b0 7b 00
        CCINTERP 32
        CHASE_CC_TAKEOFFS 1
        GUID {9F9BC763-593A-9044-A548-5EE959C5279C}
        IGNTEMPO 0 120 4 4
        SRCCOLOR 3
        VELLANE -1 100 0
      >
    >
  >
  <TRACK {552C560D-EDBA-3D4E-B6DF-BF58499FB08E}
    NAME "Fingered Bass"
    PEAKCOL 16576
    BEAT -1
    AUTOMODE 0
    VOLPAN 0.20079148705394 0 -1 -1 1
    MUTESOLO 0 0 0
    IPHASE 0
    PLAYOFFS 0 1
    ISBUS 0 0
    BUSCOMP 0 0 0 0 0
    SHOWINMIX 1 0.6667 0.5 1 0.5 0 0 0
    SEL 0
    REC 0 0 1 0 0 0 0 0
    VU 2
    TRACKHEIGHT 61 0 0 0 0 0
    INQ 0 0 0 0.5 100 0 0 100
    NCHAN 2
    FX 1
    TRACKID {552C560D-EDBA-3D4E-B6DF-BF58499FB08E}
    PERF 0
    MIDIOUT -1
    MAINSEND 1 0
    <FXCHAIN
      WNDRECT 556 351 477 494
      SHOW 1
      LASTSEL 0
      DOCKED 0
      BYPASS 0 0 0
      <VST "VSTi: ReaSynth (Cockos)" reasynth.vst.dylib 0 "" 1919251321<5653547265737972656173796E746800> ""
        eXNlcu9e7f4AAAAAAgAAAAEAAAAAAAAAAgAAAAAAAABEAAAAAAAAAAAAEAA=
        776t3g3wrd6mm8Q7F7fROgAAAAAAAAAAAAAAAOlg6jzpZ4g9AAAAAAAAAD8AAIA/AACAPwAAAD8AAAAAAAAAAAAAAAA=
        AAAQAAAA
      >
      FLOATPOS 0 0 0 0
      FXID {E344DA15-C97B-BB4F-B85A-2900B66E738B}
      WAK 0 0
    >
    <ITEM
      POSITION 0
      SNAPOFFS 0
      LENGTH 362.21757745299715
      LOOP 1
      ALLTAKES 0
      FADEIN 1 0 0 1 0 0 0
      FADEOUT 1 0 0 1 0 0 0
      MUTE 0 0
      SEL 0
      IGUID {386A1D76-8342-9F4D-B3E3-50ED338FFB5F}
      IID 4
      NAME "Fingered Bass - 1-6--3-2_geth-1.mid"
      VOLPAN 1 0 1 -1
      SOFFS 0 0
      PLAYRATE 1 1 0 -1 0 0.0025
      CHANMODE 0
      GUID {AA605985-4915-6C43-A7FD-96C3159F75D5}
      <SOURCE MIDI
        HASDATA 1 480 QN
        CCINTERP 32
        POOLEDEVTS {4E66467F-ED14-EE43-8690-341B15D14809}
        <X 0 0 0 0 3 "Fingered Bass"
          /wNGaW5nZXJlZCBCYXNz
        >
        E 0 b3 00 00
        E 0 b3 20 01
        E 0 c3 21 00
        E 0 b3 0a 30
        E 1920 93 22 54
        E 1177 93 25 47
        E 19 83 22 53
        E 235 93 29 4c
        E 5 83 25 64
        E 479 93 2e 52
        E 13 83 29 50
        E 1187 83 2e 61
        E 0 93 27 4a
        E 239 93 29 44
        E 6 83 27 5c
        E 222 93 27 4d
        E 9 83 29 5a
        E 107 93 25 3d
        E 11 83 27 4c
        E 164 83 25 68
        E 0 93 22 46
        E 594 83 22 4f
        E 94 93 22 4d
        E 227 93 20 52
        E 3 83 22 62
        E 661 83 20 5b
        E 70 93 20 4a
        E 221 93 1e 4f
        E 13 83 20 54
        E 704 83 1e 67
        E 8 93 2a 4e
        E 248 93 29 4b
        E 2 83 2a 5f
        E 900 93 27 4d
        E 5 83 29 5c
        E 675 83 27 61
        E 78 93 27 59
        E 244 93 25 52
        E 12 83 27 5e
        E 650 83 25 58
        E 61 93 25 59
        E 260 93 24 4a
        E 15 83 25 58
        E 643 83 24 61
        E 60 93 24 44
        E 251 93 22 4e
        E 8 83 24 60
        E 619 83 22 5a
        E 81 93 22 4e
        E 242 83 22 63
        E 4 93 20 52
        E 596 83 20 1e
        E 101 93 20 54
        E 66 83 20 49
        E 180 93 20 4f
        E 499 93 22 52
        E 18 83 20 51
        E 214 83 22 6b
        E 0 93 24 4a
        E 244 93 25 4f
        E 5 83 24 62
        E 696 83 25 48
        E 17 93 2c 54
        E 228 83 2c 61
        E 11 93 25 4e
        E 237 93 27 5b
        E 17 83 25 59
        E 219 83 27 61
        E 2 93 29 4d
        E 240 83 29 50
        E 0 93 2c 4f
        E 239 83 2c 6f
        E 6 93 29 4f
        E 603 83 29 4f
        E 102 93 29 4e
        E 78 83 29 4c
        E 178 93 29 4d
        E 457 83 29 61
        E 4 93 2b 4a
        E 243 93 2d 49
        E 33 83 2b 45
        E 203 83 2d 3e
        E 15 93 2e 5d
        E 640 83 2e 5f
        E 65 93 2e 54
        E 62 83 2e 66
        E 192 93 2e 54
        E 700 93 2c 54
        E 10 83 2e 5e
        E 249 93 2a 52
        E 7 83 2c 5a
        E 650 83 2a 58
        E 65 93 2a 4f
        E 165 83 2a 55
        E 79 93 2a 4e
        E 641 83 2a 55
        E 88 93 2a 54
        E 243 93 29 4c
        E 6 83 2a 59
        E 593 83 29 59
        E 66 93 29 44
        E 96 83 29 2b
        E 166 93 29 47
        E 640 83 29 54
        E 72 93 29 43
        E 253 83 29 59
        E 5 93 24 4a
        E 611 83 24 5a
        E 61 93 24 44
        E 118 83 24 2d
        E 135 93 24 46
        E 466 93 30 47
        E 15 83 24 53
        E 238 83 30 59
        E 0 93 24 46
        E 257 93 29 4c
        E 2 83 24 60
        E 657 83 29 4d
        E 87 93 29 4d
        E 115 83 29 0a
        E 123 93 29 4f
        E 462 83 29 50
        E 0 93 2b 4f
        E 222 83 2b 66
        E 7 93 2d 4d
        E 262 83 2d 4a
        E 1 93 2e 54
        E 449 83 2e 66
        E 3 93 22 59
        E 522 93 2c 4e
        E 4 83 22 51
        E 615 83 2c 61
        E 72 93 2c 54
        E 252 93 2a 4f
        E 26 83 2c 5a
        E 588 83 2a 5a
        E 73 93 2a 4f
        E 247 83 2a 78
        E 8 93 29 4d
        E 666 83 29 59
        E 60 93 29 4a
        E 254 93 27 62
        E 3 83 29 53
        E 623 83 27 63
        E 71 93 27 54
        E 242 93 25 59
        E 7 83 27 62
        E 660 83 25 57
        E 75 93 25 59
        E 225 83 25 60
        E 11 93 24 54
        E 468 93 30 4c
        E 6 83 24 61
        E 484 93 2e 5b
        E 6 83 30 61
        E 635 83 2e 61
        E 62 93 2e 4f
        E 257 83 2e 60
        E 7 93 2c 5d
        E 448 83 2c 6f
        E 2 93 20 5f
        E 176 83 20 52
        E 46 93 20 59
        E 79 83 20 4c
        E 192 93 20 59
        E 490 93 22 5f
        E 32 83 20 4f
        E 198 83 22 72
        E 0 93 24 4f
        E 249 93 25 5d
        E 20 83 24 57
        E 206 83 25 62
        E 2 93 27 52
        E 236 93 29 4f
        E 2 83 27 71
        E 251 93 2c 54
        E 6 83 29 5b
        E 231 83 2c 62
        E 2 93 31 52
        E 235 93 33 54
        E 6 83 31 60
        E 240 93 35 46
        E 6 83 33 5b
        E 214 93 38 4b
        E 6 83 35 5b
        E 253 83 38 6d
        E 5 93 35 4a
        E 689 83 35 60
        E 0 93 29 4a
        E 274 93 35 44
        E 10 83 29 57
        E 468 83 35 59
        E 0 93 2b 4d
        E 236 83 2b 57
        E 2 93 2d 4a
        E 253 93 2e 54
        E 5 83 2d 59
        E 630 83 2e 66
        E 76 93 2e 4b
        E 108 83 2e 55
        E 114 93 2e 59
        E 694 83 2e 5b
        E 5 93 2c 52
        E 269 93 2a 4f
        E 7 83 2c 5c
        E 617 83 2a 5a
        E 93 93 2a 4e
        E 159 83 2a 51
        E 82 93 2a 52
        E 650 83 2a 66
        E 75 93 2a 5d
        E 251 83 2a 68
        E 1 93 29 5f
        E 641 83 29 5b
        E 68 93 29 59
        E 194 83 29 53
        E 66 93 29 4d
        E 711 83 29 62
        E 11 93 1d 47
        E 232 83 1d 61
        E 2 93 29 52
        E 611 83 29 5b
        E 86 93 29 52
        E 96 83 29 3a
        E 148 93 29 5b
        E 647 83 29 54
        E 66 93 29 49
        E 258 83 29 57
        E 2 93 2e 59
        E 1183 83 2e 71
        E 5 93 35 4c
        E 245 93 31 62
        E 7 83 35 5c
        E 258 83 31 78
        E 1 93 30 47
        E 6 93 2f 46
        E 19 83 2f 63
        E 215 83 30 60
        E 12 93 2e 62
        E 930 83 2e 6d
        E 21 93 2c 54
        E 652 83 2c 6e
        E 46 93 2c 5d
        E 216 83 2c 76
        E 16 93 2a 5d
        E 668 83 2a 6e
        E 54 93 2a 69
        E 220 83 2a 54
        E 14 93 29 62
        E 173 83 29 61
        E 47 93 29 64
        E 234 93 2b 69
        E 15 83 29 67
        E 229 93 2d 5d
        E 12 83 2b 59
        E 234 93 2e 62
        E 12 83 2d 59
        E 671 83 2e 6b
        E 57 93 2e 66
        E 216 83 2e 71
        E 12 93 2c 62
        E 675 83 2c 68
        E 52 93 2c 62
        E 231 83 2c 6e
        E 9 93 2a 66
        E 661 83 2a 67
        E 52 93 2a 66
        E 236 83 2a 6d
        E 12 93 29 5f
        E 187 83 29 58
        E 43 93 29 47
        E 243 93 2b 5f
        E 17 83 29 61
        E 226 93 2d 5d
        E 10 83 2b 61
        E 238 93 2e 66
        E 7 83 2d 5a
        E 641 83 2e 63
        E 73 93 2e 62
        E 243 93 2c 5d
        E 6 83 2e 55
        E 645 83 2c 61
        E 62 93 2c 5b
        E 211 83 2c 6e
        E 24 93 2a 5f
        E 688 83 2a 67
        E 58 93 2a 66
        E 240 83 2a 5f
        E 10 93 29 59
        E 189 83 29 5e
        E 50 93 29 5d
        E 227 93 2b 59
        E 24 83 29 5e
        E 217 93 2d 62
        E 6 83 2b 62
        E 208 83 2d 72
        E 29 93 22 73
        E 238 83 22 62
        E 20 93 2e 6f
        E 415 83 2e 68
        E 48 93 22 66
        E 250 83 22 64
        E 0 93 27 62
        E 179 83 27 5e
        E 48 93 29 5d
        E 173 83 29 42
        E 54 93 2c 6b
        E 125 83 2c 68
        E 119 93 22 75
        E 290 83 22 6e
        E 182 93 22 6b
        E 173 83 22 43
        E 74 93 2e 79
        E 128 83 2e 60
        E 88 93 29 52
        E 230 83 29 54
        E 14 93 2c 6f
        E 159 83 2c 61
        E 60 93 29 5b
        E 130 83 29 60
        E 114 93 27 6f
        E 324 83 27 5e
        E 136 93 22 73
        E 216 83 22 53
        E 40 93 2e 73
        E 414 83 2e 6d
        E 57 93 27 5f
        E 227 83 27 58
        E 20 93 29 5d
        E 219 83 29 55
        E 14 93 2c 66
        E 156 83 2c 5b
        E 102 93 27 5f
        E 171 83 27 58
        E 48 93 29 59
        E 142 83 29 55
        E 119 93 22 73
        E 225 93 29 47
        E 28 83 22 63
        E 151 83 29 55
        E 62 93 2e 75
        E 100 83 2e 71
        E 122 93 29 4b
        E 213 83 29 46
        E 48 93 2c 73
        E 156 83 2c 62
        E 46 93 29 54
        E 113 83 29 68
        E 154 93 27 6d
        E 346 83 27 64
        E 136 93 22 6d
        E 225 83 22 53
        E 22 93 2e 75
        E 409 83 2e 66
        E 74 93 27 5d
        E 202 83 27 53
        E 60 93 29 5d
        E 196 83 29 55
        E 36 93 2c 69
        E 154 83 2c 68
        E 85 93 22 6f
        E 222 93 27 59
        E 11 83 22 64
        E 213 83 27 59
        E 20 93 29 5b
        E 190 83 29 53
        E 45 93 2c 69
        E 77 83 2c 6b
        E 176 93 2e 79
        E 128 83 2e 6e
        E 105 93 29 4e
        E 188 83 29 51
        E 45 93 2c 73
        E 179 83 2c 60
        E 45 93 29 59
        E 125 83 29 5f
        E 139 93 27 6f
        E 330 83 27 66
        E 139 93 22 73
        E 219 83 22 5c
        E 40 93 2e 6d
        E 377 83 2e 64
        E 66 93 27 62
        E 215 83 27 52
        E 37 93 29 56
        E 210 83 29 57
        E 32 93 2c 62
        E 153 83 2c 52
        E 91 93 22 6b
        E 190 83 22 4f
        E 60 93 2e 75
        E 369 83 2e 67
        E 71 93 27 5f
        E 219 83 27 58
        E 31 93 29 5d
        E 210 83 29 59
        E 23 93 2c 6b
        E 264 83 2c 5b
        E 0 93 29 5d
        E 185 83 29 5e
        E 25 93 2c 69
        E 111 83 2c 71
        E 190 93 27 6b
        E 12 93 2e 6d
        E 286 83 27 64
        E 66 83 2e 6d
        E 128 93 22 79
        E 492 83 22 62
        E 19 93 2e 6f
        E 369 83 2e 6b
        E 5 93 2c 62
        E 61 83 2c 75
        E 23 93 2e 6b
        E 50 93 2c 6d
        E 12 83 2e 6d
        E 667 83 2c 6f
        E 15 93 20 6d
        E 101 83 20 40
        E 118 93 2a 69
        E 604 83 2a 58
        E 102 93 2a 6d
        E 201 83 2a 6d
        E 13 93 29 64
        E 283 93 26 4d
        E 46 93 28 1c
        E 17 83 26 43
        E 27 83 28 6d
        E 19 83 29 66
        E 2 93 2b 5b
        E 17 83 2b 79
        E 3 93 2d 62
        E 16 83 2d 75
        E 1 93 2f 66
        E 16 83 2f 71
        E 0 93 30 69
        E 14 83 30 79
        E 3 93 32 56
        E 17 93 34 56
        E 2 83 32 5b
        E 20 93 35 4e
        E 26 83 34 6a
        E 202 93 29 6b
        E 15 83 35 6a
        E 249 83 29 69
        E 8 93 2e 6b
        E 599 83 2e 67
        E 62 93 2e 62
        E 242 83 2e 6d
        E 15 93 2c 6b
        E 653 83 2c 62
        E 73 93 2c 69
        E 223 83 2c 73
        E 16 93 2a 6b
        E 661 83 2a 6d
        E 71 93 2a 66
        E 227 83 2a 6a
        E 26 93 29 69
        E 183 83 29 60
        E 58 93 29 66
        E 242 93 2b 64
        E 28 83 29 64
        E 221 93 2d 64
        E 8 83 2b 68
        E 170 83 2d 67
        E 71 93 2e 66
        E 711 83 2e 75
        E 4 93 2c 69
        E 126 93 2e 5b
        E 7 83 2c 6f
        E 94 83 2e 6e
        E 11 93 2c 6f
        E 634 83 2c 6b
        E 79 93 2c 6b
        E 219 83 2c 71
        E 20 93 2a 6d
        E 652 83 2a 6b
        E 64 93 2a 6d
        E 226 83 2a 61
        E 23 93 29 66
        E 180 83 29 5e
        E 56 93 29 64
        E 236 93 2b 6b
        E 16 83 29 58
        E 236 83 2b 58
        E 0 93 2d 69
        E 222 83 2d 6a
        E 24 93 22 73
        E 238 83 22 62
        E 20 93 2e 6f
        E 415 83 2e 68
        E 48 93 22 66
        E 250 83 22 64
        E 0 93 27 62
        E 179 83 27 5e
        E 48 93 29 5d
        E 173 83 29 42
        E 54 93 2c 6b
        E 125 83 2c 68
        E 119 93 22 75
        E 290 83 22 6e
        E 182 93 22 6b
        E 173 83 22 43
        E 74 93 2e 79
        E 128 83 2e 60
        E 88 93 29 52
        E 230 83 29 54
        E 14 93 2c 6f
        E 159 83 2c 61
        E 60 93 29 5b
        E 130 83 29 60
        E 114 93 27 6f
        E 324 83 27 5e
        E 136 93 22 73
        E 216 83 22 53
        E 40 93 2e 73
        E 414 83 2e 6d
        E 57 93 27 5f
        E 227 83 27 58
        E 20 93 29 5d
        E 219 83 29 55
        E 14 93 2c 66
        E 156 83 2c 5b
        E 102 93 27 5f
        E 171 83 27 58
        E 48 93 29 59
        E 142 83 29 55
        E 119 93 22 73
        E 225 93 29 47
        E 28 83 22 63
        E 151 83 29 55
        E 62 93 2e 75
        E 100 83 2e 71
        E 122 93 29 4b
        E 213 83 29 46
        E 48 93 2c 73
        E 156 83 2c 62
        E 46 93 29 54
        E 113 83 29 68
        E 154 93 27 6d
        E 346 83 27 64
        E 136 93 22 6d
        E 225 83 22 53
        E 22 93 2e 75
        E 409 83 2e 66
        E 74 93 27 5d
        E 202 83 27 53
        E 60 93 29 5d
        E 196 83 29 55
        E 36 93 2c 69
        E 154 83 2c 68
        E 85 93 22 6f
        E 222 93 27 59
        E 11 83 22 64
        E 213 83 27 59
        E 20 93 29 5b
        E 190 83 29 53
        E 45 93 2c 69
        E 77 83 2c 6b
        E 176 93 2e 79
        E 128 83 2e 6e
        E 105 93 29 4e
        E 188 83 29 51
        E 45 93 2c 73
        E 179 83 2c 60
        E 45 93 29 59
        E 125 83 29 5f
        E 139 93 27 6f
        E 330 83 27 66
        E 139 93 22 73
        E 219 83 22 5c
        E 40 93 2e 6d
        E 377 83 2e 64
        E 66 93 27 62
        E 215 83 27 52
        E 37 93 29 56
        E 210 83 29 57
        E 32 93 2c 62
        E 153 83 2c 52
        E 91 93 22 6b
        E 190 83 22 4f
        E 60 93 2e 75
        E 369 83 2e 67
        E 71 93 27 5f
        E 219 83 27 58
        E 31 93 29 5d
        E 210 83 29 59
        E 23 93 2c 6b
        E 264 83 2c 5b
        E 0 93 29 5d
        E 185 83 29 5e
        E 25 93 2c 69
        E 111 83 2c 71
        E 190 93 27 6b
        E 298 83 27 64
        E 218 93 24 73
        E 238 83 24 62
        E 20 93 30 6f
        E 415 83 30 68
        E 48 93 24 66
        E 250 83 24 64
        E 0 93 29 62
        E 179 83 29 5e
        E 48 93 2b 5d
        E 173 83 2b 42
        E 54 93 2e 6b
        E 125 83 2e 68
        E 119 93 24 75
        E 290 83 24 6e
        E 182 93 24 6b
        E 173 83 24 43
        E 74 93 30 79
        E 128 83 30 60
        E 88 93 2b 52
        E 230 83 2b 54
        E 14 93 2e 6f
        E 159 83 2e 61
        E 60 93 2b 5b
        E 130 83 2b 60
        E 114 93 29 6f
        E 324 83 29 5e
        E 136 93 24 73
        E 216 83 24 53
        E 40 93 30 73
        E 414 83 30 6d
        E 57 93 29 5f
        E 227 83 29 58
        E 20 93 2b 5d
        E 219 83 2b 55
        E 14 93 2e 66
        E 156 83 2e 5b
        E 102 93 29 5f
        E 171 83 29 58
        E 48 93 2b 59
        E 142 83 2b 55
        E 119 93 24 73
        E 225 93 2b 47
        E 28 83 24 63
        E 151 83 2b 55
        E 62 93 30 75
        E 100 83 30 71
        E 122 93 2b 4b
        E 213 83 2b 46
        E 48 93 2e 73
        E 156 83 2e 62
        E 46 93 2b 54
        E 113 83 2b 68
        E 154 93 29 6d
        E 346 83 29 64
        E 136 93 24 6d
        E 225 83 24 53
        E 22 93 30 75
        E 409 83 30 66
        E 74 93 29 5d
        E 202 83 29 53
        E 60 93 2b 5d
        E 196 83 2b 55
        E 36 93 2e 69
        E 154 83 2e 68
        E 85 93 24 6f
        E 222 93 29 59
        E 11 83 24 64
        E 213 83 29 59
        E 20 93 2b 5b
        E 190 83 2b 53
        E 45 93 2e 69
        E 77 83 2e 6b
        E 176 93 30 79
        E 128 83 30 6e
        E 105 93 2b 4e
        E 188 83 2b 51
        E 45 93 2e 73
        E 179 83 2e 60
        E 45 93 2b 59
        E 125 83 2b 5f
        E 139 93 29 6f
        E 330 83 29 66
        E 139 93 24 73
        E 219 83 24 5c
        E 40 93 30 6d
        E 377 83 30 64
        E 66 93 29 62
        E 215 83 29 52
        E 37 93 2b 56
        E 210 83 2b 57
        E 32 93 2e 62
        E 153 83 2e 52
        E 91 93 24 6b
        E 190 83 24 4f
        E 60 93 30 75
        E 369 83 30 67
        E 71 93 29 5f
        E 219 83 29 58
        E 31 93 2b 5d
        E 210 83 2b 59
        E 23 93 2e 6b
        E 264 83 2e 5b
        E 0 93 2b 5d
        E 185 83 2b 5e
        E 25 93 2e 69
        E 111 83 2e 71
        E 190 93 29 6b
        E 298 83 29 64
        E 194 93 24 79
        E 492 83 24 62
        E 19 93 24 6f
        E 369 83 24 6b
        E 5 93 22 62
        E 61 83 22 75
        E 23 93 24 6b
        E 50 93 22 6d
        E 12 83 24 6d
        E 667 83 22 6f
        E 15 93 2e 6d
        E 101 83 2e 40
        E 118 93 20 69
        E 604 83 20 58
        E 102 93 20 6d
        E 201 83 20 6d
        E 13 93 2b 64
        E 283 93 28 4d
        E 46 93 2a 1c
        E 17 83 28 43
        E 27 83 2a 6d
        E 19 83 2b 66
        E 2 93 2d 5b
        E 17 83 2d 79
        E 3 93 2f 62
        E 16 83 2f 75
        E 1 93 31 66
        E 16 83 31 71
        E 0 93 32 69
        E 14 83 32 79
        E 3 93 34 56
        E 17 93 36 56
        E 2 83 34 5b
        E 20 93 37 4e
        E 26 83 36 6a
        E 202 93 2b 6b
        E 15 83 37 6a
        E 249 83 2b 69
        E 8 93 30 6b
        E 599 83 30 67
        E 62 93 30 62
        E 242 83 30 6d
        E 15 93 2e 6b
        E 653 83 2e 62
        E 73 93 2e 69
        E 223 83 2e 73
        E 16 93 2c 6b
        E 661 83 2c 6d
        E 71 93 2c 66
        E 227 83 2c 6a
        E 26 93 2b 69
        E 183 83 2b 60
        E 58 93 2b 66
        E 242 93 2d 64
        E 28 83 2b 64
        E 221 93 2f 64
        E 8 83 2d 68
        E 170 83 2f 67
        E 71 93 30 66
        E 711 83 30 75
        E 4 93 2e 69
        E 126 93 30 5b
        E 7 83 2e 6f
        E 94 83 30 6e
        E 11 93 2e 6f
        E 634 83 2e 6b
        E 79 93 2e 6b
        E 219 83 2e 71
        E 20 93 2c 6d
        E 652 83 2c 6b
        E 64 93 2c 6d
        E 226 83 2c 61
        E 23 93 2b 66
        E 180 83 2b 5e
        E 56 93 2b 64
        E 236 93 2d 6b
        E 16 83 2b 58
        E 236 83 2d 58
        E 0 93 2f 69
        E 222 83 2f 6a
        E 22 93 24 6f
        E 695 83 24 62
        E 43 93 24 62
        E 228 83 24 5e
        E 7 93 22 62
        E 624 83 22 71
        E 67 93 22 6d
        E 222 83 22 6d
        E 29 93 20 6d
        E 652 83 20 64
        E 63 93 20 6f
        E 221 83 20 57
        E 10 93 1f 5b
        E 466 93 2b 69
        E 5 83 1f 55
        E 230 83 2b 67
        E 9 93 29 62
        E 80 83 29 68
        E 23 93 26 59
        E 129 83 26 67
        E 18 93 24 66
        E 640 83 24 53
        E 64 93 24 64
        E 229 83 24 64
        E 9 93 22 69
        E 632 83 22 69
        E 94 93 22 6b
        E 224 83 22 64
        E 24 93 20 6d
        E 601 83 20 51
        E 110 93 20 69
        E 216 83 20 57
        E 11 93 1f 5f
        E 500 83 1f 5a
        E 4 93 2b 6d
        E 209 83 2b 66
        E 13 93 29 62
        E 87 83 29 6a
        E 20 93 26 5d
        E 142 83 26 63
        E 19 93 24 69
        E 609 83 24 59
        E 81 93 24 59
        E 245 83 24 58
        E 13 93 22 62
        E 630 83 22 6b
        E 74 93 22 66
        E 256 93 20 6f
        E 14 83 22 61
        E 608 83 20 5f
        E 102 93 20 6d
        E 238 83 20 66
        E 4 93 1f 5b
        E 480 83 1f 61
        E 13 93 2b 69
        E 213 83 2b 64
        E 17 93 29 52
        E 94 83 29 67
        E 17 93 26 54
        E 127 83 26 5a
        E 37 93 24 66
        E 483 93 30 62
        E 28 83 24 60
        E 169 83 30 70
        E 16 93 24 62
        E 237 93 22 6b
        E 7 83 24 5e
        E 473 93 2e 66
        E 3 83 22 64
        E 201 83 2e 75
        E 19 93 22 66
        E 248 83 22 6d
        E 0 93 20 6f
        E 498 93 2c 6d
        E 7 83 20 57
        E 207 83 2c 72
        E 18 93 20 66
        E 239 83 20 61
        E 0 93 1f 5b
        E 465 93 2b 6d
        E 3 83 1f 5b
        E 230 83 2b 63
        E 7 93 29 59
        E 84 83 29 67
        E 22 93 26 5d
        E 132 83 26 67
        E 14 93 24 6b
        E 638 83 24 60
        E 54 93 24 59
        E 224 83 24 5f
        E 5 93 22 6b
        E 655 83 22 6a
        E 69 93 22 6b
        E 259 93 20 6b
        E 10 83 22 68
        E 604 83 20 52
        E 100 93 20 6b
        E 245 93 1f 54
        E 4 83 20 70
        E 656 83 1f 62
        E 57 93 1f 59
        E 254 83 1f 62
        E 0 93 24 62
        E 651 83 24 67
        E 30 93 24 5b
        E 247 83 24 60
        E 6 93 22 6d
        E 658 83 22 70
        E 94 93 22 6d
        E 235 83 22 62
        E 10 93 20 6d
        E 605 83 20 57
        E 87 93 20 6b
        E 213 83 20 5e
        E 18 93 1f 5d
        E 482 93 2b 6f
        E 28 83 1f 60
        E 192 83 2b 64
        E 26 93 29 5b
        E 85 83 29 68
        E 25 93 26 5b
        E 141 83 26 60
        E 14 93 24 66
        E 608 83 24 59
        E 109 93 24 64
        E 231 83 24 63
        E 21 93 22 5b
        E 611 83 22 64
        E 104 93 22 5d
        E 247 83 22 55
        E 3 93 20 6b
        E 592 83 20 52
        E 104 93 20 6d
        E 219 83 20 59
        E 20 93 1f 5f
        E 494 93 2b 6d
        E 27 83 1f 5c
        E 205 83 2b 68
        E 13 93 29 64
        E 126 93 26 54
        E 0 93 28 4e
        E 5 83 29 69
        E 43 83 28 17
        E 44 83 26 16
        E 983 93 24 6d
        E 421 83 24 5b
        E 59 93 22 69
        E 563 83 22 71
        E 127 93 22 6f
        E 117 83 22 72
        E 108 93 20 73
        E 877 83 20 6a
        E 108 93 20 73
        E 440 83 20 5f
        E 43 93 1f 59
        E 432 83 1f 64
        E 20 93 2b 64
        E 162 83 2b 5f
        E 79 93 26 62
        E 116 83 26 68
        E 145 93 24 6f
        E 787 83 24 62
        E 151 93 24 6d
        E 462 83 24 5c
        E 43 93 22 69
        E 599 83 22 73
        E 139 93 22 6b
        E 97 83 22 76
        E 128 93 20 6f
        E 778 83 20 62
        E 170 93 20 73
        E 463 83 20 6e
        E 23 93 1f 56
        E 426 83 1f 62
        E 34 93 2b 62
        E 151 83 2b 5b
        E 88 93 26 64
        E 142 83 26 5f
        E 122 93 24 71
        E 815 83 24 5f
        E 153 93 24 66
        E 477 83 24 5e
        E 26 93 22 6d
        E 522 83 22 77
        E 182 93 22 5d
        E 94 83 22 71
        E 133 93 20 6d
        E 779 83 20 5b
        E 130 93 20 73
        E 455 83 20 6a
        E 31 93 1f 5b
        E 432 83 1f 62
        E 31 93 2b 62
        E 162 83 2b 5f
        E 82 93 26 5d
        E 136 83 26 5e
        E 122 93 24 6d
        E 835 83 24 5f
        E 168 93 24 66
        E 406 83 24 5e
        E 77 93 22 66
        E 534 83 22 69
        E 187 93 22 66
        E 100 83 22 72
        E 136 93 20 6f
        E 761 83 20 60
        E 162 93 20 75
        E 412 83 20 4c
        E 42 93 1f 5b
        E 438 83 1f 64
        E 22 93 2b 66
        E 182 83 2b 58
        E 77 93 26 64
        E 139 83 26 61
        E 116 93 24 71
        E 804 83 24 60
        E 176 93 24 69
        E 446 83 24 61
        E 43 93 22 62
        E 542 83 22 70
        E 165 93 22 69
        E 125 83 22 6e
        E 122 93 20 73
        E 806 83 20 5e
        E 142 93 20 6f
        E 466 83 20 6a
        E 31 93 1f 54
        E 421 83 1f 60
        E 34 93 2b 62
        E 182 83 2b 57
        E 68 93 26 5b
        E 145 83 26 61
        E 88 93 24 6f
        E 818 83 24 5c
        E 161 93 24 6b
        E 358 83 24 53
        E 139 93 22 6d
        E 560 83 22 6f
        E 148 93 22 69
        E 110 83 22 72
        E 145 93 20 75
        E 255 83 20 68
        E 1685 b3 07 64
        E 1195 93 2b 4d
        E 236 93 2e 5d
        E 23 83 2b 52
        E 223 83 2e 67
        E 3 93 2f 4d
        E 263 93 30 4d
        E 3 83 2f 67
        E 1659 93 2b 4f
        E 12 83 30 67
        E 105 93 2f 45
        E 18 83 2b 5a
        E 110 83 2f 61
        E 10 93 30 4c
        E 471 93 24 56
        E 13 83 30 6d
        E 475 93 22 5b
        E 7 83 24 60
        E 602 83 22 67
        E 59 93 22 5f
        E 249 93 20 62
        E 9 83 22 63
        E 970 93 1f 52
        E 9 83 20 60
        E 938 83 1f 64
        E 2 93 29 5b
        E 965 93 27 52
        E 3 83 29 5b
        E 724 83 27 6e
        E 2 93 29 56
        E 246 83 29 67
        E 9 93 26 56
        E 907 93 24 56
        E 3 83 26 60
        E 734 83 24 62
        E 0 93 26 52
        E 267 83 26 62
        E 0 93 22 59
        E 851 83 22 54
        E 72 93 22 5f
        E 471 83 22 50
        E 4 93 24 54
        E 230 83 24 66
        E 3 93 26 4f
        E 242 93 27 54
        E 17 83 26 58
        E 644 83 27 70
        E 72 93 27 59
        E 167 83 27 5f
        E 84 93 27 59
        E 390 83 27 5e
        E 72 93 27 54
        E 207 83 27 67
        E 15 93 29 4d
        E 240 83 29 60
        E 6 93 2b 59
        E 854 83 2b 45
        E 115 93 2b 5b
        E 494 93 2d 5d
        E 23 83 2b 61
        E 200 93 2f 4c
        E 10 83 2d 68
        E 256 83 2f 69
        E 6 93 30 52
        E 730 93 2b 4f
        E 3 83 30 67
        E 248 83 2b 67
        E 1 93 30 4f
        E 692 93 2e 5f
        E 12 83 30 62
        E 245 93 2c 62
        E 25 83 2e 5f
        E 826 83 2c 58
        E 97 93 2c 62
        E 478 93 27 59
        E 3 83 2c 71
        E 236 83 27 70
        E 6 93 2c 59
        E 226 83 2c 69
        E 30 93 2b 5b
        E 818 83 2b 4f
        E 105 93 2b 56
        E 618 83 2b 59
        E 102 93 2b 5b
        E 252 83 2b 63
        E 7 93 26 56
        E 887 83 26 58
        E 74 93 26 54
        E 475 83 26 60
        E 0 93 32 4d
        E 227 83 32 5e
        E 12 93 26 49
        E 256 93 2b 5d
        E 18 83 26 5e
        E 626 83 2b 63
        E 47 93 2b 56
        E 156 83 2b 5f
        E 85 93 2b 5b
        E 598 83 2b 53
        E 109 93 2b 5b
        E 262 83 2b 67
        E 0 93 24 62
        E 629 83 24 5b
        E 84 93 24 5f
        E 252 83 24 5b
        E 0 93 22 5f
        E 652 83 22 62
        E 62 93 22 5b
        E 285 93 20 69
        E 13 83 22 61
        E 442 83 20 71
        E 5 93 2c 66
        E 437 83 2c 73
        E 12 93 1f 56
        E 452 83 1f 61
        E 1 93 2b 59
        E 234 83 2b 62
        E 11 93 26 5b
        E 254 83 26 64
        E 4 93 29 5d
        E 648 83 29 60
        E 58 93 29 59
        E 270 83 29 5f
        E 6 93 27 62
        E 603 83 27 58
        E 78 93 27 5f
        E 262 83 27 7c
        E 23 93 26 5d
        E 562 83 26 57
        E 94 93 26 54
        E 275 83 26 60
        E 10 93 24 5b
        E 427 83 24 68
        E 74 93 24 5d
        E 453 83 24 60
        E 5 93 22 5f
        E 881 83 22 5c
        E 69 93 22 5f
        E 457 83 22 5b
        E 11 93 24 5d
        E 222 83 24 67
        E 9 93 26 59
        E 246 93 27 66
        E 23 83 26 5b
        E 610 83 27 5c
        E 81 93 27 5b
        E 177 83 27 62
        E 81 93 27 5d
        E 432 83 27 61
        E 62 93 27 5d
        E 184 83 27 67
        E 20 93 29 54
        E 241 83 29 5f
        E 14 93 2b 5d
        E 847 83 2b 59
        E 101 93 2b 5f
        E 455 83 2b 64
        E 60 93 2b 5b
        E 111 93 2d 59
        E 13 83 2b 53
        E 86 93 2f 56
        E 16 83 2d 67
        E 249 93 30 56
        E 3 83 2f 50
        E 421 83 30 69
        E 57 93 30 5f
        E 229 83 30 68
        E 22 93 2b 59
        E 259 93 24 52
        E 4 83 2b 67
        E 496 93 30 56
        E 11 83 24 68
        E 213 93 2e 62
        E 20 83 30 60
        E 248 93 2c 66
        E 4 83 2e 69
        E 598 83 2c 5c
        E 84 93 2c 4f
        E 182 83 2c 64
        E 71 93 2c 62
        E 431 83 2c 64
        E 64 93 2c 6d
        E 447 93 2b 62
        E 1 83 2c 72
        E 397 83 2b 5e
        E 82 93 2b 5b
        E 151 83 2b 66
        E 89 93 2b 56
        E 114 83 2b 4d
        E 126 93 2b 5d
        E 413 83 2b 5c
        E 67 93 2b 69
        E 397 83 2b 58
        E 83 93 2b 5f
        E 480 83 2b 62
        E 1440 93 2c 4d
        E 3783 83 2c 64
        E 57 93 20 4d
        E 1920 83 20 40
        E 0 b0 7b 00
        CCINTERP 32
        CHASE_CC_TAKEOFFS 1
        GUID {CD6300A4-D624-6340-888E-C10086DBD0D2}
        IGNTEMPO 0 120 4 4
        SRCCOLOR 4
        VELLANE -1 100 0
      >
    >
  >
  <TRACK {EC250EFC-7B0D-F14A-B56C-94F23FA9ACB8}
    NAME Piano
    PEAKCOL 16576
    BEAT -1
    AUTOMODE 0
    VOLPAN 0.11143633310993 0 -1 -1 1
    MUTESOLO 0 0 0
    IPHASE 0
    PLAYOFFS 0 1
    ISBUS 0 0
    BUSCOMP 0 0 0 0 0
    SHOWINMIX 1 0.6667 0.5 1 0.5 0 0 0
    SEL 0
    REC 0 0 1 0 0 0 0 0
    VU 2
    TRACKHEIGHT 62 0 0 0 0 0
    INQ 0 0 0 0.5 100 0 0 100
    NCHAN 2
    FX 1
    TRACKID {EC250EFC-7B0D-F14A-B56C-94F23FA9ACB8}
    PERF 0
    MIDIOUT -1
    MAINSEND 1 0
    <FXCHAIN
      WNDRECT 1057 302 753 619
      SHOW 1
      LASTSEL 0
      DOCKED 0
      BYPASS 0 0 0
      <VST "VST3: Cardinal FX (DISTRHO)" CardinalFX.vst3 0 "" 1558924367{2046504473616C63466E436400000000} ""
        T0zrXO5e7f4CAAAAAQAAAAAAAAACAAAAAAAAAAIAAAABAAAAAAAAAAIAAAAAAAAAZhAAAAEAAAD//xAA
        VhAAAAEAAABfX2RwZl9zdGF0ZV9iZWdpbl9fAGNvbW1lbnQAAG1vZHVsZUluZm9zAHt9AHBhdGNoAEtMVXYvUUJJWFZNQXFvc3dHVU5BYTVzQ00rRXlETU13RElqSzBN
        cjQxaFliUmxzNTBWc1N1WksxbTB1SUwwcktQT1NPMWVZb2xoa1JxTVZHaGZ6MFUwcnAveTh5VUQ5UktTMUV6c2xNaTRZTWtBRktBYXNCdmZzWWhKamZlK2pZWWZmL1Ay
        TU5MVDkwbFR5VzZlRnY1MW8vdi8vMzE5QSs5ODUvbi9udTd2SnJ0NDFaTC9NR3E1TEhNajBMclVvZXVhR2tqVWRWVlVPeXBNektXV1ZneVd0S1BDcDVLR21wTkI0T1NW
        RlNoa2NsejV3eU5sVG1VWFhzZmZOejV3MHlxK1N4VEkrcXF1cERBNDJrTnBaSzQxRjlRRFNvUHZqZFFXNlF1VU4yZmhCYVZkVUh4TnR2dSsrK3Q5YXRRU3lpcXZxd1FD
        WFBKVFdYQzRWbHNqSWUxUWRrSVZiSm8xRlZHVHlxRDhpelVkbUFNQ3k1WWNsclNsQWlGQXdUR0NoRUdvbXBYRkltb3FRNVdTeHBRblJaVlNhenNkQlpUWmRVbWFoTUpp
        TGlzQ1FMWTdvUVBTcDVNSmVVZVZRZmtJY2hodnBSeVRPclNXUEpqVWYxb1VGcnJGbTdZMjd0N2U2c05CZEFtTW9sWlNoUUJEbDEybU83NnpnUkZQSGdBQkFjQ0lHRGR5
        SUE0TWpLbEtiY3FLd01KS2xNUm9JMHFrb0JBRGdFT0k3VGdlTTRIemdZTGk0aW5BOGN4NG5nT0E0R2p1TzA0emdET0k0VHdkRUoxSUpDSzlLRTQwUndCREFnQUYzSGtp
        N05adFY1N1h4WFhUUEhHRnZYV0ZucjNYWFVPZDlkQjZKQUFXMmJHV05ZTXNNRWgrYkNUS3h4Yzg0OWcvN2NhK2VOVmZKWUpDUzFzVlFURnlaanN2VEJidDFEZjY2MXhs
        bzNicy9lM0h5OStZT1AyVGJtNTk3V0R0ZWJ2L2NNTW1lUHZRYTVQZDdmdCs3MVk5L25qekc3OTNOREcySE55eDc2YzQwMWJ6LzA1eHByZnVndjhucTVyYk5ENzJmWW9P
        V0llM2ErM3UrWmN4QmlqbXlIU2FPRHRLYk1nSklaYWYwK2Y3ZmRiOS9iUTBPVmVTVEZjVmxRY2txWlIvSklsMlI1Tk9pamwzbmJRMmZkckJkKzcrNnU2L2ZOelpyYmJi
        dTcwRUZvM1M1amtDMTAvLytzZFdQUG5XTnYvUDZmN1dQTm9QTm5iU0hzaDkyK3pIYlpkK3RlMXYzdlgvUFg0SG96WjI5djd0bDNGN3JXRHdocmJ0MWo2RzUzZDZIYjFz
        M1AvZm56K3Y4LzYyNXU4QmxqL1F6dTd2YUQySFkveDh0dC9UWC9kd3RCWnU1OXI1bjE3bTdEeGczOUdYUDQvUCsvSDFySG1HOTMrK2IvejFvek43L3UxdDZ5RGpOaVdI
        SkRXbnFwWnJ3bURKVVVjMDBjRkhOTkRvMVdwbGxoTWh4VWxWRlptYW9OYlNxcDZaSTBsdHlZY1VZTURwWklKUExFeUJNamtVZ2tFb2xFVkZVQkNBSWxvQUFGaENJQkNB
        V3lRVGZNZUhXUWwzeFVJM2hVOG1STWlYcFVKVFZkbm1aVjEyU3BjSFdRRnd6YllYTTM5dFplYzRTSUp0RkVaNFRna0RBd2xVdXFtT2lNMFVSbm5NQ0NCUVFWV0xCZzBl
        VENJc05FZGNiT2NHR2lPcU9FaFFXRmllcU0wUVRpZ1l1SUNrcEVoUVdGaUFzVDFSbWp5ZTQyaUd0VFNZM3BJcHJzTm9UR2twZlVrQ3lwb29NME1WR2RNWnJJalhWQlpL
        cUxTYUhoa0RoUUVSb0pDU2FxTTA0U2FHU0daYklhbUZQR2hxcXc1RVZhRlJQVkdhT0oxRkRTQmFLU2xyd3NaTVdxTEV4VVo0VFFaTXpwdXFTRm5GUEdyRERSR1NFa05L
        Z2xMQkFCaFlRRmhnb1pkRElqeE1XRUNoQlFZS2lJUkZ6QUVERkJLMVJRY0RHQmdnSUNreGtoR0pBQUl4WXVKSkN3UU1hY0xGVmxTcFd3RUV0WVFDbU5EZ3hNSG4yd1JG
        blNCTWZlN24yRDd4L3VPbjA4OVBld2YvdVpGNzdlM2QxOWpybHo3ZGgzZDNmaGEreTFmcTM3b2JQMzYvVEIyajkrRVA0K3lONi9CMlQ3SWU4K1pqQWJQRFNvUG5iYk5m
        VDN2RFhtN2Z1NWRyRGJ1K2FGemgvczNjYThIZnZMaFhWRC9uWE1NVnYyYi9mUytUMXYzbzNaZzl1ODIwR3BKZG8rNXJyMWI0UCtEeVhHTHV6bXJpM3NCNSsvZjVkTE8y
        Ykd2ODBaZTlnY1pCSmp1K0hiZG9mdzdUZTNlRHRtNzk3Y3I5M0M5WC90Y21uWDNMS0dqYlYvOTlpejV5eCt1YlRiNWJiZTBHR3p4d3o5YVhlNStIdDRWUEpZRlZWVjVq
        U25hNU81TnRVbWMyMnF4bHgvWTgrdFA4YmF3NUFxVEIvdDJsU1VuRlBDVExnMm1UbFpxb2xucUpJSFU3bW1pa3NqVVk5S0htbXBKamlvS3ZPb2FpZzVwNFNwUEtyNmdH
        Q3VxdExRUEJsVHdzQWhJMEZCWXNJZmNtTmRLbmtzZVZHVGhZcmxJcW50YXJKc0lpNU45UURtc2t3Y1pxUjB6QmhqRktQRytQRHc4UEFRYWZUd01HT2tVWWQyYUVlTUdx
        TjJ6QmhwRktQR3VLRmp4b2hDVWFWUTRvd2RIVE9xYWhSUktCUktqREZ1aUVRMlJEUE9LQ3RUbXBWR1dveWpNdVVHQTJsZDFKSVhOVjFVMHRWMFNkVEdVbWtvNXJKTUhG
        UnFxRTFHSmF3aFdWTEZqQUdCODZqeFFFaU1FUUVBQUFDZ0FZQUEwUVhBTUlOUVdYVURFb0JRRUJJSHNoekVRQXlEVUJ4R0NRQXhDQW1JQUFBQk1BUXdDV0F4QU1YMHow
        QmM2MXExdWRGUkZ3TnpnVENnZ2RwYzBPTm9nUDIzM0lFMkQrWUZERE1zNGVCZzhvbzEvQkJTZE9ZRTg3dlRDemVwKzBJN2h6UHBvZ0xBRklUQmVxb1RWQ0UxQTlxS2tB
        d2gxZ3pMd2FCbEJoWTJIT3dQQXpHOENaT2pPYm9IMzBkdG5PdG5hSkhEVGFsS0Y0SFJQQk1GbW9hWGN0eGliQzQ0NktDaEQwZFFTTnFLQmF5bGdLdnlBbGZwaVlkNGo4
        WVhDcE9QMEJmbFBtTS9qRGdtT0Q1SnlyOXorYUNQVVpzYkRtM3NIM3hmVmVuMjJHbGN2dDY4SjB5Y0NYTlFzenZGM0VjZmFvMEtHTVo4ekhhY2t3NUM2ZTZuRk9ic3pG
        bE8rR1FnQ1c0dHlkaTRoRjdRc2dFdEY4N2JmLzQxNzV0ZGpkR1p1cG1neXFwTms2Y3hGbFhQWlZXUVlPa1UrcUlwQnJCZmZSYWEvbDZBWUc2VUVqQnpzWm5MT3ZDZXFp
        dHBiZjdZZTRFT3psNXRBYjZsVU03dEJKaDkwWjdtQjBUREZjSDBQVUltQ1FQRmY3OHlaL1BzNWhmdlNsSTd4ZVlYNzBxVUo1RzA3SHBWTjFvQkVDWUNaMHd3azdXVzJN
        ZmcySTd6UG1XZktpYTEzeG00a041Mit1bEY1ZUtiZ3Zjb2pOZXI4d1l3OEFqWWZZMW1icUtva3RBWkJWbnR2Vmp3TVRiaXRJaUY1bXZ5SG1wL2ozaVBlQ2QwWE5zZjlL
        L2JIbmtPWExhUjZRYmZlb3hCOXJxZGhCVFFON21nZ2Z6VUFoREpqM0ZWdFpDd1BVbXVnSzJxUmJzcUtKakJ1a0gwUlJpUFQ2MW1pV3dFUkE0NkJXZEkvc2pIVE1sNldl
        YVg0OXlxZlRubytndm5xV2RYZVAwUWhkdWx5dGErUHFIa1FoTWNERVZlTllpWHRZYzFDcmtoK3RvZVV5SjRPS2ZTb0pjTGFFaUNjTDNHQXRTOHlSa3R2NVY3cXk1S1FG
        d2J5andqd05TRHVFRnJZMyt5TU9PTmR5QWlRT1I0V3R2YW9Udy9YM251U3F3UVFxSU1iSEs2OTRybjVhZ3dEdDk4UllUZVZDSGphMjk0VHBMNURaL0pJZmdKbER5RmlG
        ekRNWk5zT1dTU0xZZE1ZcnNCMDJ3NVpKSXRoMHp5M0VFMG01bFNSRHhuaDIwcVlsTVV2SDZ2RGNyTnNSdFhuRTlabVJ1Ny9KaHpLK3VxekxuTGtqaEhacXBBVW5TV1JJ
        T3BHMFlzRjlvbEhQWkJ4UENUMms0dkZWKytkS1FoWnhmYUZDY0pIVGdEblU0T1JrTzVIVGIrQktmSkdnTnkvaEhtQ0ZFTDFRYllVQnBqN2tpY2Q4R1J4b0FwZkw3VDBa
        UHNKSW1ydUN1T01JNkprZWpnN296azlYNlIvakw1aUJCWFd2eU1Cb2JRQkFRSFBZTlUvRkhCdjBTb3FWZk01QVdIRUEvM2g5VGZWVnV1RW5NMS9VOGNnVUNMd2Y1ZEVp
        N1VSc3p4c2pvYnRWdlF4NGhjNGRnZ1Z5Q0FnS3hUb1hBUVFTUWc1cWdCQ1p6TDZjWGdlekMzWnRpaUloNmswdXR1SmlGMEVxbERtRXBaZE5zQXoxL1FBYUROWlljMm9P
        eWpEN2FmdE5MUTBlWmdhbW5hRFZEZmV0REsxSy9iOU1DM0FUczd6Qm5DRnRPOFY2U1NlTVU2Wm40ZDJ1Zk9HOWQyTmZEejNZck4Ac2NyZWVuc2hvdAAAd2luZG93U2l6
        ZQA2NDg6NTM4AF9fZHBmX3N0YXRlX2VuZF9fAF9fZHBmX3BhcmFtZXRlcnNfYmVnaW5fXwBwYXJhbV8xADAAcGFyYW1fMgAwAHBhcmFtXzMAMABwYXJhbV80ADAAcGFy
        YW1fNQAwAHBhcmFtXzYAMABwYXJhbV83ADAAcGFyYW1fOAAwAHBhcmFtXzkAMABwYXJhbV8xMAAwAHBhcmFtXzExADAAcGFyYW1fMTIAMABwYXJhbV8xMwAwAHBhcmFt
        XzE0ADAAcGFyYW1fMTUAMABwYXJhbV8xNgAwAHBhcmFtXzE3ADAAcGFyYW1fMTgAMABwYXJhbV8xOQAwAHBhcmFtXzIwADAAcGFyYW1fMjEAMABwYXJhbV8yMgAwAHBh
        cmFtXzIzADAAcGFyYW1fMjQAMABkcGZfYnlwYXNzADAAdG9vbHRpcHMAMQBjYWJsZU9wYWNpdHkANTAAY2FibGVUZW5zaW9uADc1AHJhY2tCcmlnaHRuZXNzADEwMABo
        YWxvQnJpZ2h0bmVzcwAyNQBrbm9iTW9kZQAwAGtub2JTY3JvbGwAMABrbm9iU2Nyb2xsU2Vuc2l0aXZpdHkAMQBsb2NrTW9kdWxlcwAwAHJhdGVMaW1pdAAwAGJyb3dz
        ZXJTb3J0ADMAYnJvd3Nlclpvb20ANTAAaW52ZXJ0Wm9vbQAwAF9fZHBmX3BhcmFtZXRlcnNfZW5kX18A/gAAAAAAAAAAAA==
        AAAQAAAA
      >
      FLOATPOS 0 0 0 0
      FXID {CA4ADE81-0F54-7B48-AD8B-E0BB493834AB}
      WAK 0 0
    >
    <ITEM
      POSITION 0
      SNAPOFFS 0
      LENGTH 350.96757745293559
      LOOP 1
      ALLTAKES 0
      FADEIN 1 0 0 1 0 0 0
      FADEOUT 1 0 0 1 0 0 0
      MUTE 0 0
      SEL 0
      IGUID {C8887EFD-0E1C-2741-939B-0A0F8F2E9E86}
      IID 5
      NAME "Piano - 1-6--3-2_geth-1.mid"
      VOLPAN 1 0 1 -1
      SOFFS 0 0
      PLAYRATE 1 1 0 -1 0 0.0025
      CHANMODE 0
      GUID {0AAF6729-BC4C-8D40-BA41-01F03F7252D9}
      <SOURCE MIDI
        HASDATA 1 480 QN
        CCINTERP 32
        POOLEDEVTS {7E7C0014-017D-E444-9534-CD9EC86210AB}
        <X 0 0 0 0 3 Piano
          /wNQaWFubw==
        >
        E 0 b4 00 00
        E 0 b4 20 01
        E 0 c4 00 00
        E 0 b4 07 6e
        E 28222 94 35 42
        E 50 94 3c 43
        E 16 84 35 54
        E 8 94 4d 4a
        E 17 94 41 4d
        E 3 94 35 54
        E 4 94 54 54
        E 56 b4 40 7f
        E 172 84 41 62
        E 10 94 52 64
        E 15 84 54 5f
        E 0 84 3c 68
        E 21 84 35 62
        E 103 84 52 3e
        E 3 84 4d 36
        E 78 b4 40 00
        E 32 94 2e 5b
        E 1 94 52 64
        E 0 94 4d 49
        E 3 94 3a 4f
        E 13 94 35 3e
        E 1 b4 40 7f
        E 51 b4 40 7f
        E 384 94 41 4d
        E 0 94 46 5d
        E 0 94 29 4e
        E 28 84 52 67
        E 0 84 4d 68
        E 3 84 3a 48
        E 13 84 35 42
        E 166 84 46 6f
        E 20 84 29 60
        E 3 94 3d 59
        E 8 84 2e 46
        E 0 84 41 39
        E 217 b4 40 00
        E 19 94 2c 66
        E 0 94 20 5f
        E 1 b4 40 00
        E 3 94 41 4e
        E 0 94 48 52
        E 9 84 3d 5b
        E 45 b4 40 7f
        E 173 94 3d 43
        E 5 84 48 55
        E 50 84 41 4a
        E 50 84 3d 52
        E 136 94 3d 4f
        E 4 94 46 4b
        E 3 94 41 46
        E 63 84 2c 46
        E 163 94 2c 4a
        E 62 84 2c 5e
        E 6 84 20 61
        E 168 b4 40 00
        E 8 94 3d 4f
        E 3 84 3d 5a
        E 1 94 41 42
        E 3 84 46 62
        E 0 94 2a 4d
        E 3 84 41 60
        E 0 94 1e 49
        E 47 b4 40 7f
        E 191 94 3a 41
        E 25 84 1e 53
        E 8 84 3d 50
        E 26 84 41 18
        E 11 84 2a 4c
        E 169 94 3d 49
        E 226 94 2a 4d
        E 1 94 36 43
        E 4 94 41 3f
        E 20 84 3a 01
        E 46 84 36 5c
        E 17 84 2a 50
        E 144 b4 40 00
        E 21 94 35 45
        E 7 94 29 4d
        E 33 b4 40 7f
        E 202 84 41 36
        E 12 94 3a 4a
        E 23 84 3d 24
        E 78 84 35 4d
        E 126 94 3d 54
        E 2 94 35 3e
        E 172 84 35 3d
        E 29 84 29 51
        E 22 94 41 42
        E 123 84 41 4d
        E 81 84 3d 43
        E 2 b4 40 00
        E 4 84 3a 26
        E 35 94 42 54
        E 0 94 33 4a
        E 1 94 27 4b
        E 4 94 3f 52
        E 16 b4 40 7f
        E 187 84 3f 73
        E 11 84 42 6f
        E 23 94 2e 42
        E 16 84 33 52
        E 229 94 48 54
        E 4 94 3f 4f
        E 0 94 42 54
        E 122 84 2e 01
        E 82 84 3f 5e
        E 13 84 42 6e
        E 0 84 48 62
        E 8 94 33 42
        E 77 84 33 43
        E 21 84 27 41
        E 28 94 2e 3a
        E 27 84 2e 57
        E 73 b4 40 00
        E 19 94 42 4f
        E 1 94 49 54
        E 9 94 25 52
        E 0 94 31 46
        E 3 94 46 4a
        E 43 b4 40 7f
        E 156 84 42 4f
        E 52 94 42 3b
        E 18 84 49 51
        E 1 84 46 4c
        E 64 84 42 4f
        E 144 94 42 4b
        E 11 94 48 44
        E 57 84 31 48
        E 168 94 31 3f
        E 1 94 46 46
        E 11 84 48 66
        E 13 84 42 75
        E 1 84 46 59
        E 48 84 25 54
        E 0 84 31 5e
        E 156 b4 40 00
        E 7 94 30 3f
        E 4 94 24 43
        E 4 94 42 4a
        E 44 b4 40 7f
        E 187 94 3a 46
        E 251 94 3f 4e
        E 7 84 42 5e
        E 117 84 30 58
        E 108 94 30 2c
        E 4 94 42 4b
        E 7 84 3f 3c
        E 21 84 30 5a
        E 0 84 24 4f
        E 203 b4 40 00
        E 7 94 2e 59
        E 5 94 22 4d
        E 37 b4 40 7f
        E 17 84 3a 1b
        E 180 94 3a 4e
        E 66 84 42 40
        E 16 84 2e 3c
        E 30 94 3d 4e
        E 118 94 2e 54
        E 0 94 3f 4b
        E 170 84 3a 39
        E 16 84 3d 41
        E 22 84 22 66
        E 3 84 2e 5f
        E 13 84 3f 6b
        E 3 94 3a 4f
        E 4 94 42 5d
        E 38 84 42 6f
        E 1 84 3a 6b
        E 159 b4 40 00
        E 35 94 3f 62
        E 0 94 20 5f
        E 0 94 2c 6b
        E 36 b4 40 7f
        E 210 94 3c 59
        E 5 84 3f 4f
        E 30 84 20 50
        E 57 84 2c 01
        E 25 94 20 49
        E 10 84 3c 52
        E 35 94 27 52
        E 23 84 20 5f
        E 33 84 27 62
        E 14 94 44 52
        E 1 94 3c 54
        E 0 94 3f 5b
        E 8 94 20 6b
        E 2 94 2c 69
        E 18 84 3c 61
        E 8 84 44 72
        E 5 84 3f 73
        E 229 94 3f 59
        E 0 94 48 4a
        E 5 94 44 4d
        E 20 84 20 50
        E 9 84 44 6b
        E 5 84 48 68
        E 0 84 3f 66
        E 0 84 2c 44
        E 196 b4 40 00
        E 8 94 2c 62
        E 0 94 20 62
        E 0 94 49 6f
        E 6 94 3f 52
        E 0 94 44 6b
        E 32 84 3f 54
        E 8 b4 40 7f
        E 208 94 3f 5b
        E 4 84 49 57
        E 28 84 44 42
        E 190 94 27 6b
        E 11 84 20 71
        E 75 84 3f 30
        E 75 84 27 5a
        E 11 84 2c 58
        E 53 94 3f 69
        E 1 94 4b 5f
        E 8 94 44 59
        E 21 84 3f 78
        E 6 84 44 75
        E 8 84 4b 72
        E 109 94 25 47
        E 45 94 2c 4f
        E 11 84 25 58
        E 19 b4 40 00
        E 17 84 2c 64
        E 5 94 44 66
        E 4 94 4e 75
        E 0 94 31 5d
        E 3 94 25 4e
        E 3 94 49 69
        E 44 b4 40 7f
        E 429 94 2c 69
        E 64 84 49 51
        E 8 84 44 54
        E 12 84 4e 50
        E 133 94 44 5d
        E 3 94 4d 3b
        E 4 84 2c 4f
        E 1 94 49 54
        E 14 84 25 58
        E 14 84 4d 5e
        E 5 84 49 77
        E 4 84 44 72
        E 9 84 31 43
        E 62 94 25 44
        E 54 94 2c 4e
        E 15 84 25 57
        E 43 84 2c 62
        E 19 94 4b 66
        E 1 b4 40 00
        E 3 94 31 5d
        E 2 94 25 66
        E 0 94 44 69
        E 23 b4 40 7f
        E 211 94 41 45
        E 22 84 4b 51
        E 20 84 44 55
        E 87 84 41 34
        E 64 84 25 5c
        E 27 84 31 60
        E 8 94 41 4b
        E 3 94 49 5b
        E 1 94 44 5f
        E 161 84 41 50
        E 85 84 44 63
        E 1 94 33 4e
        E 0 94 27 39
        E 3 94 41 54
        E 4 84 49 53
        E 27 84 27 59
        E 15 84 33 77
        E 74 84 41 4a
        E 113 b4 40 00
        E 16 94 35 4f
        E 3 94 41 52
        E 0 94 30 52
        E 3 94 29 56
        E 0 94 45 52
        E 87 b4 40 7f
        E 111 84 41 53
        E 42 84 45 58
        E 1 94 41 3e
        E 140 84 41 01
        E 98 94 45 4a
        E 6 94 41 36
        E 7 94 4d 42
        E 86 84 35 37
        E 84 84 4d 42
        E 20 84 41 2f
        E 28 84 29 10
        E 9 94 35 3e
        E 0 94 41 3a
        E 7 94 4b 59
        E 26 84 45 5a
        E 38 84 4b 58
        E 0 84 30 27
        E 28 84 41 01
        E 141 b4 40 00
        E 2 94 30 3b
        E 3 94 49 5b
        E 0 94 29 4e
        E 0 94 45 44
        E 0 94 41 3f
        E 28 b4 40 7f
        E 87 84 41 01
        E 128 94 41 41
        E 8 84 49 4d
        E 77 84 45 30
        E 33 84 41 40
        E 115 94 41 4d
        E 0 94 45 4e
        E 0 94 48 59
        E 16 84 29 4f
        E 7 84 35 44
        E 29 84 30 4b
        E 171 84 48 66
        E 12 84 45 61
        E 2 94 29 59
        E 151 84 41 28
        E 68 b4 40 00
        E 28 94 2e 62
        E 0 94 41 3e
        E 3 94 46 59
        E 1 94 4b 5f
        E 16 84 29 5a
        E 17 84 41 44
        E 23 b4 40 7f
        E 178 94 41 42
        E 244 94 22 5b
        E 10 84 4b 55
        E 37 84 46 43
        E 26 84 41 46
        E 145 84 22 49
        E 2 94 41 4c
        E 0 94 46 5d
        E 0 94 49 54
        E 36 84 49 78
        E 1 84 46 78
        E 6 84 41 64
        E 10 84 2e 2d
        E 52 94 22 43
        E 55 94 29 44
        E 11 84 22 5e
        E 68 84 29 57
        E 2 b4 40 00
        E 8 94 22 46
        E 0 94 41 4e
        E 5 94 48 4e
        E 0 94 2e 54
        E 46 b4 40 7f
        E 172 94 3d 4e
        E 5 84 48 51
        E 33 84 41 53
        E 69 84 3d 55
        E 120 84 2e 63
        E 6 94 3d 5d
        E 4 94 46 59
        E 0 94 41 4c
        E 5 84 22 62
        E 151 84 3d 42
        E 82 84 41 5e
        E 6 94 3d 5d
        E 0 94 2c 4f
        E 6 94 20 4d
        E 4 84 46 67
        E 30 84 2c 69
        E 9 84 20 5f
        E 198 b4 40 00
        E 8 94 42 5d
        E 1 94 49 62
        E 3 94 2a 62
        E 1 94 1e 5d
        E 3 84 3d 6f
        E 71 b4 40 7f
        E 402 94 3d 54
        E 60 84 2a 4d
        E 113 84 49 57
        E 26 84 3d 4f
        E 26 94 3d 32
        E 8 94 2a 4e
        E 3 94 48 45
        E 54 84 1e 51
        E 82 84 42 4b
        E 109 94 1e 4b
        E 4 94 42 4d
        E 0 94 46 4e
        E 7 84 48 63
        E 17 84 3d 57
        E 222 94 3d 4d
        E 17 84 42 36
        E 85 84 2a 42
        E 122 84 46 40
        E 20 94 42 54
        E 5 94 2a 4b
        E 138 84 1e 60
        E 30 84 2a 5c
        E 61 94 46 4a
        E 13 84 42 62
        E 34 84 46 63
        E 11 84 3d 35
        E 179 b4 40 00
        E 12 94 35 4a
        E 2 94 29 56
        E 1 94 3d 5f
        E 1 94 41 52
        E 60 b4 40 7f
        E 176 94 30 45
        E 16 84 35 4d
        E 94 84 3d 35
        E 7 94 35 45
        E 10 84 41 3e
        E 118 94 3d 5f
        E 8 94 46 5f
        E 41 84 30 3a
        E 22 84 35 2a
        E 37 84 3d 51
        E 128 84 29 49
        E 4 94 3d 5f
        E 3 84 46 5e
        E 5 94 41 45
        E 21 84 41 61
        E 9 84 3d 7a
        E 194 b4 40 00
        E 16 94 35 54
        E 4 94 29 4e
        E 1 94 3a 5f
        E 0 94 3f 62
        E 56 b4 40 7f
        E 401 84 3a 4c
        E 3 84 3f 48
        E 10 84 29 5a
        E 0 94 30 56
        E 7 84 35 4f
        E 46 84 30 69
        E 180 94 3a 4e
        E 5 94 3d 5d
        E 32 84 3a 6e
        E 15 84 3d 67
        E 58 94 29 4b
        E 48 94 30 4b
        E 26 84 29 5e
        E 25 b4 40 00
        E 22 84 30 61
        E 5 94 39 5f
        E 0 94 41 5d
        E 0 94 3c 62
        E 5 94 35 54
        E 1 94 29 5f
        E 37 b4 40 7f
        E 439 84 35 5f
        E 0 94 30 56
        E 5 84 29 57
        E 7 84 41 40
        E 30 84 3c 4c
        E 22 84 39 11
        E 163 94 39 54
        E 0 94 3c 5b
        E 5 84 30 5a
        E 1 94 41 4f
        E 20 84 39 62
        E 8 84 3c 6b
        E 16 84 41 64
        E 74 94 29 47
        E 46 94 30 4a
        E 29 84 29 5e
        E 19 b4 40 00
        E 31 94 35 52
        E 3 94 29 56
        E 2 94 41 54
        E 2 94 49 6d
        E 33 b4 40 7f
        E 107 84 49 4d
        E 58 84 41 59
        E 41 94 41 45
        E 4 94 48 62
        E 30 84 29 4d
        E 8 84 30 52
        E 7 84 35 2d
        E 182 84 41 32
        E 1 94 46 6d
        E 1 94 35 4e
        E 2 94 29 4f
        E 33 84 48 55
        E 133 84 35 4c
        E 45 84 29 55
        E 28 94 45 56
        E 27 84 46 69
        E 10 84 45 6b
        E 137 94 29 44
        E 39 b4 40 00
        E 18 94 3d 62
        E 4 94 22 59
        E 4 94 2e 66
        E 0 94 46 66
        E 3 84 29 5a
        E 64 b4 40 7f
        E 171 84 3d 62
        E 2 94 41 4b
        E 39 84 46 53
        E 213 94 3d 62
        E 4 84 41 66
        E 49 84 3d 5e
        E 182 94 3c 59
        E 203 84 22 6a
        E 8 84 2e 6d
        E 29 84 3c 5c
        E 0 94 3a 69
        E 102 84 3a 5e
        E 136 94 35 56
        E 0 94 29 64
        E 34 84 35 66
        E 11 84 29 68
        E 209 94 31 62
        E 3 94 25 6f
        E 29 84 31 76
        E 0 84 25 70
        E 198 94 30 66
        E 1 94 24 6b
        E 32 84 30 70
        E 3 84 24 6d
        E 224 94 46 6b
        E 0 94 22 59
        E 2 94 2e 73
        E 13 b4 40 00
        E 414 b4 40 7f
        E 51 94 3a 5f
        E 5 94 3d 66
        E 0 94 41 4c
        E 20 84 46 71
        E 63 84 2e 57
        E 15 84 22 51
        E 131 84 3d 71
        E 6 84 41 5c
        E 3 94 22 59
        E 0 94 2e 66
        E 56 84 3a 5a
        E 22 84 2e 57
        E 10 84 22 55
        E 17 94 29 45
        E 79 84 29 50
        E 30 b4 40 00
        E 20 94 2c 6b
        E 0 94 20 6d
        E 4 94 44 73
        E 177 b4 40 7f
        E 166 84 44 4a
        E 125 94 38 69
        E 5 94 3f 5b
        E 0 94 3c 56
        E 25 84 38 77
        E 5 84 3c 5a
        E 7 84 3f 77
        E 15 84 2c 54
        E 19 84 20 3b
        E 156 94 20 52
        E 6 94 2c 5b
        E 69 84 2c 51
        E 33 84 20 55
        E 0 94 27 4f
        E 60 84 27 5b
        E 30 b4 40 00
        E 38 94 3a 62
        E 2 94 3d 5d
        E 2 94 42 5b
        E 1 94 1e 69
        E 2 94 2a 6b
        E 72 b4 40 7f
        E 229 84 3a 4c
        E 5 84 3d 52
        E 14 84 42 53
        E 147 94 36 5d
        E 3 94 3a 66
        E 1 94 3d 62
        E 33 84 36 6b
        E 7 84 3a 70
        E 13 84 3d 71
        E 10 84 2a 51
        E 11 84 1e 4f
        E 154 94 1e 4f
        E 1 94 2a 5b
        E 109 94 25 41
        E 8 84 1e 5c
        E 3 84 2a 58
        E 77 b4 40 00
        E 16 84 25 54
        E 13 94 3c 59
        E 0 94 39 54
        E 2 94 35 4f
        E 4 94 41 52
        E 0 94 29 62
        E 0 94 1d 5b
        E 48 b4 40 7f
        E 12 84 29 54
        E 21 84 1d 53
        E 144 94 1d 5d
        E 3 94 29 5f
        E 42 84 29 63
        E 7 84 1d 66
        E 34 84 39 34
        E 0 84 35 2f
        E 34 84 3c 2b
        E 111 b4 40 00
        E 7 94 2b 64
        E 1 94 1f 5b
        E 3 94 35 5f
        E 1 94 39 62
        E 2 94 3c 59
        E 43 84 2b 67
        E 7 84 1f 5b
        E 3 b4 40 7f
        E 166 84 39 67
        E 1 84 35 63
        E 1 84 3c 62
        E 6 94 21 5d
        E 1 94 2d 5f
        E 23 84 41 67
        E 18 84 2d 68
        E 8 84 21 69
        E 195 b4 40 00
        E 17 94 46 62
        E 2 94 41 54
        E 1 94 22 66
        E 0 94 2e 75
        E 102 b4 40 7f
        E 143 94 3d 62
        E 1 84 46 55
        E 0 84 41 42
        E 106 84 3d 52
        E 143 94 3d 6b
        E 0 94 48 5d
        E 4 94 41 56
        E 162 84 48 53
        E 19 84 3d 3b
        E 31 84 2e 5b
        E 6 84 22 60
        E 1 94 3d 2d
        E 7 84 41 64
        E 3 94 46 4e
        E 36 84 3d 60
        E 127 84 46 1c
        E 54 b4 40 00
        E 11 94 3c 52
        E 0 94 3f 5b
        E 0 94 44 5d
        E 0 94 20 69
        E 4 94 2c 6f
        E 75 b4 40 7f
        E 116 84 3c 51
        E 59 94 3c 49
        E 13 84 3f 41
        E 0 84 44 57
        E 103 84 3c 4c
        E 117 94 3c 59
        E 0 94 3f 5d
        E 0 94 46 5f
        E 126 84 3c 4c
        E 0 84 3f 41
        E 105 94 3c 52
        E 6 94 3f 4f
        E 4 94 44 4e
        E 1 94 27 52
        E 7 84 2c 69
        E 3 84 46 5f
        E 0 84 20 59
        E 20 84 3c 66
        E 7 84 3f 6a
        E 5 84 44 66
        E 3 84 27 72
        E 90 94 1e 46
        E 57 94 25 54
        E 9 84 1e 62
        E 32 b4 40 00
        E 12 94 3a 6d
        E 5 84 25 54
        E 0 94 42 5d
        E 0 94 3d 66
        E 0 94 2a 6f
        E 0 94 1e 6f
        E 116 b4 40 7f
        E 24 84 3a 57
        E 104 84 42 4b
        E 0 94 3a 5b
        E 17 84 3d 01
        E 77 84 3a 4c
        E 138 94 3a 69
        E 6 94 44 5f
        E 0 94 3d 5f
        E 88 84 1e 48
        E 3 84 2a 4b
        E 31 84 3a 42
        E 91 84 3d 45
        E 3 84 44 5e
        E 18 94 3a 5d
        E 4 94 2a 5d
        E 1 94 42 42
        E 3 94 1e 4e
        E 31 84 42 66
        E 15 84 1e 68
        E 5 84 3a 66
        E 30 84 2a 4c
        E 143 b4 40 00
        E 6 94 39 59
        E 1 94 41 5b
        E 0 94 3c 5d
        E 4 94 29 64
        E 3 94 1d 56
        E 81 b4 40 7f
        E 72 84 39 46
        E 77 84 41 51
        E 5 84 3c 52
        E 0 94 39 52
        E 74 84 29 57
        E 40 84 39 48
        E 123 94 29 66
        E 2 94 3c 66
        E 2 94 39 59
        E 105 84 39 37
        E 29 84 3c 50
        E 55 84 29 5a
        E 12 84 1d 58
        E 29 94 39 59
        E 0 94 3c 5f
        E 5 94 41 52
        E 25 84 39 5e
        E 6 84 3c 6a
        E 18 84 41 66
        E 181 b4 40 00
        E 5 94 41 59
        E 0 94 3d 69
        E 3 94 46 62
        E 4 94 22 66
        E 0 94 2e 6d
        E 83 b4 40 7f
        E 94 84 3d 50
        E 54 84 41 59
        E 15 84 46 54
        E 0 94 3d 5f
        E 125 84 3d 46
        E 115 94 3d 6b
        E 1 94 48 5d
        E 0 94 41 59
        E 107 84 48 46
        E 6 84 3d 30
        E 105 84 22 2a
        E 16 94 3d 5f
        E 1 94 29 52
        E 4 84 2e 6e
        E 0 94 46 5b
        E 4 84 41 61
        E 26 84 29 50
        E 17 84 3d 61
        E 35 84 46 4d
        E 118 b4 40 00
        E 29 94 3c 54
        E 3 94 3f 5f
        E 4 94 44 5d
        E 1 94 2c 69
        E 3 94 20 6b
        E 66 b4 40 7f
        E 94 84 3c 4a
        E 86 84 3f 60
        E 0 94 3c 47
        E 8 84 44 57
        E 124 84 3c 4f
        E 100 94 3c 59
        E 0 94 46 62
        E 0 94 3f 66
        E 45 84 2c 54
        E 21 84 20 3b
        E 39 84 3c 2d
        E 27 84 3f 4f
        E 92 94 2c 5d
        E 1 94 3c 4e
        E 0 94 20 52
        E 3 94 3f 52
        E 5 84 46 71
        E 0 94 44 46
        E 31 84 3f 68
        E 0 84 3c 64
        E 3 84 44 51
        E 44 84 2c 55
        E 29 84 20 53
        E 0 94 27 4d
        E 63 84 27 55
        E 45 b4 40 00
        E 23 94 3a 6d
        E 4 94 1e 69
        E 0 94 3d 66
        E 4 94 2a 5d
        E 2 94 42 5d
        E 68 b4 40 7f
        E 81 84 3a 50
        E 78 84 3d 55
        E 16 84 42 4c
        E 3 94 3a 54
        E 110 84 3a 4f
        E 34 84 2a 4d
        E 99 94 3a 62
        E 4 94 3d 54
        E 2 94 44 54
        E 1 94 2a 69
        E 109 84 3a 41
        E 106 84 44 61
        E 19 94 3a 54
        E 4 94 42 46
        E 7 94 25 4e
        E 12 84 2a 49
        E 14 84 1e 50
        E 0 84 42 5a
        E 0 84 3d 6d
        E 43 84 3a 30
        E 6 84 25 45
        E 129 b4 40 00
        E 28 94 39 5b
        E 2 94 41 5b
        E 0 94 3c 5f
        E 0 94 29 64
        E 6 94 1d 5b
        E 41 b4 40 7f
        E 106 84 39 43
        E 78 84 41 5a
        E 12 94 39 5b
        E 8 84 3c 30
        E 109 84 29 53
        E 7 84 39 3a
        E 113 94 3c 6b
        E 4 94 39 64
        E 1 94 29 5f
        E 94 84 39 27
        E 11 84 1d 5b
        E 18 84 29 55
        E 23 84 3c 48
        E 87 94 3c 64
        E 0 94 39 5b
        E 4 94 41 52
        E 27 84 39 58
        E 15 84 3c 67
        E 12 84 41 61
        E 191 94 35 4e
        E 9 b4 40 00
        E 2 94 2e 5b
        E 3 94 3a 62
        E 258 84 3a 4d
        E 0 94 44 5d
        E 0 94 3d 5f
        E 17 84 2e 36
        E 5 84 35 4a
        E 215 94 35 4a
        E 0 94 2e 52
        E 63 84 44 3c
        E 0 84 35 5a
        E 5 84 2e 68
        E 16 84 3d 41
        E 131 94 3a 52
        E 128 84 3a 45
        E 68 94 35 4a
        E 8 94 44 69
        E 0 94 2e 54
        E 5 94 3d 62
        E 85 84 35 60
        E 0 84 2e 66
        E 318 84 44 54
        E 33 84 3d 5b
        E 21 94 35 46
        E 14 94 2e 4e
        E 101 84 2e 5c
        E 8 84 35 57
        E 103 94 44 66
        E 0 94 3a 5f
        E 14 94 3d 4f
        E 212 94 2e 4f
        E 0 94 35 41
        E 32 84 3a 01
        E 85 84 35 4d
        E 5 84 44 4d
        E 11 84 2e 57
        E 30 84 3d 4c
        E 84 94 3a 4e
        E 101 84 3a 5a
        E 141 94 35 43
        E 0 94 2e 52
        E 0 94 3a 62
        E 11 94 44 62
        E 0 94 3d 5b
        E 74 84 3d 71
        E 5 84 3a 5f
        E 6 84 44 61
        E 10 84 35 57
        E 9 84 2e 59
        E 364 94 35 4c
        E 3 94 3a 66
        E 3 94 2e 5b
        E 2 94 3d 66
        E 0 94 44 69
        E 82 84 3a 67
        E 5 84 3d 6e
        E 6 84 35 5b
        E 2 84 44 55
        E 20 84 2e 55
        E 350 94 37 4f
        E 6 94 3a 6f
        E 3 94 43 59
        E 10 94 33 5d
        E 3 94 3f 5d
        E 76 84 37 64
        E 6 84 33 73
        E 356 84 43 51
        E 22 84 3a 58
        E 5 84 3f 55
        E 27 94 35 4f
        E 17 94 2e 5f
        E 109 84 35 5e
        E 13 84 2e 5b
        E 109 94 44 6b
        E 0 94 3a 66
        E 5 94 3d 66
        E 218 94 35 4c
        E 3 94 2e 5d
        E 68 84 3a 55
        E 30 84 35 5b
        E 11 84 2e 5f
        E 38 84 44 51
        E 21 84 3d 49
        E 87 94 3a 52
        E 93 84 3a 61
        E 120 94 35 47
        E 5 94 3a 69
        E 0 94 2e 5d
        E 5 94 44 6f
        E 9 94 3d 5f
        E 73 84 35 61
        E 3 84 2e 63
        E 334 84 44 59
        E 0 84 3a 58
        E 25 84 3d 6b
        E 38 94 35 4b
        E 3 94 2e 5d
        E 89 84 2e 66
        E 6 84 35 5f
        E 139 94 3a 66
        E 0 94 44 6b
        E 8 94 3d 5d
        E 217 94 35 43
        E 3 94 2e 59
        E 65 84 3a 58
        E 47 84 35 55
        E 5 84 2e 60
        E 22 84 44 4b
        E 30 84 3d 53
        E 81 94 3a 4d
        E 82 84 3a 5e
        E 141 94 35 46
        E 6 94 2e 5d
        E 0 94 3a 62
        E 8 94 44 69
        E 5 94 3d 5b
        E 60 84 3a 6b
        E 0 84 3d 6f
        E 14 84 44 62
        E 5 84 35 5f
        E 0 84 2e 66
        E 376 94 3a 6d
        E 5 94 44 69
        E 0 94 35 4d
        E 0 94 3d 62
        E 11 94 2e 5f
        E 79 84 3a 5b
        E 0 84 3d 64
        E 8 84 35 63
        E 11 84 44 57
        E 38 84 2e 54
        E 310 94 3a 73
        E 0 94 43 5d
        E 0 94 33 66
        E 0 94 37 49
        E 14 94 3f 62
        E 43 84 37 5f
        E 52 84 33 70
        E 283 84 3a 62
        E 54 84 3f 72
        E 6 84 43 61
        E 59 94 3a 6b
        E 11 94 35 4b
        E 0 94 2e 59
        E 120 84 2e 53
        E 65 84 35 2c
        E 17 84 3a 3c
        E 54 94 3d 6f
        E 5 94 46 6b
        E 0 94 41 59
        E 223 94 3a 5b
        E 17 94 2e 4a
        E 16 94 35 3d
        E 46 84 3d 61
        E 25 84 2e 52
        E 0 84 35 50
        E 5 84 3a 5b
        E 52 84 41 45
        E 8 84 46 54
        E 71 94 3d 54
        E 125 84 3d 5a
        E 87 94 3a 5b
        E 8 94 2e 52
        E 0 94 3d 66
        E 0 94 35 46
        E 0 94 41 5f
        E 11 94 46 6d
        E 87 84 3a 54
        E 3 84 2e 5c
        E 32 84 35 50
        E 351 94 3a 5d
        E 6 94 2e 54
        E 16 94 35 44
        E 8 84 46 52
        E 6 84 41 54
        E 2 84 3d 58
        E 63 84 3a 5b
        E 8 84 2e 5f
        E 25 84 35 46
        E 111 94 41 5b
        E 0 94 3d 6b
        E 0 94 46 69
        E 229 94 3a 59
        E 8 94 2e 52
        E 8 94 35 43
        E 81 84 3d 5f
        E 11 84 3a 5a
        E 6 84 2e 60
        E 22 84 35 46
        E 62 84 41 50
        E 8 84 46 51
        E 60 94 3d 5b
        E 144 84 3d 5c
        E 63 94 3a 5b
        E 8 94 2e 59
        E 3 94 3d 54
        E 8 94 41 56
        E 0 94 35 43
        E 0 94 46 62
        E 100 84 3a 54
        E 9 84 2e 5c
        E 11 84 35 41
        E 0 84 3d 55
        E 21 84 46 5f
        E 14 84 41 5f
        E 307 94 3a 5f
        E 0 94 3d 6d
        E 0 94 46 66
        E 3 94 41 5b
        E 0 94 2e 5f
        E 16 94 35 4c
        E 49 84 3a 72
        E 36 84 35 69
        E 10 84 3d 5c
        E 6 84 46 70
        E 24 84 41 60
        E 3 84 2e 68
        E 321 94 27 62
        E 3 94 33 6b
        E 8 94 3d 6f
        E 0 94 41 62
        E 0 94 49 6d
        E 79 84 27 79
        E 11 84 33 6f
        E 269 84 49 5e
        E 122 84 3d 4d
        E 0 84 41 49
        E 0 94 3a 6f
        E 9 94 2e 66
        E 13 94 35 4a
        E 136 84 2e 58
        E 25 84 3a 28
        E 5 84 35 46
        E 84 94 41 5d
        E 3 94 3d 6d
        E 8 94 46 66
        E 226 94 3a 59
        E 11 94 2e 52
        E 8 94 35 45
        E 63 84 3d 62
        E 32 84 2e 5c
        E 3 84 3a 54
        E 30 84 35 4c
        E 41 84 46 52
        E 11 84 41 50
        E 43 94 3d 5b
        E 133 84 3d 5e
        E 96 94 3a 5f
        E 2 94 2e 5b
        E 0 94 3d 6f
        E 0 94 41 64
        E 3 94 35 4b
        E 11 94 46 6d
        E 95 84 3a 54
        E 25 84 2e 5e
        E 10 84 35 4f
        E 338 94 3a 66
        E 8 94 2e 5b
        E 3 94 35 4c
        E 5 84 3d 54
        E 3 84 46 51
        E 13 84 41 57
        E 82 84 3a 58
        E 11 84 2e 5e
        E 19 84 35 59
        E 101 94 3d 6f
        E 0 94 41 5f
        E 0 94 46 66
        E 228 94 3a 62
        E 8 94 2e 5f
        E 3 94 35 4a
        E 92 84 3d 60
        E 30 84 3a 54
        E 6 84 2e 60
        E 27 84 35 51
        E 71 84 41 4d
        E 2 84 46 4f
        E 30 94 3d 59
        E 155 84 3d 5e
        E 66 94 3a 66
        E 2 94 2e 5d
        E 0 94 3d 5f
        E 9 94 41 59
        E 2 94 35 4a
        E 0 94 46 66
        E 101 84 3a 54
        E 8 84 3d 5a
        E 5 84 2e 5e
        E 9 84 35 51
        E 5 84 46 5e
        E 16 84 41 62
        E 310 94 46 62
        E 0 94 3d 6d
        E 0 94 3a 5f
        E 0 94 41 59
        E 0 94 2e 66
        E 17 94 35 4c
        E 46 84 3a 75
        E 30 84 3d 66
        E 5 84 46 5f
        E 0 84 35 69
        E 38 84 41 55
        E 9 84 2e 71
        E 337 94 33 6f
        E 5 94 27 73
        E 6 94 49 6b
        E 0 94 41 5b
        E 0 94 3d 6b
        E 71 84 33 78
        E 21 84 27 73
        E 104 84 49 57
        E 171 84 41 25
        E 49 84 3d 33
        E 106 94 46 6d
        E 0 94 2e 75
        E 0 94 22 7b
        E 152 b4 40 7f
        E 239 84 46 28
        E 120 94 3a 73
        E 1 94 3d 73
        E 4 94 41 52
        E 29 84 3a 7a
        E 5 84 3d 7c
        E 10 84 41 66
        E 20 84 2e 53
        E 35 84 22 53
        E 132 94 2e 6b
        E 3 94 22 5f
        E 68 84 2e 59
        E 19 84 22 53
        E 14 94 29 4d
        E 58 84 29 57
        E 30 b4 40 00
        E 26 94 44 6f
        E 4 94 20 73
        E 0 94 2c 6f
        E 71 b4 40 7f
        E 287 84 44 49
        E 115 94 38 6b
        E 7 94 3c 59
        E 3 94 3f 5b
        E 26 84 38 79
        E 9 84 3c 6d
        E 3 84 3f 75
        E 33 84 2c 50
        E 19 84 20 42
        E 138 94 2c 69
        E 0 94 20 69
        E 87 84 2c 60
        E 17 94 27 5d
        E 7 84 20 5c
        E 50 84 27 68
        E 31 b4 40 00
        E 40 94 3a 66
        E 1 94 42 62
        E 1 94 3d 62
        E 3 94 1e 6d
        E 0 94 2a 6f
        E 112 b4 40 7f
        E 153 84 3a 0e
        E 26 84 3d 53
        E 22 84 42 4f
        E 158 94 36 62
        E 1 94 3a 62
        E 1 94 3d 66
        E 53 84 2a 51
        E 7 84 1e 42
        E 83 84 36 01
        E 20 84 3d 6b
        E 3 84 3a 5e
        E 60 94 2a 5d
        E 3 94 1e 5b
        E 103 84 1e 70
        E 7 94 25 5b
        E 9 84 2a 32
        E 81 84 25 4d
        E 8 b4 40 00
        E 20 94 3c 5d
        E 0 94 39 5d
        E 0 94 35 5b
        E 6 94 41 5d
        E 4 94 1d 5b
        E 0 94 29 66
        E 70 b4 40 7f
        E 98 84 35 50
        E 55 84 39 3b
        E 5 84 41 4a
        E 6 84 3c 58
        E 19 94 35 45
        E 79 84 35 4c
        E 142 94 39 5d
        E 2 94 3c 59
        E 2 94 35 59
        E 6 94 41 4d
        E 30 84 29 48
        E 3 84 35 62
        E 10 84 1d 4b
        E 24 84 41 36
        E 43 84 3c 3e
        E 19 84 39 3b
        E 95 94 1d 54
        E 0 94 29 64
        E 64 84 29 58
        E 33 84 1d 60
        E 4 94 24 5b
        E 46 84 24 69
        E 64 b4 40 00
        E 26 94 3d 6f
        E 1 94 41 5d
        E 0 94 46 69
        E 6 94 2e 6b
        E 1 94 22 6d
        E 94 b4 40 7f
        E 87 84 3d 5b
        E 49 84 41 49
        E 0 84 46 5e
        E 16 94 3d 54
        E 97 84 3d 54
        E 126 94 3d 6d
        E 3 94 48 5d
        E 1 94 41 59
        E 40 84 2e 58
        E 5 84 22 4c
        E 79 84 48 3e
        E 23 84 3d 1c
        E 89 94 2e 66
        E 1 94 3d 5d
        E 4 94 22 4f
        E 1 94 46 54
        E 9 84 41 5f
        E 47 84 3d 54
        E 41 84 22 5c
        E 5 84 2e 61
        E 5 94 29 47
        E 53 84 46 09
        E 15 84 29 50
        E 25 b4 40 00
        E 32 94 3c 5f
        E 4 94 2c 69
        E 0 94 3f 62
        E 0 94 44 69
        E 4 94 20 6d
        E 90 b4 40 7f
        E 88 84 3c 5f
        E 64 94 3c 4f
        E 28 84 44 25
        E 7 84 3f 49
        E 68 84 3c 40
        E 125 94 3f 6d
        E 0 94 3c 5b
        E 3 94 46 69
        E 38 84 2c 58
        E 7 84 20 4d
        E 49 84 3c 2f
        E 54 84 3f 33
        E 89 84 46 35
        E 0 94 3f 59
        E 0 94 3c 52
        E 0 94 2c 62
        E 0 94 44 59
        E 7 94 20 59
        E 31 84 3f 69
        E 0 84 3c 63
        E 7 84 44 68
        E 47 84 2c 5f
        E 15 84 20 51
        E 7 94 27 4e
        E 63 84 27 5b
        E 44 b4 40 00
        E 33 94 3a 6f
        E 3 94 3d 6b
        E 0 94 42 5f
        E 3 94 1e 6b
        E 2 94 2a 66
        E 83 b4 40 7f
        E 79 84 3a 54
        E 59 84 3d 58
        E 13 84 42 52
        E 6 94 3a 54
        E 98 84 3a 4b
        E 35 84 2a 57
        E 107 94 3a 69
        E 3 94 3d 66
        E 3 94 44 5f
        E 5 94 2a 69
        E 106 84 3a 35
        E 85 84 3d 01
        E 12 84 44 46
        E 31 94 3a 52
        E 10 94 42 39
        E 0 94 25 59
        E 19 84 2a 59
        E 8 84 42 62
        E 1 84 1e 58
        E 27 84 3a 78
        E 9 84 25 4f
        E 144 b4 40 00
        E 27 94 3c 69
        E 1 94 39 62
        E 2 94 29 64
        E 0 94 41 5b
        E 4 94 1d 62
        E 72 b4 40 7f
        E 71 84 39 43
        E 40 84 1d 63
        E 32 84 29 59
        E 24 94 39 54
        E 1 84 41 48
        E 18 84 3c 24
        E 87 84 39 4a
        E 131 94 39 5b
        E 0 94 3c 64
        E 2 94 2b 66
        E 2 94 1f 4b
        E 7 94 41 4f
        E 39 84 39 5c
        E 3 84 2b 61
        E 1 84 1f 5e
        E 15 84 3c 67
        E 19 84 41 67
        E 143 94 2d 69
        E 3 94 21 66
        E 38 84 2d 6a
        E 13 84 21 64
        E 181 b4 40 00
        E 23 94 3d 6f
        E 3 94 22 6b
        E 0 94 41 59
        E 0 94 2e 77
        E 0 94 22 6b
        E 0 94 46 5d
        E 131 b4 40 7f
        E 12 84 3d 51
        E 92 84 41 2c
        E 11 94 3d 4e
        E 22 84 46 3d
        E 91 84 3d 4d
        E 121 94 3d 6f
        E 0 94 48 4f
        E 4 94 41 52
        E 51 84 2e 53
        E 4 84 22 4a
        E 0 84 22 4a
        E 40 84 3d 49
        E 101 84 48 3b
        E 0 84 41 57
        E 29 94 46 49
        E 0 94 2e 66
        E 0 94 3d 5d
        E 0 94 22 59
        E 6 94 41 35
        E 28 84 41 67
        E 20 84 46 6a
        E 11 84 3d 5c
        E 50 84 22 5f
        E 2 94 29 4c
        E 1 84 2e 67
        E 80 84 29 5c
        E 18 b4 40 00
        E 22 94 3c 62
        E 5 94 3f 66
        E 0 94 44 69
        E 1 94 2c 6d
        E 4 94 20 73
        E 90 b4 40 7f
        E 70 84 3c 4f
        E 76 94 3c 4e
        E 4 84 44 4b
        E 46 84 3f 4c
        E 48 84 3c 52
        E 21 84 2c 58
        E 107 94 3f 6d
        E 0 94 3c 5d
        E 2 94 46 66
        E 7 94 2c 6b
        E 84 84 3c 30
        E 22 84 3f 4a
        E 116 94 3c 4f
        E 7 94 44 4e
        E 1 94 3f 4f
        E 4 84 46 4f
        E 5 94 27 5f
        E 3 84 2c 61
        E 16 84 20 61
        E 7 84 3c 64
        E 7 84 3f 6b
        E 8 84 44 64
        E 7 84 27 70
        E 71 94 1e 41
        E 42 84 1e 49
        E 34 b4 40 00
        E 35 94 2a 69
        E 0 94 1e 6b
        E 6 94 3a 6d
        E 0 94 3d 6b
        E 1 94 42 5b
        E 69 b4 40 7f
        E 87 84 3a 51
        E 60 84 3d 52
        E 21 84 42 4a
        E 11 94 3a 5d
        E 108 84 1e 4b
        E 14 84 3a 41
        E 18 84 2a 37
        E 103 94 3a 6b
        E 5 94 3d 62
        E 0 94 44 5b
        E 6 94 2a 6b
        E 1 94 1e 5f
        E 95 84 3a 2e
        E 96 84 3d 01
        E 16 84 44 64
        E 16 94 42 4e
        E 3 94 3a 5b
        E 4 94 25 5d
        E 14 84 2a 62
        E 0 84 1e 5a
        E 24 84 42 77
        E 21 84 3a 75
        E 2 84 25 50
        E 124 b4 40 00
        E 52 94 39 62
        E 1 94 3c 66
        E 1 94 41 5b
        E 3 94 29 66
        E 3 94 1d 64
        E 53 b4 40 7f
        E 99 84 39 52
        E 33 84 1d 60
        E 16 84 29 2d
        E 45 94 39 5b
        E 27 84 41 43
        E 40 84 3c 42
        E 43 84 39 49
        E 93 b4 40 00
        E 27 94 3c 69
        E 0 94 1f 5b
        E 0 94 2b 6b
        E 1 94 39 64
        E 4 94 41 5d
        E 45 b4 40 7f
        E 7 84 1f 5f
        E 3 84 2b 52
        E 174 94 21 5f
        E 0 94 2d 6d
        E 4 84 39 5b
        E 8 84 3c 66
        E 15 84 41 63
        E 14 84 2d 66
        E 8 84 21 6a
        E 204 94 37 52
        E 5 b4 40 00
        E 3 94 3a 6b
        E 0 94 2e 75
        E 8 94 35 56
        E 41 84 2e 79
        E 8 84 35 54
        E 5 84 37 6d
        E 49 84 3a 62
        E 123 94 3a 6f
        E 8 94 44 69
        E 8 94 3d 62
        E 209 94 35 4e
        E 17 94 2e 54
        E 5 84 3a 5c
        E 55 84 2e 70
        E 0 84 35 63
        E 95 84 3d 44
        E 11 84 44 4a
        E 60 94 3a 59
        E 220 94 35 45
        E 5 94 44 6b
        E 0 94 3d 6b
        E 0 94 2e 52
        E 8 84 3a 01
        E 71 84 2e 61
        E 8 84 35 44
        E 384 94 35 4a
        E 8 94 2e 54
        E 3 84 44 40
        E 41 84 3d 58
        E 89 84 35 54
        E 0 84 2e 5a
        E 95 94 3a 5d
        E 9 94 44 5f
        E 5 94 3d 59
        E 229 94 2e 46
        E 8 94 35 3d
        E 30 84 3a 42
        E 95 84 2e 53
        E 11 84 44 43
        E 0 84 35 48
        E 46 84 3d 50
        E 65 94 3a 4d
        E 114 84 3a 5a
        E 98 94 35 46
        E 6 94 2e 52
        E 5 94 3a 47
        E 0 94 3d 5d
        E 0 94 44 5f
        E 98 84 35 58
        E 11 84 3a 4c
        E 3 84 3d 63
        E 13 84 44 5b
        E 3 84 2e 57
        E 332 94 35 4d
        E 3 94 3a 69
        E 2 94 2e 5b
        E 0 94 3d 69
        E 6 94 44 69
        E 95 84 35 59
        E 44 84 44 55
        E 13 84 2e 58
        E 19 84 3a 36
        E 6 84 3d 40
        E 280 94 3a 73
        E 0 94 43 56
        E 8 94 37 56
        E 5 94 3f 5f
        E 11 94 33 66
        E 76 84 37 66
        E 22 84 33 6f
        E 321 84 43 51
        E 25 84 3a 5f
        E 5 84 3f 5f
        E 22 94 35 56
        E 11 94 2e 5d
        E 92 84 35 64
        E 6 84 2e 68
        E 138 94 44 6f
        E 0 94 3a 69
        E 0 94 3d 66
        E 245 94 35 46
        E 0 94 2e 4f
        E 30 84 3a 53
        E 46 84 35 4f
        E 6 84 2e 63
        E 30 84 3d 2e
        E 0 84 44 4d
        E 117 94 3a 4f
        E 70 84 3a 60
        E 164 94 35 47
        E 0 94 2e 5f
        E 10 94 3a 6f
        E 9 94 44 6f
        E 0 94 3d 69
        E 59 84 35 5b
        E 6 84 2e 70
        E 324 84 44 5a
        E 19 84 3d 5f
        E 2 84 3a 57
        E 52 94 35 46
        E 14 94 2e 54
        E 84 84 2e 61
        E 3 84 35 61
        E 138 94 3a 69
        E 0 94 44 6b
        E 9 94 3d 5f
        E 233 94 2e 4f
        E 0 94 35 41
        E 71 84 3a 54
        E 11 84 35 43
        E 16 84 44 49
        E 11 84 2e 60
        E 14 84 3d 54
        E 149 94 3a 5b
        E 117 84 3a 63
        E 96 94 3a 69
        E 0 94 35 46
        E 2 94 2e 5b
        E 6 94 44 6b
        E 5 94 3d 66
        E 68 84 3a 68
        E 11 84 3d 75
        E 0 84 35 61
        E 6 84 2e 61
        E 0 84 44 68
        E 364 94 3a 73
        E 5 94 3d 6b
        E 0 94 44 6d
        E 6 94 35 4e
        E 8 94 2e 69
        E 87 84 3d 5e
        E 3 84 3a 51
        E 3 84 35 59
        E 10 84 44 59
        E 49 84 2e 5a
        E 286 b4 40 7f
        E 19 94 37 47
        E 0 94 3a 75
        E 0 94 43 5b
        E 11 94 2e 4d
        E 0 94 33 62
        E 0 94 3f 66
        E 30 84 37 68
        E 32 84 2e 4f
        E 33 84 33 75
        E 52 84 3a 5f
        E 35 84 3f 75
        E 14 84 43 60
        E 242 b4 40 00
        E 41 94 3a 6b
        E 8 94 2e 5d
        E 0 94 35 4c
        E 103 84 3a 58
        E 22 84 2e 57
        E 27 84 35 51
        E 112 94 3d 6f
        E 0 94 41 5d
        E 2 94 46 69
        E 226 94 3a 5d
        E 11 94 2e 4b
        E 8 94 35 43
        E 49 84 3d 60
        E 16 84 2e 48
        E 14 84 3a 5e
        E 22 84 35 3a
        E 46 84 41 46
        E 3 84 46 50
        E 70 94 3d 59
        E 120 84 3d 60
        E 112 94 3a 62
        E 0 94 2e 5d
        E 5 94 41 5f
        E 3 94 3d 75
        E 5 94 35 45
        E 0 94 46 69
        E 93 84 3a 55
        E 13 84 2e 5a
        E 19 84 35 55
        E 354 94 3a 5d
        E 8 84 3d 58
        E 0 94 2e 4e
        E 8 84 46 4d
        E 0 94 35 45
        E 14 84 41 54
        E 76 84 2e 59
        E 0 84 3a 58
        E 27 84 35 4f
        E 114 94 41 5b
        E 0 94 3d 6d
        E 0 94 46 69
        E 234 94 3a 5b
        E 9 94 2e 54
        E 10 94 35 43
        E 60 84 3d 5e
        E 41 84 3a 54
        E 0 84 2e 5c
        E 25 84 35 4d
        E 59 84 46 48
        E 3 84 41 4f
        E 35 94 3d 59
        E 156 84 3d 5c
        E 59 94 3a 5d
        E 3 94 3d 5f
        E 8 94 2e 54
        E 0 94 41 52
        E 0 94 46 5f
        E 6 94 35 46
        E 21 b4 40 7f
        E 63 84 3a 55
        E 0 84 2e 5c
        E 14 84 3d 62
        E 10 84 46 55
        E 0 84 35 5a
        E 20 84 41 61
        E 138 b4 40 00
        E 182 94 3a 66
        E 3 94 46 6b
        E 6 94 3d 6f
        E 0 94 41 59
        E 0 94 2e 5f
        E 8 94 35 4b
        E 54 84 3a 76
        E 27 84 35 68
        E 11 84 3d 64
        E 25 84 46 6f
        E 0 84 2e 6d
        E 22 84 41 5f
        E 348 94 3d 6f
        E 0 94 27 6d
        E 0 94 41 5d
        E 0 94 49 73
        E 8 94 33 69
        E 73 84 27 78
        E 0 84 33 73
        E 289 84 49 5a
        E 98 84 3d 42
        E 10 84 41 48
        E 19 94 2e 6d
        E 3 94 3a 6b
        E 155 84 2e 59
        E 6 84 3a 44
        E 76 94 41 5f
        E 3 94 3d 6f
        E 2 94 46 69
        E 234 94 3a 59
        E 0 94 2e 52
        E 14 94 35 45
        E 41 84 3d 5c
        E 49 84 3a 57
        E 2 84 2e 5f
        E 27 84 35 59
        E 19 84 46 51
        E 20 84 41 50
        E 62 94 3d 5f
        E 128 84 3d 61
        E 98 94 3a 62
        E 0 94 3d 73
        E 0 94 41 5f
        E 0 94 35 4b
        E 8 94 2e 5d
        E 5 94 46 69
        E 98 84 3a 52
        E 6 84 2e 5b
        E 22 84 35 4b
        E 342 94 3a 66
        E 11 84 3d 57
        E 0 84 46 4f
        E 0 94 2e 5d
        E 0 94 35 47
        E 16 84 41 53
        E 107 84 2e 59
        E 8 84 3a 4b
        E 27 84 35 55
        E 65 94 41 5b
        E 0 94 3d 6d
        E 0 94 46 69
        E 240 94 3a 5b
        E 5 94 2e 54
        E 11 94 35 45
        E 62 84 3d 61
        E 49 84 3a 4f
        E 6 84 2e 59
        E 22 84 35 4f
        E 46 84 41 52
        E 0 84 46 51
        E 49 94 3d 5b
        E 147 84 3d 5e
        E 76 94 3a 5f
        E 8 94 2e 59
        E 0 94 35 4b
        E 8 94 3d 5d
        E 0 94 41 5b
        E 6 94 46 66
        E 87 84 3a 58
        E 13 84 2e 59
        E 19 84 3d 58
        E 8 84 46 5f
        E 0 84 35 57
        E 28 84 41 60
        E 307 94 46 5f
        E 0 94 3d 73
        E 0 94 41 5b
        E 0 94 2e 66
        E 8 94 3a 4e
        E 6 94 35 4b
        E 30 84 3a 72
        E 40 84 46 60
        E 11 84 35 67
        E 8 84 3d 62
        E 38 84 2e 6e
        E 3 84 41 5c
        E 343 94 33 6f
        E 0 94 27 79
        E 0 94 41 64
        E 0 94 3d 75
        E 0 94 49 75
        E 101 84 33 6b
        E 21 84 27 6b
        E 218 84 49 71
        E 3 84 3d 6b
        E 21 84 41 64
        E 150 94 37 62
        E 0 94 30 5d
        E 242 94 48 64
        E 14 94 3f 6f
        E 0 94 43 64
        E 125 84 37 50
        E 0 84 30 58
        E 60 b4 40 7f
        E 54 94 37 4f
        E 8 94 30 47
        E 76 84 3f 61
        E 6 b4 40 00
        E 54 84 37 54
        E 0 84 48 58
        E 8 84 30 53
        E 22 84 43 42
        E 38 94 3f 59
        E 144 84 3f 5c
        E 47 b4 40 7f
        E 46 94 48 66
        E 0 94 3f 6d
        E 0 94 37 5b
        E 0 94 30 5d
        E 8 94 43 62
        E 35 b4 40 00
        E 87 84 37 58
        E 52 84 30 5a
        E 299 84 48 53
        E 22 94 30 5d
        E 0 94 37 5d
        E 8 84 3f 5a
        E 0 84 43 59
        E 101 84 37 63
        E 24 84 30 58
        E 117 94 48 5d
        E 6 94 43 5f
        E 2 94 3f 6f
        E 223 94 30 54
        E 0 94 37 4d
        E 71 84 3f 63
        E 60 84 37 58
        E 30 84 30 5c
        E 14 84 48 50
        E 16 84 43 4b
        E 57 94 3f 5f
        E 141 84 3f 5f
        E 85 94 48 5d
        E 0 94 3f 69
        E 5 94 43 59
        E 3 94 30 59
        E 0 94 37 54
        E 101 84 3f 5e
        E 27 84 48 5c
        E 5 84 37 54
        E 16 84 43 61
        E 17 84 30 5b
        E 288 b4 40 7f
        E 0 94 48 52
        E 0 94 3f 6f
        E 6 94 43 5f
        E 5 94 30 5d
        E 0 94 37 56
        E 87 84 3f 66
        E 8 84 48 62
        E 11 84 37 66
        E 30 84 30 62
        E 11 84 43 57
        E 266 b4 40 00
        E 82 94 29 62
        E 0 94 35 64
        E 0 94 43 64
        E 0 94 4b 73
        E 0 94 3f 73
        E 114 84 29 62
        E 14 84 35 4f
        E 204 84 4b 64
        E 139 84 43 32
        E 5 84 3f 53
        E 19 94 37 5f
        E 3 94 30 5f
        E 185 84 37 42
        E 8 84 30 54
        E 54 94 48 62
        E 8 94 3f 73
        E 0 94 43 64
        E 218 94 37 54
        E 0 94 30 54
        E 82 84 3f 64
        E 32 84 37 60
        E 25 84 30 5b
        E 32 84 48 59
        E 33 84 43 54
        E 41 94 3f 5d
        E 133 84 3f 5e
        E 95 94 48 64
        E 0 94 3f 6d
        E 0 94 37 5d
        E 0 94 30 5d
        E 0 94 43 62
        E 98 84 37 63
        E 22 84 30 62
        E 343 84 48 54
        E 22 94 30 5f
        E 0 94 37 69
        E 16 84 3f 5b
        E 22 84 43 52
        E 35 84 37 6a
        E 19 84 30 68
        E 150 94 48 5f
        E 2 94 3f 73
        E 0 94 43 64
        E 237 94 37 5b
        E 0 94 30 56
        E 73 84 3f 61
        E 28 84 37 63
        E 16 84 30 5f
        E 30 84 48 4c
        E 57 84 43 5c
        E 35 94 3f 62
        E 144 84 3f 60
        E 63 94 3f 69
        E 5 94 48 5f
        E 3 94 30 5d
        E 0 94 43 5b
        E 0 94 37 59
        E 95 84 37 5f
        E 11 84 3f 58
        E 27 84 48 5b
        E 9 84 30 58
        E 16 84 43 5f
        E 318 94 48 56
        E 0 94 3f 6f
        E 3 94 30 5f
        E 0 94 43 62
        E 5 94 37 5d
        E 93 84 37 63
        E 8 84 3f 5a
        E 0 84 48 67
        E 8 84 30 69
        E 25 84 43 61
        E 348 94 35 62
        E 5 94 43 66
        E 0 94 29 66
        E 0 94 4b 6f
        E 0 94 3f 73
        E 66 84 35 72
        E 29 84 29 6f
        E 142 84 3f 77
        E 8 84 43 69
        E 30 84 4b 70
        E 207 94 30 6d
        E 0 94 24 69
        E 242 84 24 55
        E 13 94 4f 75
        E 0 94 43 71
        E 0 94 48 73
        E 9 94 4b 6d
        E 2 84 30 43
        E 182 b4 40 7f
        E 52 94 24 62
        E 3 94 30 62
        E 57 84 4f 53
        E 0 84 43 60
        E 8 84 48 5c
        E 3 84 4b 63
        E 41 84 30 61
        E 27 84 24 58
        E 68 94 43 5b
        E 81 84 43 6a
        E 82 b4 40 00
        E 84 94 24 64
        E 3 94 30 5b
        E 0 94 48 79
        E 6 94 43 71
        E 0 94 4f 71
        E 5 94 4b 69
        E 95 84 30 69
        E 52 84 24 52
        E 296 84 4f 55
        E 9 84 43 5e
        E 0 84 48 60
        E 10 84 4b 6e
        E 9 94 24 62
        E 0 94 30 5b
        E 182 84 30 3d
        E 16 84 24 59
        E 30 94 43 6d
        E 0 94 48 6f
        E 0 94 4f 6d
        E 5 94 4b 6b
        E 204 b4 40 7f
        E 33 94 24 5f
        E 0 94 30 5f
        E 63 84 43 5f
        E 57 84 30 61
        E 13 84 4f 42
        E 11 84 48 4c
        E 3 84 24 58
        E 30 84 4b 5a
        E 60 94 43 4d
        E 79 84 43 5c
        E 149 94 24 66
        E 0 94 30 5f
        E 0 94 48 71
        E 0 94 43 6d
        E 0 94 4f 6f
        E 11 94 4b 66
        E 55 84 48 61
        E 2 84 43 66
        E 6 84 4b 76
        E 2 84 4f 66
        E 9 84 30 69
        E 21 84 24 67
        E 357 94 24 62
        E 0 94 48 77
        E 0 94 43 6f
        E 0 94 4f 71
        E 0 94 30 62
        E 13 94 4b 62
        E 46 84 4b 51
        E 9 84 48 6e
        E 2 84 43 68
        E 9 84 30 70
        E 8 84 24 64
        E 8 84 4f 60
        E 318 b4 40 00
        E 74 94 35 62
        E 2 94 45 66
        E 0 94 29 6b
        E 0 94 48 66
        E 0 94 4d 5f
        E 82 b4 40 7f
        E 13 84 35 6d
        E 39 84 48 50
        E 27 84 45 59
        E 5 84 29 66
        E 90 94 4b 6d
        E 0 94 48 4a
        E 57 84 4d 4a
        E 22 84 48 4c
        E 149 b4 40 00
        E 28 84 4b 5a
        E 0 94 30 6b
        E 5 94 24 6b
        E 256 84 30 54
        E 5 94 48 71
        E 0 94 43 6d
        E 6 94 4f 6d
        E 0 94 4b 6d
        E 5 84 24 5a
        E 218 94 30 5f
        E 0 94 24 66
        E 65 84 43 5f
        E 62 84 30 5a
        E 25 84 48 55
        E 11 84 4f 53
        E 0 84 24 54
        E 22 84 4b 60
        E 40 94 43 4f
        E 101 84 43 62
        E 133 94 43 71
        E 0 94 4f 71
        E 0 94 4b 6d
        E 0 94 30 5f
        E 0 94 24 69
        E 11 94 48 5d
        E 14 94 47 45
        E 43 84 47 5f
        E 41 84 30 67
        E 35 84 24 54
        E 335 84 4f 52
        E 0 94 30 62
        E 0 94 24 62
        E 8 84 43 55
        E 17 84 48 61
        E 8 84 4b 6b
        E 130 84 30 46
        E 63 84 24 5a
        E 27 94 48 6d
        E 0 94 4f 6d
        E 0 94 43 69
        E 0 94 4b 69
        E 220 94 24 5b
        E 0 94 30 56
        E 85 84 43 5b
        E 106 84 4f 43
        E 5 84 30 46
        E 14 84 48 54
        E 5 84 24 54
        E 19 84 4b 59
        E 22 94 43 4d
        E 114 84 43 62
        E 104 94 48 69
        E 0 94 4f 66
        E 0 94 4b 69
        E 0 94 43 64
        E 8 94 30 5d
        E 5 94 24 5f
        E 123 84 48 44
        E 0 84 43 41
        E 24 84 4f 57
        E 6 84 30 4b
        E 16 84 4b 58
        E 27 84 24 55
        E 258 94 24 62
        E 3 b4 40 7f
        E 0 94 30 66
        E 0 94 48 73
        E 6 94 43 66
        E 5 94 4f 6b
        E 8 94 4b 4b
        E 52 84 4b 53
        E 30 84 30 6d
        E 0 84 24 6d
        E 71 84 43 39
        E 127 84 4f 4b
        E 136 84 48 41
        E 41 94 45 69
        E 3 94 35 62
        E 0 94 4d 5d
        E 8 94 48 44
        E 0 94 29 73
        E 44 84 48 69
        E 97 b4 40 00
        E 6 84 45 4d
        E 46 94 4b 6b
        E 6 94 45 5b
        E 2 94 48 52
        E 52 84 4d 62
        E 16 84 29 61
        E 0 84 35 54
        E 90 84 4b 79
        E 6 84 48 69
        E 5 84 45 5f
        E 101 94 3f 73
        E 0 94 43 59
        E 8 94 3c 69
        E 2 94 30 71
        E 0 94 24 69
        E 6 94 48 69
        E 27 b4 40 7f
        E 138 84 3f 70
        E 5 84 43 66
        E 4 84 3c 60
        E 19 84 48 68
        E 289 94 4b 6f
        E 0 94 48 66
        E 0 94 54 62
        E 2 94 4f 62
        E 33 84 54 69
        E 3 84 48 5a
        E 9 84 4b 75
        E 2 84 4f 6b
        E 12 84 30 57
        E 15 84 24 4d
        E 178 94 30 5d
        E 4 94 24 54
        E 74 84 30 5a
        E 6 84 24 5b
        E 19 94 2b 49
        E 82 84 2b 52
        E 18 b4 40 00
        E 40 94 3a 6f
        E 2 94 46 69
        E 1 94 2e 69
        E 0 94 41 56
        E 3 94 3e 5b
        E 4 94 22 6d
        E 56 b4 40 7f
        E 137 84 3a 62
        E 3 84 3e 61
        E 11 84 41 60
        E 16 84 46 73
        E 260 94 4a 5d
        E 0 94 52 73
        E 0 94 46 6d
        E 0 94 4d 56
        E 66 84 52 5e
        E 19 84 46 3b
        E 2 84 2e 59
        E 5 84 22 53
        E 15 84 4d 58
        E 4 84 4a 57
        E 121 94 2e 5f
        E 6 94 22 4d
        E 84 84 22 5a
        E 1 84 2e 59
        E 10 94 29 4a
        E 60 84 29 59
        E 45 b4 40 00
        E 32 94 38 73
        E 0 94 3c 5f
        E 6 94 3f 5f
        E 0 94 44 66
        E 0 94 2c 6f
        E 0 94 20 6f
        E 68 b4 40 7f
        E 119 84 38 67
        E 3 84 3c 63
        E 11 84 3f 73
        E 22 84 44 75
        E 253 94 50 6b
        E 0 94 44 73
        E 2 94 4b 6b
        E 3 94 48 64
        E 27 84 50 76
        E 0 84 44 71
        E 21 84 48 6a
        E 1 84 4b 77
        E 34 84 2c 5a
        E 7 84 20 4c
        E 139 94 2c 5b
        E 4 94 20 62
        E 96 84 2c 55
        E 13 94 27 4e
        E 4 84 20 50
        E 79 b4 40 00
        E 4 84 27 51
        E 47 94 3b 6b
        E 2 94 3e 5d
        E 0 94 37 6b
        E 2 94 43 5f
        E 3 94 2b 6d
        E 1 94 1f 64
        E 25 b4 40 7f
        E 129 84 37 51
        E 12 84 3b 64
        E 2 84 3e 5c
        E 27 84 43 63
        E 280 94 47 66
        E 0 94 4f 54
        E 3 94 43 69
        E 0 94 4a 5b
        E 34 84 4f 69
        E 0 84 43 6a
        E 16 84 4a 69
        E 5 84 47 67
        E 180 94 26 5f
        E 8 84 1f 57
        E 3 84 2b 5e
        E 42 84 26 66
        E 169 b4 40 00
        E 19 94 3f 73
        E 1 94 43 5f
        E 3 94 3c 69
        E 0 94 48 64
        E 3 94 30 6b
        E 0 94 24 69
        E 62 b4 40 7f
        E 103 84 3f 73
        E 3 84 3c 5e
        E 4 84 43 66
        E 22 84 48 69
        E 284 94 4b 66
        E 4 94 54 5b
        E 0 94 4f 56
        E 0 94 48 64
        E 37 84 54 62
        E 4 84 48 6d
        E 14 84 4f 68
        E 8 84 30 55
        E 1 84 4b 73
        E 8 84 24 49
        E 150 94 30 54
        E 7 94 24 4d
        E 76 84 30 5a
        E 0 84 24 51
        E 23 94 2b 4a
        E 63 84 2b 55
        E 50 b4 40 00
        E 37 94 3a 75
        E 0 94 46 69
        E 2 94 3e 5d
        E 3 94 41 52
        E 1 94 2e 6b
        E 2 94 22 6d
        E 66 b4 40 7f
        E 124 84 3a 69
        E 4 84 3e 64
        E 11 84 41 63
        E 18 84 46 78
        E 243 94 46 6d
        E 0 94 52 6f
        E 0 94 4a 5d
        E 6 94 4d 52
        E 79 84 52 4a
        E 20 84 2e 58
        E 7 84 22 50
        E 53 84 4d 5c
        E 3 84 4a 5b
        E 15 84 46 62
        E 57 94 2e 66
        E 0 94 22 59
        E 89 84 2e 57
        E 10 84 22 60
        E 1 94 29 4c
        E 67 84 29 5b
        E 19 b4 40 00
        E 49 94 38 75
        E 1 94 3c 62
        E 3 94 44 69
        E 1 94 20 6f
        E 0 94 3f 5f
        E 0 94 2c 6b
        E 43 b4 40 7f
        E 125 84 38 6e
        E 5 84 3c 62
        E 10 84 3f 75
        E 19 84 44 78
        E 269 94 50 6d
        E 0 94 44 73
        E 5 94 48 62
        E 0 94 4b 66
        E 93 84 50 42
        E 8 84 2c 57
        E 61 84 4b 63
        E 10 84 48 61
        E 16 84 44 6f
        E 50 94 2c 6b
        E 56 84 20 70
        E 26 84 2c 5f
        E 112 b4 40 00
        E 46 94 3b 6d
        E 0 94 2b 69
        E 0 94 37 6d
        E 4 94 3e 59
        E 1 94 43 5d
        E 3 94 1f 5b
        E 23 b4 40 7f
        E 93 84 37 24
        E 17 84 3e 55
        E 3 84 3b 61
        E 30 84 43 66
        E 152 84 2b 53
        E 165 94 4f 59
        E 0 94 43 66
        E 0 94 47 66
        E 2 94 4a 5d
        E 6 94 2b 5b
        E 27 84 4f 69
        E 0 84 43 6d
        E 14 84 47 6b
        E 2 84 4a 68
        E 188 94 26 59
        E 11 84 2b 52
        E 3 84 1f 57
        E 28 84 26 64
        E 163 b4 40 00
        E 33 94 48 5d
        E 3 94 3f 6d
        E 1 94 43 5f
        E 3 94 30 6b
        E 1 94 24 66
        E 49 b4 40 7f
        E 131 84 3f 59
        E 39 84 48 66
        E 11 84 43 57
        E 12 94 3f 62
        E 72 84 30 50
        E 25 84 3f 4c
        E 140 94 30 5f
        E 0 94 4a 52
        E 0 94 3f 6b
        E 0 94 43 5f
        E 117 84 4a 4d
        E 7 84 3f 45
        E 96 94 3f 66
        E 2 94 48 54
        E 2 84 43 3b
        E 56 84 3f 73
        E 33 84 48 43
        E 5 84 30 62
        E 8 94 2b 52
        E 10 84 24 61
        E 101 84 2b 5e
        E 10 b4 40 00
        E 28 94 3e 5d
        E 0 94 41 5d
        E 0 94 2e 69
        E 0 94 46 62
        E 6 94 22 62
        E 72 b4 40 7f
        E 81 84 3e 5b
        E 79 94 3e 4d
        E 46 84 41 4a
        E 11 84 46 34
        E 11 84 2e 53
        E 34 84 3e 42
        E 129 94 3e 5d
        E 1 94 41 5f
        E 0 94 48 64
        E 11 94 2e 5b
        E 143 84 3e 48
        E 38 84 41 34
        E 35 94 41 4e
        E 4 94 3e 54
        E 3 94 46 62
        E 12 84 48 58
        E 23 84 41 67
        E 11 84 3e 5b
        E 4 84 46 73
        E 55 84 22 54
        E 0 84 2e 5a
        E 4 94 29 4b
        E 62 84 29 4f
        E 34 b4 40 00
        E 33 94 3f 75
        E 1 94 3c 66
        E 2 94 44 73
        E 1 94 20 6b
        E 0 94 2c 6b
        E 64 b4 40 7f
        E 101 84 3c 52
        E 70 84 3f 4f
        E 22 94 3c 49
        E 6 84 44 41
        E 0 94 3f 29
        E 34 84 3f 53
        E 21 84 3c 5b
        E 41 84 2c 57
        E 124 94 3c 69
        E 1 94 3f 6f
        E 3 94 46 6b
        E 4 94 2c 5f
        E 127 84 3c 24
        E 92 84 46 5f
        E 4 94 3c 52
        E 2 94 44 4e
        E 29 84 3f 70
        E 0 84 44 6e
        E 9 84 20 55
        E 5 84 2c 52
        E 37 84 3c 54
        E 31 94 3d 32
        E 25 84 3d 73
        E 66 b4 40 00
        E 42 94 2b 64
        E 2 94 43 5d
        E 2 94 1f 5b
        E 2 94 3e 66
        E 0 94 3b 71
        E 26 b4 40 7f
        E 20 84 3b 60
        E 19 84 43 60
        E 1 84 3e 67
        E 184 94 37 5d
        E 63 84 37 67
        E 46 84 2b 54
        E 11 94 37 64
        E 1 94 3e 64
        E 0 94 3b 66
        E 125 94 2b 59
        E 11 84 37 4b
        E 10 84 1f 48
        E 15 84 3e 44
        E 21 84 2b 64
        E 19 84 3b 59
        E 29 94 37 52
        E 69 84 37 5a
        E 37 94 37 4e
        E 7 94 3b 69
        E 1 94 3e 5b
        E 29 84 37 6e
        E 2 84 3b 6f
        E 13 84 3e 67
        E 85 94 24 4c
        E 55 94 2b 5b
        E 19 84 24 62
        E 22 b4 40 00
        E 23 94 48 64
        E 1 84 2b 67
        E 3 94 3f 6f
        E 0 94 43 62
        E 7 94 30 6b
        E 0 94 24 69
        E 68 b4 40 7f
        E 92 84 3f 62
        E 56 84 48 67
        E 17 84 43 46
        E 6 94 3f 5f
        E 79 84 30 1d
        E 9 84 3f 53
        E 146 94 4a 4e
        E 0 94 3f 5f
        E 0 94 30 5b
        E 4 94 43 52
        E 130 84 4a 4c
        E 18 84 3f 3a
        E 52 84 30 59
        E 15 84 24 5c
        E 4 94 3f 54
        E 8 94 48 4c
        E 24 84 43 69
        E 34 84 3f 77
        E 14 84 48 4f
        E 135 b4 40 00
        E 19 94 41 62
        E 1 94 2e 6f
        E 0 94 46 69
        E 0 94 2e 6f
        E 0 94 3e 5d
        E 4 94 22 69
        E 60 b4 40 7f
        E 110 84 3e 57
        E 80 94 3e 43
        E 51 84 2e 50
        E 0 84 2e 50
        E 24 84 41 28
        E 4 84 3e 4b
        E 11 84 46 32
        E 142 94 3e 62
        E 1 94 48 66
        E 1 94 41 5b
        E 7 94 2e 62
        E 131 84 3e 41
        E 13 84 41 40
        E 78 84 48 36
        E 0 94 3e 5f
        E 0 94 41 52
        E 0 94 46 66
        E 37 84 41 60
        E 10 84 3e 61
        E 5 84 46 70
        E 50 84 2e 66
        E 3 94 29 4e
        E 4 84 22 5c
        E 66 84 29 53
        E 42 b4 40 00
        E 25 94 3f 6d
        E 1 94 44 6f
        E 0 94 3c 64
        E 4 94 2c 6f
        E 0 94 20 6d
        E 71 b4 40 7f
        E 95 84 3c 58
        E 71 94 3c 54
        E 46 84 44 01
        E 7 84 3f 55
        E 20 84 3c 5a
        E 165 94 3c 62
        E 0 94 3f 6d
        E 3 94 46 69
        E 92 84 2c 57
        E 18 84 3c 33
        E 15 84 20 3e
        E 91 84 3f 01
        E 5 94 3c 5d
        E 0 94 44 5f
        E 4 94 2c 6f
        E 5 94 20 66
        E 13 84 46 57
        E 16 84 44 78
        E 28 84 3c 46
        E 2 84 20 57
        E 2 84 2c 58
        E 129 b4 40 00
        E 39 94 2b 69
        E 4 94 1f 5d
        E 0 94 43 5d
        E 5 94 3b 6d
        E 0 94 3e 62
        E 24 b4 40 7f
        E 30 84 43 5c
        E 1 84 3b 55
        E 6 84 3e 68
        E 186 94 37 54
        E 69 84 37 66
        E 41 84 2b 57
        E 8 94 37 52
        E 0 94 3e 62
        E 0 94 3b 64
        E 130 94 2b 5f
        E 28 84 37 49
        E 7 84 1f 5f
        E 22 84 3e 41
        E 15 84 2b 5f
        E 17 84 3b 5a
        E 21 94 37 59
        E 72 84 37 58
        E 41 94 37 46
        E 5 94 3b 66
        E 3 94 3e 59
        E 28 84 37 6b
        E 4 84 3b 6e
        E 15 84 3e 68
        E 58 94 24 4f
        E 51 94 2b 5d
        E 26 84 24 62
        E 31 b4 40 00
        E 21 84 2b 64
        E 8 94 48 64
        E 4 94 3f 6f
        E 0 94 30 6d
        E 0 94 43 62
        E 1 94 24 5f
        E 67 b4 40 7f
        E 99 84 3f 61
        E 55 84 48 68
        E 16 94 3f 59
        E 4 84 43 2d
        E 84 84 3f 49
        E 21 84 30 36
        E 126 94 4a 54
        E 2 94 30 59
        E 0 94 3f 6b
        E 0 94 43 59
        E 133 84 4a 4c
        E 9 84 3f 3a
        E 83 84 43 48
        E 6 94 3f 62
        E 4 94 48 52
        E 41 84 3f 77
        E 27 84 48 53
        E 26 84 30 3c
        E 13 84 24 5a
        E 2 94 2b 52
        E 74 84 2b 57
        E 36 b4 40 00
        E 26 94 3e 66
        E 0 94 41 66
        E 2 94 2e 69
        E 0 94 46 6d
        E 4 94 22 69
        E 62 b4 40 7f
        E 102 84 3e 54
        E 40 84 41 58
        E 29 94 3e 4b
        E 59 84 3e 51
        E 48 84 46 01
        E 21 84 2e 5a
        E 109 94 3e 59
        E 1 94 41 59
        E 0 94 48 64
        E 5 94 2e 69
        E 138 84 3e 4c
        E 12 84 41 4f
        E 64 84 48 58
        E 4 94 3e 5f
        E 1 94 46 69
        E 5 94 41 4a
        E 19 84 41 67
        E 20 84 3e 64
        E 3 84 46 73
        E 55 84 2e 64
        E 3 84 22 5e
        E 0 94 29 4a
        E 57 84 29 5a
        E 64 b4 40 00
        E 29 94 20 6b
        E 0 94 2c 6d
        E 0 94 3f 6f
        E 0 94 44 6f
        E 0 94 3c 64
        E 66 b4 40 7f
        E 89 84 3c 52
        E 50 84 3f 4c
        E 33 84 44 39
        E 9 94 3f 3b
        E 3 94 3c 43
        E 34 84 3f 5b
        E 7 84 3c 53
        E 30 84 2c 51
        E 151 94 3f 73
        E 0 94 3c 64
        E 0 94 46 69
        E 6 94 2c 66
        E 109 84 3c 28
        E 116 84 46 5f
        E 1 94 44 54
        E 2 94 3c 52
        E 17 94 27 5b
        E 17 84 44 75
        E 5 84 3f 62
        E 4 84 20 57
        E 6 84 2c 66
        E 9 84 3c 4f
        E 34 84 27 71
        E 41 94 1f 44
        E 58 94 26 3f
        E 6 84 1f 63
        E 1 b4 40 00
        E 42 84 26 60
        E 10 94 43 5f
        E 0 94 2b 66
        E 0 94 3b 6f
        E 4 94 1f 66
        E 1 94 3e 69
        E 22 b4 40 7f
        E 35 84 3b 4b
        E 7 84 43 5f
        E 11 84 3e 68
        E 173 94 37 5f
        E 68 84 37 64
        E 16 84 2b 4f
        E 23 94 37 4f
        E 4 94 3e 62
        E 2 94 3b 62
        E 121 94 2b 66
        E 21 84 37 48
        E 13 84 1f 17
        E 16 84 3e 40
        E 18 84 2b 62
        E 15 84 3b 57
        E 20 94 37 5b
        E 72 84 37 5c
        E 41 94 37 4b
        E 7 94 3b 64
        E 1 94 3e 54
        E 29 84 37 6b
        E 6 84 3b 6e
        E 14 84 3e 68
        E 50 94 24 52
        E 53 94 2b 5b
        E 22 84 24 60
        E 46 b4 40 00
        E 15 84 2b 61
        E 10 94 48 5f
        E 4 94 3f 6f
        E 0 94 43 64
        E 0 94 30 6b
        E 3 94 24 66
        E 62 b4 40 7f
        E 106 84 3f 5b
        E 60 84 48 68
        E 10 84 43 4c
        E 5 94 3f 59
        E 70 84 30 33
        E 29 84 3f 49
        E 134 94 4a 4f
        E 2 94 3f 69
        E 3 94 30 62
        E 0 94 43 59
        E 142 84 4a 4d
        E 4 84 3f 43
        E 69 84 43 55
        E 7 94 3f 5f
        E 5 94 48 4d
        E 34 84 3f 78
        E 4 84 30 5f
        E 7 84 24 54
        E 11 84 48 60
        E 165 b4 40 00
        E 25 94 3e 5f
        E 0 94 41 62
        E 0 94 46 6b
        E 3 94 2e 73
        E 4 94 22 66
        E 46 b4 40 7f
        E 116 84 3e 55
        E 54 84 41 4a
        E 17 94 3e 4d
        E 58 84 46 01
        E 37 84 2e 49
        E 4 84 3e 45
        E 135 94 3e 5f
        E 0 94 48 64
        E 4 94 41 56
        E 4 94 2e 66
        E 140 84 3e 49
        E 15 84 41 41
        E 67 84 48 5c
        E 1 94 46 5d
        E 1 94 3e 4e
        E 11 94 41 2f
        E 15 84 22 61
        E 4 84 41 55
        E 0 84 2e 52
        E 10 84 46 77
        E 1 84 3e 64
        E 84 94 29 44
        E 38 84 29 39
        E 44 b4 40 00
        E 27 94 3f 73
        E 0 94 3c 6d
        E 0 94 2c 6b
        E 0 94 44 6f
        E 0 94 20 6d
        E 74 b4 40 7f
        E 110 84 3c 57
        E 24 84 3f 5b
        E 13 84 44 64
        E 38 94 44 5d
        E 4 94 3f 49
        E 5 94 3c 44
        E 35 84 3f 6e
        E 3 84 3c 5c
        E 10 84 44 72
        E 16 84 2c 52
        E 171 94 3f 6f
        E 0 94 3c 64
        E 0 94 2c 69
        E 0 94 46 6b
        E 124 84 3c 27
        E 78 84 3f 2e
        E 38 94 44 62
        E 5 84 46 59
        E 0 94 3f 37
        E 0 94 3c 5d
        E 27 84 3f 69
        E 14 84 44 79
        E 8 84 2c 62
        E 0 84 20 67
        E 0 84 3c 5a
        E 98 94 1f 36
        E 49 84 1f 54
        E 1 94 26 44
        E 26 b4 40 00
        E 22 84 26 62
        E 7 94 43 62
        E 0 94 2b 5f
        E 0 94 3b 71
        E 0 94 3e 6b
        E 1 94 1f 59
        E 60 b4 40 7f
        E 114 84 3b 59
        E 57 84 43 5f
        E 3 84 3e 5a
        E 10 94 3b 66
        E 69 84 3b 54
        E 9 84 2b 4c
        E 32 94 3b 47
        E 1 94 43 56
        E 3 94 3e 5f
        E 121 94 2b 5f
        E 22 84 1f 2b
        E 11 84 3b 4f
        E 35 84 2b 61
        E 5 84 43 54
        E 29 84 3e 49
        E 5 94 3b 52
        E 70 84 3b 59
        E 40 94 3b 4c
        E 3 94 3e 5d
        E 4 94 43 54
        E 30 84 3b 6b
        E 4 84 3e 69
        E 13 84 43 68
        E 50 94 24 4d
        E 56 94 2b 5b
        E 23 84 24 5f
        E 19 b4 40 00
        E 39 84 2b 61
        E 15 94 3f 79
        E 2 94 30 6b
        E 0 94 3c 6d
        E 0 94 24 5b
        E 4 94 48 73
        E 12 b4 40 7f
        E 156 84 3f 78
        E 0 84 3c 61
        E 27 84 48 6d
        E 116 84 30 45
        E 162 94 4b 73
        E 1 94 48 69
        E 2 94 54 62
        E 4 94 4f 59
        E 23 94 30 3b
        E 7 84 54 68
        E 6 84 4f 6a
        E 6 84 48 3d
        E 1 84 4b 7a
        E 6 84 30 66
        E 178 94 30 59
        E 76 84 30 61
        E 11 84 24 5a
        E 19 94 2b 4b
        E 68 84 2b 58
        E 24 b4 40 00
        E 41 94 3a 75
        E 2 94 3e 5f
        E 0 94 46 69
        E 2 94 41 54
        E 0 94 2e 69
        E 4 94 22 6f
        E 30 b4 40 7f
        E 158 84 3a 6e
        E 0 84 3e 61
        E 14 84 41 62
        E 19 84 46 76
        E 108 84 2e 49
        E 158 94 52 6d
        E 0 94 46 73
        E 3 94 4a 5d
        E 3 94 4d 56
        E 2 94 2e 66
        E 26 84 52 72
        E 2 84 46 71
        E 19 84 4d 67
        E 1 84 4a 66
        E 189 94 29 59
        E 14 84 2e 6e
        E 6 84 22 58
        E 32 84 29 68
        E 144 b4 40 00
        E 42 94 38 75
        E 1 94 44 6b
        E 0 94 3c 64
        E 0 94 2c 6f
        E 4 94 20 6b
        E 0 94 3f 62
        E 26 b4 40 7f
        E 112 84 38 6f
        E 11 84 3c 62
        E 13 84 3f 71
        E 17 84 44 76
        E 287 94 50 6b
        E 2 94 44 6f
        E 2 94 48 5f
        E 2 94 4b 69
        E 71 84 50 61
        E 19 84 2c 5b
        E 18 84 48 59
        E 1 84 4b 67
        E 15 84 44 46
        E 34 84 20 17
        E 68 94 2c 66
        E 1 94 20 4b
        E 64 84 20 67
        E 22 84 2c 5c
        E 101 b4 40 00
        E 51 94 3b 6d
        E 0 94 43 59
        E 0 94 2b 6b
        E 0 94 37 6d
        E 0 94 3e 5b
        E 7 94 1f 5d
        E 10 b4 40 7f
        E 125 84 37 5f
        E 16 84 3b 62
        E 6 84 3e 59
        E 24 84 43 66
        E 104 84 2b 52
        E 182 94 4f 54
        E 0 94 43 6d
        E 0 94 2b 5d
        E 2 94 47 66
        E 5 94 4a 5b
        E 28 84 4f 66
        E 3 84 43 6a
        E 12 84 47 6a
        E 4 84 4a 69
        E 162 84 1f 01
        E 16 94 26 5d
        E 10 84 2b 43
        E 32 84 26 69
        E 157 b4 40 00
        E 43 94 3f 75
        E 6 94 43 5b
        E 0 94 3c 6d
        E 0 94 30 6b
        E 0 94 24 6d
        E 0 94 48 64
        E 22 b4 40 7f
        E 99 84 3c 54
        E 8 84 43 5e
        E 0 84 3f 72
        E 34 84 48 6b
        E 314 94 4b 73
        E 3 94 4f 5b
        E 1 94 48 62
        E 0 94 54 59
        E 37 84 54 61
        E 8 84 48 45
        E 10 84 4f 67
        E 4 84 30 54
        E 4 84 4b 79
        E 32 84 24 45
        E 151 94 30 54
        E 6 94 24 4e
        E 73 84 30 57
        E 4 84 24 59
        E 21 94 2b 46
        E 71 84 2b 55
        E 36 b4 40 00
        E 36 94 3a 77
        E 0 94 46 6d
        E 0 94 3e 62
        E 0 94 41 59
        E 6 94 2e 69
        E 2 94 22 6f
        E 35 b4 40 7f
        E 98 84 3a 67
        E 7 84 3e 62
        E 13 84 41 61
        E 18 84 46 72
        E 297 94 52 69
        E 2 94 46 6f
        E 3 94 4a 5b
        E 1 94 4d 56
        E 33 84 52 6f
        E 8 84 46 54
        E 21 84 4d 62
        E 5 84 4a 62
        E 11 84 22 50
        E 1 84 2e 58
        E 146 94 2e 5f
        E 0 94 22 54
        E 99 84 22 5c
        E 1 84 2e 61
        E 6 94 29 49
        E 62 84 29 57
        E 39 b4 40 00
        E 32 94 38 75
        E 0 94 3c 66
        E 0 94 44 6b
        E 4 94 20 6f
        E 3 94 2c 69
        E 0 94 3f 66
        E 39 b4 40 7f
        E 117 84 38 72
        E 18 84 3c 62
        E 11 84 3f 6e
        E 18 84 44 73
        E 277 94 50 69
        E 4 94 44 6d
        E 4 94 48 62
        E 0 94 4b 66
        E 89 84 50 43
        E 16 84 2c 57
        E 54 84 4b 6e
        E 4 84 48 62
        E 15 84 44 75
        E 53 94 2c 69
        E 37 84 20 69
        E 37 84 2c 78
        E 31 94 1f 4c
        E 30 94 26 4a
        E 35 84 1f 60
        E 21 b4 40 00
        E 37 84 26 5c
        E 10 94 3b 6f
        E 0 94 43 64
        E 0 94 37 71
        E 2 94 3e 5d
        E 2 94 1f 5f
        E 0 94 2b 71
        E 28 b4 40 7f
        E 147 84 37 63
        E 10 84 3b 67
        E 5 84 3e 60
        E 29 84 43 67
        E 0 94 26 4f
        E 6 84 2b 59
        E 49 84 1f 51
        E 62 84 26 5e
        E 0 94 2b 54
        E 11 94 1f 42
        E 48 84 2b 60
        E 15 84 1f 4f
        E 57 94 4f 64
        E 1 94 47 6d
        E 0 94 4a 64
        E 3 94 43 6f
        E 5 94 1f 5b
        E 0 94 2b 6d
        E 44 84 43 49
        E 1 84 2b 68
        E 6 84 1f 6a
        E 5 84 4f 68
        E 7 84 47 66
        E 1 84 4a 66
        E 387 b4 40 00
        E 24 94 3f 6f
        E 0 94 3c 6b
        E 0 94 43 5f
        E 3 94 48 6b
        E 4 94 30 66
        E 1 94 24 64
        E 2 b4 40 7f
        E 132 84 3f 6b
        E 4 84 43 63
        E 6 84 3c 63
        E 13 84 48 64
        E 80 94 2b 4e
        E 15 84 30 62
        E 92 84 2b 40
        E 11 94 30 45
        E 131 94 4b 6f
        E 0 94 48 69
        E 3 94 54 5f
        E 0 94 4f 5d
        E 28 84 54 5f
        E 4 84 48 69
        E 11 84 4b 78
        E 1 84 4f 69
        E 4 84 30 49
        E 66 84 24 01
        E 113 94 30 52
        E 13 94 24 44
        E 53 84 30 5a
        E 4 84 24 4d
        E 37 94 2b 46
        E 52 84 2b 5f
        E 75 b4 40 00
        E 23 94 46 6b
        E 0 94 3a 75
        E 2 94 3e 5b
        E 3 94 2e 69
        E 1 94 41 56
        E 3 94 22 6d
        E 74 b4 40 7f
        E 103 84 3a 6a
        E 1 84 3e 61
        E 10 84 41 61
        E 15 84 46 71
        E 260 94 52 66
        E 1 94 46 6d
        E 4 94 4a 59
        E 4 94 4d 54
        E 25 84 52 71
        E 0 84 46 72
        E 15 84 4d 67
        E 2 84 4a 68
        E 32 84 2e 53
        E 13 84 22 4a
        E 142 94 2e 5b
        E 4 94 22 4d
        E 79 84 2e 54
        E 2 84 22 5c
        E 8 94 29 45
        E 63 84 29 55
        E 54 b4 40 00
        E 33 94 38 77
        E 0 94 3c 66
        E 0 94 44 6b
        E 0 94 3f 66
        E 0 94 2c 6f
        E 0 94 20 6d
        E 68 b4 40 7f
        E 113 84 38 6b
        E 7 84 3c 63
        E 12 84 3f 71
        E 16 84 44 75
        E 256 94 44 6f
        E 1 94 50 62
        E 6 94 48 5b
        E 1 94 4b 62
        E 27 84 44 77
        E 0 84 50 77
        E 10 84 48 6b
        E 4 84 4b 78
        E 24 84 2c 54
        E 15 84 20 41
        E 147 94 2c 5b
        E 7 94 20 4f
        E 102 84 2c 54
        E 8 94 27 49
        E 14 84 20 5f
        E 61 84 27 69
        E 12 b4 40 00
        E 36 94 3b 6d
        E 1 94 43 5f
        E 0 94 37 66
        E 3 94 3e 5b
        E 0 94 2b 6d
        E 4 94 1f 56
        E 39 b4 40 7f
        E 135 84 37 5c
        E 7 84 3b 64
        E 2 84 3e 61
        E 26 84 43 66
        E 33 94 26 4b
        E 13 84 2b 58
        E 225 94 43 6d
        E 0 94 4f 5b
        E 0 94 47 66
        E 0 94 4a 62
        E 8 94 2b 5d
        E 4 84 26 5e
        E 22 84 4f 6b
        E 0 84 43 6b
        E 7 84 47 68
        E 5 84 4a 69
        E 189 94 26 4f
        E 3 84 1f 3d
        E 7 84 2b 58
        E 28 84 26 68
        E 197 b4 40 00
        E 22 94 3f 6d
        E 0 94 3c 64
        E 0 94 30 64
        E 0 94 43 5b
        E 0 94 24 64
        E 2 94 48 69
        E 70 b4 40 7f
        E 120 84 3f 72
        E 3 84 3c 64
        E 1 84 43 64
        E 24 84 48 69
        E 0 94 2b 4b
        E 21 84 30 59
        E 110 84 2b 54
        E 3 94 30 4a
        E 145 94 4b 75
        E 0 94 54 5f
        E 0 94 48 6d
        E 3 94 4f 5f
        E 33 84 54 66
        E 0 84 48 5f
        E 11 84 4b 75
        E 4 84 4f 6b
        E 180 94 2b 5d
        E 7 84 30 6b
        E 7 84 24 60
        E 41 84 2b 67
        E 164 b4 40 00
        E 25 94 3a 73
        E 0 94 46 66
        E 3 94 41 54
        E 2 94 3e 5b
        E 3 94 2e 6b
        E 0 94 22 66
        E 52 b4 40 7f
        E 124 84 3a 62
        E 1 84 3e 5f
        E 8 84 41 5e
        E 25 84 46 73
        E 21 94 29 49
        E 2 84 2e 68
        E 85 84 29 4c
        E 21 94 2e 59
        E 130 94 52 66
        E 2 94 46 73
        E 2 94 4a 5b
        E 4 94 4d 54
        E 26 84 46 75
        E 3 84 52 71
        E 16 84 4a 69
        E 0 84 4d 63
        E 178 94 29 52
        E 20 84 22 5b
        E 8 84 2e 61
        E 65 84 29 4c
        E 12 94 2e 4a
        E 6 94 22 3d
        E 43 84 2e 5a
        E 8 84 22 5a
        E 55 b4 40 00
        E 26 94 38 75
        E 1 94 44 6b
        E 3 94 3c 5b
        E 1 94 3f 5f
        E 3 94 2c 5d
        E 4 94 20 6d
        E 57 b4 40 7f
        E 140 84 38 6a
        E 5 84 3c 62
        E 11 84 3f 73
        E 15 94 27 52
        E 6 84 44 77
        E 8 84 2c 61
        E 90 84 27 54
        E 13 94 2c 59
        E 124 94 50 69
        E 0 94 44 73
        E 5 94 48 62
        E 0 94 4b 6b
        E 33 84 50 78
        E 6 84 44 62
        E 21 84 48 69
        E 0 84 4b 75
        E 187 94 27 62
        E 25 84 2c 6a
        E 5 84 20 59
        E 24 84 27 6f
        E 54 94 1f 49
        E 66 94 26 49
        E 6 84 1f 60
        E 5 b4 40 00
        E 43 84 26 5a
        E 1 94 3b 6f
        E 3 94 3e 5f
        E 0 94 37 6d
        E 2 94 43 66
        E 4 94 1f 59
        E 0 94 2b 66
        E 24 b4 40 7f
        E 37 84 37 40
        E 50 84 3b 61
        E 3 84 3e 5b
        E 34 84 43 66
        E 87 94 26 4f
        E 7 84 2b 5c
        E 32 84 1f 51
        E 56 84 26 5c
        E 19 94 2b 52
        E 4 94 1f 45
        E 52 84 2b 5e
        E 16 84 1f 53
        E 48 94 47 64
        E 1 94 4a 5d
        E 0 94 4f 64
        E 0 94 43 62
        E 6 94 2b 52
        E 6 94 1f 56
        E 40 84 4f 59
        E 0 84 43 3e
        E 23 84 4a 64
        E 0 84 47 61
        E 158 84 1f 43
        E 0 84 2b 57
        E 0 94 26 59
        E 42 84 26 68
        E 183 b4 40 00
        E 17 94 48 64
        E 1 94 24 66
        E 0 94 30 6b
        E 0 94 43 62
        E 0 94 4b 73
        E 348 84 43 45
        E 16 b4 40 7f
        E 3 84 4b 54
        E 35 84 48 4d
        E 92 94 43 62
        E 0 94 4a 59
        E 142 84 30 53
        E 5 84 43 2c
        E 147 84 24 2a
        E 153 94 43 5b
        E 0 94 48 69
        E 8 94 30 59
        E 0 94 24 5b
        E 41 84 4a 01
        E 46 84 30 66
        E 13 84 43 58
        E 19 84 48 61
        E 3 84 24 62
        E 288 b4 40 00
        E 77 94 4b 6f
        E 0 94 41 69
        E 0 94 2e 73
        E 0 94 22 69
        E 8 94 46 6d
        E 288 84 41 3d
        E 6 84 46 51
        E 27 84 4b 57
        E 133 94 48 5f
        E 0 94 41 66
        E 0 94 46 69
        E 41 b4 40 7f
        E 196 84 41 4f
        E 27 84 2e 59
        E 13 84 22 54
        E 17 84 48 57
        E 13 84 46 55
        E 158 b4 40 00
        E 46 94 44 77
        E 3 94 4b 6b
        E 3 94 48 56
        E 8 94 2c 6f
        E 3 94 20 75
        E 307 b4 40 7f
        E 22 84 44 57
        E 0 84 4b 58
        E 79 84 48 43
        E 60 94 44 6f
        E 13 94 4a 54
        E 161 b4 40 00
        E 43 84 44 4b
        E 95 84 2c 30
        E 47 84 20 30
        E 49 b4 40 7f
        E 57 94 44 6f
        E 2 94 48 62
        E 14 94 2c 75
        E 8 94 20 6b
        E 30 84 4a 64
        E 101 84 48 68
        E 13 84 2c 5b
        E 6 84 20 5b
        E 41 84 44 33
        E 184 b4 40 00
        E 74 94 43 64
        E 3 94 47 64
        E 2 94 2b 6f
        E 3 94 4a 64
        E 6 94 1f 69
        E 250 84 4a 51
        E 27 84 47 48
        E 8 84 1f 34
        E 49 84 43 4f
        E 11 84 2b 5e
        E 49 b4 40 7f
        E 57 94 2b 5f
        E 0 94 43 64
        E 0 94 4a 5b
        E 0 94 1f 62
        E 0 94 47 62
        E 90 84 2b 67
        E 8 84 1f 69
        E 3 84 43 52
        E 5 84 47 60
        E 6 84 4a 61
        E 310 b4 40 00
        E 62 94 4b 6f
        E 3 94 43 64
        E 3 94 48 62
        E 2 94 30 6d
        E 3 94 24 6d
        E 139 b4 40 7f
        E 57 b4 40 00
        E 79 b4 40 7f
        E 24 84 43 3d
        E 38 84 4b 67
        E 28 84 48 42
        E 111 94 43 5f
        E 0 94 4a 54
        E 174 84 30 48
        E 131 84 43 11
        E 19 84 24 41
        E 76 b4 40 00
        E 73 94 48 69
        E 0 94 43 64
        E 6 94 30 66
        E 5 94 24 66
        E 27 84 4a 26
        E 36 b4 40 7f
        E 109 84 48 66
        E 0 84 30 5a
        E 5 84 43 58
        E 25 84 24 60
        E 228 b4 40 00
        E 71 94 41 66
        E 2 94 4b 73
        E 0 94 46 6d
        E 0 94 2e 73
        E 9 94 22 6b
        E 119 b4 40 7f
        E 169 84 46 50
        E 27 84 41 4a
        E 38 84 4b 53
        E 114 94 41 66
        E 0 94 48 62
        E 0 94 46 6d
        E 150 84 41 46
        E 16 84 46 5f
        E 17 84 2e 5f
        E 0 84 22 5b
        E 40 84 48 59
        E 202 b4 40 00
        E 51 94 44 6f
        E 3 94 4b 62
        E 6 94 48 5b
        E 8 94 2c 73
        E 5 94 20 6d
        E 104 b4 40 7f
        E 187 84 4b 58
        E 3 84 44 4c
        E 84 84 48 3d
        E 49 b4 40 00
        E 33 94 44 75
        E 8 94 4a 4f
        E 106 b4 40 7f
        E 196 84 44 59
        E 54 84 2c 60
        E 17 84 20 54
        E 76 84 4a 30
        E 11 94 44 6d
        E 2 94 48 64
        E 14 94 2c 6f
        E 19 94 20 6b
        E 65 84 48 6a
        E 6 84 44 5b
        E 43 84 20 54
        E 11 84 2c 62
        E 22 94 44 3b
        E 38 84 44 76
        E 128 b4 40 00
        E 106 94 43 5d
        E 0 94 2b 69
        E 0 94 4a 5b
        E 8 94 47 62
        E 6 94 1f 62
        E 103 b4 40 7f
        E 111 84 47 53
        E 17 84 1f 57
        E 0 84 2b 24
        E 0 84 4a 53
        E 38 84 43 41
        E 209 94 2b 64
        E 0 94 1f 56
        E 0 94 4a 56
        E 0 94 47 62
        E 0 94 43 5f
        E 87 84 43 62
        E 8 84 1f 69
        E 0 84 47 66
        E 0 84 2b 69
        E 9 84 4a 68
        E 247 b4 40 00
        E 125 94 48 66
        E 3 94 30 6f
        E 0 94 43 62
        E 0 94 24 69
        E 0 94 4b 6f
        E 73 b4 40 7f
        E 221 84 43 3d
        E 43 84 4b 53
        E 17 b4 40 00
        E 13 84 48 46
        E 65 b4 40 7f
        E 71 94 4a 56
        E 0 94 43 64
        E 177 84 24 51
        E 16 84 30 58
        E 14 84 43 42
        E 166 84 4a 24
        E 92 94 48 66
        E 0 94 43 54
        E 8 94 30 5d
        E 3 94 24 64
        E 93 84 30 68
        E 11 84 43 4c
        E 0 84 48 62
        E 27 84 24 60
        E 247 b4 40 00
        E 98 94 41 66
        E 0 94 2e 73
        E 0 94 4b 73
        E 0 94 22 6b
        E 0 94 46 6b
        E 93 b4 40 7f
        E 155 84 46 50
        E 2 84 41 4a
        E 30 84 4b 48
        E 185 94 41 5f
        E 0 94 48 5b
        E 8 94 46 69
        E 52 84 2e 67
        E 3 84 22 6d
        E 41 84 41 5b
        E 35 84 46 69
        E 25 84 48 64
        E 201 b4 40 00
        E 81 94 44 73
        E 9 94 4b 69
        E 0 94 48 5b
        E 0 94 2c 73
        E 10 94 20 6f
        E 90 b4 40 7f
        E 193 84 4b 54
        E 17 84 44 4f
        E 68 84 48 49
        E 114 94 44 6f
        E 8 94 4a 4e
        E 76 84 20 50
        E 8 84 2c 52
        E 55 84 44 50
        E 87 84 4a 37
        E 247 94 48 5d
        E 0 94 44 6d
        E 8 94 2c 6f
        E 9 94 20 5d
        E 84 84 20 6d
        E 8 84 44 5f
        E 6 84 48 66
        E 16 84 2c 62
        E 280 b4 40 00
        E 68 94 43 62
        E 3 94 2b 69
        E 0 94 47 64
        E 0 94 4a 5f
        E 13 94 1f 5d
        E 82 b4 40 7f
        E 111 84 2b 44
        E 0 84 47 53
        E 9 84 4a 55
        E 11 84 43 45
        E 8 84 1f 57
        E 234 94 4a 54
        E 0 94 1f 54
        E 0 94 2b 64
        E 0 94 47 5d
        E 0 94 43 5f
        E 84 84 43 67
        E 8 84 1f 6a
        E 6 84 47 68
        E 0 84 2b 64
        E 13 84 4a 66
        E 299 b4 40 00
        E 74 94 4b 6f
        E 2 94 48 62
        E 6 94 43 62
        E 0 94 30 6f
        E 5 94 24 69
        E 169 b4 40 7f
        E 120 84 43 45
        E 27 84 4b 53
        E 16 84 48 51
        E 163 94 43 5d
        E 0 94 4a 59
        E 134 84 30 51
        E 19 84 24 4b
        E 0 84 43 33
        E 92 84 4a 35
        E 221 94 24 5d
        E 2 94 48 62
        E 0 94 30 5d
        E 0 94 43 54
        E 93 84 30 6d
        E 16 84 43 57
        E 5 84 48 63
        E 9 84 24 60
        E 255 b4 40 00
        E 104 94 2e 6f
        E 2 94 22 69
        E 0 94 41 62
        E 6 94 4b 6d
        E 3 94 46 6b
        E 87 b4 40 7f
        E 100 84 46 4d
        E 14 84 41 3a
        E 5 84 4b 4d
        E 240 94 46 66
        E 0 94 41 56
        E 11 94 48 54
        E 51 84 2e 5a
        E 6 84 22 5c
        E 32 84 41 5c
        E 33 84 46 6b
        E 33 84 48 67
        E 247 b4 40 00
        E 79 94 44 75
        E 0 94 2c 77
        E 0 94 48 64
        E 0 94 20 6d
        E 14 94 4b 69
        E 106 b4 40 7f
        E 136 84 44 52
        E 30 84 4b 53
        E 68 84 48 33
        E 127 94 44 6f
        E 11 94 4a 4c
        E 90 84 20 42
        E 0 84 2c 53
        E 68 84 44 43
        E 79 84 4a 25
        E 237 94 44 6f
        E 0 94 48 62
        E 10 94 2c 6f
        E 0 94 20 5d
        E 77 84 44 73
        E 21 84 48 68
        E 11 84 20 6f
        E 14 84 2c 64
        E 283 b4 40 00
        E 62 94 47 5f
        E 6 94 43 64
        E 0 94 3e 66
        E 0 94 2b 6f
        E 2 94 4a 5f
        E 11 94 1f 64
        E 109 b4 40 7f
        E 114 84 43 48
        E 11 84 47 54
        E 0 84 3e 44
        E 6 84 1f 51
        E 2 84 4a 4f
        E 14 84 2b 2f
        E 201 94 43 56
        E 0 94 4a 54
        E 0 94 3e 5b
        E 6 94 47 52
        E 11 94 1f 5b
        E 2 94 2b 66
        E 63 84 3e 68
        E 8 84 43 66
        E 19 84 1f 69
        E 6 84 2b 63
        E 5 84 4a 60
        E 5 84 47 67
        E 310 b4 40 00
        E 55 94 48 64
        E 3 94 4b 6d
        E 0 94 43 5d
        E 10 94 30 6d
        E 0 94 24 69
        E 321 84 4b 51
        E 14 84 43 2a
        E 11 b4 40 7f
        E 71 84 48 46
        E 68 94 43 5f
        E 0 94 4a 52
        E 149 84 43 33
        E 8 84 30 55
        E 55 84 24 43
        E 242 94 24 5f
        E 0 94 30 5f
        E 0 94 43 54
        E 11 94 48 66
        E 43 84 4a 01
        E 49 84 30 6f
        E 8 84 43 5c
        E 22 84 48 61
        E 3 84 24 60
        E 264 b4 40 00
        E 84 94 41 62
        E 3 94 2e 73
        E 0 94 22 66
        E 5 94 4b 6f
        E 0 94 46 6d
        E 109 b4 40 7f
        E 144 84 46 4d
        E 11 84 4b 53
        E 0 84 41 45
        E 209 94 41 5b
        E 0 94 48 5d
        E 6 94 46 66
        E 68 84 2e 61
        E 16 84 41 60
        E 6 84 22 61
        E 40 84 46 64
        E 22 84 48 5f
        E 237 b4 40 00
        E 73 94 44 73
        E 6 94 4b 62
        E 2 94 48 5b
        E 6 94 2c 75
        E 0 94 20 73
        E 92 b4 40 7f
        E 126 84 4b 52
        E 35 84 44 43
        E 87 84 48 4a
        E 136 94 44 73
        E 8 94 4a 4f
        E 109 84 20 4c
        E 5 84 2c 59
        E 8 84 44 4f
        E 98 84 4a 33
        E 245 94 48 5f
        E 3 94 44 6d
        E 8 94 2c 6f
        E 8 94 20 5d
        E 66 84 44 71
        E 27 84 48 68
        E 5 84 20 6e
        E 19 84 2c 73
        E 256 b4 40 00
        E 79 94 2b 6d
        E 2 94 47 54
        E 0 94 4a 64
        E 0 94 43 62
        E 0 94 3e 66
        E 9 94 1f 64
        E 100 b4 40 7f
        E 134 84 47 4c
        E 0 84 43 51
        E 0 84 4a 48
        E 10 84 3e 42
        E 47 84 1f 50
        E 24 84 2b 45
        E 161 94 4a 56
        E 5 94 3e 62
        E 3 94 43 5b
        E 0 94 47 52
        E 8 94 2b 69
        E 5 94 1f 5b
        E 68 84 3e 60
        E 11 84 43 5f
        E 19 84 2b 60
        E 6 84 1f 67
        E 16 84 4a 62
        E 3 84 47 67
        E 285 b4 40 00
        E 52 94 48 69
        E 3 94 43 5f
        E 5 94 4b 6f
        E 3 94 30 6d
        E 3 94 24 6d
        E 114 b4 40 7f
        E 171 84 43 3c
        E 25 84 4b 50
        E 57 84 48 50
        E 122 94 4a 4f
        E 3 94 43 62
        E 35 84 30 4b
        E 106 84 24 4f
        E 14 84 43 26
        E 71 84 4a 3b
        E 239 94 43 54
        E 0 94 48 64
        E 0 94 30 5b
        E 0 94 24 62
        E 101 84 30 66
        E 2 84 43 57
        E 14 84 48 61
        E 22 84 24 60
        E 269 b4 40 00
        E 95 94 41 6d
        E 0 94 4b 73
        E 0 94 2e 73
        E 0 94 22 6d
        E 8 94 46 6b
        E 96 b4 40 7f
        E 89 84 46 43
        E 33 84 41 4c
        E 49 84 4b 51
        E 190 94 41 5f
        E 3 84 2e 63
        E 6 94 46 6b
        E 8 94 48 4b
        E 5 84 22 6a
        E 71 84 41 60
        E 8 84 48 6a
        E 16 84 46 76
        E 338 b4 40 00
        E 21 94 4b 6d
        E 3 94 3f 73
        E 3 94 48 5f
        E 0 94 2c 7b
        E 5 94 44 6f
        E 3 94 20 6f
        E 176 84 4b 5e
        E 9 84 3f 62
        E 1 84 44 75
        E 0 84 2c 6d
        E 5 84 20 63
        E 1 84 48 68
        E 1367 b4 40 7f
        E 215 b4 40 7f
        E 195 94 43 46
        E 0 94 3c 49
        E 0 94 3f 4e
        E 63 84 3f 5c
        E 2 84 3c 4d
        E 5 84 43 58
        E 388 94 3c 39
        E 0 94 43 3a
        E 0 94 3f 3a
        E 50 84 3f 5b
        E 8 84 3c 5b
        E 0 84 43 5a
        E 412 94 43 3f
        E 5 94 3f 3a
        E 0 94 3c 37
        E 60 84 43 53
        E 0 84 3c 43
        E 0 84 3f 50
        E 403 94 43 3e
        E 6 94 3c 39
        E 7 94 3f 37
        E 57 84 43 52
        E 0 84 3f 4d
        E 0 84 3c 50
        E 412 94 43 3a
        E 4 94 3c 35
        E 2 94 3f 37
        E 63 84 43 4c
        E 4 84 3f 53
        E 2 84 3c 51
        E 412 94 43 39
        E 4 94 3c 35
        E 2 94 3f 39
        E 83 84 3c 2a
        E 2 84 43 2e
        E 4 84 3f 2e
        E 399 94 43 35
        E 0 94 3c 32
        E 3 94 3f 39
        E 78 84 3c 3c
        E 9 84 43 35
        E 17 84 3f 23
        E 370 94 43 3a
        E 5 94 3f 3f
        E 1 94 3c 39
        E 85 84 3c 42
        E 1 84 43 4a
        E 39 84 3f 3e
        E 349 b4 40 00
        E 6 94 3f 3f
        E 0 94 3c 42
        E 0 94 43 3e
        E 0 94 30 44
        E 35 b4 40 7f
        E 87 84 3f 71
        E 11 84 3c 5c
        E 0 84 43 61
        E 356 94 48 3f
        E 4 94 3f 37
        E 1 94 43 3b
        E 136 84 48 48
        E 28 84 3f 2f
        E 15 84 43 55
        E 131 84 30 2d
        E 136 b4 40 00
        E 3 94 3f 3b
        E 3 94 43 3e
        E 0 94 4a 3f
        E 4 94 2e 44
        E 68 b4 40 7f
        E 220 84 4a 33
        E 15 84 43 4a
        E 0 84 3f 4f
        E 177 94 3f 42
        E 6 94 48 3f
        E 1 94 43 42
        E 171 84 48 66
        E 14 84 43 61
        E 25 84 3f 5e
        E 244 b4 40 00
        E 12 94 43 3f
        E 0 94 3c 3e
        E 4 94 3f 3d
        E 9 94 2c 4b
        E 46 84 2e 54
        E 28 b4 40 7f
        E 176 84 43 19
        E 38 84 3c 3a
        E 12 84 3f 49
        E 189 94 3c 43
        E 0 94 3f 44
        E 0 94 43 3f
        E 150 84 43 44
        E 13 84 3c 4a
        E 21 84 3f 68
        E 278 b4 40 00
        E 12 94 43 3f
        E 0 94 3f 42
        E 4 94 3c 3e
        E 1 94 2b 3d
        E 5 84 2c 62
        E 63 b4 40 7f
        E 101 84 3c 4c
        E 23 84 43 36
        E 25 84 3f 57
        E 15 94 3c 44
        E 92 94 3f 4b
        E 9 84 2b 4d
        E 117 94 43 4d
        E 4 84 3f 6d
        E 0 94 2b 4b
        E 39 84 3c 50
        E 38 84 2b 49
        E 19 94 3f 49
        E 81 84 43 23
        E 47 84 3f 66
        E 3 94 3c 4a
        E 98 84 3c 43
        E 25 94 29 41
        E 62 94 30 3f
        E 8 84 29 54
        E 8 b4 40 00
        E 52 84 30 60
        E 2 94 44 5f
        E 2 94 3c 4c
        E 0 94 41 47
        E 0 94 29 4e
        E 4 94 35 45
        E 24 b4 40 7f
        E 153 84 41 5f
        E 2 84 3c 5f
        E 13 84 44 6e
        E 283 94 4a 47
        E 4 94 41 41
        E 2 94 44 49
        E 37 84 35 3c
        E 8 84 29 35
        E 183 94 35 3e
        E 3 94 29 44
        E 1 84 4a 5b
        E 45 84 44 51
        E 0 84 35 54
        E 7 84 29 5b
        E 26 84 41 43
        E 132 b4 40 00
        E 36 94 4b 5b
        E 1 94 44 54
        E 4 94 33 4d
        E 0 94 41 42
        E 0 94 27 4f
        E 38 b4 40 7f
        E 229 84 4b 48
        E 30 84 44 26
        E 9 84 41 39
        E 171 94 44 4b
        E 2 94 4a 43
        E 1 94 41 42
        E 66 84 33 40
        E 85 84 4a 53
        E 29 84 44 6a
        E 11 84 41 5b
        E 24 94 33 47
        E 52 84 27 54
        E 27 84 33 59
        E 158 b4 40 00
        E 11 94 44 4a
        E 1 94 3c 44
        E 3 94 41 43
        E 1 94 32 3f
        E 7 94 26 44
        E 55 b4 40 7f
        E 175 84 3c 2f
        E 9 84 41 40
        E 19 84 44 51
        E 195 94 44 47
        E 5 94 3c 42
        E 0 94 41 41
        E 41 84 32 48
        E 83 84 26 01
        E 104 94 32 41
        E 14 84 44 4b
        E 2 84 3c 41
        E 0 94 26 26
        E 4 84 41 4b
        E 31 84 26 63
        E 15 84 32 59
        E 176 b4 40 00
        E 12 94 44 4f
        E 0 94 30 4b
        E 0 94 24 4c
        E 2 94 3c 46
        E 2 94 41 44
        E 57 b4 40 7f
        E 235 84 44 49
        E 14 84 3c 3d
        E 5 84 41 4f
        E 90 84 24 59
        E 64 84 30 52
        E 14 94 44 4f
        E 4 94 3c 4b
        E 1 94 41 45
        E 120 84 44 4d
        E 54 84 41 4f
        E 0 84 3c 01
        E 48 94 32 45
        E 1 94 26 4c
        E 25 84 32 5c
        E 18 84 26 62
        E 180 b4 40 00
        E 30 94 2e 52
        E 2 94 22 4f
        E 46 b4 40 7f
        E 193 94 35 41
        E 95 84 2e 55
        E 147 94 3a 59
        E 8 94 2e 42
        E 194 84 22 54
        E 3 84 3a 09
        E 12 94 3e 43
        E 32 84 2e 36
        E 11 84 3e 67
        E 52 94 22 37
        E 77 84 22 61
        E 10 94 29 36
        E 39 b4 40 00
        E 24 94 3f 5b
        E 3 94 22 4d
        E 1 94 2e 49
        E 1 84 29 44
        E 0 94 3a 5b
        E 12 b4 40 7f
        E 0 84 35 64
        E 217 84 3f 60
        E 12 84 3a 5f
        E 6 94 35 4d
        E 92 84 2e 4a
        E 132 94 3a 62
        E 7 94 2e 59
        E 55 84 3a 50
        E 115 84 22 57
        E 32 84 2e 57
        E 33 94 41 5d
        E 10 84 35 01
        E 36 84 41 68
        E 82 94 27 46
        E 59 84 27 67
        E 5 94 2e 44
        E 17 b4 40 00
        E 39 94 33 4b
        E 0 94 3a 54
        E 5 94 27 5b
        E 2 84 2e 61
        E 0 94 44 66
        E 4 94 3f 59
        E 24 b4 40 7f
        E 141 84 3a 4b
        E 92 94 3a 4e
        E 29 84 3f 54
        E 178 94 3f 5d
        E 36 84 44 53
        E 136 84 3a 5a
        E 45 84 3f 4c
        E 29 94 3a 4f
        E 4 94 43 45
        E 54 84 27 5a
        E 43 84 3a 46
        E 27 84 33 42
        E 13 94 27 43
        E 84 84 43 01
        E 11 94 3a 54
        E 0 94 33 4e
        E 2 94 41 4c
        E 234 94 2e 4d
        E 13 84 33 5b
        E 99 94 33 44
        E 70 84 3a 09
        E 58 84 41 58
        E 0 94 3f 62
        E 2 94 3a 26
        E 32 84 3a 4b
        E 83 84 33 52
        E 112 94 33 4d
        E 14 84 2e 62
        E 4 84 27 64
        E 24 84 33 79
        E 14 84 3f 79
        E 35 94 31 37
        E 33 84 31 60
        E 99 b4 40 00
        E 24 94 2b 59
        E 4 94 3b 5b
        E 0 94 3e 5d
        E 51 b4 40 7f
        E 184 94 32 44
        E 71 84 3e 3d
        E 5 84 3b 40
        E 42 94 37 49
        E 129 94 43 54
        E 0 94 3e 54
        E 0 94 3b 56
        E 213 84 43 3a
        E 23 84 32 49
        E 4 84 2b 49
        E 2 94 41 45
        E 13 84 3e 55
        E 14 84 3b 46
        E 9 84 37 2b
        E 77 94 2b 41
        E 13 84 41 01
        E 38 94 32 41
        E 32 84 2b 54
        E 45 94 3f 5d
        E 0 94 3b 4e
        E 2 84 32 58
        E 0 94 2b 3e
        E 9 94 37 44
        E 218 94 32 3f
        E 4 84 37 51
        E 97 84 3b 40
        E 15 94 37 3f
        E 31 84 32 46
        E 7 84 3f 32
        E 85 94 3e 5b
        E 2 94 3b 56
        E 44 84 3b 50
        E 2 84 3e 61
        E 180 84 37 58
        E 4 94 32 47
        E 32 84 2b 46
        E 3 84 32 52
        E 119 94 24 41
        E 41 94 2b 45
        E 17 84 24 5e
        E 7 b4 40 00
        E 42 84 2b 58
        E 0 94 37 52
        E 0 94 24 3b
        E 0 94 41 4f
        E 4 94 3c 59
        E 1 94 30 4c
        E 27 b4 40 7f
        E 123 84 37 4a
        E 107 94 37 41
        E 52 84 41 23
        E 55 84 3c 27
        E 10 84 37 36
        E 127 94 37 4c
        E 1 94 3c 4f
        E 3 94 3f 4e
        E 85 84 30 3d
        E 78 84 3f 5c
        E 9 84 3c 62
        E 21 84 37 5a
        E 28 94 30 43
        E 110 94 2b 46
        E 4 84 24 50
        E 0 84 30 4c
        E 101 b4 40 00
        E 28 94 30 45
        E 3 94 24 4b
        E 2 84 2b 59
        E 4 94 33 4f
        E 0 94 37 4a
        E 0 94 3e 4c
        E 26 b4 40 7f
        E 124 84 33 58
        E 34 84 37 4c
        E 13 84 3e 51
        E 41 94 37 3d
        E 3 94 3c 44
        E 2 94 33 44
        E 52 84 30 49
        E 176 94 30 42
        E 12 84 33 2c
        E 108 84 24 14
        E 77 84 37 01
        E 35 94 33 4f
        E 4 84 3c 46
        E 64 84 33 68
        E 133 b4 40 00
        E 20 84 30 01
        E 16 94 3f 49
        E 3 94 3c 49
        E 0 94 2c 59
        E 35 b4 40 7f
        E 209 84 3f 41
        E 16 94 33 4b
        E 8 84 3c 45
        E 97 94 38 4d
        E 117 94 20 4b
        E 9 94 3f 4e
        E 181 84 3f 53
        E 31 84 33 3b
        E 25 94 33 1d
        E 7 94 3e 42
        E 22 84 20 54
        E 32 84 33 2f
        E 26 84 3e 2d
        E 48 94 20 3b
        E 9 84 2c 5c
        E 33 84 38 01
        E 44 94 27 1f
        E 5 b4 40 00
        E 13 94 2c 4a
        E 8 94 3f 54
        E 2 84 27 4b
        E 1 94 33 46
        E 39 b4 40 7f
        E 188 94 38 4b
        E 10 94 3c 43
        E 13 84 3f 61
        E 38 84 2c 4d
        E 190 94 2c 4d
        E 115 84 38 01
        E 0 84 33 01
        E 28 84 3c 19
        E 71 84 2c 58
        E 9 94 33 52
        E 9 84 20 54
        E 30 84 33 7a
        E 182 b4 40 00
        E 40 94 2b 5b
        E 0 94 1f 4e
        E 23 b4 40 7f
        E 205 94 3c 45
        E 65 84 2b 30
        E 39 94 3f 52
        E 49 84 3c 3b
        E 42 84 3f 46
        E 32 94 2b 59
        E 2 94 48 66
        E 2 94 3c 56
        E 4 94 3f 3a
        E 26 84 3f 57
        E 84 84 3c 3e
        E 60 84 48 33
        E 53 94 3c 59
        E 1 94 3f 5d
        E 3 94 43 4c
        E 29 84 1f 49
        E 4 84 43 66
        E 0 84 3c 68
        E 1 84 3f 71
        E 17 84 2b 40
        E 71 94 1f 3d
        E 59 94 26 3d
        E 5 84 1f 59
        E 35 b4 40 00
        E 9 84 26 5c
        E 10 94 2b 56
        E 2 94 1f 46
        E 1 94 41 59
        E 0 94 3c 64
        E 1 94 37 62
        E 35 b4 40 7f
        E 279 84 41 48
        E 44 84 3c 34
        E 2 84 37 52
        E 119 94 3f 5b
        E 0 94 37 54
        E 0 94 3c 5b
        E 240 94 26 4f
        E 17 84 1f 5b
        E 5 84 2b 60
        E 19 84 26 66
        E 173 b4 40 00
        E 33 84 37 5c
        E 2 94 26 5d
        E 0 94 32 5d
        E 6 84 3f 59
        E 12 84 3c 59
        E 32 b4 40 7f
        E 194 94 36 46
        E 103 84 32 37
        E 5 84 36 40
        E 128 94 36 47
        E 0 94 32 44
        E 0 94 3e 46
        E 19 94 3c 28
        E 188 84 36 15
        E 10 84 3e 49
        E 25 94 36 0c
        E 4 84 26 51
        E 0 94 3f 3b
        E 94 84 32 21
        E 28 94 26 36
        E 13 84 36 1e
        E 49 84 26 39
        E 23 84 3f 55
        E 32 94 3e 42
        E 1 94 32 42
        E 3 94 36 39
        E 2 94 26 45
        E 100 84 36 1c
        E 41 84 3c 37
        E 63 84 3e 30
        E 38 94 3f 49
        E 1 94 3c 47
        E 4 94 36 44
        E 43 84 32 3b
        E 184 94 32 49
        E 52 84 26 55
        E 78 84 36 45
        E 98 94 36 54
        E 6 94 26 4c
        E 9 84 32 62
        E 42 84 26 5e
        E 3 84 3c 55
        E 6 84 36 72
        E 77 84 3f 4c
        E 63 b4 40 00
        E 39 94 37 52
        E 2 94 3b 5f
        E 0 94 2b 5d
        E 2 94 1f 56
        E 0 94 3e 4e
        E 40 b4 40 7f
        E 179 94 26 4c
        E 9 84 2b 54
        E 16 84 1f 52
        E 78 84 26 4f
        E 18 94 2b 4e
        E 2 94 1f 47
        E 9 84 3b 46
        E 3 84 37 4d
        E 2 84 3e 01
        E 123 94 3b 66
        E 0 94 3f 66
        E 0 94 37 59
        E 42 84 2b 32
        E 8 84 1f 2d
        E 87 84 37 4d
        E 4 84 3f 60
        E 42 84 3b 2d
        E 42 94 2b 4e
        E 5 94 37 59
        E 2 94 3f 66
        E 43 84 37 61
        E 10 84 3f 6e
        E 44 94 1f 45
        E 6 84 2b 4b
        E 45 94 26 4c
        E 18 84 1f 5e
        E 10 b4 40 00
        E 40 84 26 61
        E 4 94 3e 5f
        E 0 94 3b 6b
        E 1 94 41 5b
        E 4 b4 40 7f
        E 5 94 1f 5b
        E 3 94 2b 66
        E 32 84 2b 6e
        E 14 84 1f 69
        E 107 84 3b 54
        E 83 94 3b 5b
        E 6 84 3e 3c
        E 30 84 41 01
        E 86 84 3b 10
        E 124 94 43 5d
        E 0 94 3e 62
        E 0 94 3b 69
        E 122 84 3b 54
        E 124 84 43 5e
        E 6 94 3b 5d
        E 25 84 3e 59
        E 48 84 3b 4a
        E 128 b4 40 00
        E 43 94 3c 69
        E 0 94 43 5f
        E 2 94 3f 69
        E 0 94 30 5b
        E 3 94 24 64
        E 21 b4 40 7f
        E 168 84 3c 62
        E 0 84 3f 76
        E 3 84 43 60
        E 28 94 2b 54
        E 22 84 30 51
        E 102 94 30 47
        E 33 84 2b 54
        E 105 94 48 5d
        E 4 94 3f 69
        E 3 94 43 5b
        E 225 84 48 5f
        E 5 94 2b 59
        E 14 84 30 69
        E 26 84 43 3d
        E 1 84 24 4b
        E 21 84 3f 43
        E 46 94 24 4e
        E 6 94 30 32
        E 18 84 30 55
        E 19 84 24 4d
        E 14 84 2b 55
        E 62 b4 40 00
        E 25 94 4a 59
        E 4 94 3f 6b
        E 0 94 43 59
        E 0 94 2e 5d
        E 4 94 22 69
        E 46 b4 40 7f
        E 154 84 2e 64
        E 46 94 2e 4a
        E 66 84 43 44
        E 9 84 4a 44
        E 9 84 3f 4b
        E 145 94 3f 62
        E 0 94 48 4d
        E 4 94 43 54
        E 65 84 2e 4d
        E 100 84 48 62
        E 13 84 43 63
        E 23 84 3f 72
        E 15 94 2e 5b
        E 55 84 22 6b
        E 4 84 2e 62
        E 148 b4 40 00
        E 31 94 3c 56
        E 1 94 43 62
        E 5 94 3f 5f
        E 0 94 2c 66
        E 0 94 20 5f
        E 38 b4 40 7f
        E 258 84 43 37
        E 26 84 3c 3e
        E 38 84 3f 45
        E 96 94 3c 56
        E 0 94 43 54
        E 0 94 3f 5b
        E 96 84 2c 58
        E 149 94 2c 4b
        E 32 84 43 25
        E 23 84 20 58
        E 24 84 2c 57
        E 14 84 3f 45
        E 4 84 3c 4a
        E 121 b4 40 00
        E 4 94 3c 44
        E 8 94 2b 5d
        E 0 94 43 5d
        E 1 94 1f 4d
        E 4 94 3e 64
        E 23 84 3c 66
        E 35 b4 40 7f
        E 244 84 2b 3e
        E 190 94 3c 5b
        E 0 94 2b 5b
        E 64 84 3e 3b
        E 130 84 43 01
        E 32 94 26 69
        E 13 84 1f 5e
        E 0 84 2b 60
        E 35 84 26 68
        E 62 84 3c 3b
        E 112 b4 40 00
        E 30 94 44 6b
        E 0 94 35 5f
        E 0 94 29 5f
        E 0 94 3c 66
        E 7 94 41 5b
        E 42 b4 40 7f
        E 116 84 41 62
        E 8 84 3c 64
        E 8 84 44 76
        E 115 84 35 54
        E 200 94 4a 5b
        E 1 94 41 5f
        E 3 94 44 6d
        E 206 84 4a 5e
        E 20 94 30 4d
        E 15 84 29 48
        E 18 84 44 52
        E 64 94 29 49
        E 14 84 30 17
        E 4 84 41 43
        E 27 84 29 60
        E 80 b4 40 00
        E 20 94 41 5f
        E 1 94 4b 6d
        E 0 94 44 6b
        E 4 94 27 5f
        E 1 94 33 5b
        E 53 b4 40 7f
        E 224 84 4b 66
        E 6 84 44 43
        E 18 84 41 42
        E 165 94 4a 4b
        E 2 94 41 4f
        E 0 94 44 69
        E 83 84 33 3e
        E 60 84 4a 53
        E 40 84 44 6d
        E 6 84 41 5f
        E 45 94 33 59
        E 49 84 27 62
        E 3 84 33 75
        E 165 b4 40 00
        E 24 94 32 47
        E 0 94 44 5f
        E 1 94 3c 54
        E 2 94 41 4c
        E 3 94 26 4d
        E 45 b4 40 7f
        E 202 84 44 48
        E 22 84 3c 41
        E 13 84 41 41
        E 199 94 44 54
        E 1 94 3c 4b
        E 3 94 41 45
        E 67 84 32 49
        E 52 84 26 33
        E 111 94 32 4b
        E 4 94 26 4b
        E 78 84 32 3c
        E 12 84 26 4b
        E 1 94 2d 4b
        E 71 84 2d 53
        E 35 b4 40 00
        E 40 94 30 5b
        E 4 94 24 66
        E 19 b4 40 7f
        E 32 84 3c 43
        E 22 84 44 2a
        E 83 84 41 1d
        E 78 94 3c 64
        E 72 84 30 4f
        E 150 84 3c 5f
        E 18 94 30 5f
        E 0 94 3f 5d
        E 64 84 3f 53
        E 139 84 30 60
        E 14 84 24 59
        E 13 94 38 6f
        E 40 84 38 7a
        E 158 b4 40 00
        E 48 94 3e 62
        E 0 94 22 5d
        E 0 94 35 62
        E 0 94 2e 6d
        E 5 94 3a 6d
        E 27 b4 40 7f
        E 183 84 35 5e
        E 11 84 3a 77
        E 14 84 3e 66
        E 0 94 29 4f
        E 9 84 2e 6a
        E 103 94 2e 5b
        E 19 84 29 4b
        E 104 94 41 64
        E 2 94 46 73
        E 122 84 41 43
        E 36 84 46 4b
        E 74 94 41 62
        E 1 94 4a 52
        E 3 94 46 37
        E 21 84 22 54
        E 7 84 46 64
        E 7 84 2e 52
        E 0 84 41 62
        E 9 84 4a 64
        E 61 94 22 4f
        E 51 94 29 46
        E 15 84 22 64
        E 41 b4 40 00
        E 22 84 29 57
        E 6 94 22 59
        E 0 94 41 69
        E 0 94 4b 77
        E 2 94 2e 6b
        E 1 94 46 6f
        E 6 b4 40 7f
        E 165 84 4b 60
        E 62 94 29 4d
        E 14 84 2e 5b
        E 0 84 22 59
        E 43 84 46 3c
        E 8 84 41 30
        E 23 84 29 55
        E 14 94 2e 6b
        E 1 94 22 59
        E 62 84 2e 5a
        E 4 84 22 59
        E 66 94 4d 66
        E 0 94 46 77
        E 3 94 41 6f
        E 2 94 2e 6b
        E 2 94 22 5d
        E 29 84 41 6b
        E 10 84 4d 66
        E 2 84 46 70
        E 181 94 29 52
        E 9 84 2e 63
        E 62 84 22 57
        E 15 84 29 49
        E 1 94 2e 62
        E 39 84 2e 71
        E 65 b4 40 00
        E 42 94 33 6f
        E 2 94 27 79
        E 0 94 46 77
        E 2 94 50 7b
        E 3 94 4b 75
        E 36 b4 40 7f
        E 460 94 2e 6f
        E 36 84 4b 57
        E 11 84 46 55
        E 15 84 50 51
        E 173 94 46 6b
        E 4 94 4b 69
        E 0 94 4f 49
        E 23 84 2e 54
        E 0 84 27 5e
        E 3 84 4f 59
        E 11 84 46 75
        E 5 84 4b 78
        E 22 84 33 45
        E 40 94 27 4d
        E 47 94 2e 5d
        E 12 84 27 67
        E 31 b4 40 00
        E 18 84 2e 6a
        E 20 94 27 66
        E 2 94 46 77
        E 0 94 4d 6d
        E 2 94 33 6d
        E 0 94 43 62
        E 5 b4 40 7f
        E 232 94 2e 5f
        E 15 84 33 69
        E 89 84 4d 4a
        E 13 94 33 62
        E 3 84 43 49
        E 3 84 46 50
        E 67 84 2e 28
        E 51 94 46 77
        E 0 94 4b 73
        E 0 94 43 69
        E 65 84 27 46
        E 5 84 33 41
        E 155 94 27 52
        E 5 94 33 69
        E 26 84 43 61
        E 0 84 46 78
        E 4 84 4b 72
        E 6 84 27 77
        E 9 84 33 73
        E 198 b4 40 00
        E 21 94 37 69
        E 0 94 47 73
        E 0 94 4a 71
        E 0 94 2b 69
        E 64 b4 40 7f
        E 174 94 32 4d
        E 20 84 37 5a
        E 63 84 4a 4b
        E 4 84 47 43
        E 26 94 37 4f
        E 126 94 4a 6b
        E 0 94 47 66
        E 0 94 4f 66
        E 135 84 37 58
        E 24 84 47 49
        E 0 84 2b 21
        E 33 84 4f 30
        E 16 84 32 42
        E 28 94 47 54
        E 2 84 4a 63
        E 2 94 37 4f
        E 1 94 4d 4a
        E 2 94 2b 4f
        E 25 84 4d 5a
        E 7 84 47 66
        E 44 84 2b 1d
        E 4 84 37 1e
        E 22 94 32 43
        E 124 84 32 5b
        E 6 94 4b 6f
        E 4 94 37 66
        E 0 94 2b 66
        E 225 94 32 4c
        E 13 84 37 4b
        E 5 84 4b 5b
        E 10 84 2b 53
        E 68 84 32 60
        E 17 94 37 4d
        E 6 94 2b 4d
        E 54 84 37 5a
        E 4 84 2b 4b
        E 72 94 43 62
        E 1 94 47 6d
        E 0 94 4a 66
        E 5 94 2b 62
        E 1 94 37 5d
        E 232 84 4a 61
        E 3 84 47 61
        E 3 84 37 5b
        E 3 94 32 5f
        E 5 84 43 46
        E 15 84 2b 51
        E 22 84 32 6b
        E 87 94 24 4f
        E 49 94 2b 52
        E 20 84 24 63
        E 5 b4 40 00
        E 38 84 2b 5b
        E 10 94 48 71
        E 0 94 43 66
        E 0 94 4d 69
        E 2 94 30 66
        E 3 94 24 66
        E 27 b4 40 7f
        E 479 94 2b 66
        E 15 84 4d 33
        E 105 84 43 52
        E 6 84 48 37
        E 109 94 4b 5f
        E 0 94 48 5d
        E 3 94 43 4f
        E 6 84 24 46
        E 22 84 2b 4f
        E 1 84 30 48
        E 27 84 43 42
        E 38 84 4b 52
        E 8 84 48 51
        E 12 94 24 49
        E 32 94 2b 4e
        E 32 84 24 5c
        E 46 84 2b 62
        E 12 94 43 66
        E 2 94 4a 6b
        E 4 94 30 5f
        E 1 94 24 5f
        E 96 84 4a 66
        E 31 84 43 59
        E 102 94 2b 54
        E 8 84 30 5b
        E 19 84 24 55
        E 61 84 2b 5c
        E 19 94 30 4f
        E 6 94 24 4e
        E 49 84 30 5e
        E 9 84 24 57
        E 77 94 48 62
        E 0 94 3f 6f
        E 5 94 43 5d
        E 0 94 30 56
        E 3 94 24 56
        E 133 84 30 51
        E 21 84 24 53
        E 81 94 24 62
        E 2 94 30 5d
        E 34 84 30 6f
        E 17 84 24 6a
        E 4 84 48 60
        E 6 84 43 64
        E 16 84 3f 44
        E 138 b4 40 00
        E 33 94 2c 77
        E 0 94 20 75
        E 0 94 48 5d
        E 0 94 3f 6d
        E 8 94 44 5f
        E 48 b4 40 7f
        E 0 94 4b 4b
        E 324 84 48 48
        E 1 84 44 3e
        E 29 84 4b 48
        E 10 84 3f 43
        E 73 94 3f 69
        E 0 94 48 54
        E 0 94 4b 62
        E 4 94 44 5f
        E 123 84 4b 4f
        E 30 84 3f 76
        E 2 84 48 53
        E 2 84 44 45
        E 72 94 27 5f
        E 0 94 4a 5d
        E 1 94 3e 5f
        E 5 84 20 67
        E 1 84 2c 30
        E 40 84 3e 66
        E 8 84 4a 5b
        E 175 84 27 59
        E 8 94 4a 6d
        E 0 94 3e 64
        E 5 94 20 5f
        E 1 94 2c 6b
        E 45 84 3e 50
        E 13 84 4a 3d
        E 156 94 27 5b
        E 8 84 2c 68
        E 48 84 20 44
        E 55 84 27 5a
        E 0 94 20 4a
        E 3 94 2c 5f
        E 136 94 3c 71
        E 0 94 48 73
        E 44 84 3c 61
        E 9 84 48 52
        E 40 84 2c 51
        E 126 94 2c 5d
        E 28 84 20 60
        E 33 84 2c 78
        E 58 94 1f 42
        E 43 94 26 46
        E 19 84 1f 5f
        E 30 b4 40 00
        E 41 94 3c 6f
        E 2 94 3f 77
        E 0 94 2b 6b
        E 3 84 26 58
        E 0 94 1f 54
        E 23 b4 40 7f
        E 196 84 3f 59
        E 14 84 2b 55
        E 4 94 26 52
        E 24 84 1f 59
        E 43 84 3c 2d
        E 12 84 26 60
        E 17 94 2b 54
        E 3 94 1f 45
        E 55 84 2b 5a
        E 11 84 1f 51
        E 80 94 3f 77
        E 0 94 48 71
        E 0 94 3c 6b
        E 4 94 2b 64
        E 1 94 1f 52
        E 91 84 48 4d
        E 18 84 3c 4f
        E 7 84 3f 4a
        E 115 94 3f 6d
        E 0 94 3c 6b
        E 2 94 43 54
        E 36 84 2b 3c
        E 14 84 1f 40
        E 188 84 3c 63
        E 0 84 3f 77
        E 2 84 43 68
        E 10 94 37 69
        E 0 94 3c 66
        E 0 94 2b 5d
        E 3 94 1f 4f
        E 0 94 41 5f
        E 240 84 41 4c
        E 34 84 3c 48
        E 56 84 37 49
        E 138 94 3f 66
        E 0 94 3c 69
        E 3 94 37 66
        E 459 b4 40 00
        E 14 94 3c 52
        E 4 84 3f 60
        E 0 84 3c 5f
        E 3 84 37 34
        E 0 94 43 62
        E 2 94 2b 56
        E 4 84 2b 55
        E 0 94 37 5d
        E 3 84 1f 34
        E 0 94 3b 52
        E 7 94 41 42
        E 36 94 32 46
        E 22 b4 40 7f
        E 29 94 41 0b
        E 9 94 2b 43
        E 361 84 3c 40
        E 7 84 43 52
        E 2 84 2b 53
        E 4 84 37 3d
        E 3 84 3b 63
        E 7 84 41 5c
        E 36 84 32 55
        E 51 84 41 01
        E 9 84 2b 5f
        E 1311 b4 40 00
        E 10 b0 7b 00
        CCINTERP 32
        CHASE_CC_TAKEOFFS 1
        GUID {1D77913B-5C1A-E84C-A2D0-7B84C1EAB7E2}
        IGNTEMPO 0 120 4 4
        SRCCOLOR 5
        VELLANE -1 100 0
      >
    >
  >
  <TRACK {E74B9E01-5F7D-1F4A-8760-834F454E4BA3}
    NAME Perc
    PEAKCOL 16576
    BEAT -1
    AUTOMODE 0
    VOLPAN 0.12306074939669 0 -1 -1 1
    MUTESOLO 0 0 0
    IPHASE 0
    PLAYOFFS 0 1
    ISBUS 0 0
    BUSCOMP 0 0 0 0 0
    SHOWINMIX 1 0.6667 0.5 1 0.5 0 0 0
    SEL 0
    REC 0 0 1 0 0 0 0 0
    VU 2
    TRACKHEIGHT 62 0 0 0 0 0
    INQ 0 0 0 0.5 100 0 0 100
    NCHAN 2
    FX 1
    TRACKID {E74B9E01-5F7D-1F4A-8760-834F454E4BA3}
    PERF 0
    MIDIOUT -1
    MAINSEND 1 0
    <FXCHAIN
      WNDRECT 260 414 477 494
      SHOW 0
      LASTSEL 0
      DOCKED 0
      BYPASS 0 0 0
      <VST "VSTi: ReaSynth (Cockos)" reasynth.vst.dylib 0 "" 1919251321<5653547265737972656173796E746800> ""
        eXNlcu9e7f4AAAAAAgAAAAEAAAAAAAAAAgAAAAAAAABEAAAAAAAAAAAAEAA=
        776t3g3wrd5buLo+F7fROgAAAAAAAAAAAAAAAK6MST0DZYc8AAAAAAAAAD+OKJQ+f2r8PgAAAD8AAAAAAAAAAAAAAAA=
        AAAQAAAA
      >
      FLOATPOS 0 0 0 0
      FXID {69FEB39C-E5DF-CA43-8CC6-D91C418B8ABD}
      WAK 0 0
    >
    <ITEM
      POSITION 0
      SNAPOFFS 0
      LENGTH 363.15507745299715
      LOOP 1
      ALLTAKES 0
      FADEIN 1 0 0 1 0 0 0
      FADEOUT 1 0 0 1 0 0 0
      MUTE 0 0
      SEL 0
      IGUID {8480209C-19AB-1B42-8D7A-093C33A151CF}
      IID 6
      NAME "Bowed Glass/Perc. Organ - 1-6--3-2_geth-1.mid"
      VOLPAN 1 0 1 -1
      SOFFS 0 0
      PLAYRATE 1 1 0 -1 0 0.0025
      CHANMODE 0
      GUID {A036F4A0-EACD-934F-8F93-EE1D4BF45BCF}
      <SOURCE MIDI
        HASDATA 1 480 QN
        CCINTERP 32
        POOLEDEVTS {F6A0FB17-3C16-AE48-8B49-AC9B9AFEF336}
        <X 0 0 0 0 3 "Bowed Glass/Perc. Organ"
          /wNCb3dlZCBHbGFzcy9QZXJjLiBPcmdhbg==
        >
        E 0 b5 00 00
        E 0 b5 20 01
        E 0 c5 5c 00
        E 0 b5 07 4c
        E 0 b5 0a 28
        E 1945 95 46 3a
        E 0 95 41 31
        E 3625 85 41 4c
        E 49 85 46 4d
        E 108 95 46 33
        E 3 95 41 2d
        E 3641 85 41 61
        E 4 85 46 58
        E 193 95 42 33
        E 0 95 46 3a
        E 3702 85 46 42
        E 46 85 42 3e
        E 125 95 48 41
        E 0 95 44 3b
        E 908 85 48 3a
        E 36 95 49 47
        E 431 b5 40 7f
        E 45 85 44 62
        E 34 85 49 68
        E 440 95 4e 43
        E 5 b5 40 00
        E 1 95 49 3f
        E 729 85 4e 4f
        E 3 95 4d 45
        E 5 85 49 6d
        E 232 85 4d 58
        E 5 95 49 3f
        E 12 95 44 1a
        E 811 85 44 58
        E 47 85 49 64
        E 83 95 4d 3f
        E 10 95 48 44
        E 1402 b5 40 7f
        E 60 85 4d 30
        E 35 85 48 62
        E 358 95 41 2e
        E 8 95 46 33
        E 4 95 4b 29
        E 10 b5 40 00
        E 965 85 4b 5b
        E 36 95 49 2f
        E 545 b5 40 7f
        E 129 85 49 36
        E 26 85 41 57
        E 10 85 46 4c
        E 238 95 42 31
        E 8 95 46 37
        E 13 b5 40 00
        E 7 95 49 2b
        E 1439 b5 40 7f
        E 151 85 42 43
        E 5 85 46 4b
        E 7 85 49 49
        E 286 95 41 2f
        E 5 95 46 35
        E 4 b5 40 00
        E 1446 b5 40 7f
        E 215 85 46 4d
        E 14 85 41 19
        E 210 95 43 3a
        E 7 b5 40 00
        E 3 95 48 3f
        E 1422 b5 40 7f
        E 147 85 48 27
        E 66 85 43 30
        E 258 95 48 3b
        E 3 95 41 31
        E 12 b5 40 00
        E 1923 95 46 3b
        E 1 95 49 3d
        E 7 85 48 61
        E 3418 b5 40 7f
        E 133 85 41 3b
        E 6 85 49 36
        E 8 85 46 54
        E 292 95 4b 39
        E 1 b5 40 00
        E 2 95 42 33
        E 3 95 46 33
        E 3347 b5 40 7f
        E 68 85 46 55
        E 12 85 4b 54
        E 11 85 42 48
        E 360 b5 40 00
        E 10 95 48 43
        E 0 95 3f 39
        E 4 95 44 3b
        E 428 b5 40 7f
        E 529 b5 40 00
        E 113 b5 40 7f
        E 405 85 3f 45
        E 38 85 44 4f
        E 57 85 48 59
        E 343 95 4e 47
        E 6 b5 40 00
        E 2 95 44 3a
        E 2 95 49 41
        E 937 85 4e 54
        E 7 95 4d 3f
        E 503 b5 40 7f
        E 102 85 4d 55
        E 4 85 49 5f
        E 38 85 44 55
        E 314 b5 40 00
        E 1 95 4d 41
        E 0 95 48 44
        E 3 95 45 37
        E 1508 b5 40 7f
        E 131 85 48 4b
        E 12 85 4d 39
        E 23 85 45 59
        E 264 95 41 39
        E 4 95 4b 3d
        E 4 95 46 3b
        E 3 b5 40 00
        E 488 95 49 3f
        E 3 85 4b 58
        E 1017 b5 40 7f
        E 125 85 41 57
        E 13 85 49 53
        E 19 85 46 5b
        E 224 95 42 3d
        E 5 b5 40 00
        E 2 95 46 39
        E 3 95 49 42
        E 603 b5 40 7f
        E 812 85 49 57
        E 33 85 46 5b
        E 38 85 42 4b
        E 446 b5 40 00
        E 6 95 46 4f
        E 5 95 41 3a
        E 1939 85 46 63
        E 3 95 45 45
        E 7 95 48 46
        E 1524 b5 40 7f
        E 147 85 45 5f
        E 8 85 41 43
        E 28 85 48 51
        E 196 95 46 52
        E 1 95 41 43
        E 1 b5 40 00
        E 178 b5 40 7f
        E 364 85 41 36
        E 6 85 46 52
        E 897 b5 00 00
        E 0 b5 20 01
        E 0 c5 11 00
        E 0 b5 07 64
        E 468 95 2e 5b
        E 7 95 46 5b
        E 0 95 41 4d
        E 3 95 3d 5f
        E 19 b5 40 00
        E 849 85 41 55
        E 35 85 3d 6a
        E 49 85 46 61
        E 16 95 3c 59
        E 4 95 44 5f
        E 3 95 3f 5b
        E 0 95 2c 5f
        E 32 85 2e 62
        E 802 85 3c 54
        E 30 85 44 5f
        E 10 85 3f 73
        E 71 95 3a 69
        E 0 95 2a 62
        E 0 95 42 69
        E 7 95 3d 59
        E 13 85 2c 69
        E 793 85 3d 6d
        E 66 85 42 66
        E 0 85 3a 7a
        E 48 95 29 4a
        E 6 85 2a 59
        E 1 95 3c 59
        E 0 95 39 56
        E 3 95 41 4c
        E 730 85 3c 67
        E 2 85 39 62
        E 24 85 41 64
        E 181 95 3d 5d
        E 3 95 46 5f
        E 0 95 41 4c
        E 6 95 2e 59
        E 19 85 29 62
        E 775 85 41 4a
        E 105 85 3d 5b
        E 69 95 3f 5f
        E 0 95 3c 54
        E 0 95 44 5f
        E 8 95 2c 69
        E 5 85 46 6e
        E 14 85 2e 70
        E 822 85 3c 5c
        E 25 85 44 62
        E 3 85 3f 72
        E 82 95 2a 5b
        E 0 95 3a 5d
        E 4 95 42 62
        E 2 95 3d 54
        E 10 85 2c 5e
        E 859 85 42 49
        E 12 85 3d 6a
        E 7 85 3a 77
        E 52 85 2a 66
        E 13 95 29 4c
        E 4 95 3c 59
        E 2 95 39 4d
        E 3 95 41 4d
        E 822 85 39 57
        E 10 85 3c 66
        E 33 85 41 62
        E 98 95 3d 66
        E 6 95 46 69
        E 11 95 2e 62
        E 12 85 29 60
        E 452 95 41 46
        E 403 85 41 4a
        E 4 85 46 52
        E 28 85 3d 6f
        E 66 95 3c 4d
        E 1 95 44 62
        E 2 95 3f 4b
        E 6 85 2e 6b
        E 0 95 2c 5d
        E 793 85 3c 52
        E 19 85 44 60
        E 10 85 3f 69
        E 111 95 3a 5b
        E 3 95 42 5b
        E 4 85 2c 61
        E 0 95 2a 54
        E 0 95 3d 4a
        E 809 85 3d 7a
        E 39 85 3a 61
        E 25 85 42 53
        E 50 85 2a 48
        E 35 95 39 4e
        E 1 95 3c 56
        E 3 95 41 54
        E 0 95 29 4d
        E 759 85 29 6b
        E 160 85 39 5f
        E 5 85 41 61
        E 3 85 3c 64
        E 46 95 35 4b
        E 17 95 2e 59
        E 34 85 2e 77
        E 15 85 35 61
        E 178 95 3a 6d
        E 6 95 44 6f
        E 9 95 3d 5d
        E 91 85 3a 52
        E 2 85 3d 42
        E 88 95 3d 39
        E 63 85 44 73
        E 6 85 3d 55
        E 201 95 35 45
        E 9 95 2e 62
        E 37 85 35 6d
        E 5 85 2e 60
        E 225 95 3a 66
        E 0 95 44 66
        E 5 95 3d 5d
        E 316 85 3a 66
        E 5 85 44 6b
        E 32 85 3d 78
        E 102 95 35 44
        E 3 95 2e 5b
        E 39 85 35 6b
        E 3 85 2e 5c
        E 182 95 3a 5f
        E 6 95 44 66
        E 5 95 3d 5b
        E 344 85 3a 66
        E 0 85 44 6e
        E 40 85 3d 75
        E 51 95 2e 5b
        E 0 95 35 44
        E 85 85 2e 6a
        E 6 85 35 58
        E 142 95 3a 5d
        E 5 95 44 66
        E 6 95 3d 5f
        E 74 85 3a 6b
        E 23 85 44 6f
        E 14 85 3d 72
        E 122 95 2e 5b
        E 3 95 35 41
        E 94 85 2e 5e
        E 0 85 35 42
        E 93 95 3a 69
        E 0 95 3d 69
        E 6 95 44 62
        E 85 85 3a 6a
        E 11 85 44 57
        E 43 85 3d 59
        E 318 95 43 4e
        E 0 95 3a 6f
        E 9 95 3f 62
        E 11 95 37 56
        E 11 95 33 62
        E 80 85 37 6a
        E 0 85 33 77
        E 275 85 43 57
        E 32 85 3a 63
        E 42 85 3f 73
        E 54 95 35 4b
        E 9 95 2e 66
        E 51 85 35 66
        E 8 85 2e 71
        E 179 95 3a 5f
        E 0 95 44 66
        E 3 95 3d 5d
        E 420 85 3a 62
        E 6 85 44 6e
        E 31 85 3d 77
        E 54 95 35 47
        E 0 95 2e 66
        E 97 85 35 61
        E 0 85 2e 68
        E 150 95 3a 62
        E 6 95 3d 5d
        E 0 95 44 69
        E 358 85 3a 5a
        E 0 85 44 5a
        E 34 85 3d 76
        E 68 95 2e 62
        E 9 95 35 47
        E 88 85 2e 6f
        E 0 85 35 60
        E 133 95 3a 62
        E 3 95 3d 62
        E 0 95 44 6b
        E 409 85 3a 59
        E 0 85 44 5c
        E 40 85 3d 75
        E 59 95 35 46
        E 3 95 2e 5f
        E 120 85 35 54
        E 0 85 2e 5f
        E 113 95 3a 62
        E 6 95 44 66
        E 3 95 3d 5f
        E 79 85 3a 6a
        E 20 85 44 70
        E 6 85 3d 70
        E 136 95 2e 66
        E 6 95 35 44
        E 130 85 2e 5b
        E 6 85 35 46
        E 51 95 3a 69
        E 6 95 3d 66
        E 6 95 44 5f
        E 82 85 3a 68
        E 0 85 44 2f
        E 40 85 3d 61
        E 338 95 37 56
        E 5 95 3a 6f
        E 0 95 43 5b
        E 6 95 33 66
        E 6 95 3f 62
        E 119 85 33 71
        E 17 85 37 53
        E 241 85 3a 6a
        E 20 85 43 50
        E 17 85 3f 77
        E 88 95 3a 62
        E 6 95 35 47
        E 0 95 2e 54
        E 71 85 3a 6d
        E 11 85 2e 62
        E 15 85 35 60
        E 153 95 3d 6f
        E 0 95 41 59
        E 0 95 46 6d
        E 392 85 3d 57
        E 3 85 46 5c
        E 54 85 41 57
        E 5 95 3a 62
        E 3 95 2e 5b
        E 0 95 35 4b
        E 57 85 3a 76
        E 14 85 2e 6e
        E 9 85 35 5f
        E 162 95 41 59
        E 0 95 3d 6d
        E 5 95 46 66
        E 375 85 3d 58
        E 9 85 46 55
        E 71 85 41 52
        E 20 95 2e 5b
        E 0 95 3a 66
        E 8 95 35 4c
        E 51 85 3a 7a
        E 6 85 2e 78
        E 17 85 35 62
        E 159 95 41 5d
        E 3 95 3d 73
        E 5 95 46 6b
        E 381 85 3d 57
        E 14 85 46 53
        E 54 85 41 55
        E 6 95 3a 54
        E 0 95 2e 54
        E 11 95 35 44
        E 66 85 3a 6a
        E 11 85 2e 62
        E 6 85 35 49
        E 147 95 3d 69
        E 0 95 41 5b
        E 0 95 46 6b
        E 117 85 3d 58
        E 54 85 46 58
        E 28 85 41 55
        E 43 95 2e 59
        E 0 95 3a 52
        E 20 95 35 44
        E 73 85 3a 61
        E 12 85 2e 61
        E 22 85 35 50
        E 117 95 46 6d
        E 0 95 3d 6b
        E 0 95 41 5f
        E 119 85 3d 54
        E 29 85 46 69
        E 31 85 41 62
        E 28 95 2e 47
        E 6 95 35 43
        E 45 85 35 6f
        E 29 85 2e 73
        E 170 95 49 6d
        E 0 95 27 73
        E 0 95 43 59
        E 0 95 3f 6d
        E 9 95 33 5f
        E 59 85 33 76
        E 12 85 27 75
        E 304 85 49 68
        E 45 85 3f 61
        E 11 85 43 5e
        E 74 95 2e 62
        E 0 95 3a 6b
        E 9 95 35 4c
        E 62 85 3a 79
        E 6 85 2e 7a
        E 23 85 35 68
        E 150 95 41 5d
        E 0 95 3d 6d
        E 9 95 46 69
        E 397 85 3d 59
        E 6 85 46 58
        E 25 95 2e 5f
        E 0 95 3a 66
        E 9 95 35 4c
        E 17 85 41 58
        E 26 85 3a 79
        E 14 85 2e 7a
        E 20 85 35 5b
        E 204 95 41 5b
        E 0 95 3d 6d
        E 6 95 46 66
        E 400 85 3d 5a
        E 12 85 46 5f
        E 37 95 2e 5f
        E 0 95 3a 66
        E 5 85 41 5b
        E 0 95 35 4c
        E 51 85 3a 77
        E 9 85 35 5f
        E 8 85 2e 78
        E 185 95 41 5d
        E 0 95 3d 6b
        E 6 95 46 66
        E 420 85 3d 57
        E 17 85 46 58
        E 20 95 3a 62
        E 0 95 2e 5d
        E 8 95 35 46
        E 17 85 41 55
        E 52 85 3a 70
        E 19 85 35 60
        E 9 85 2e 62
        E 153 95 3d 69
        E 0 95 41 5f
        E 0 95 46 6b
        E 128 85 3d 51
        E 31 85 46 62
        E 29 85 41 5f
        E 54 95 3a 5d
        E 3 95 35 4a
        E 2 95 2e 59
        E 71 85 3a 6b
        E 26 85 2e 60
        E 17 85 35 5e
        E 99 95 46 6d
        E 9 95 3d 6b
        E 0 95 41 5d
        E 65 95 3a 42
        E 12 95 35 3d
        E 2 95 2e 3d
        E 40 85 3d 5c
        E 12 85 3a 6a
        E 2 85 46 76
        E 20 85 35 5e
        E 17 85 41 58
        E 0 85 2e 62
        E 279 95 49 6d
        E 2 95 27 73
        E 0 95 33 6d
        E 0 95 3f 6b
        E 15 95 43 46
        E 45 85 33 78
        E 17 85 27 7a
        E 71 85 43 4f
        E 40 85 49 64
        E 68 85 3f 52
        E 239 95 46 6d
        E 20 95 2e 6b
        E 24 95 3d 62
        E 10 95 41 45
        E 465 95 3a 66
        E 337 85 46 4a
        E 106 85 3a 68
        E 42 85 3d 71
        E 10 85 41 5c
        E 17 95 3f 59
        E 3 95 44 5b
        E 0 95 3c 4e
        E 2 95 38 5f
        E 0 95 2c 66
        E 11 85 2e 68
        E 781 85 44 4d
        E 28 85 3c 59
        E 23 85 3f 6d
        E 4 85 38 61
        E 72 95 42 62
        E 2 95 2a 5d
        E 0 95 36 5d
        E 0 95 3a 5f
        E 11 95 3d 4d
        E 6 85 2c 61
        E 801 85 36 5e
        E 17 85 3a 67
        E 4 85 3d 61
        E 19 85 42 48
        E 34 85 2a 49
        E 51 95 41 52
        E 0 95 39 4b
        E 0 95 29 5d
        E 0 95 3c 4f
        E 0 95 35 56
        E 713 85 3c 68
        E 7 85 41 64
        E 29 85 39 37
        E 191 95 3a 5d
        E 0 95 3d 5f
        E 0 95 46 5d
        E 0 95 41 49
        E 10 95 2e 62
        E 10 85 35 64
        E 7 85 29 61
        E 755 85 3d 6a
        E 0 85 46 36
        E 0 85 41 55
        E 95 85 3a 61
        E 78 95 3f 54
        E 1 95 3c 4d
        E 0 95 38 66
        E 5 95 44 5d
        E 0 95 2c 5d
        E 10 85 2e 69
        E 783 85 3c 5f
        E 6 85 44 3d
        E 6 85 3f 66
        E 83 85 38 62
        E 74 95 36 59
        E 0 95 3d 54
        E 0 95 42 4f
        E 4 95 3a 52
        E 7 95 2a 5b
        E 25 85 2c 6a
        E 799 85 3a 62
        E 7 85 3d 60
        E 13 85 36 75
        E 20 85 42 61
        E 92 85 2a 66
        E 12 95 39 47
        E 0 95 35 4d
        E 3 95 29 4b
        E 2 95 3c 4a
        E 2 95 41 4c
        E 739 85 39 67
        E 3 85 35 63
        E 10 85 3c 68
        E 15 85 41 66
        E 192 95 3d 5f
        E 0 95 41 4d
        E 1 95 2e 5f
        E 2 95 46 59
        E 21 85 29 61
        E 856 85 46 44
        E 19 85 41 5b
        E 5 85 2e 5c
        E 7 85 3d 6e
        E 75 95 3c 4d
        E 0 95 44 66
        E 8 95 3f 4a
        E 11 95 2c 5f
        E 4 95 38 4a
        E 788 85 3c 58
        E 17 85 44 5a
        E 12 85 3f 6b
        E 7 85 38 58
        E 2 85 2c 6b
        E 84 95 3a 52
        E 6 95 42 4f
        E 5 95 3d 4a
        E 1 95 36 4a
        E 1 95 2a 54
        E 794 85 3d 60
        E 33 85 2a 59
        E 7 85 42 4b
        E 19 85 3a 66
        E 22 85 36 60
        E 79 95 39 4b
        E 3 95 41 4e
        E 0 95 29 52
        E 0 95 3c 4a
        E 0 95 35 4c
        E 771 85 29 66
        E 110 85 35 59
        E 14 85 39 5f
        E 7 85 3c 66
        E 9 85 41 62
        E 43 95 35 4b
        E 3 95 2e 54
        E 65 85 2e 72
        E 6 85 35 69
        E 176 95 3a 5f
        E 0 95 44 62
        E 0 95 3d 5b
        E 250 85 3a 42
        E 22 85 44 6d
        E 20 85 3d 6f
        E 157 95 35 4c
        E 8 95 2e 59
        E 40 85 35 6a
        E 11 85 2e 61
        E 190 95 3a 5b
        E 6 95 44 66
        E 0 95 3d 59
        E 372 85 3a 61
        E 26 85 44 6e
        E 20 85 3d 77
        E 39 95 35 59
        E 0 95 2e 69
        E 94 85 35 6a
        E 0 85 2e 79
        E 162 95 3a 69
        E 3 95 44 6b
        E 5 95 3d 5d
        E 333 85 3a 54
        E 28 85 44 59
        E 31 85 3d 68
        E 77 95 35 56
        E 0 95 2e 62
        E 99 85 35 62
        E 0 85 2e 6d
        E 140 95 3a 69
        E 5 95 44 69
        E 3 95 3d 62
        E 117 85 3a 55
        E 31 85 44 64
        E 8 85 3d 63
        E 66 95 35 45
        E 5 95 2e 62
        E 114 85 35 52
        E 3 85 2e 52
        E 99 95 3a 6d
        E 6 95 3d 6b
        E 0 95 44 6b
        E 156 85 44 51
        E 46 85 3a 01
        E 5 95 2e 62
        E 0 95 35 4f
        E 57 85 3d 59
        E 11 85 35 5f
        E 12 85 2e 72
        E 181 95 3a 6f
        E 0 95 43 4f
        E 9 95 3f 62
        E 9 95 37 5b
        E 8 95 33 66
        E 82 85 37 61
        E 0 85 33 72
        E 307 85 43 49
        E 14 85 3a 62
        E 40 85 3f 75
        E 51 95 35 4a
        E 9 95 2e 6d
        E 57 85 35 64
        E 5 85 2e 77
        E 188 95 3a 69
        E 0 95 44 75
        E 5 95 3d 62
        E 350 85 3a 6a
        E 14 85 44 6e
        E 17 85 3d 78
        E 40 95 35 4c
        E 0 95 2e 5f
        E 59 85 35 61
        E 3 85 2e 77
        E 202 95 44 6d
        E 0 95 3a 66
        E 0 95 3d 66
        E 386 85 3a 64
        E 14 85 44 6b
        E 23 85 3d 76
        E 48 95 2e 62
        E 0 95 35 4f
        E 74 85 2e 79
        E 0 85 35 63
        E 165 95 3a 6b
        E 5 95 44 6b
        E 3 95 3d 5d
        E 384 85 3a 6b
        E 8 85 44 6e
        E 29 85 3d 78
        E 25 95 2e 5f
        E 6 95 35 4d
        E 74 85 35 5b
        E 14 85 2e 6f
        E 148 95 3a 6b
        E 2 95 44 6d
        E 6 95 3d 66
        E 74 85 3a 76
        E 17 85 3d 79
        E 6 85 44 71
        E 110 95 2e 69
        E 3 95 35 47
        E 77 85 35 46
        E 17 85 2e 67
        E 136 95 3a 6d
        E 6 95 3d 6d
        E 8 95 44 66
        E 94 85 3a 5a
        E 12 85 44 59
        E 0 85 3d 6d
        E 85 95 2e 6b
        E 3 95 35 49
        E 51 85 35 67
        E 22 85 2e 6a
        E 225 95 43 54
        E 3 95 3a 73
        E 5 95 3f 6b
        E 0 95 37 59
        E 12 95 2e 5d
        E 8 95 33 4f
        E 37 85 2e 5c
        E 9 85 33 61
        E 11 85 37 60
        E 270 85 3a 68
        E 28 85 43 5a
        E 17 85 3f 76
        E 114 95 3a 69
        E 11 95 2e 4f
        E 3 95 35 45
        E 45 85 3a 79
        E 6 85 35 64
        E 9 85 2e 66
        E 201 95 3d 6d
        E 0 95 41 5b
        E 0 95 46 6b
        E 429 85 3d 61
        E 3 85 46 5f
        E 9 95 3a 5f
        E 8 95 2e 54
        E 3 95 35 46
        E 23 85 41 5e
        E 39 85 3a 72
        E 6 85 35 50
        E 14 85 2e 62
        E 191 95 41 5d
        E 0 95 3d 6b
        E 11 95 46 66
        E 409 85 3d 5e
        E 17 85 46 52
        E 23 95 2e 59
        E 5 95 3a 5f
        E 0 95 35 4b
        E 6 85 41 5b
        E 54 85 3a 72
        E 20 85 2e 75
        E 8 85 35 69
        E 142 95 41 5d
        E 0 95 3d 6d
        E 9 95 46 66
        E 400 85 3d 60
        E 3 85 46 55
        E 57 85 41 57
        E 0 95 3a 5b
        E 0 95 2e 52
        E 6 95 35 46
        E 71 85 3a 6a
        E 17 85 35 58
        E 0 85 2e 5e
        E 142 95 3d 66
        E 2 95 41 5d
        E 6 95 46 66
        E 145 85 3d 46
        E 37 85 46 57
        E 34 85 41 58
        E 17 95 3a 5b
        E 6 95 2e 52
        E 8 95 35 43
        E 71 85 3a 66
        E 6 85 2e 5f
        E 11 85 35 4b
        E 128 95 41 5f
        E 0 95 3d 6d
        E 0 95 46 6b
        E 125 85 3d 53
        E 57 85 41 62
        E 3 85 46 6e
        E 39 95 35 46
        E 9 95 2e 4f
        E 43 85 35 6b
        E 36 85 2e 70
        E 157 95 49 69
        E 5 95 43 5d
        E 0 95 3f 6d
        E 6 95 27 73
        E 3 95 33 6d
        E 79 85 27 79
        E 0 85 33 77
        E 256 85 49 68
        E 54 85 3f 59
        E 3 85 43 57
        E 128 95 3a 66
        E 0 95 2e 54
        E 8 95 35 49
        E 65 85 3a 71
        E 20 85 2e 66
        E 12 85 35 67
        E 122 95 41 5d
        E 0 95 3d 6d
        E 5 95 46 6b
        E 412 85 3d 57
        E 0 85 46 53
        E 20 95 3a 5d
        E 6 95 35 4c
        E 6 95 2e 4f
        E 19 85 41 5b
        E 32 85 3a 72
        E 14 85 2e 62
        E 14 85 35 68
        E 176 95 41 5f
        E 0 95 3d 6d
        E 6 95 46 6b
        E 434 85 3d 58
        E 3 85 46 55
        E 37 95 2e 59
        E 0 95 3a 59
        E 0 95 35 49
        E 20 85 41 59
        E 45 85 3a 71
        E 17 85 2e 67
        E 12 85 35 6b
        E 142 95 41 62
        E 3 95 3d 6b
        E 2 95 46 6d
        E 432 85 3d 55
        E 0 85 46 55
        E 29 95 2e 59
        E 0 95 3a 4f
        E 11 95 35 43
        E 23 85 41 55
        E 59 85 3a 60
        E 9 85 35 4a
        E 14 85 2e 5e
        E 128 95 41 59
        E 3 95 3d 66
        E 0 95 46 6b
        E 156 85 3d 4b
        E 14 85 46 5c
        E 43 85 41 5c
        E 5 95 3a 59
        E 9 95 2e 59
        E 0 95 35 44
        E 85 85 3a 5f
        E 17 85 2e 5a
        E 3 85 35 5b
        E 111 95 46 6b
        E 3 95 41 62
        E 5 95 3d 6d
        E 111 85 3d 61
        E 28 85 46 78
        E 26 85 41 63
        E 43 95 2e 4f
        E 14 95 35 35
        E 42 85 35 5c
        E 29 85 2e 6e
        E 181 95 27 69
        E 0 95 43 5f
        E 6 95 33 6b
        E 0 95 49 73
        E 0 95 3f 6b
        E 57 85 27 79
        E 11 85 33 78
        E 239 85 49 58
        E 0 85 43 64
        E 57 85 3f 62
        E 130 95 37 5d
        E 12 95 30 54
        E 76 85 37 69
        E 0 85 30 70
        E 176 95 48 59
        E 6 95 43 5b
        E 0 95 3f 6b
        E 466 85 48 5a
        E 11 85 3f 60
        E 12 95 30 56
        E 2 95 37 52
        E 15 85 43 5b
        E 48 85 37 64
        E 11 85 30 70
        E 188 95 48 5b
        E 3 95 3f 6d
        E 0 95 43 5d
        E 423 85 48 57
        E 20 85 3f 59
        E 11 95 30 56
        E 3 95 37 56
        E 17 85 43 53
        E 59 85 37 6b
        E 9 85 30 6a
        E 170 95 3f 6b
        E 3 95 48 5d
        E 0 95 43 5d
        E 440 85 48 58
        E 3 85 3f 59
        E 17 95 30 52
        E 0 95 37 54
        E 32 85 43 58
        E 73 85 37 62
        E 26 85 30 5e
        E 111 95 3f 6d
        E 0 95 48 5f
        E 0 95 43 5d
        E 181 85 3f 2d
        E 18 85 48 54
        E 5 85 43 61
        E 48 95 37 4e
        E 18 95 30 47
        E 102 85 30 4d
        E 11 85 37 4d
        E 54 95 43 62
        E 0 95 48 64
        E 0 95 3f 75
        E 117 85 3f 4d
        E 28 85 48 6b
        E 20 85 43 64
        E 338 95 3f 73
        E 0 95 4b 6f
        E 0 95 35 62
        E 0 95 29 66
        E 0 95 45 5f
        E 88 85 35 6b
        E 3 85 29 6a
        E 173 85 4b 62
        E 60 85 45 5e
        E 19 85 3f 57
        E 188 95 37 5b
        E 14 95 30 5b
        E 74 85 37 68
        E 6 85 30 6e
        E 161 95 48 5f
        E 6 95 43 62
        E 0 95 3f 73
        E 381 85 48 53
        E 20 85 3f 55
        E 25 95 30 56
        E 0 95 37 54
        E 6 85 43 58
        E 71 85 37 69
        E 11 85 30 69
        E 154 95 48 5d
        E 5 95 43 64
        E 0 95 3f 6f
        E 415 85 48 4f
        E 6 85 3f 5c
        E 48 85 43 59
        E 14 95 30 56
        E 3 95 37 4e
        E 65 85 37 61
        E 17 85 30 6b
        E 151 95 48 56
        E 5 95 43 64
        E 0 95 3f 73
        E 429 85 48 58
        E 6 85 3f 5c
        E 37 95 37 56
        E 3 85 43 61
        E 0 95 30 54
        E 96 85 37 62
        E 29 85 30 5b
        E 96 95 48 5d
        E 3 95 43 5f
        E 0 95 3f 6f
        E 187 85 3f 52
        E 18 85 48 55
        E 22 85 43 61
        E 6 95 37 52
        E 0 95 30 4e
        E 88 85 37 61
        E 23 85 30 59
        E 110 95 48 59
        E 3 95 43 5f
        E 0 95 3f 6f
        E 162 85 48 6d
        E 12 85 3f 51
        E 19 85 43 67
        E 20 95 30 52
        E 0 95 37 45
        E 57 85 37 62
        E 14 85 30 62
        E 199 95 35 54
        E 0 95 29 64
        E 0 95 3f 6f
        E 0 95 4b 75
        E 0 95 45 62
        E 60 85 35 68
        E 11 85 29 6b
        E 241 85 4b 6d
        E 54 85 45 57
        E 32 85 3f 57
        E 136 95 37 5b
        E 11 95 30 59
        E 69 85 37 6f
        E 2 85 30 69
        E 157 95 48 5d
        E 2 95 3f 6d
        E 0 95 43 5f
        E 364 85 48 51
        E 11 85 3f 5c
        E 49 85 43 5c
        E 22 95 37 5b
        E 0 95 30 59
        E 68 85 37 68
        E 12 85 30 6d
        E 159 95 48 5f
        E 0 95 43 62
        E 8 95 3f 73
        E 412 85 48 46
        E 3 85 3f 5e
        E 62 85 43 55
        E 12 95 37 5b
        E 0 95 30 59
        E 74 85 37 6f
        E 20 85 30 6e
        E 130 95 48 56
        E 0 95 43 5f
        E 0 95 3f 6f
        E 406 85 3f 5f
        E 17 85 48 48
        E 37 95 30 56
        E 3 95 37 59
        E 6 85 43 58
        E 79 85 37 6b
        E 32 85 30 66
        E 119 95 48 59
        E 0 95 43 59
        E 0 95 3f 6f
        E 167 85 3f 27
        E 26 85 48 57
        E 20 85 43 64
        E 40 95 37 5b
        E 5 95 30 56
        E 103 85 37 60
        E 22 85 30 5a
        E 77 95 48 5f
        E 3 95 3f 75
        E 3 95 43 62
        E 167 85 3f 52
        E 6 85 48 68
        E 34 85 43 63
        E 8 95 30 59
        E 0 95 37 59
        E 77 85 37 6e
        E 3 85 30 6d
        E 193 95 3f 6f
        E 0 95 45 5f
        E 6 95 4b 73
        E 3 95 35 59
        E 5 95 29 69
        E 74 85 35 6e
        E 0 85 29 6e
        E 259 85 4b 6b
        E 56 85 45 53
        E 32 85 3f 54
        E 68 95 37 5d
        E 8 95 30 5f
        E 83 85 37 6d
        E 0 85 30 6d
        E 144 95 48 5d
        E 6 95 43 5f
        E 0 95 3f 6f
        E 418 85 48 59
        E 14 85 3f 5f
        E 23 95 37 5d
        E 0 95 30 59
        E 17 85 43 60
        E 62 85 37 6b
        E 9 85 30 68
        E 164 95 48 5f
        E 0 95 43 62
        E 0 95 3f 73
        E 469 85 3f 5f
        E 11 85 48 4d
        E 26 95 37 59
        E 6 95 30 59
        E 17 85 43 54
        E 59 85 37 6a
        E 17 85 30 62
        E 154 95 48 5d
        E 0 95 43 62
        E 0 95 3f 73
        E 400 85 48 59
        E 0 85 3f 5c
        E 51 85 43 5f
        E 0 95 30 4f
        E 0 95 37 54
        E 105 85 37 61
        E 49 85 30 57
        E 79 95 43 64
        E 0 95 48 62
        E 0 95 3f 73
        E 170 85 3f 01
        E 23 85 48 50
        E 23 85 43 60
        E 250 95 37 5d
        E 0 95 48 59
        E 0 95 30 59
        E 0 95 3f 75
        E 0 95 43 62
        E 105 85 37 69
        E 23 85 30 5e
        E 11 85 3f 53
        E 0 85 48 67
        E 43 85 43 64
        E 309 95 3f 77
        E 0 95 4b 73
        E 0 95 45 64
        E 11 95 35 5f
        E 0 95 29 5b
        E 94 85 35 68
        E 12 85 29 61
        E 147 85 4b 5f
        E 0 85 3f 64
        E 34 85 45 62
        E 188 95 48 66
        E 0 95 30 5b
        E 0 95 37 5d
        E 518 95 3f 6d
        E 3 95 43 54
        E 0 95 3c 5d
        E 288 85 30 6e
        E 46 85 48 64
        E 78 85 37 5e
        E 39 85 43 5f
        E 3 85 3c 5e
        E 10 85 3f 61
        E 11 95 2e 6d
        E 2 95 35 5b
        E 0 95 46 6d
        E 463 95 41 49
        E 0 95 3a 6b
        E 5 95 3e 4d
        E 337 85 2e 6a
        E 99 85 46 5f
        E 43 85 3e 4f
        E 4 85 35 5c
        E 9 85 41 57
        E 12 85 3a 77
        E 1 95 2c 69
        E 0 95 44 6f
        E 4 95 33 66
        E 460 95 3f 59
        E 7 95 38 6b
        E 3 95 3c 59
        E 390 85 2c 57
        E 17 85 3f 55
        E 3 85 44 57
        E 5 85 38 79
        E 0 85 3c 55
        E 7 85 33 6f
        E 31 95 43 4e
        E 12 95 32 54
        E 0 95 2b 5b
        E 252 95 37 59
        E 118 95 3e 4f
        E 0 95 3b 5f
        E 16 85 37 62
        E 194 95 37 56
        E 2 85 3b 62
        E 10 85 3e 61
        E 109 95 3b 69
        E 2 95 3e 56
        E 27 85 37 69
        E 12 85 2b 67
        E 21 85 32 68
        E 91 85 3b 66
        E 10 85 3e 62
        E 19 85 43 69
        E 90 95 48 6f
        E 2 95 37 5f
        E 4 95 30 5b
        E 470 95 43 56
        E 0 95 3f 6d
        E 2 95 3c 5f
        E 381 85 48 60
        E 0 85 30 63
        E 46 85 43 5a
        E 3 85 3f 60
        E 8 85 37 62
        E 28 85 3c 50
        E 23 95 46 73
        E 8 95 35 56
        E 0 95 2e 66
        E 467 95 3a 6b
        E 3 95 41 4a
        E 1 95 3e 4d
        E 313 85 2e 6d
        E 56 85 46 50
        E 46 85 41 49
        E 19 85 3e 50
        E 7 85 35 5c
        E 29 85 3a 62
        E 13 95 2c 69
        E 0 95 44 6f
        E 0 95 33 66
        E 460 95 3f 59
        E 2 95 38 6d
        E 4 95 3c 54
        E 376 85 3f 50
        E 23 85 2c 57
        E 3 85 3c 4a
        E 7 85 44 35
        E 6 85 38 76
        E 13 85 33 75
        E 50 95 32 5b
        E 2 95 2b 62
        E 4 95 43 5b
        E 245 95 37 52
        E 99 95 3b 5f
        E 0 95 3e 52
        E 25 85 37 68
        E 197 95 37 4c
        E 4 85 3b 62
        E 6 85 3e 5b
        E 122 85 2b 61
        E 0 95 3b 64
        E 0 95 3e 4f
        E 18 85 32 64
        E 23 85 37 64
        E 105 85 3b 68
        E 14 85 3e 63
        E 16 85 43 68
        E 96 95 37 56
        E 2 95 48 6d
        E 3 95 30 5b
        E 475 95 3f 66
        E 1 95 43 4b
        E 5 95 3c 59
        E 338 85 30 62
        E 22 85 48 5a
        E 11 85 43 5b
        E 19 85 37 57
        E 4 85 3f 5e
        E 35 85 3c 4d
        E 30 95 46 6b
        E 10 95 35 4f
        E 2 95 2e 69
        E 449 95 3a 69
        E 4 95 41 4a
        E 2 95 3e 4d
        E 299 85 2e 72
        E 59 85 46 3e
        E 66 85 41 32
        E 26 85 3e 42
        E 21 85 35 5c
        E 24 85 3a 6e
        E 6 95 44 6d
        E 1 95 33 5f
        E 0 95 2c 69
        E 451 95 3f 52
        E 3 95 38 66
        E 3 95 3c 4c
        E 396 85 2c 58
        E 11 85 33 77
        E 15 85 3f 55
        E 7 85 44 55
        E 0 85 38 78
        E 3 85 3c 58
        E 46 95 43 52
        E 1 95 32 5d
        E 3 95 2b 69
        E 245 95 37 59
        E 109 95 3e 56
        E 2 95 3b 62
        E 21 85 37 67
        E 203 95 37 52
        E 9 85 3e 60
        E 6 85 3b 55
        E 109 95 3b 5f
        E 5 95 3e 4f
        E 17 85 2b 61
        E 13 85 32 69
        E 96 85 37 61
        E 18 85 3b 6b
        E 8 85 3e 67
        E 19 85 43 68
        E 95 95 48 69
        E 1 95 37 59
        E 6 95 30 5b
        E 484 95 3f 6d
        E 3 95 43 54
        E 0 95 3c 5d
        E 288 85 30 69
        E 62 85 48 4d
        E 70 85 37 5b
        E 9 85 43 4f
        E 23 85 3f 4f
        E 14 85 3c 61
        E 11 95 2e 69
        E 2 95 46 6d
        E 2 95 35 59
        E 443 95 3a 62
        E 0 95 41 49
        E 5 95 3e 4c
        E 299 85 2e 6f
        E 52 85 46 57
        E 91 85 41 40
        E 17 85 3e 44
        E 0 85 35 5f
        E 32 85 3a 6d
        E 4 95 2c 6b
        E 2 95 44 6b
        E 0 95 33 66
        E 476 95 3f 5f
        E 4 95 38 6b
        E 5 95 3c 54
        E 322 85 2c 4f
        E 54 85 33 6f
        E 15 85 44 50
        E 0 85 3f 53
        E 12 85 3c 57
        E 0 85 38 73
        E 52 95 2b 66
        E 0 95 32 5f
        E 3 95 43 4f
        E 245 95 37 56
        E 102 95 3e 4f
        E 0 95 3b 5d
        E 17 85 37 62
        E 206 95 37 4f
        E 10 85 3e 60
        E 9 85 3b 54
        E 108 95 3b 5d
        E 0 95 3e 52
        E 21 85 37 66
        E 221 85 3e 69
        E 0 85 3b 6b
        E 0 85 32 69
        E 0 85 2b 6a
        E 7 85 43 67
        E 43 95 37 56
        E 2 95 48 6d
        E 3 95 30 5b
        E 475 95 3f 66
        E 1 95 43 4b
        E 5 95 3c 59
        E 338 85 30 62
        E 22 85 48 5a
        E 11 85 43 5b
        E 19 85 37 57
        E 4 85 3f 5e
        E 35 85 3c 4d
        E 30 95 46 6b
        E 10 95 35 4f
        E 2 95 2e 69
        E 449 95 3a 69
        E 4 95 41 4a
        E 2 95 3e 4d
        E 299 85 2e 72
        E 59 85 46 3e
        E 66 85 41 32
        E 26 85 3e 42
        E 21 85 35 5c
        E 24 85 3a 6e
        E 6 95 44 6d
        E 1 95 33 5f
        E 0 95 2c 69
        E 451 95 3f 52
        E 3 95 38 66
        E 3 95 3c 4c
        E 396 85 2c 58
        E 11 85 33 77
        E 15 85 3f 55
        E 7 85 44 55
        E 0 85 38 78
        E 3 85 3c 58
        E 46 95 43 52
        E 1 95 32 5d
        E 3 95 2b 69
        E 245 95 37 59
        E 109 95 3e 56
        E 2 95 3b 62
        E 21 85 37 67
        E 203 95 37 52
        E 9 85 3e 60
        E 6 85 3b 55
        E 109 95 3b 5f
        E 5 95 3e 4f
        E 17 85 2b 61
        E 13 85 32 69
        E 96 85 37 61
        E 18 85 3b 6b
        E 8 85 3e 67
        E 19 85 43 68
        E 95 95 48 69
        E 1 95 37 59
        E 6 95 30 5b
        E 484 95 3f 6d
        E 3 95 43 54
        E 0 95 3c 5d
        E 288 85 30 69
        E 62 85 48 4d
        E 70 85 37 5b
        E 9 85 43 4f
        E 23 85 3f 4f
        E 14 85 3c 61
        E 11 95 2e 69
        E 2 95 46 6d
        E 2 95 35 59
        E 443 95 3a 62
        E 0 95 41 49
        E 5 95 3e 4c
        E 299 85 2e 6f
        E 52 85 46 57
        E 91 85 41 40
        E 17 85 3e 44
        E 0 85 35 5f
        E 32 85 3a 6d
        E 4 95 2c 6b
        E 2 95 44 6b
        E 0 95 33 66
        E 476 95 3f 5f
        E 4 95 38 6b
        E 5 95 3c 54
        E 322 85 2c 4f
        E 54 85 33 6f
        E 15 85 44 50
        E 0 85 3f 53
        E 12 85 3c 57
        E 0 85 38 73
        E 52 95 2b 66
        E 0 95 32 5f
        E 3 95 43 4f
        E 245 95 37 56
        E 102 95 3e 4f
        E 0 95 3b 5d
        E 17 85 37 62
        E 206 95 37 4f
        E 10 85 3e 60
        E 9 85 3b 54
        E 108 95 3b 5d
        E 0 95 3e 52
        E 21 85 37 66
        E 221 85 3e 69
        E 0 85 3b 6b
        E 0 85 32 69
        E 0 85 2b 6a
        E 7 85 43 67
        E 43 95 37 56
        E 2 95 48 6d
        E 3 95 30 5b
        E 475 95 3f 66
        E 1 95 43 4b
        E 5 95 3c 59
        E 338 85 30 62
        E 22 85 48 5a
        E 11 85 43 5b
        E 19 85 37 57
        E 4 85 3f 5e
        E 35 85 3c 4d
        E 30 95 46 6b
        E 10 95 35 4f
        E 2 95 2e 69
        E 449 95 3a 69
        E 4 95 41 4a
        E 2 95 3e 4d
        E 299 85 2e 72
        E 59 85 46 3e
        E 66 85 41 32
        E 26 85 3e 42
        E 21 85 35 5c
        E 24 85 3a 6e
        E 6 95 44 6d
        E 1 95 33 5f
        E 0 95 2c 69
        E 451 95 3f 52
        E 3 95 38 66
        E 3 95 3c 4c
        E 396 85 2c 58
        E 11 85 33 77
        E 15 85 3f 55
        E 7 85 44 55
        E 0 85 38 78
        E 3 85 3c 58
        E 46 95 43 52
        E 1 95 32 5d
        E 3 95 2b 69
        E 245 95 37 59
        E 109 95 3e 56
        E 2 95 3b 62
        E 21 85 37 67
        E 203 95 37 52
        E 9 85 3e 60
        E 6 85 3b 55
        E 109 95 3b 5f
        E 5 95 3e 4f
        E 17 85 2b 61
        E 13 85 32 69
        E 96 85 37 61
        E 18 85 3b 6b
        E 8 85 3e 67
        E 19 85 43 68
        E 95 95 48 69
        E 1 95 37 59
        E 6 95 30 5b
        E 484 95 3f 6d
        E 3 95 43 54
        E 0 95 3c 5d
        E 288 85 30 69
        E 62 85 48 4d
        E 70 85 37 5b
        E 9 85 43 4f
        E 23 85 3f 4f
        E 14 85 3c 61
        E 11 95 2e 69
        E 2 95 46 6d
        E 2 95 35 59
        E 443 95 3a 62
        E 0 95 41 49
        E 5 95 3e 4c
        E 299 85 2e 6f
        E 52 85 46 57
        E 91 85 41 40
        E 17 85 3e 44
        E 0 85 35 5f
        E 32 85 3a 6d
        E 4 95 2c 6b
        E 2 95 44 6b
        E 0 95 33 66
        E 476 95 3f 5f
        E 4 95 38 6b
        E 5 95 3c 54
        E 322 85 2c 4f
        E 54 85 33 6f
        E 15 85 44 50
        E 0 85 3f 53
        E 12 85 3c 57
        E 0 85 38 73
        E 52 95 2b 66
        E 0 95 32 5f
        E 3 95 43 4f
        E 245 95 37 56
        E 102 95 3e 4f
        E 0 95 3b 5d
        E 17 85 37 62
        E 206 95 37 4f
        E 10 85 3e 60
        E 9 85 3b 54
        E 108 95 3b 5d
        E 0 95 3e 52
        E 21 85 37 66
        E 221 85 3e 69
        E 0 85 3b 6b
        E 0 85 32 69
        E 0 85 2b 6a
        E 0 95 30 5f
        E 0 95 37 64
        E 0 95 48 64
        E 7 85 43 67
        E 244 95 3c 56
        E 99 95 3f 66
        E 3 95 43 52
        E 4 85 3c 67
        E 235 85 3f 4c
        E 1 95 3c 4e
        E 8 85 43 60
        E 103 95 43 4c
        E 3 95 3f 66
        E 6 85 3c 60
        E 72 85 30 6f
        E 3 85 48 02
        E 27 95 3c 4c
        E 7 85 43 64
        E 23 85 3f 63
        E 51 85 37 5f
        E 11 85 3c 55
        E 38 95 46 5d
        E 11 95 2e 66
        E 3 95 35 5b
        E 274 95 3a 5f
        E 121 95 41 47
        E 4 95 3e 45
        E 1 85 3a 75
        E 229 95 3a 5b
        E 3 85 3e 59
        E 6 85 41 58
        E 99 95 3e 43
        E 0 95 41 42
        E 5 85 3a 6f
        E 72 85 2e 6a
        E 21 85 46 3b
        E 16 95 3a 59
        E 35 85 41 45
        E 34 85 3e 48
        E 51 85 3a 77
        E 4 85 35 50
        E 0 95 2c 6b
        E 6 95 44 6d
        E 0 95 33 66
        E 262 95 38 66
        E 108 95 3f 5b
        E 1 95 3c 4b
        E 5 85 38 70
        E 217 85 3c 61
        E 0 95 38 5d
        E 12 85 3f 68
        E 102 95 3f 59
        E 4 95 3c 4a
        E 9 85 38 6d
        E 98 85 44 2d
        E 7 95 38 4e
        E 39 85 3f 54
        E 27 85 3c 58
        E 12 85 2c 5f
        E 1 85 38 7c
        E 12 85 33 67
        E 33 95 43 52
        E 7 95 32 54
        E 0 95 2b 5f
        E 242 95 37 59
        E 105 85 37 66
        E 0 95 3b 54
        E 0 95 3e 47
        E 242 95 37 52
        E 4 85 3b 5e
        E 3 85 3e 60
        E 95 95 3e 4d
        E 3 95 3b 62
        E 7 85 37 60
        E 110 95 37 54
        E 73 85 3b 52
        E 6 85 3e 60
        E 6 85 37 61
        E 10 85 43 63
        E 7 85 2b 63
        E 1 85 32 6a
        E 69 95 30 5d
        E 0 95 3c 5d
        E 0 95 48 5d
        E 212 95 3c 56
        E 28 85 3c 40
        E 71 95 3f 66
        E 3 95 43 52
        E 4 85 3c 67
        E 235 85 3f 4c
        E 1 95 3c 4e
        E 8 85 43 60
        E 103 95 43 4c
        E 3 95 3f 66
        E 6 85 3c 60
        E 46 85 48 40
        E 56 95 3c 4c
        E 7 85 43 64
        E 23 85 3f 63
        E 62 85 3c 55
        E 38 95 46 5d
        E 11 95 2e 66
        E 3 95 35 5b
        E 40 85 30 40
        E 234 95 3a 5f
        E 121 95 41 47
        E 4 95 3e 45
        E 1 85 3a 75
        E 229 95 3a 5b
        E 3 85 3e 59
        E 6 85 41 58
        E 99 95 3e 43
        E 0 95 41 42
        E 5 85 3a 6f
        E 72 85 2e 6a
        E 21 85 46 3b
        E 16 95 3a 59
        E 35 85 41 45
        E 34 85 3e 48
        E 51 85 3a 77
        E 4 85 35 50
        E 0 95 2c 6b
        E 6 95 44 6d
        E 0 95 33 66
        E 262 95 38 66
        E 108 95 3f 5b
        E 1 95 3c 4b
        E 5 85 38 70
        E 217 85 3c 61
        E 0 95 38 5d
        E 12 85 3f 68
        E 102 95 3f 59
        E 4 95 3c 4a
        E 9 85 38 6d
        E 98 85 44 2d
        E 7 95 38 4e
        E 39 85 3f 54
        E 27 85 3c 58
        E 12 85 2c 5f
        E 1 85 38 7c
        E 12 85 33 67
        E 33 95 43 52
        E 7 95 32 54
        E 0 95 2b 5f
        E 242 95 37 59
        E 105 85 37 66
        E 0 95 3b 54
        E 0 95 3e 47
        E 242 95 37 52
        E 4 85 3b 5e
        E 3 85 3e 60
        E 95 95 3e 4d
        E 3 95 3b 62
        E 7 85 37 60
        E 110 95 37 54
        E 73 85 3b 52
        E 6 85 3e 60
        E 6 85 37 61
        E 10 85 43 63
        E 7 85 2b 63
        E 1 85 32 6a
        E 25 95 3f 69
        E 0 95 37 5f
        E 0 95 30 59
        E 5 95 3c 4e
        E 357 85 37 4f
        E 2 85 3c 51
        E 15 85 3f 5f
        E 113 95 37 52
        E 6 95 3e 4d
        E 309 85 37 27
        E 66 85 3e 32
        E 116 95 3c 5f
        E 9 95 37 56
        E 210 85 37 4d
        E 42 85 3c 58
        E 208 95 2e 62
        E 0 95 35 5b
        E 0 95 3f 6b
        E 8 95 3a 62
        E 6 85 30 60
        E 301 85 3a 52
        E 9 85 35 52
        E 19 85 3f 55
        E 154 95 35 59
        E 0 95 3a 5f
        E 0 95 3c 52
        E 196 85 35 53
        E 54 85 3c 61
        E 11 85 3a 4f
        E 219 95 38 69
        E 0 95 3c 54
        E 11 95 2c 62
        E 0 95 3f 5b
        E 9 85 2e 6d
        E 261 85 3f 48
        E 65 85 38 51
        E 125 85 3c 4b
        E 29 95 38 59
        E 11 95 3e 49
        E 238 85 38 4d
        E 131 85 3e 15
        E 88 95 3c 52
        E 3 95 38 69
        E 224 85 3c 61
        E 66 85 38 5e
        E 145 95 3b 5f
        E 5 85 2c 75
        E 3 95 37 56
        E 3 95 3e 59
        E 8 95 2b 52
        E 262 85 3e 40
        E 14 85 3b 4d
        E 37 85 37 4f
        E 45 85 2b 5b
        E 114 95 3e 56
        E 6 95 37 5b
        E 0 95 3b 62
        E 0 95 2b 5f
        E 193 85 3e 5f
        E 0 85 3b 5b
        E 48 85 37 01
        E 207 85 2b 61
        E 12 95 3c 4f
        E 5 95 3f 66
        E 0 95 37 52
        E 17 95 30 54
        E 287 85 37 4f
        E 46 85 3f 58
        E 19 85 3c 48
        E 103 95 37 5d
        E 5 95 3e 4e
        E 276 85 37 4f
        E 167 85 3e 1e
        E 23 95 37 52
        E 6 95 3c 5b
        E 261 85 37 4b
        E 40 85 3c 5a
        E 162 95 35 52
        E 0 95 3f 69
        E 8 95 3a 5f
        E 23 95 2e 5f
        E 11 85 30 63
        E 245 85 3a 53
        E 17 85 35 50
        E 17 85 3f 5a
        E 201 95 35 4e
        E 6 95 3a 5f
        E 0 95 3c 54
        E 145 85 35 4a
        E 62 85 3a 1e
        E 49 85 3c 60
        E 235 95 38 66
        E 0 95 3c 54
        E 6 95 2c 66
        E 6 95 3f 5d
        E 8 85 2e 60
        E 253 85 38 49
        E 17 85 3f 57
        E 77 85 3c 48
        E 130 95 38 69
        E 6 95 3e 4e
        E 213 85 38 08
        E 119 85 3e 14
        E 131 95 3c 59
        E 3 95 38 6b
        E 233 85 3c 62
        E 37 85 38 58
        E 31 85 2c 57
        E 133 95 3b 5f
        E 6 95 3e 5b
        E 3 95 37 52
        E 5 95 2b 4e
        E 239 85 3e 3d
        E 65 85 3b 48
        E 6 85 37 46
        E 193 95 3e 4e
        E 6 95 3b 5f
        E 0 95 37 52
        E 190 85 3e 5f
        E 9 85 37 01
        E 0 85 3b 5e
        E 241 85 2b 67
        E 17 95 37 59
        E 0 95 3c 4e
        E 6 95 3f 62
        E 8 95 30 4d
        E 284 85 37 4c
        E 34 85 3f 57
        E 23 85 3c 46
        E 136 95 37 56
        E 3 95 3e 4d
        E 222 85 37 3c
        E 139 85 3e 20
        E 111 95 3c 59
        E 0 95 37 4d
        E 224 85 37 50
        E 43 85 3c 59
        E 218 95 35 52
        E 0 95 3f 62
        E 0 95 3a 62
        E 12 95 2e 5d
        E 34 85 30 68
        E 258 85 3a 3a
        E 9 85 35 41
        E 22 85 3f 52
        E 179 95 3c 4f
        E 0 95 35 4f
        E 6 95 3a 5d
        E 153 85 35 4c
        E 71 85 3a 53
        E 9 85 3c 64
        E 224 95 3c 4d
        E 3 85 2e 5a
        E 3 95 38 5f
        E 6 95 3f 5b
        E 2 95 2c 62
        E 290 85 3f 58
        E 14 85 38 4f
        E 137 85 3c 4a
        E 14 95 38 5b
        E 11 95 3e 49
        E 168 85 38 44
        E 99 85 3e 28
        E 171 95 3c 5b
        E 5 95 38 6b
        E 233 85 3c 59
        E 31 85 38 55
        E 171 85 2c 6f
        E 11 95 3b 64
        E 9 95 3e 59
        E 0 95 37 54
        E 14 95 2b 4a
        E 219 85 3e 42
        E 42 85 3b 54
        E 3 85 37 3d
        E 91 85 2b 5a
        E 105 95 3b 5d
        E 0 95 3e 4f
        E 6 95 37 52
        E 8 95 2b 56
        E 176 85 3e 5c
        E 26 85 3b 5b
        E 62 85 37 01
        E 165 85 2b 61
        E 40 95 3c 54
        E 5 95 37 54
        E 6 95 3f 66
        E 11 95 30 4e
        E 290 85 37 4f
        E 23 85 3f 54
        E 102 85 3c 23
        E 46 95 37 54
        E 8 95 3e 4d
        E 230 85 37 49
        E 142 85 3e 20
        E 88 95 3c 59
        E 0 95 37 52
        E 233 85 37 3c
        E 85 85 3c 54
        E 191 95 35 56
        E 5 95 3f 69
        E 3 95 3a 62
        E 23 95 2e 5b
        E 14 85 30 64
        E 224 85 35 4f
        E 26 85 3a 4d
        E 17 85 3f 4a
        E 187 95 35 4e
        E 0 95 3c 4f
        E 0 95 3a 5f
        E 162 85 35 51
        E 37 85 3a 5a
        E 23 85 3c 61
        E 219 85 2e 68
        E 31 95 3c 4d
        E 3 95 38 66
        E 8 95 3f 5f
        E 14 95 2c 5f
        E 253 85 3f 57
        E 20 85 38 51
        E 85 85 3c 40
        E 108 95 38 5f
        E 0 95 3e 4a
        E 165 85 38 4c
        E 108 85 3e 2c
        E 199 95 3c 4e
        E 0 95 38 66
        E 193 85 3c 61
        E 93 85 38 5c
        E 134 85 2c 62
        E 31 95 3b 62
        E 11 95 37 4f
        E 0 95 3e 59
        E 9 95 2b 4c
        E 224 85 3e 53
        E 3 85 3b 51
        E 34 85 37 4f
        E 68 85 2b 5c
        E 125 95 3e 4f
        E 9 95 3b 5f
        E 3 95 2b 56
        E 0 95 37 54
        E 108 85 37 53
        E 51 85 3b 62
        E 3 85 3e 64
        E 298 85 2b 63
        E 14 95 3c 56
        E 11 95 3f 5f
        E 0 95 37 56
        E 12 95 30 4f
        E 238 85 37 4c
        E 49 85 3f 55
        E 37 85 3c 41
        E 150 95 37 4e
        E 6 95 3e 4a
        E 204 85 37 41
        E 128 85 3e 24
        E 145 95 37 4d
        E 6 95 3c 59
        E 213 85 37 50
        E 22 85 3c 5f
        E 264 95 3f 6d
        E 0 95 35 56
        E 12 95 2e 5d
        E 0 95 3a 5b
        E 14 85 30 67
        E 204 85 3a 42
        E 26 85 35 3d
        E 17 85 3f 49
        E 202 95 35 4c
        E 5 95 3c 4e
        E 6 95 3a 5f
        E 116 85 3a 54
        E 12 85 35 58
        E 88 85 3c 66
        E 224 85 2e 5c
        E 29 95 38 66
        E 5 95 3c 44
        E 12 95 3f 59
        E 11 95 2c 62
        E 244 85 3f 59
        E 12 85 38 4b
        E 62 85 3c 4c
        E 128 95 38 5f
        E 23 95 3e 44
        E 170 85 38 42
        E 94 85 3e 3c
        E 181 95 3c 54
        E 0 95 38 62
        E 196 85 3c 61
        E 74 85 38 53
        E 151 85 2c 63
        E 34 95 3b 64
        E 11 95 37 4f
        E 3 95 3e 56
        E 0 95 2b 59
        E 230 85 3b 57
        E 0 85 3e 48
        E 31 85 37 43
        E 60 85 2b 5c
        E 142 95 2b 59
        E 3 95 3e 4f
        E 0 95 37 52
        E 0 95 3b 62
        E 179 85 3b 5f
        E 5 85 3e 61
        E 63 85 37 01
        E 79 85 2b 54
        E 142 95 3c 54
        E 3 95 37 52
        E 3 95 30 59
        E 6 95 3f 62
        E 267 85 37 51
        E 37 85 3f 55
        E 54 85 3c 43
        E 125 95 3e 4b
        E 0 95 37 4f
        E 198 85 37 46
        E 171 85 3e 01
        E 111 95 3c 54
        E 5 95 37 4e
        E 199 85 37 3b
        E 40 85 3c 57
        E 201 85 30 57
        E 57 95 35 56
        E 6 95 3f 69
        E 3 95 3a 62
        E 14 95 2e 5f
        E 256 85 35 4f
        E 5 85 3a 50
        E 9 85 3f 51
        E 196 95 3c 54
        E 0 95 35 4e
        E 5 95 3a 5d
        E 111 85 35 5e
        E 40 85 3a 62
        E 25 85 3c 69
        E 123 85 2e 50
        E 201 95 3c 54
        E 3 95 38 6b
        E 0 95 2c 69
        E 7 95 3f 5f
        E 232 85 38 58
        E 6 85 3f 52
        E 5 85 2c 68
        E 5 85 3c 5e
        E 28545 b5 00 00
        E 0 b5 20 01
        E 0 c5 5c 00
        E 0 b5 07 4c
        E 21097 95 38 49
        E 269 85 38 54
        E 0 95 39 36
        E 218 95 47 39
        E 16 95 3a 49
        E 22 85 39 50
        E 218 85 3a 4b
        E 0 95 3b 3e
        E 213 85 47 50
        E 4 95 50 3b
        E 41 95 3c 3b
        E 5 85 3b 4b
        E 201 85 3c 3d
        E 0 95 40 39
        E 224 95 3f 39
        E 5 95 4f 33
        E 5 85 40 4b
        E 11 85 50 55
        E 222 95 3d 3d
        E 6 85 3f 51
        E 229 95 3a 41
        E 10 85 3d 54
        E 20 95 48 37
        E 14 85 4f 4d
        E 198 85 3a 4d
        E 2 95 3b 41
        E 251 85 3b 58
        E 10 95 3c 39
        E 9 95 4a 2c
        E 31 85 48 2e
        E 189 85 3c 52
        E 3 95 3b 3e
        E 19 95 4b 35
        E 12 85 4a 51
        E 228 95 3a 3d
        E 6 95 4a 36
        E 1 85 3b 4f
        E 10 85 4b 49
        E 209 85 3a 45
        E 0 95 3b 2f
        E 233 95 3d 3d
        E 5 85 3b 57
        E 14 95 4d 31
        E 18 85 4a 45
        E 192 95 3c 3e
        E 16 85 3d 45
        E 249 95 46 33
        E 0 95 41 39
        E 8 85 3c 50
        E 0 95 3a 32
        E 2 85 4d 54
        E 4 95 2c 54
        E 1906 85 41 01
        E 0 85 46 70
        E 8 85 3a 76
        E 6 85 2c 73
        E 471 b0 7b 00
        CCINTERP 32
        CHASE_CC_TAKEOFFS 1
        GUID {99EB64FB-248E-F84A-94F7-AC6E534924DA}
        IGNTEMPO 0 120 4 4
        SRCCOLOR 6
        VELLANE -1 100 0
      >
    >
  >
  <TRACK {9DD5FFB5-F000-1E41-B84A-F9DD63A6FEF9}
    NAME "Slow Strings 1"
    PEAKCOL 16576
    BEAT -1
    AUTOMODE 0
    VOLPAN 1 0 -1 -1 1
    MUTESOLO 0 0 0
    IPHASE 0
    PLAYOFFS 0 1
    ISBUS 0 0
    BUSCOMP 0 0 0 0 0
    SHOWINMIX 1 0.6667 0.5 1 0.5 0 0 0
    SEL 0
    REC 0 0 1 0 0 0 0 0
    VU 2
    TRACKHEIGHT 0 0 0 0 0 0
    INQ 0 0 0 0.5 100 0 0 100
    NCHAN 2
    FX 1
    TRACKID {9DD5FFB5-F000-1E41-B84A-F9DD63A6FEF9}
    PERF 0
    MIDIOUT -1
    MAINSEND 1 0
    <FXCHAIN
      WNDRECT 925 239 477 494
      SHOW 1
      LASTSEL 0
      DOCKED 0
      BYPASS 0 0 0
      <VST "VSTi: ReaSynth (Cockos)" reasynth.vst.dylib 0 "" 1919251321<5653547265737972656173796E746800> ""
        eXNlcu9e7f4AAAAAAgAAAAEAAAAAAAAAAgAAAAAAAABEAAAAAAAAAAAAEAA=
        776t3g3wrd6mm8Q7F7fROgAAAAAAAAAAAAAAAO+emjzpZ4g9AAAAAAAAAD8AAIA/AACAPwAAAD8AAAAAAAAAAAAAAAA=
        AAAQAAAA
      >
      FLOATPOS 0 0 0 0
      FXID {BDFDFDE3-FBDF-0B4E-AA9A-AD771D0906F4}
      WAK 0 0
    >
    <ITEM
      POSITION 0
      SNAPOFFS 0
      LENGTH 363.15507745299715
      LOOP 1
      ALLTAKES 0
      FADEIN 1 0 0 1 0 0 0
      FADEOUT 1 0 0 1 0 0 0
      MUTE 0 0
      SEL 0
      IGUID {562547AC-7810-AD47-B2BC-B1491428D814}
      IID 7
      NAME "Slow Strings 1 - 1-6--3-2_geth-1.mid"
      VOLPAN 1 0 1 -1
      SOFFS 0 0
      PLAYRATE 1 1 0 -1 0 0.0025
      CHANMODE 0
      GUID {8E9B0385-B567-844E-837B-BAFE8B867004}
      <SOURCE MIDI
        HASDATA 1 480 QN
        CCINTERP 32
        POOLEDEVTS {787EB619-AA21-7948-835B-FAC85496ED0A}
        <X 0 0 0 0 3 "Slow Strings 1"
          /wNTbG93IFN0cmluZ3MgMQ==
        >
        E 0 b6 00 00
        E 0 b6 20 01
        E 0 c6 31 00
        E 0 b6 07 70
        E 0 b6 0a 30
        E 31145 96 55 5d
        E 469 96 52 5b
        E 20 86 55 63
        E 492 96 4d 52
        E 5 86 52 70
        E 437 96 4e 52
        E 14 86 4d 5b
        E 2411 86 4e 61
        E 2 96 5a 5d
        E 480 96 57 5f
        E 20 86 5a 64
        E 471 86 57 6f
        E 0 96 52 64
        E 429 96 54 52
        E 20 86 52 69
        E 998 96 55 52
        E 27 86 54 60
        E 673 96 57 5b
        E 2 86 55 72
        E 252 96 5a 66
        E 14 86 57 78
        E 709 96 59 59
        E 70 86 5a 01
        E 124 96 57 62
        E 26 86 59 5e
        E 476 86 57 69
        E 0 96 55 54
        E 945 86 55 77
        E 3 96 59 54
        E 254 96 57 52
        E 18 86 59 57
        E 232 96 55 4e
        E 6 86 57 71
        E 258 96 54 4a
        E 6 86 55 6f
        E 688 96 57 4f
        E 35 86 54 5e
        E 695 86 57 73
        E 0 96 55 5b
        E 244 96 54 4d
        E 2 86 55 76
        E 242 96 52 52
        E 29 86 54 5f
        E 1164 96 55 4e
        E 11 86 52 69
        E 239 96 54 46
        E 68 86 55 37
        E 170 96 52 4e
        E 28 86 54 60
        E 1335 86 52 70
        E 52 96 52 64
        E 262 86 52 70
        E 2 96 4d 4b
        E 243 96 4b 66
        E 29 86 4d 66
        E 677 86 4b 72
        E 0 96 49 66
        E 260 86 49 7c
        E 0 96 4d 3f
        E 667 86 4d 64
        E 49 96 4d 5d
        E 232 96 55 5d
        E 9 86 4d 50
        E 208 86 55 79
        E 2 96 54 5f
        E 240 96 52 5d
        E 27 86 54 59
        E 233 86 52 6d
        E 1 96 51 56
        E 230 96 52 5d
        E 26 86 51 60
        E 1949 86 52 73
        E 162678 96 3c 4f
        E 1 96 30 4a
        E 9 96 43 45
        E 0 96 3c 4d
        E 6 96 3f 4e
        E 469 96 48 4e
        E 0 96 43 49
        E 2 96 3f 4e
        E 3 86 43 64
        E 0 86 3c 68
        E 6 86 3f 73
        E 300 86 48 61
        E 32 86 43 4b
        E 9 86 3f 53
        E 123 96 3a 5f
        E 2 96 4a 4b
        E 0 96 3f 54
        E 3 96 2e 5d
        E 1 96 43 4a
        E 10 86 30 6b
        E 16 86 3c 5b
        E 451 86 4a 58
        E 8 96 48 4a
        E 262 86 48 68
        E 8 86 43 68
        E 27 86 3f 68
        E 179 96 3c 4e
        E 1 96 43 4f
        E 1 96 37 52
        E 0 96 4f 52
        E 9 96 38 66
        E 7 96 2c 5f
        E 5 86 3a 64
        E 18 86 2e 6d
        E 435 96 33 52
        E 0 96 4b 52
        E 32 86 37 61
        E 0 86 4f 61
        E 428 96 32 4b
        E 0 96 4a 4b
        E 5 86 2c 6a
        E 0 86 4b 6b
        E 0 86 33 6b
        E 8 96 37 5b
        E 4 86 38 71
        E 0 96 2b 56
        E 413 86 43 61
        E 62 96 30 4e
        E 0 96 48 4e
        E 7 86 4a 68
        E 0 86 32 68
        E 5 96 43 66
        E 200 86 43 61
        E 126 86 3c 42
        E 132 96 38 54
        E 0 96 50 54
        E 1 96 3c 4f
        E 4 96 44 6b
        E 6 96 35 54
        E 1 86 30 62
        E 0 86 37 69
        E 0 86 48 62
        E 5 86 2b 59
        E 0 96 29 52
        E 464 86 3c 5a
        E 4 86 44 6b
        E 4 96 41 59
        E 0 96 4a 5b
        E 242 86 4a 61
        E 154 86 41 52
        E 72 96 41 4b
        E 2 96 4b 6f
        E 18 96 27 54
        E 5 96 33 5f
        E 7 86 29 5f
        E 20 86 35 58
        E 346 86 4b 77
        E 100 96 4a 6b
        E 199 86 4a 68
        E 32 86 41 63
        E 177 86 50 64
        E 0 86 38 64
        E 53 96 3c 4c
        E 3 96 44 69
        E 9 96 38 5d
        E 0 96 50 5d
        E 20 86 33 73
        E 1 96 32 52
        E 6 96 26 4b
        E 13 86 27 54
        E 461 96 35 3d
        E 0 96 4d 3d
        E 8 86 38 5b
        E 0 86 50 5b
        E 444 96 33 4f
        E 0 96 4b 4f
        E 9 86 4d 61
        E 0 86 35 61
        E 24 86 32 69
        E 2 96 24 52
        E 1 96 30 59
        E 20 86 26 52
        E 373 86 4b 5c
        E 0 86 33 5c
        E 49 96 33 43
        E 0 96 4b 43
        E 209 86 44 62
        E 6 86 3c 57
        E 247 96 32 47
        E 0 96 4a 47
        E 10 86 33 75
        E 0 86 4b 75
        E 3 96 41 5b
        E 0 96 3e 52
        E 6 96 22 62
        E 1 96 2e 62
        E 5 86 24 5b
        E 24 86 30 53
        E 444 86 41 66
        E 0 86 3e 62
        E 10 96 46 69
        E 0 96 41 4d
        E 11 96 3a 54
        E 0 96 52 54
        E 25 86 32 4c
        E 0 86 4a 4c
        E 181 96 4a 49
        E 144 86 46 3c
        E 87 86 22 62
        E 0 86 2e 5c
        E 8 86 4a 62
        E 12 96 4b 66
        E 0 96 46 66
        E 8 86 3a 64
        E 0 86 52 64
        E 0 96 3c 47
        E 0 96 54 47
        E 28 96 22 5d
        E 0 96 2e 59
        E 425 86 4b 70
        E 18 96 30 54
        E 6 86 2e 6b
        E 4 96 24 56
        E 3 96 4d 5f
        E 2 86 22 69
        E 181 96 3a 4e
        E 0 96 52 4e
        E 9 86 3c 64
        E 0 86 54 64
        E 11 86 24 6a
        E 3 96 32 4e
        E 0 96 26 4c
        E 18 86 30 61
        E 171 86 52 64
        E 0 86 3a 64
        E 52 96 3a 4e
        E 0 96 52 4e
        E 18 96 46 69
        E 3 86 46 79
        E 2 96 50 6b
        E 4 96 33 5d
        E 0 96 27 62
        E 0 96 4b 62
        E 6 86 4d 64
        E 0 86 41 68
        E 3 86 32 5f
        E 14 86 26 59
        E 436 96 4f 4f
        E 57 86 50 01
        E 242 86 4f 66
        E 8 86 4b 77
        E 19 86 46 76
        E 134 96 38 52
        E 0 96 50 52
        E 4 86 52 5b
        E 0 86 3a 5b
        E 32 96 41 4f
        E 0 96 46 62
        E 3 96 4d 5f
        E 406 86 33 76
        E 6 86 27 6b
        E 0 86 4d 59
        E 15 86 41 5a
        E 32 86 38 79
        E 0 86 50 79
        E 3 96 37 4b
        E 0 96 4f 4b
        E 4 96 4b 66
        E 7 96 43 59
        E 5 96 27 5d
        E 1 96 33 66
        E 197 86 33 73
        E 3 86 27 6d
        E 3 96 35 54
        E 7 96 29 52
        E 107 86 4b 71
        E 32 86 46 5b
        E 62 86 43 43
        E 53 96 38 5f
        E 0 96 50 5f
        E 9 86 29 67
        E 0 96 37 5f
        E 2 96 2b 5d
        E 5 86 37 62
        E 0 86 4f 62
        E 4 86 35 5e
        E 0 96 43 5b
        E 0 96 4f 66
        E 408 86 4f 5a
        E 64 96 4d 66
        E 3 96 37 54
        E 0 96 4f 54
        E 9 86 50 79
        E 0 86 38 79
        E 394 86 4d 66
        E 25 86 37 60
        E 7 86 2b 62
        E 19 96 4b 73
        E 6 96 44 66
        E 0 96 5c 66
        E 17 86 4f 59
        E 0 86 37 59
        E 6 96 37 5b
        E 7 96 2b 4f
        E 299 86 4b 50
        E 114 86 37 61
        E 7 86 2b 5f
        E 36 96 47 64
        E 2 96 4a 5f
        E 1 96 43 52
        E 0 96 5b 52
        E 9 96 2b 49
        E 0 96 37 4d
        E 7 86 5c 6b
        E 0 86 44 6b
        E 81 96 2d 4b
        E 7 86 2b 61
        E 7 96 39 4d
        E 12 86 37 4c
        E 79 96 2f 46
        E 19 86 2d 58
        E 2 96 3b 62
        E 3 86 4a 63
        E 3 86 47 5c
        E 4 86 39 63
        E 139 86 43 43
        E 103 86 3b 66
        E 18 86 2f 66
        E 4 86 43 67
        E 0 86 5b 67
        E 0 96 41 59
        E 0 96 59 59
        E 1 96 3c 59
        E 2 96 43 59
        E 3 96 48 5d
        E 0 96 4d 5d
        E 1 96 30 5d
        E 383 86 4d 48
        E 56 86 3c 62
        E 15 86 30 5e
        E 47 96 3c 52
        E 2 96 4b 6b
        E 0 96 3f 5b
        E 0 96 57 5b
        E 6 96 30 3d
        E 18 86 59 60
        E 0 86 41 60
        E 189 86 30 61
        E 6 96 37 4f
        E 3 96 2b 52
        E 5 86 3c 69
        E 20 86 4b 6d
        E 5 86 48 6a
        E 54 86 43 60
        E 159 96 3e 4e
        E 0 96 56 4e
        E 16 86 3f 5c
        E 0 86 57 5c
        E 5 96 3f 5f
        E 2 96 43 4f
        E 0 96 4a 4f
        E 11 86 37 64
        E 11 86 2b 68
        E 2 96 3c 4e
        E 6 96 30 54
        E 364 86 4a 57
        E 49 86 3c 62
        E 11 86 30 58
        E 10 86 3e 66
        E 0 86 56 66
        E 2 96 3c 4c
        E 0 96 54 4c
        E 8 96 48 52
        E 28 96 3c 5d
        E 0 96 30 42
        E 201 86 43 64
        E 7 86 48 69
        E 4 96 3a 69
        E 6 86 30 5c
        E 0 96 2e 62
        E 14 86 3c 61
        E 88 86 3f 52
        E 136 96 4b 66
        E 0 96 3f 59
        E 2 96 44 62
        E 21 96 3f 4f
        E 0 96 57 4f
        E 4 86 3a 6f
        E 4 96 38 6b
        E 2 96 2c 69
        E 5 86 2e 62
        E 3 86 54 53
        E 0 86 3c 53
        E 474 96 48 4d
        E 157 86 4b 62
        E 3 86 3f 76
        E 10 86 48 57
        E 49 86 44 4a
        E 4 96 3e 59
        E 0 96 4a 5b
        E 203 86 4a 62
        E 9 86 3e 5b
        E 52 96 4a 5b
        E 1 96 3e 54
        E 434 96 3c 5b
        E 5 96 48 64
        E 0 96 3f 69
        E 40 86 4a 60
        E 1 86 3e 4b
        E 137 86 2c 5e
        E 5 86 38 73
        E 64 96 38 73
        E 1 96 2c 6d
        E 150 86 3c 40
        E 16 86 3f 60
        E 8 86 48 55
        E 52 96 3f 73
        E 2 96 3c 5f
        E 0 96 3c 4b
        E 0 96 54 4b
        E 14 86 3f 5c
        E 0 86 57 5c
        E 13 86 38 66
        E 6 86 2c 66
        E 10 96 37 62
        E 1 96 2b 52
        E 444 96 48 69
        E 1 96 37 4c
        E 0 96 4f 4c
        E 3 86 3c 63
        E 0 86 54 63
        E 99 86 48 69
        E 38 86 3f 5a
        E 108 96 43 42
        E 24 86 3c 61
        E 198 96 35 4e
        E 0 96 4d 4e
        E 13 96 37 5d
        E 0 96 3c 59
        E 1 96 41 56
        E 4 86 43 5f
        E 12 86 4f 62
        E 0 86 37 62
        E 358 86 41 53
        E 97 86 2b 67
        E 3 86 37 6a
        E 23 96 3f 69
        E 6 96 33 5b
        E 0 96 4b 5b
        E 4 86 4d 69
        E 0 86 35 69
        E 22 96 2b 52
        E 5 96 37 62
        E 202 86 3c 67
        E 4 86 37 53
        E 166 86 37 59
        E 0 86 2b 58
        E 44 96 43 5d
        E 2 96 3b 64
        E 2 96 37 5f
        E 0 96 2b 56
        E 9 96 4f 4d
        E 0 96 37 4d
        E 14 86 3f 6b
        E 5 86 33 77
        E 0 86 4b 77
        E 448 86 43 54
        E 2 86 3b 4a
        E 2 86 2b 5e
        E 0 86 37 64
        E 9 86 37 5c
        E 0 86 4f 5c
        E 478 96 57 4e
        E 228 96 56 4c
        E 7 86 57 6a
        E 260 96 54 4c
        E 13 86 56 5a
        E 213 96 53 4f
        E 11 86 54 64
        E 221 96 38 66
        E 0 96 2c 4a
        E 0 96 33 4d
        E 23 96 54 4d
        E 13 86 53 5c
        E 204 86 38 75
        E 0 96 39 47
        E 240 86 39 54
        E 0 96 3a 5f
        E 23 96 53 5b
        E 8 86 54 68
        E 209 86 33 6f
        E 0 86 3a 76
        E 0 86 2c 6b
        E 0 96 3b 4f
        E 240 86 3b 64
        E 0 96 3c 56
        E 14 96 5c 59
        E 16 86 53 60
        E 210 86 3c 61
        E 0 96 40 4e
        E 240 86 40 5e
        E 0 96 3f 59
        E 32 96 5b 54
        E 4 86 5c 64
        E 204 86 3f 62
        E 0 96 3d 5f
        E 240 86 3d 75
        E 0 96 3a 5f
        E 29 96 54 4d
        E 4 86 5b 61
        E 207 86 3a 69
        E 0 96 3b 5b
        E 240 86 3b 64
        E 0 96 3c 52
        E 9 96 56 4d
        E 16 86 54 5f
        E 215 86 3c 5a
        E 0 96 3b 52
        E 6 96 57 4f
        E 11 86 56 5e
        E 223 86 3b 67
        E 0 96 3a 59
        E 16 96 56 4a
        E 2 86 57 61
        E 222 86 3a 57
        E 0 96 3b 4f
        E 240 86 3b 63
        E 0 96 3d 52
        E 42 96 59 4b
        E 4 86 56 63
        E 194 86 3d 60
        E 0 96 3c 4b
        E 240 86 3c 68
        E 0 96 4d 41
        E 0 96 4b 46
        E 0 96 48 42
        E 0 96 3a 3f
        E 0 96 3a 54
        E 0 96 33 43
        E 0 96 30 41
        E 0 96 2c 3a
        E 37 96 52 54
        E 3 86 59 5f
        E 1880 86 4d 67
        E 0 86 2c 75
        E 0 86 48 60
        E 0 86 33 70
        E 0 86 3a 72
        E 0 86 3a 72
        E 0 86 30 62
        E 0 86 4b 73
        E 37 86 52 72
        E 443 b0 7b 00
        CCINTERP 32
        CHASE_CC_TAKEOFFS 1
        GUID {6011E798-6D1E-134B-B611-01D682303DFE}
        IGNTEMPO 0 120 4 4
        SRCCOLOR 7
        VELLANE -1 100 0
      >
    >
  >
  <TRACK {F4C6789D-2F8D-F842-9A27-B53122CFF9C3}
    NAME "Ensemble Strings"
    PEAKCOL 16576
    BEAT -1
    AUTOMODE 0
    VOLPAN 1 0 -1 -1 1
    MUTESOLO 0 0 0
    IPHASE 0
    PLAYOFFS 0 1
    ISBUS 0 0
    BUSCOMP 0 0 0 0 0
    SHOWINMIX 1 0.6667 0.5 1 0.5 0 0 0
    SEL 0
    REC 0 0 1 0 0 0 0 0
    VU 2
    TRACKHEIGHT 0 0 0 0 0 0
    INQ 0 0 0 0.5 100 0 0 100
    NCHAN 2
    FX 1
    TRACKID {F4C6789D-2F8D-F842-9A27-B53122CFF9C3}
    PERF 0
    MIDIOUT -1
    MAINSEND 1 0
    <FXCHAIN
      WNDRECT 820 639 400 163
      SHOW 1
      LASTSEL 0
      DOCKED 0
      BYPASS 0 0 0
      <VST "VSTi: FL Studio VSTi (multi) (Image-Line) (32 out)" "FL Studio VSTi.vst" 0 "" 1179398454<565354464C3136666C73747564696F76> ""
        NjFMRu5e7f4AAAAAIAAAAAEAAAAAAAAAAgAAAAAAAAAEAAAAAAAAAAgAAAAAAAAAEAAAAAAAAAAgAAAAAAAAAEAAAAAAAAAAgAAAAAAAAAAAAQAAAAAAAAACAAAAAAAA
        AAQAAAAAAAAACAAAAAAAAAAQAAAAAAAAACAAAAAAAAAAQAAAAAAAAACAAAAAAAAAAAABAAAAAAAAAAIAAAAAAAAABAAAAAAAAAAIAAAAAAAAABAAAAAAAAAAIAAAAAAA
        AABAAAAAAAAAAIAAAAAAAAAAAAEAAAAAAAAAAgAAAAAAAAAEAAAAAAAAAAgAAAAAAAAAEAAAAAAAAAAgAAAAAAAAAEAAAAAAAAAAgAAAAADhAgAAAQAAAAAAEAA=
        +v//fwEBAAAAAAAAAAEAAABEZWZhdWx0AAAAAAAAAAAAAAAAAAAAAAABAAAApAIAAAAAAAABAAAAAAIAAAAAAAD/////////////////////////////////////////
        ////////////////////////////////////////////////////////////////////////////////////////////////////////////////////////////////
        ////////////////////////////////////////////////////////////////////////////////////////////////////////////////////////////////
        ////////////////////////////////////////////////////////////////////////////////////////////////////////////////////////////////
        ////////////////////////////////////////////////////////////////////////////////////////////////////////////////////////////////
        ////////////////////////////////////////////////////////////////////////////////////////////////////////////////////////////////
        /wIAAABAAAAAAAAAAP////////////////////////////////////////////////////////////////////////////////////8DAAAAQAAAAAAAAAD/////////
        ////////////////////////////////////////////////////////////////////////////AAAAAAAAAAA=
        AERlZmF1bHQAEAAAAA==
      >
      WET 0.3299 0
      PRESETNAME Default
      FLOATPOS 0 0 0 0
      FXID {D28EA153-88EA-9F49-88AF-B7458E10B585}
      WAK 0 0
    >
    <ITEM
      POSITION 0
      SNAPOFFS 0
      LENGTH 350.96757745293559
      LOOP 1
      ALLTAKES 0
      FADEIN 1 0 0 1 0 0 0
      FADEOUT 1 0 0 1 0 0 0
      MUTE 0 0
      SEL 0
      IGUID {6D41B3E6-0A4B-CC42-AF34-295F0186787A}
      IID 8
      NAME "Ensemble Strings - 1-6--3-2_geth-1.mid"
      VOLPAN 1 0 1 -1
      SOFFS 0 0
      PLAYRATE 1 1 0 -1 0 0.0025
      CHANMODE 0
      GUID {FBA5D0D9-CADE-894E-8097-DD2172DC4597}
      <SOURCE MIDI
        HASDATA 1 480 QN
        CCINTERP 32
        POOLEDEVTS {742482BB-F294-5840-885C-E2CDD123304D}
        <X 0 0 0 0 3 "Ensemble Strings"
          /wNFbnNlbWJsZSBTdHJpbmdz
        >
        E 0 b7 00 00
        E 0 b7 20 01
        E 0 c7 30 00
        E 0 b7 07 6e
        E 0 b7 0a 40
        E 49900 97 3a 59
        E 6 97 2e 5d
        E 0 97 52 5d
        E 221 87 52 73
        E 0 97 4d 45
        E 241 97 49 62
        E 19 87 4d 51
        E 208 87 49 60
        E 0 97 48 4e
        E 254 87 48 57
        E 0 97 46 69
        E 237 87 46 78
        E 6 97 41 59
        E 256 87 41 34
        E 0 97 3d 6d
        E 100 87 3a 5a
        E 160 87 3d 77
        E 0 97 3c 5f
        E 103 87 2e 75
        E 133 87 3c 69
        E 8 97 22 66
        E 0 97 3a 6b
        E 0 97 2e 5f
        E 10 97 46 4e
        E 331 87 46 3c
        E 142 97 41 43
        E 4 97 3d 52
        E 35 87 3a 62
        E 234 b7 40 7f
        E 58 87 3d 72
        E 0 87 41 60
        E 23 87 2e 61
        E 6 87 22 5e
        E 132 97 20 66
        E 0 97 2c 5d
        E 2 b7 40 00
        E 6 97 44 6d
        E 445 97 38 54
        E 11 97 3c 44
        E 0 97 3f 4d
        E 213 b7 40 7f
        E 28 87 44 62
        E 1 87 3c 67
        E 0 87 3f 70
        E 58 87 20 5f
        E 1 87 2c 60
        E 33 87 38 4a
        E 115 b7 40 00
        E 12 97 42 6b
        E 6 97 2a 59
        E 0 97 1e 5f
        E 458 97 36 5d
        E 7 97 3a 59
        E 4 97 3d 59
        E 68 b7 40 7f
        E 145 87 3a 6e
        E 7 87 3d 70
        E 5 87 42 54
        E 1 87 36 61
        E 17 87 2a 5e
        E 5 87 1e 55
        E 191 b7 40 00
        E 12 97 41 4e
        E 0 97 29 56
        E 0 97 1d 56
        E 458 97 39 49
        E 0 97 35 4a
        E 0 97 3c 4a
        E 88 87 41 30
        E 44 b7 40 7f
        E 72 87 35 6a
        E 3 87 39 6b
        E 14 87 3c 6a
        E 11 87 1d 68
        E 15 87 29 63
        E 228 b7 40 00
        E 21 97 2e 5b
        E 0 97 46 6b
        E 0 97 22 59
        E 260 97 3a 62
        E 122 87 3a 70
        E 0 97 3d 5b
        E 0 97 41 44
        E 222 87 3d 69
        E 14 97 3a 62
        E 3 87 41 5f
        E 108 97 41 47
        E 4 97 3d 5f
        E 29 87 46 53
        E 177 87 2e 71
        E 2 87 22 6a
        E 24 87 41 5a
        E 19 87 3d 71
        E 3 87 3a 5f
        E 11 97 44 6b
        E 3 97 2c 59
        E 2 97 20 6d
        E 224 97 38 5d
        E 124 87 38 75
        E 0 97 3f 59
        E 6 97 3c 46
        E 255 87 3f 6d
        E 0 87 3c 63
        E 0 97 38 62
        E 98 97 3f 5b
        E 3 97 3c 4b
        E 17 87 38 6e
        E 118 87 44 01
        E 35 87 20 67
        E 5 87 2c 70
        E 29 87 3f 62
        E 4 87 3c 61
        E 25 97 2a 54
        E 0 97 1e 69
        E 0 97 42 5d
        E 268 97 36 62
        E 122 87 36 77
        E 0 97 3d 59
        E 0 97 3a 59
        E 245 87 3a 6e
        E 7 87 3d 6b
        E 4 97 36 5b
        E 108 97 3d 5f
        E 0 97 3a 54
        E 143 87 42 52
        E 14 87 36 70
        E 0 87 3d 63
        E 13 87 3a 5f
        E 8 87 1e 61
        E 13 87 2a 77
        E 24 97 41 52
        E 4 97 1d 4f
        E 5 97 29 4d
        E 244 97 35 4d
        E 123 97 3c 4c
        E 4 87 35 5f
        E 0 97 39 4e
        E 242 97 35 4e
        E 7 87 39 5a
        E 3 87 3c 61
        E 89 97 3c 4b
        E 2 97 39 54
        E 68 b7 40 7f
        E 54 87 1d 67
        E 0 87 39 6a
        E 0 87 35 69
        E 18 87 41 67
        E 0 87 3c 6b
        E 5 87 29 62
        E 72 b7 40 00
        E 21 97 22 5d
        E 0 97 46 6b
        E 240 97 3a 5d
        E 112 97 41 44
        E 0 97 3d 5d
        E 15 87 3a 6d
        E 260 97 3a 62
        E 13 87 3d 53
        E 0 87 41 57
        E 85 97 2e 54
        E 2 97 3d 5b
        E 4 97 41 44
        E 16 87 3a 69
        E 72 87 46 14
        E 49 97 3a 52
        E 20 87 2e 66
        E 0 87 41 59
        E 10 87 22 61
        E 7 87 3d 63
        E 52 87 3a 6e
        E 4 97 2c 54
        E 8 97 20 69
        E 1 97 44 6d
        E 236 97 38 62
        E 115 97 3f 52
        E 6 87 38 75
        E 0 97 3c 49
        E 255 97 38 5d
        E 6 87 3f 6a
        E 3 87 3c 5c
        E 103 97 3f 52
        E 0 97 3c 46
        E 137 87 44 5f
        E 7 87 2c 66
        E 5 87 20 67
        E 24 87 3f 5f
        E 2 87 3c 5b
        E 15 87 38 5e
        E 19 97 2a 41
        E 0 97 42 5b
        E 7 97 1e 69
        E 245 97 36 5f
        E 133 87 36 6d
        E 0 97 3d 54
        E 0 97 3a 54
        E 253 87 3d 6e
        E 0 87 3a 6a
        E 6 97 36 59
        E 122 97 3d 5b
        E 0 97 3a 54
        E 144 87 42 57
        E 12 87 36 77
        E 6 87 3d 59
        E 18 87 1e 6b
        E 6 87 3a 53
        E 4 87 2a 72
        E 21 97 41 4e
        E 0 97 1d 4d
        E 10 97 29 44
        E 249 97 35 4c
        E 116 97 3c 4c
        E 8 97 39 4e
        E 13 87 35 67
        E 241 97 35 4e
        E 5 87 39 5a
        E 6 87 3c 67
        E 92 97 39 4e
        E 1 97 3c 4c
        E 29 b7 40 7f
        E 0 87 35 6b
        E 37 87 39 6b
        E 15 87 1d 66
        E 0 87 3c 6b
        E 0 87 41 66
        E 18 87 29 5e
        E 143 b7 40 00
        E 11 97 3a 5b
        E 3 97 38 4d
        E 11 97 46 73
        E 23 97 2e 5f
        E 0 97 22 69
        E 395 87 46 70
        E 0 87 22 70
        E 0 87 2e 73
        E 460 97 46 6f
        E 9 97 3a 6d
        E 2 97 2e 62
        E 9 97 22 6f
        E 37 87 3a 7c
        E 20 87 46 79
        E 3 87 2e 78
        E 0 87 22 78
        E 619 97 46 6f
        E 0 97 2e 6d
        E 0 97 3a 75
        E 0 97 22 77
        E 11 97 3d 69
        E 51 87 3a 76
        E 3 87 3d 7c
        E 0 87 2e 78
        E 0 87 22 7d
        E 11 87 46 79
        E 622 97 2e 6b
        E 0 97 3a 6d
        E 0 97 46 6f
        E 0 97 22 6b
        E 0 97 3d 66
        E 37 87 3a 6a
        E 14 87 3d 75
        E 0 87 2e 77
        E 0 87 46 72
        E 0 87 22 7c
        E 426 97 46 66
        E 0 97 3a 6d
        E 3 97 44 62
        E 0 97 2e 6d
        E 0 97 22 6d
        E 0 97 3d 59
        E 43 87 46 79
        E 0 87 3a 5c
        E 0 87 3d 7d
        E 0 87 44 61
        E 23 87 22 7c
        E 5 87 2e 75
        E 205 87 3a 63
        E 65 87 38 61
        E 97 97 3a 73
        E 11 97 3d 69
        E 14 97 3a 6f
        E 14 97 42 66
        E 0 97 3d 69
        E 0 97 44 5f
        E 12 97 27 77
        E 0 97 33 6d
        E 22 87 44 6e
        E 9 87 3a 7d
        E 11 87 3d 77
        E 15 87 42 67
        E 5 87 33 77
        E 9 87 27 7c
        E 51 87 3a 5e
        E 14 87 3d 64
        E 361 97 3a 66
        E 3 97 38 4f
        E 215 97 3a 77
        E 0 97 46 77
        E 15 97 3d 66
        E 0 97 22 73
        E 0 97 2e 6d
        E 0 97 44 54
        E 28 87 3d 73
        E 0 87 44 79
        E 9 87 3a 7d
        E 17 87 46 78
        E 0 87 2e 77
        E 8 87 22 7a
        E 653 97 3a 73
        E 0 97 46 73
        E 0 97 2e 73
        E 0 97 3d 6d
        E 0 97 22 73
        E 51 87 3a 78
        E 9 87 3d 7a
        E 8 87 46 76
        E 0 87 2e 79
        E 0 87 22 7c
        E 659 97 46 73
        E 0 97 3a 75
        E 20 97 44 4e
        E 0 97 2e 73
        E 0 97 22 77
        E 0 97 3c 45
        E 26 87 44 6a
        E 8 87 3a 79
        E 17 87 46 7a
        E 9 87 3c 68
        E 0 87 2e 77
        E 11 87 22 7d
        E 563 97 46 6d
        E 0 97 2e 69
        E 0 97 3a 66
        E 0 97 22 62
        E 14 97 3d 59
        E 34 87 3a 68
        E 0 87 3d 7a
        E 0 97 21 31
        E 14 87 46 76
        E 9 87 21 52
        E 0 87 2e 73
        E 0 87 22 67
        E 434 97 3a 6d
        E 0 97 46 66
        E 17 97 22 6f
        E 0 97 2e 6f
        E 0 97 3d 59
        E 0 97 44 46
        E 31 87 44 69
        E 3 87 3d 73
        E 3 87 3a 78
        E 17 87 46 72
        E 17 87 22 79
        E 0 87 2e 76
        E 216 87 3a 57
        E 65 87 38 4a
        E 125 97 3a 73
        E 0 97 44 79
        E 14 97 3d 62
        E 12 97 27 77
        E 0 97 33 6b
        E 14 97 3a 6f
        E 6 87 3d 78
        E 5 87 3a 7d
        E 3 97 3d 5b
        E 23 87 44 76
        E 6 87 33 79
        E 14 87 27 78
        E 68 87 3a 6e
        E 20 87 3d 6d
        E 329 97 38 5b
        E 6 97 3a 5b
        E 238 97 3d 73
        E 0 97 41 54
        E 0 97 46 69
        E 0 97 2e 69
        E 0 97 22 6f
        E 74 87 3d 76
        E 12 87 46 73
        E 0 87 2e 75
        E 11 87 22 72
        E 20 87 41 69
        E 585 97 3d 73
        E 0 97 46 69
        E 0 97 2e 69
        E 0 97 41 56
        E 0 97 22 6b
        E 60 87 3d 78
        E 14 87 46 7a
        E 3 87 2e 76
        E 0 87 22 7a
        E 22 87 41 6b
        E 611 97 3d 6f
        E 0 97 46 69
        E 0 97 41 59
        E 3 97 2e 69
        E 14 97 22 69
        E 54 87 3d 76
        E 14 87 46 72
        E 3 87 2e 73
        E 14 87 22 76
        E 6 87 41 69
        E 622 97 3d 6b
        E 0 97 41 56
        E 3 97 46 62
        E 0 97 2e 69
        E 8 97 22 6b
        E 60 87 3d 6e
        E 14 87 46 6d
        E 9 87 22 75
        E 0 87 2e 73
        E 22 87 41 64
        E 324 97 41 4e
        E 0 97 3d 69
        E 9 97 46 62
        E 0 97 2e 6f
        E 0 97 22 6f
        E 73 87 3d 70
        E 12 87 22 77
        E 0 87 41 68
        E 0 87 46 6f
        E 0 87 2e 76
        E 272 87 3a 6b
        E 103 87 38 55
        E 20 97 3f 6b
        E 5 97 49 77
        E 17 97 33 6f
        E 0 97 27 77
        E 37 97 3a 62
        E 6 97 3d 52
        E 14 87 3f 6f
        E 23 87 33 76
        E 5 87 49 64
        E 0 87 27 71
        E 86 87 3d 67
        E 11 87 3a 6a
        E 332 97 38 4e
        E 3 97 3a 54
        E 230 97 3d 6f
        E 0 97 2e 62
        E 6 97 46 6b
        E 0 97 22 66
        E 65 87 3d 7a
        E 14 87 46 79
        E 6 87 2e 71
        E 11 87 22 73
        E 614 97 3d 73
        E 6 97 2e 6b
        E 5 97 46 73
        E 0 97 22 66
        E 63 87 3d 7a
        E 0 87 46 77
        E 8 87 2e 75
        E 14 87 22 77
        E 588 97 3d 73
        E 0 97 46 6b
        E 0 97 2e 6d
        E 0 97 41 4e
        E 0 97 22 6b
        E 60 87 3d 76
        E 14 87 46 78
        E 0 87 2e 73
        E 3 87 22 75
        E 3 87 41 67
        E 630 97 3d 69
        E 0 97 41 4e
        E 0 97 46 62
        E 0 97 2e 6d
        E 0 97 22 69
        E 60 87 3d 76
        E 8 87 46 71
        E 12 87 22 78
        E 0 87 2e 76
        E 11 87 41 67
        E 406 97 3d 66
        E 0 97 41 4c
        E 0 97 46 5f
        E 0 97 2e 6f
        E 0 97 22 6f
        E 71 87 3d 75
        E 9 87 46 70
        E 0 87 22 79
        E 5 87 2e 78
        E 9 87 41 69
        E 287 87 3a 6b
        E 82 87 38 59
        E 14 97 3f 6d
        E 9 97 49 73
        E 6 97 33 6f
        E 0 97 27 77
        E 48 97 3a 69
        E 8 87 3f 7a
        E 6 87 49 79
        E 3 97 3d 4e
        E 6 87 33 79
        E 8 87 27 79
        E 134 87 3d 5f
        E 11 87 3a 60
        E 290 97 46 5f
        E 11 97 22 77
        E 0 97 2e 6f
        E 0 97 22 77
        E 0 97 44 59
        E 49 87 44 30
        E 464 97 3a 5b
        E 4 97 41 44
        E 0 97 3d 5b
        E 243 b7 40 7f
        E 35 87 46 4a
        E 4 87 3d 72
        E 5 87 41 62
        E 46 87 2e 5e
        E 4 87 22 61
        E 0 87 22 61
        E 127 87 3a 32
        E 21 b7 40 00
        E 32 97 44 6d
        E 0 97 20 6d
        E 0 97 2c 6d
        E 245 97 38 5f
        E 131 97 3f 54
        E 3 97 3c 49
        E 1 87 38 78
        E 226 97 38 5d
        E 6 87 3f 6e
        E 0 87 3c 5f
        E 101 97 3f 54
        E 6 97 3c 45
        E 95 87 44 03
        E 52 87 2c 6d
        E 5 87 20 66
        E 41 87 3c 63
        E 2 87 3f 71
        E 8 87 38 6f
        E 11 97 42 6d
        E 10 97 1e 6f
        E 0 97 2a 5d
        E 247 97 36 5f
        E 108 87 36 68
        E 25 97 3d 4a
        E 3 97 3a 41
        E 77 87 3a 52
        E 145 87 3d 70
        E 10 97 36 5b
        E 101 97 3d 5b
        E 0 97 3a 5f
        E 4 87 36 70
        E 149 87 42 55
        E 2 87 3d 67
        E 9 87 3a 62
        E 4 87 1e 73
        E 8 87 2a 76
        E 20 97 41 4f
        E 6 97 1d 4d
        E 4 97 29 4f
        E 233 97 35 4c
        E 108 87 35 53
        E 17 97 3c 56
        E 8 97 39 59
        E 213 87 39 5f
        E 11 87 3c 62
        E 0 97 35 4d
        E 105 97 39 56
        E 0 97 3c 4f
        E 18 87 35 64
        E 17 b7 40 7f
        E 23 87 39 68
        E 16 87 41 62
        E 0 87 1d 62
        E 7 87 3c 6a
        E 9 87 29 5b
        E 128 b7 40 00
        E 33 97 2e 5d
        E 3 97 46 73
        E 0 97 22 52
        E 0 97 20 62
        E 33 87 20 78
        E 206 97 3a 5b
        E 112 87 3a 70
        E 0 97 3d 59
        E 0 97 41 45
        E 248 87 3d 60
        E 7 87 41 5a
        E 4 97 3a 5f
        E 103 97 41 43
        E 0 97 3d 5d
        E 41 87 3a 4f
        E 16 87 46 4a
        E 113 87 2e 68
        E 0 87 22 60
        E 64 87 3d 76
        E 0 87 41 5f
        E 0 97 44 6d
        E 0 97 2c 54
        E 5 97 20 6f
        E 244 97 38 5b
        E 94 87 38 6b
        E 20 97 3f 4f
        E 7 97 3c 42
        E 237 87 3c 5f
        E 4 87 3f 63
        E 3 97 38 5f
        E 103 97 3f 59
        E 2 97 3c 4c
        E 17 87 38 70
        E 55 87 44 4c
        E 72 87 2c 67
        E 14 87 20 62
        E 54 87 3f 5b
        E 8 87 3c 55
        E 22 97 2a 52
        E 0 97 1e 66
        E 4 97 42 69
        E 261 97 36 5f
        E 112 87 36 6b
        E 19 97 3d 5b
        E 0 97 3a 59
        E 250 97 36 5b
        E 10 87 3a 53
        E 15 87 3d 3e
        E 102 97 3d 5d
        E 0 97 3a 59
        E 17 87 36 6f
        E 113 87 42 55
        E 17 87 3d 58
        E 9 87 1e 5b
        E 5 87 2a 64
        E 0 87 3a 54
        E 36 97 41 4f
        E 0 97 1d 56
        E 2 97 29 54
        E 272 97 35 4f
        E 94 87 35 58
        E 14 97 3c 52
        E 6 97 39 56
        E 233 87 39 5e
        E 12 97 35 4e
        E 2 87 3c 60
        E 101 97 3c 4f
        E 0 97 39 4e
        E 18 87 35 60
        E 10 b7 40 7f
        E 21 87 39 69
        E 10 87 41 67
        E 5 87 1d 5f
        E 5 87 3c 6a
        E 15 87 29 5a
        E 138 b7 40 00
        E 26 97 22 66
        E 0 97 2e 62
        E 0 97 46 66
        E 11 97 44 3b
        E 22 87 44 42
        E 220 97 3a 59
        E 116 97 3d 5f
        E 2 97 41 45
        E 2 87 3a 6d
        E 236 87 3d 51
        E 6 87 41 5e
        E 6 97 3a 54
        E 96 97 3d 52
        E 0 97 41 44
        E 156 87 46 58
        E 2 87 2e 66
        E 9 87 22 62
        E 14 87 41 62
        E 15 87 3d 6a
        E 21 87 3a 6f
        E 25 97 2c 62
        E 1 97 20 6b
        E 0 97 44 62
        E 245 97 38 52
        E 118 87 38 78
        E 2 97 3f 59
        E 3 97 3c 45
        E 240 87 3f 5e
        E 0 87 3c 55
        E 0 97 38 59
        E 107 97 3f 52
        E 4 97 3c 4f
        E 9 87 38 71
        E 112 87 44 55
        E 9 87 2c 64
        E 17 87 20 73
        E 11 87 3f 66
        E 5 87 3c 60
        E 54 97 2a 54
        E 0 97 1e 66
        E 2 97 42 5b
        E 260 97 36 5f
        E 108 87 36 4f
        E 26 97 3a 59
        E 0 97 3d 54
        E 239 87 3a 62
        E 0 87 3d 62
        E 0 97 36 54
        E 129 97 3d 5b
        E 0 97 3a 52
        E 49 87 42 51
        E 67 87 3d 61
        E 25 87 36 78
        E 8 87 3a 63
        E 10 87 1e 63
        E 6 87 2a 71
        E 36 97 41 52
        E 12 97 1d 4f
        E 3 97 29 54
        E 260 97 35 56
        E 114 97 3c 4d
        E 4 97 39 4e
        E 9 87 35 63
        E 197 87 3c 5f
        E 2 87 39 53
        E 5 97 35 56
        E 104 87 1d 69
        E 15 b7 40 7f
        E 2 97 39 54
        E 5 97 3c 54
        E 11 87 29 6a
        E 20 87 35 6b
        E 26 87 39 6e
        E 18 87 41 62
        E 7 87 3c 6b
        E 111 b7 40 00
        E 49 97 38 59
        E 18 97 3a 4b
        E 198 97 46 79
        E 0 97 3a 77
        E 0 97 3d 73
        E 0 97 35 5d
        E 12 97 2e 6f
        E 37 87 3a 7d
        E 3 87 3d 7d
        E 28 87 2e 7c
        E 0 87 46 79
        E 0 87 35 6f
        E 571 97 35 54
        E 8 97 2e 6f
        E 0 97 46 75
        E 0 97 3a 73
        E 3 97 3d 6b
        E 46 87 3a 73
        E 5 87 3d 78
        E 0 87 2e 78
        E 9 87 46 79
        E 0 87 35 6f
        E 670 97 3a 73
        E 0 97 46 75
        E 11 97 3d 62
        E 0 97 35 4f
        E 23 97 2e 33
        E 6 87 3d 79
        E 3 97 2d 45
        E 8 87 3a 7d
        E 14 87 46 77
        E 0 87 2e 66
        E 12 87 35 69
        E 14 87 2d 68
        E 619 97 35 4c
        E 0 97 3a 6d
        E 0 97 46 5f
        E 0 97 2e 49
        E 3 97 3d 5b
        E 3 97 2d 4e
        E 37 87 46 77
        E 5 87 3a 72
        E 0 87 3d 7a
        E 0 87 2d 71
        E 0 87 2e 69
        E 17 87 35 62
        E 441 97 3a 75
        E 0 97 46 6d
        E 5 97 35 4f
        E 0 97 3d 69
        E 0 97 2e 6f
        E 51 87 3a 7d
        E 0 87 3d 70
        E 9 87 46 76
        E 8 87 2e 77
        E 3 87 35 67
        E 261 87 3a 6a
        E 86 87 38 55
        E 34 97 44 77
        E 22 97 3a 54
        E 0 97 37 62
        E 0 97 2e 73
        E 3 97 33 5d
        E 26 97 3a 6d
        E 6 87 3a 69
        E 5 87 44 7f
        E 0 97 3d 59
        E 6 87 33 71
        E 14 87 2e 79
        E 6 87 37 6e
        E 113 87 3a 61
        E 3 87 3d 61
        E 318 97 38 52
        E 6 97 3a 62
        E 253 97 3a 73
        E 0 97 35 5d
        E 0 97 46 75
        E 11 97 3d 69
        E 0 97 2e 73
        E 37 87 3a 6d
        E 11 87 2e 78
        E 0 87 35 69
        E 0 87 46 78
        E 0 87 3d 72
        E 600 97 3a 73
        E 0 97 46 6f
        E 8 97 3d 66
        E 0 97 35 4f
        E 6 97 2e 6f
        E 37 87 3a 77
        E 17 87 46 76
        E 0 87 3d 79
        E 8 87 2e 75
        E 9 87 35 70
        E 659 97 46 73
        E 0 97 3d 73
        E 0 97 3a 6f
        E 14 97 35 4f
        E 0 97 2e 6d
        E 40 87 3a 71
        E 8 87 3d 7a
        E 3 87 46 79
        E 9 87 2e 79
        E 5 87 35 66
        E 608 97 46 6f
        E 0 97 3a 6f
        E 0 97 35 52
        E 0 97 2e 6d
        E 0 97 3d 62
        E 48 87 3d 6e
        E 3 87 3a 7a
        E 11 87 46 78
        E 0 87 2e 77
        E 18 87 35 6f
        E 406 97 3a 6f
        E 8 97 3d 69
        E 9 97 35 5b
        E 8 97 2e 54
        E 20 97 2d 49
        E 6 97 45 2c
        E 14 87 3a 70
        E 0 87 3d 7d
        E 14 87 45 4c
        E 0 87 2e 5b
        E 6 87 35 6f
        E 0 87 2d 67
        E 264 87 3a 60
        E 85 87 38 4a
        E 14 97 3a 6d
        E 0 97 43 4f
        E 0 97 3f 66
        E 0 97 37 5f
        E 0 97 2e 75
        E 0 97 33 62
        E 54 87 3a 79
        E 9 87 2e 6e
        E 0 87 33 58
        E 3 87 37 6e
        E 0 87 43 63
        E 0 87 3f 79
        E 8 97 3a 69
        E 12 97 3d 4e
        E 142 87 3a 63
        E 5 87 3d 61
        E 333 97 38 54
        E 2 97 3a 5f
        E 239 97 41 59
        E 0 97 3d 73
        E 0 97 46 6b
        E 8 97 3a 6f
        E 12 97 2e 6b
        E 40 87 3d 77
        E 11 87 46 76
        E 14 87 2e 79
        E 0 87 3a 79
        E 14 87 41 6b
        E 608 97 3d 6f
        E 0 97 46 6b
        E 0 97 41 5d
        E 3 97 3a 6b
        E 6 97 2e 66
        E 48 87 3d 76
        E 11 87 46 75
        E 9 87 3a 77
        E 8 87 2e 7a
        E 12 87 41 68
        E 641 97 3d 6f
        E 0 97 46 6b
        E 0 97 41 5d
        E 0 97 3a 6d
        E 3 97 2e 6b
        E 57 87 3d 70
        E 20 87 46 72
        E 9 87 3a 77
        E 8 87 2e 76
        E 17 87 41 68
        E 545 97 3d 69
        E 3 97 41 4f
        E 0 97 46 5f
        E 3 97 3a 69
        E 0 97 2e 66
        E 68 87 3d 6a
        E 17 87 46 68
        E 9 87 3a 70
        E 11 87 2e 6f
        E 17 87 41 64
        E 338 97 3d 6d
        E 0 97 46 5d
        E 0 97 3a 6b
        E 0 97 41 4e
        E 0 97 2e 73
        E 77 87 46 75
        E 8 87 3a 76
        E 6 87 3d 6b
        E 26 87 2e 76
        E 0 87 41 69
        E 232 87 3a 58
        E 88 87 38 4a
        E 71 97 3f 73
        E 3 97 41 5b
        E 3 97 4b 6d
        E 9 97 33 6d
        E 5 97 27 77
        E 9 97 3a 5f
        E 17 97 3d 47
        E 37 87 4b 7a
        E 11 87 27 7e
        E 3 87 33 78
        E 11 87 3f 5f
        E 20 87 41 62
        E 66 87 3a 59
        E 8 87 3d 57
        E 293 97 38 54
        E 2 97 3a 5d
        E 273 97 3d 73
        E 0 97 41 59
        E 0 97 46 62
        E 29 97 3a 6f
        E 0 97 2e 69
        E 53 87 3d 78
        E 0 87 46 71
        E 15 87 3a 77
        E 14 87 2e 7a
        E 8 87 41 68
        E 577 97 3a 6d
        E 0 97 3d 6d
        E 0 97 46 6b
        E 0 97 41 56
        E 0 97 2e 66
        E 54 87 3d 76
        E 11 87 3a 79
        E 0 87 46 70
        E 6 87 2e 7a
        E 25 87 41 69
        E 563 97 3d 6f
        E 0 97 46 6d
        E 0 97 41 5b
        E 0 97 3a 6d
        E 17 97 2e 6b
        E 45 87 3d 70
        E 26 87 46 71
        E 11 87 3a 76
        E 9 87 2e 73
        E 8 87 41 68
        E 611 97 41 5b
        E 0 97 3d 6f
        E 0 97 3a 6b
        E 0 97 46 6b
        E 0 97 2e 6b
        E 77 87 3d 6a
        E 14 87 3a 70
        E 0 87 46 67
        E 14 87 2e 6d
        E 25 87 41 66
        E 373 97 3a 6b
        E 0 97 3d 6b
        E 0 97 2e 6d
        E 0 97 41 54
        E 0 97 46 62
        E 79 87 3a 7a
        E 0 87 3d 70
        E 3 87 46 75
        E 40 87 2e 79
        E 0 87 41 62
        E 167 87 3a 52
        E 29 87 38 44
        E 181 97 3a 69
        E 3 97 3f 6f
        E 12 97 27 6f
        E 0 97 33 75
        E 2 97 3d 4f
        E 15 97 4b 52
        E 8 97 49 4a
        E 23 87 4b 7e
        E 11 87 49 72
        E 0 87 27 7c
        E 17 87 33 77
        E 12 87 3f 71
        E 42 87 3a 64
        E 17 87 3d 5f
        E 335 97 3a 5f
        E 12 97 3c 4d
        E 213 97 48 62
        E 0 97 37 66
        E 0 97 30 62
        E 0 97 3f 79
        E 0 97 43 5d
        E 76 87 3f 72
        E 15 87 37 6b
        E 0 87 48 6e
        E 8 87 30 70
        E 40 87 43 68
        E 582 97 3f 6b
        E 0 97 48 59
        E 0 97 37 5b
        E 0 97 43 59
        E 0 97 30 64
        E 68 87 3f 78
        E 17 87 48 6f
        E 9 87 37 6f
        E 0 87 30 6e
        E 23 87 43 6d
        E 576 97 48 64
        E 0 97 3f 6f
        E 9 97 43 5f
        E 11 97 37 66
        E 0 97 30 5f
        E 51 87 3f 77
        E 17 87 48 6b
        E 17 87 30 6e
        E 0 87 37 6e
        E 9 87 43 6d
        E 639 97 48 5f
        E 0 97 3f 73
        E 11 97 43 5b
        E 0 97 37 5d
        E 11 97 30 5b
        E 57 87 3f 76
        E 14 87 48 6d
        E 12 87 37 6b
        E 8 87 30 6a
        E 14 87 43 69
        E 364 97 48 56
        E 8 97 3f 6d
        E 0 97 43 5b
        E 0 97 30 59
        E 0 97 37 5d
        E 60 87 3f 73
        E 14 87 48 6d
        E 0 87 37 6f
        E 17 87 30 70
        E 6 87 43 6e
        E 170 87 3a 58
        E 29 87 3c 53
        E 173 97 3f 6f
        E 0 97 43 66
        E 0 97 29 5d
        E 0 97 4b 73
        E 0 97 35 69
        E 23 97 3c 4f
        E 8 97 3f 5d
        E 63 87 3f 6b
        E 0 87 4b 77
        E 0 87 35 68
        E 0 87 29 6f
        E 42 87 43 69
        E 83 87 3c 5f
        E 54 87 3f 57
        E 250 97 3a 5d
        E 0 97 3c 4e
        E 227 97 48 62
        E 3 97 3f 73
        E 0 97 43 5f
        E 11 97 30 62
        E 0 97 37 6b
        E 60 87 3f 7a
        E 11 87 48 68
        E 11 87 30 70
        E 9 87 37 6e
        E 11 87 43 6e
        E 565 97 48 62
        E 0 97 3f 73
        E 0 97 43 5f
        E 0 97 37 62
        E 12 97 30 62
        E 57 87 3f 79
        E 8 87 48 6e
        E 17 87 30 70
        E 0 87 37 6b
        E 12 87 43 6e
        E 599 97 48 62
        E 5 97 3f 73
        E 0 97 43 5f
        E 12 97 37 64
        E 0 97 30 5f
        E 57 87 3f 77
        E 17 87 48 6e
        E 8 87 30 72
        E 0 87 37 6d
        E 20 87 43 6e
        E 599 97 48 5f
        E 0 97 3f 6f
        E 0 97 37 5f
        E 0 97 43 5f
        E 0 97 30 5b
        E 60 87 3f 75
        E 14 87 48 6f
        E 11 87 37 68
        E 0 87 30 6f
        E 15 87 43 6b
        E 397 97 48 59
        E 0 97 37 5d
        E 0 97 30 5b
        E 0 97 3f 6b
        E 0 97 43 56
        E 71 87 3f 73
        E 6 87 48 6f
        E 11 87 37 6a
        E 9 87 30 70
        E 6 87 43 6d
        E 144 87 3a 5e
        E 17 87 3c 54
        E 205 97 3f 6d
        E 6 97 29 69
        E 0 97 43 45
        E 0 97 35 66
        E 0 97 4b 6d
        E 0 97 29 69
        E 36 97 3c 52
        E 3 87 43 6f
        E 0 97 3f 5b
        E 34 87 35 70
        E 15 87 3f 79
        E 28 87 29 61
        E 0 87 29 61
        E 3 87 4b 68
        E 96 87 3c 5f
        E 20 87 3f 59
        E 279 97 3c 4a
        E 11 97 3a 59
        E 193 97 43 6d
        E 0 97 48 71
        E 0 97 30 64
        E 0 97 4f 6f
        E 0 97 4b 6f
        E 0 97 24 75
        E 63 87 43 6b
        E 0 87 48 63
        E 0 87 4b 7a
        E 0 87 24 70
        E 0 87 30 72
        E 0 87 4f 6d
        E 624 97 43 66
        E 0 97 4f 71
        E 0 97 48 75
        E 0 97 24 62
        E 0 97 30 69
        E 0 97 4b 62
        E 63 87 43 6d
        E 6 87 4f 6a
        E 0 87 4b 71
        E 0 87 48 6f
        E 2 87 30 72
        E 0 87 24 6d
        E 639 97 43 69
        E 0 97 48 75
        E 0 97 4f 73
        E 0 97 30 66
        E 0 97 4b 69
        E 20 97 24 52
        E 0 97 23 4f
        E 40 87 43 6d
        E 0 87 48 71
        E 0 87 23 63
        E 0 87 4b 4a
        E 14 87 4f 69
        E 0 87 30 62
        E 12 87 24 6b
        E 664 97 43 69
        E 0 97 24 62
        E 0 97 4f 6f
        E 0 97 48 6d
        E 0 97 30 64
        E 0 97 4b 66
        E 51 87 48 6a
        E 6 87 4b 59
        E 11 87 4f 6b
        E 0 87 43 6b
        E 9 87 24 70
        E 0 87 30 6f
        E 403 97 43 64
        E 0 97 48 71
        E 0 97 4f 6f
        E 3 97 24 6d
        E 0 97 30 62
        E 60 87 43 68
        E 0 87 48 70
        E 8 87 4f 70
        E 6 87 30 70
        E 0 87 24 71
        E 238 87 3c 53
        E 29 87 3a 58
        E 119 97 45 54
        E 6 97 4b 73
        E 0 97 48 4b
        E 11 97 29 69
        E 6 97 35 62
        E 31 87 48 72
        E 6 97 3c 4f
        E 11 97 3f 59
        E 17 87 45 69
        E 11 87 35 70
        E 20 87 29 68
        E 0 87 4b 76
        E 120 87 3f 59
        E 0 87 3c 5c
        E 295 97 3c 4e
        E 3 97 3a 5d
        E 258 97 43 6b
        E 0 97 48 73
        E 0 97 4f 6f
        E 0 97 30 69
        E 0 97 4b 66
        E 0 97 24 73
        E 54 87 48 66
        E 0 87 4b 61
        E 3 87 43 6d
        E 14 87 4f 6f
        E 3 87 24 73
        E 0 87 30 70
        E 636 97 43 71
        E 0 97 48 73
        E 0 97 4f 71
        E 0 97 4b 66
        E 6 97 24 5f
        E 0 97 30 69
        E 57 87 43 6d
        E 0 87 48 6b
        E 0 87 4f 70
        E 0 87 4b 5b
        E 28 87 30 72
        E 6 87 24 6e
        E 605 97 43 6b
        E 0 97 48 73
        E 0 97 4f 71
        E 0 97 4b 6b
        E 0 97 24 62
        E 0 97 30 6b
        E 62 87 43 6d
        E 0 87 48 69
        E 0 87 4f 62
        E 0 87 4b 71
        E 17 87 30 70
        E 9 87 24 6d
        E 562 97 43 64
        E 0 97 48 6d
        E 0 97 4f 6b
        E 0 97 4b 69
        E 20 97 24 64
        E 0 97 30 5f
        E 51 87 43 6a
        E 0 87 48 6a
        E 0 87 4f 6e
        E 0 87 4b 70
        E 26 87 24 70
        E 0 87 30 71
        E 397 97 24 69
        E 0 97 30 66
        E 0 97 43 66
        E 0 97 48 73
        E 0 97 4f 6b
        E 85 87 24 6a
        E 0 87 30 6f
        E 0 87 43 6d
        E 0 87 48 6b
        E 12 87 4f 5e
        E 170 87 3a 5e
        E 12 87 3c 5b
        E 241 97 45 5f
        E 3 97 48 69
        E 0 97 4d 5b
        E 0 97 35 66
        E 0 97 29 71
        E 17 97 3c 52
        E 23 97 3f 5b
        E 122 87 35 35
        E 37 87 48 4b
        E 14 87 29 5c
        E 22 97 48 42
        E 0 97 4b 6f
        E 32 87 4d 57
        E 31 87 48 60
        E 6 87 3f 60
        E 11 87 45 6a
        E 3 87 3c 60
        E 25 87 4b 7c
        E 195 b7 44 7f
        E 0 97 48 56
        E 0 97 43 45
        E 0 97 3c 4f
        E 0 97 30 52
        E 93 97 23 71
        E 4 97 2f 62
        E 127 87 23 52
        E 51 87 2f 5a
        E 205 97 54 66
        E 60 97 52 5d
        E 15 87 54 51
        E 45 97 50 5d
        E 15 87 52 5c
        E 45 97 4f 5d
        E 15 87 50 5e
        E 35 b7 44 00
        E 10 97 48 64
        E 15 87 4f 55
        E 91 87 30 66
        E 20 87 3c 64
        E 11 87 43 5f
        E 97 87 48 62
        E 6 b7 44 7f
        E 0 87 48 59
        E 0 97 41 4a
        E 0 97 3a 52
        E 0 97 46 5d
        E 0 97 2e 62
        E 480 97 52 66
        E 60 97 50 5d
        E 15 87 52 55
        E 45 97 4f 5d
        E 15 87 50 61
        E 45 97 4d 5d
        E 15 87 4f 59
        E 35 b7 44 00
        E 10 97 46 64
        E 15 87 4d 62
        E 172 87 41 61
        E 13 87 2e 66
        E 2 87 3a 66
        E 38 b7 44 7f
        E 0 87 46 60
        E 0 97 3f 5b
        E 0 97 44 62
        E 0 97 38 59
        E 0 97 2c 66
        E 25 87 46 58
        E 455 97 50 66
        E 60 97 4f 5d
        E 15 87 50 59
        E 45 97 4d 5d
        E 15 87 4f 52
        E 45 97 4b 5d
        E 15 87 4d 43
        E 35 b7 44 00
        E 10 97 44 64
        E 15 87 4b 6e
        E 135 87 3f 76
        E 11 87 2c 6b
        E 11 87 38 71
        E 46 87 44 52
        E 22 b7 44 7f
        E 0 87 44 5b
        E 0 97 43 4e
        E 0 97 3e 4e
        E 0 97 37 56
        E 0 97 2b 62
        E 480 97 4f 66
        E 60 97 4d 5d
        E 15 87 4f 54
        E 45 97 4b 5d
        E 15 87 4d 36
        E 45 97 4a 5d
        E 15 87 4b 5a
        E 35 b7 44 00
        E 10 97 43 64
        E 15 87 4a 48
        E 139 87 2b 62
        E 29 87 37 60
        E 39 87 43 69
        E 18 b7 44 7f
        E 0 87 43 57
        E 0 97 48 5f
        E 0 97 43 52
        E 0 97 30 5b
        E 0 97 3c 59
        E 46 87 3e 55
        E 434 97 54 66
        E 60 97 52 5d
        E 15 87 54 51
        E 45 97 50 5d
        E 15 87 52 5c
        E 45 97 4f 5d
        E 15 87 50 5e
        E 35 b7 44 00
        E 10 97 48 64
        E 15 87 4f 55
        E 80 87 30 60
        E 12 87 3c 5c
        E 80 87 48 58
        E 25 87 43 62
        E 28 b7 44 7f
        E 0 87 48 59
        E 0 97 41 49
        E 0 97 46 54
        E 0 97 3a 54
        E 0 97 2e 66
        E 480 97 52 66
        E 60 97 50 5d
        E 15 87 52 55
        E 45 97 4f 5d
        E 15 87 50 61
        E 45 97 4d 5d
        E 15 87 4f 59
        E 35 b7 44 00
        E 10 97 46 64
        E 15 87 4d 62
        E 122 87 41 5b
        E 26 87 3a 69
        E 5 87 2e 70
        E 72 b7 44 7f
        E 0 87 46 60
        E 0 97 44 5f
        E 0 97 3f 54
        E 0 97 2c 69
        E 0 97 38 5b
        E 19 87 46 61
        E 461 97 50 66
        E 60 97 4f 5d
        E 15 87 50 59
        E 45 97 4d 5d
        E 15 87 4f 52
        E 45 97 4b 5d
        E 15 87 4d 43
        E 35 b7 44 00
        E 10 97 44 64
        E 15 87 4b 6e
        E 114 87 3f 61
        E 34 87 2c 63
        E 0 87 38 75
        E 45 87 44 70
        E 32 b7 44 7f
        E 0 87 44 5b
        E 0 97 43 4f
        E 0 97 3e 4f
        E 0 97 37 5b
        E 0 97 2b 64
        E 480 97 4f 66
        E 60 97 4d 5d
        E 15 87 4f 54
        E 45 97 4b 5d
        E 15 87 4d 36
        E 45 97 4a 5d
        E 15 87 4b 5a
        E 35 b7 44 00
        E 10 97 43 64
        E 15 87 4a 48
        E 87 87 2b 66
        E 22 87 37 5b
        E 54 87 43 67
        E 62 b7 44 7f
        E 0 87 43 57
        E 0 97 43 52
        E 0 97 48 5b
        E 0 97 3c 54
        E 0 97 30 56
        E 31 87 3e 5a
        E 449 97 54 66
        E 60 97 52 5d
        E 15 87 54 51
        E 45 97 50 5d
        E 15 87 52 5c
        E 45 97 4f 5d
        E 15 87 50 5e
        E 35 b7 44 00
        E 10 97 48 64
        E 15 87 4f 55
        E 113 87 30 60
        E 4 87 3c 5f
        E 103 87 48 5c
        E 5 b7 44 7f
        E 0 87 48 59
        E 0 97 41 4b
        E 0 97 46 52
        E 0 97 3a 5d
        E 0 97 2e 62
        E 33 87 43 61
        E 447 97 52 66
        E 60 97 50 5d
        E 15 87 52 55
        E 45 97 4f 5d
        E 15 87 50 61
        E 45 97 4d 5d
        E 15 87 4f 59
        E 35 b7 44 00
        E 10 97 46 64
        E 15 87 4d 62
        E 100 87 41 5a
        E 32 87 3a 62
        E 3 87 2e 71
        E 86 87 46 5b
        E 4 b7 44 7f
        E 0 87 46 60
        E 0 97 3f 59
        E 0 97 44 5d
        E 0 97 38 54
        E 0 97 2c 6b
        E 480 97 50 66
        E 60 97 4f 5d
        E 15 87 50 59
        E 45 97 4d 5d
        E 15 87 4f 52
        E 45 97 4b 5d
        E 15 87 4d 43
        E 35 b7 44 00
        E 10 97 44 64
        E 15 87 4b 6e
        E 147 87 3f 76
        E 0 87 2c 6b
        E 11 87 38 78
        E 17 87 44 61
        E 50 b7 44 7f
        E 0 87 44 5b
        E 0 97 3e 52
        E 0 97 43 5f
        E 0 97 37 59
        E 0 97 2b 62
        E 480 97 4f 66
        E 60 97 4d 5d
        E 15 87 4f 54
        E 45 97 4b 5d
        E 15 87 4d 36
        E 45 97 4a 5d
        E 15 87 4b 5a
        E 35 b7 44 00
        E 10 97 43 64
        E 15 87 4a 48
        E 108 87 2b 61
        E 35 87 37 5e
        E 60 87 43 67
        E 22 b7 44 7f
        E 0 87 43 57
        E 0 97 48 5b
        E 0 97 43 52
        E 0 97 3c 59
        E 0 97 30 56
        E 61 87 3e 51
        E 419 97 54 66
        E 60 97 52 5d
        E 15 87 54 51
        E 45 97 50 5d
        E 15 87 52 5c
        E 45 97 4f 5d
        E 15 87 50 5e
        E 35 b7 44 00
        E 10 97 48 64
        E 15 87 4f 55
        E 92 87 30 61
        E 3 87 3c 60
        E 119 87 48 58
        E 2 87 43 64
        E 9 b7 44 7f
        E 0 87 48 59
        E 0 97 41 4f
        E 0 97 46 5b
        E 0 97 3a 59
        E 0 97 2e 62
        E 480 97 52 66
        E 60 97 50 5d
        E 15 87 52 55
        E 45 97 4f 5d
        E 15 87 50 61
        E 45 97 4d 5d
        E 15 87 4f 59
        E 35 b7 44 00
        E 10 97 46 64
        E 15 87 4d 62
        E 94 87 41 5f
        E 13 87 3a 67
        E 7 87 2e 6d
        E 103 87 46 60
        E 8 b7 44 7f
        E 0 87 46 60
        E 0 97 3f 5d
        E 0 97 44 5d
        E 0 97 38 5f
        E 0 97 2c 66
        E 480 97 50 66
        E 60 97 4f 5d
        E 15 87 50 59
        E 45 97 4d 5d
        E 15 87 4f 52
        E 45 97 4b 5d
        E 15 87 4d 43
        E 35 b7 44 00
        E 10 97 44 64
        E 15 87 4b 6e
        E 154 87 3f 70
        E 4 87 2c 69
        E 9 87 38 70
        E 41 87 44 4f
        E 17 b7 44 7f
        E 0 87 44 5b
        E 0 97 43 52
        E 0 97 3e 54
        E 0 97 2b 66
        E 0 97 37 5d
        E 480 97 4f 66
        E 60 97 4d 5d
        E 15 87 4f 54
        E 45 97 4b 5d
        E 15 87 4d 36
        E 45 97 4a 5d
        E 15 87 4b 5a
        E 35 b7 44 00
        E 10 97 43 64
        E 15 87 4a 48
        E 99 87 2b 62
        E 33 87 37 61
        E 38 87 43 66
        E 55 b7 44 7f
        E 0 87 43 57
        E 0 97 48 59
        E 0 97 43 4e
        E 0 97 30 54
        E 0 97 3c 56
        E 35 87 3e 52
        E 445 97 54 66
        E 60 97 52 5d
        E 15 87 54 51
        E 45 97 50 5d
        E 15 87 52 5c
        E 45 97 4f 5d
        E 15 87 50 5e
        E 35 b7 44 00
        E 10 97 48 64
        E 15 87 4f 55
        E 128 87 30 6a
        E 4 87 3c 62
        E 93 b7 44 7f
        E 0 87 48 59
        E 0 97 41 4d
        E 0 97 46 5b
        E 0 97 3a 5d
        E 0 97 2e 69
        E 4 87 43 68
        E 1 87 48 53
        E 475 97 52 66
        E 60 97 50 5d
        E 15 87 52 55
        E 45 97 4f 5d
        E 15 87 50 61
        E 45 97 4d 5d
        E 15 87 4f 59
        E 35 b7 44 00
        E 10 97 46 64
        E 15 87 4d 62
        E 111 87 41 61
        E 34 87 2e 7c
        E 4 87 3a 60
        E 48 87 46 6e
        E 28 b7 44 7f
        E 0 87 46 60
        E 0 97 3f 62
        E 0 97 44 5d
        E 0 97 38 5f
        E 0 97 2c 69
        E 480 97 50 66
        E 60 97 4f 5d
        E 15 87 50 59
        E 45 97 4d 5d
        E 15 87 4f 52
        E 45 97 4b 5d
        E 15 87 4d 43
        E 35 b7 44 00
        E 10 97 44 64
        E 15 87 4b 6e
        E 161 87 3f 69
        E 2 87 2c 60
        E 3 87 38 73
        E 50 87 44 67
        E 9 b7 44 7f
        E 0 87 44 5b
        E 0 97 43 5b
        E 0 97 3e 52
        E 0 97 2b 62
        E 0 97 37 62
        E 480 97 4f 66
        E 60 97 4d 5d
        E 15 87 4f 54
        E 45 97 4b 5d
        E 15 87 4d 36
        E 45 97 4a 5d
        E 15 87 4b 5a
        E 35 b7 44 00
        E 10 97 43 64
        E 15 87 4a 48
        E 112 87 2b 64
        E 23 87 37 60
        E 30 87 43 69
        E 60 b7 44 7f
        E 0 87 43 57
        E 0 97 48 56
        E 0 97 43 4f
        E 0 97 3c 59
        E 0 97 30 5d
        E 19 87 3e 59
        E 461 97 54 66
        E 60 97 52 5d
        E 15 87 54 51
        E 45 97 50 5d
        E 15 87 52 5c
        E 45 97 4f 5d
        E 15 87 50 5e
        E 35 b7 44 00
        E 10 97 48 64
        E 15 87 4f 55
        E 126 87 30 64
        E 5 87 3c 61
        E 94 b7 44 7f
        E 0 87 48 59
        E 0 87 48 59
        E 0 97 3a 5b
        E 0 97 41 52
        E 0 97 46 5b
        E 0 97 2e 66
        E 20 87 43 68
        E 460 97 52 66
        E 60 97 50 5d
        E 15 87 52 55
        E 45 97 4f 5d
        E 15 87 50 61
        E 45 97 4d 5d
        E 15 87 4f 59
        E 35 b7 44 00
        E 10 97 46 64
        E 15 87 4d 62
        E 96 87 41 5f
        E 18 87 3a 64
        E 7 87 2e 69
        E 65 87 46 48
        E 39 b7 44 7f
        E 0 87 46 60
        E 0 97 3f 5d
        E 0 97 38 52
        E 0 97 44 5f
        E 0 97 2c 66
        E 480 97 50 66
        E 60 97 4f 5d
        E 15 87 50 59
        E 45 97 4d 5d
        E 15 87 4f 52
        E 45 97 4b 5d
        E 15 87 4d 43
        E 35 b7 44 00
        E 10 97 44 64
        E 15 87 4b 6e
        E 179 87 44 6a
        E 5 87 3f 76
        E 2 87 2c 6a
        E 8 87 38 75
        E 31 b7 44 7f
        E 0 87 44 5b
        E 0 97 43 5d
        E 0 97 3e 4f
        E 0 97 37 5b
        E 0 97 2b 69
        E 480 97 4f 66
        E 60 97 4d 5d
        E 15 87 4f 54
        E 45 97 4b 5d
        E 15 87 4d 36
        E 45 97 4a 5d
        E 15 87 4b 5a
        E 35 b7 44 00
        E 10 97 43 64
        E 15 87 4a 48
        E 194 97 3c 5f
        E 6 97 30 52
        E 25 87 43 57
        E 19 87 43 6d
        E 1 87 2b 6b
        E 2 87 37 69
        E 3 87 3e 67
        E 95 97 48 4d
        E 0 97 43 47
        E 0 97 54 4c
        E 120 87 48 57
        E 0 87 54 57
        E 0 87 43 5a
        E 0 97 48 52
        E 0 97 43 49
        E 0 97 56 4d
        E 120 87 48 59
        E 0 87 56 51
        E 0 87 43 57
        E 0 97 43 4d
        E 0 97 48 59
        E 0 97 57 62
        E 120 87 43 54
        E 0 87 57 54
        E 0 87 48 5a
        E 0 97 48 5b
        E 0 97 43 4b
        E 0 97 56 52
        E 120 87 48 51
        E 0 87 56 51
        E 0 87 43 54
        E 0 97 48 59
        E 0 97 43 4a
        E 0 97 54 4e
        E 120 87 48 55
        E 0 87 54 57
        E 0 87 43 58
        E 0 97 43 4c
        E 0 97 48 5b
        E 0 97 57 62
        E 120 87 43 59
        E 0 87 57 63
        E 0 87 48 5e
        E 0 97 43 4d
        E 0 97 48 5f
        E 0 97 54 4d
        E 91 97 3a 6b
        E 5 97 2e 66
        E 19 87 30 5f
        E 0 87 3c 61
        E 5 87 48 5b
        E 0 87 54 57
        E 0 87 43 57
        E 120 97 46 56
        E 0 97 41 4d
        E 0 97 54 52
        E 120 87 46 57
        E 0 87 54 52
        E 0 87 41 58
        E 0 97 41 4b
        E 0 97 46 59
        E 0 97 56 4e
        E 120 87 41 59
        E 0 87 56 50
        E 0 87 46 58
        E 0 97 46 5b
        E 0 97 41 4b
        E 0 97 57 66
        E 120 87 46 57
        E 0 87 57 60
        E 0 87 41 57
        E 0 97 46 59
        E 0 97 41 4c
        E 0 97 56 54
        E 120 87 46 58
        E 0 87 56 58
        E 0 87 41 57
        E 0 97 41 4c
        E 0 97 46 56
        E 0 97 54 4d
        E 120 87 41 5a
        E 0 87 54 59
        E 0 87 46 59
        E 0 97 46 56
        E 0 97 41 4b
        E 0 97 57 66
        E 120 87 46 58
        E 0 87 57 62
        E 0 87 41 59
        E 0 97 46 59
        E 0 97 41 4b
        E 0 97 54 4e
        E 110 97 38 6b
        E 4 97 2c 62
        E 6 87 3a 69
        E 0 87 41 55
        E 0 87 54 4f
        E 0 87 46 58
        E 13 87 2e 5b
        E 107 97 44 56
        E 0 97 3f 49
        E 0 97 54 54
        E 120 87 44 54
        E 0 87 54 5b
        E 0 87 3f 58
        E 0 97 44 52
        E 0 97 3f 49
        E 0 97 56 54
        E 120 87 44 54
        E 0 87 56 55
        E 0 87 3f 57
        E 0 97 3f 4d
        E 0 97 44 56
        E 0 97 57 66
        E 120 87 3f 5a
        E 0 87 57 61
        E 0 87 44 53
        E 0 97 44 59
        E 0 97 3f 47
        E 0 97 56 52
        E 120 87 44 55
        E 0 87 56 57
        E 0 87 3f 57
        E 0 97 3f 4b
        E 0 97 44 56
        E 0 97 54 54
        E 120 87 3f 5a
        E 0 87 54 5b
        E 0 87 44 53
        E 0 97 3f 4b
        E 0 97 44 59
        E 0 97 57 69
        E 120 87 3f 5a
        E 0 87 57 62
        E 0 87 44 55
        E 0 97 44 5b
        E 0 97 3f 4d
        E 0 97 54 52
        E 84 87 38 79
        E 5 97 2b 59
        E 0 97 37 5f
        E 23 87 2c 75
        E 8 87 54 5b
        E 0 87 3f 58
        E 0 87 44 5b
        E 120 97 43 4f
        E 0 97 3e 47
        E 0 97 57 6b
        E 120 87 43 53
        E 0 87 57 69
        E 0 87 3e 57
        E 0 97 43 56
        E 0 97 3e 47
        E 0 97 57 69
        E 120 87 43 5b
        E 0 87 57 70
        E 0 87 3e 5a
        E 120 97 43 4f
        E 0 97 3e 3a
        E 0 97 57 6b
        E 120 87 43 43
        E 0 87 57 67
        E 0 87 3e 54
        E 0 97 43 54
        E 0 97 3e 47
        E 0 97 57 62
        E 120 87 43 58
        E 0 87 57 6d
        E 0 87 3e 58
        E 0 97 43 56
        E 0 97 3e 4b
        E 0 97 57 6b
        E 120 87 43 53
        E 0 87 57 69
        E 0 87 3e 54
        E 0 97 47 54
        E 0 97 43 46
        E 0 97 56 5b
        E 73 97 3c 5f
        E 2 87 2b 69
        E 7 97 30 52
        E 7 87 37 58
        E 31 87 43 59
        E 0 87 56 64
        E 0 87 47 57
        E 120 97 48 4d
        E 0 97 43 47
        E 0 97 54 4c
        E 120 87 48 57
        E 0 87 54 57
        E 0 87 43 5a
        E 0 97 48 52
        E 0 97 43 49
        E 0 97 56 4d
        E 120 87 48 59
        E 0 87 56 51
        E 0 87 43 57
        E 0 97 43 4d
        E 0 97 48 59
        E 0 97 57 62
        E 120 87 43 54
        E 0 87 57 54
        E 0 87 48 5a
        E 0 97 48 5b
        E 0 97 43 4b
        E 0 97 56 52
        E 120 87 48 51
        E 0 87 56 51
        E 0 87 43 54
        E 0 97 48 59
        E 0 97 43 4a
        E 0 97 54 4e
        E 120 87 48 55
        E 0 87 54 57
        E 0 87 43 58
        E 0 97 43 4c
        E 0 97 48 5b
        E 0 97 57 62
        E 120 87 43 59
        E 0 87 57 63
        E 0 87 48 5e
        E 0 97 43 4d
        E 0 97 48 5f
        E 0 97 54 4d
        E 106 97 3a 66
        E 4 97 2e 5d
        E 10 87 43 57
        E 0 87 48 5b
        E 0 87 54 57
        E 16 87 30 59
        E 0 87 3c 5f
        E 104 97 46 56
        E 0 97 41 4d
        E 0 97 54 52
        E 120 87 46 57
        E 0 87 54 52
        E 0 87 41 58
        E 0 97 41 4b
        E 0 97 46 59
        E 0 97 56 4e
        E 120 87 41 59
        E 0 87 56 50
        E 0 87 46 58
        E 0 97 46 5b
        E 0 97 41 4b
        E 0 97 57 66
        E 120 87 46 57
        E 0 87 57 60
        E 0 87 41 57
        E 0 97 46 59
        E 0 97 41 4c
        E 0 97 56 54
        E 120 87 46 58
        E 0 87 56 58
        E 0 87 41 57
        E 0 97 41 4c
        E 0 97 46 56
        E 0 97 54 4d
        E 120 87 41 5a
        E 0 87 54 59
        E 0 87 46 59
        E 0 97 46 56
        E 0 97 41 4b
        E 0 97 57 66
        E 120 87 46 58
        E 0 87 57 62
        E 0 87 41 59
        E 0 97 46 59
        E 0 97 41 4b
        E 0 97 54 4e
        E 103 97 38 66
        E 7 97 2c 66
        E 10 87 3a 5f
        E 0 87 41 55
        E 0 87 54 4f
        E 0 87 46 58
        E 23 87 2e 5c
        E 97 97 44 56
        E 0 97 3f 49
        E 0 97 54 54
        E 120 87 44 54
        E 0 87 54 5b
        E 0 87 3f 58
        E 0 97 44 52
        E 0 97 3f 49
        E 0 97 56 54
        E 120 87 44 54
        E 0 87 56 55
        E 0 87 3f 57
        E 0 97 3f 4d
        E 0 97 44 56
        E 0 97 57 66
        E 120 87 3f 5a
        E 0 87 57 61
        E 0 87 44 53
        E 0 97 44 59
        E 0 97 3f 47
        E 0 97 56 52
        E 120 87 44 55
        E 0 87 56 57
        E 0 87 3f 57
        E 0 97 3f 4b
        E 0 97 44 56
        E 0 97 54 54
        E 120 87 3f 5a
        E 0 87 54 5b
        E 0 87 44 53
        E 0 97 3f 4b
        E 0 97 44 59
        E 0 97 57 69
        E 120 87 3f 5a
        E 0 87 57 62
        E 0 87 44 55
        E 0 97 44 5b
        E 0 97 3f 4d
        E 0 97 54 52
        E 92 87 38 76
        E 6 97 37 5d
        E 0 97 2b 52
        E 16 87 2c 6a
        E 6 87 54 5b
        E 0 87 3f 58
        E 0 87 44 5b
        E 120 97 43 4f
        E 0 97 3e 47
        E 0 97 57 6b
        E 120 87 43 53
        E 0 87 57 69
        E 0 87 3e 57
        E 0 97 43 56
        E 0 97 3e 47
        E 0 97 57 69
        E 120 87 43 5b
        E 0 87 57 70
        E 0 87 3e 5a
        E 120 97 43 4f
        E 0 97 3e 3a
        E 0 97 57 6b
        E 120 87 43 43
        E 0 87 57 67
        E 0 87 3e 54
        E 0 97 43 54
        E 0 97 3e 47
        E 0 97 57 62
        E 120 87 43 58
        E 0 87 57 6d
        E 0 87 3e 58
        E 0 97 43 56
        E 0 97 3e 4b
        E 0 97 57 6b
        E 120 87 43 53
        E 0 87 57 69
        E 0 87 3e 54
        E 0 97 47 54
        E 0 97 43 46
        E 0 97 56 5b
        E 87 97 3c 5f
        E 3 97 30 4b
        E 5 87 2b 61
        E 3 87 37 5a
        E 22 87 43 59
        E 0 87 56 64
        E 0 87 47 57
        E 120 97 48 4d
        E 0 97 43 47
        E 0 97 54 4c
        E 120 87 48 57
        E 0 87 54 57
        E 0 87 43 5a
        E 0 97 48 52
        E 0 97 43 49
        E 0 97 56 4d
        E 120 87 48 59
        E 0 87 56 51
        E 0 87 43 57
        E 0 97 43 4d
        E 0 97 48 59
        E 0 97 57 62
        E 120 87 43 54
        E 0 87 57 54
        E 0 87 48 5a
        E 0 97 48 5b
        E 0 97 43 4b
        E 0 97 56 52
        E 120 87 48 51
        E 0 87 56 51
        E 0 87 43 54
        E 0 97 48 59
        E 0 97 43 4a
        E 0 97 54 4e
        E 120 87 48 55
        E 0 87 54 57
        E 0 87 43 58
        E 0 97 43 4c
        E 0 97 48 5b
        E 0 97 57 62
        E 120 87 43 59
        E 0 87 57 63
        E 0 87 48 5e
        E 0 97 43 4d
        E 0 97 48 5f
        E 0 97 54 4d
        E 80 97 3a 6b
        E 4 97 2e 66
        E 19 87 30 60
        E 7 87 3c 60
        E 10 87 48 5b
        E 0 87 54 57
        E 0 87 43 57
        E 120 97 46 56
        E 0 97 41 4d
        E 0 97 54 52
        E 120 87 46 57
        E 0 87 54 52
        E 0 87 41 58
        E 0 97 41 4b
        E 0 97 46 59
        E 0 97 56 4e
        E 120 87 41 59
        E 0 87 56 50
        E 0 87 46 58
        E 0 97 46 5b
        E 0 97 41 4b
        E 0 97 57 66
        E 120 87 46 57
        E 0 87 57 60
        E 0 87 41 57
        E 0 97 46 59
        E 0 97 41 4c
        E 0 97 56 54
        E 120 87 46 58
        E 0 87 56 58
        E 0 87 41 57
        E 0 97 41 4c
        E 0 97 46 56
        E 0 97 54 4d
        E 120 87 41 5a
        E 0 87 54 59
        E 0 87 46 59
        E 0 97 46 56
        E 0 97 41 4b
        E 0 97 57 66
        E 120 87 46 58
        E 0 87 57 62
        E 0 87 41 59
        E 0 97 46 59
        E 0 97 41 4b
        E 0 97 54 4e
        E 107 97 38 69
        E 1 97 2c 66
        E 1 87 3a 5c
        E 11 87 41 55
        E 0 87 54 4f
        E 0 87 46 58
        E 12 87 2e 6d
        E 108 97 44 56
        E 0 97 3f 49
        E 0 97 54 54
        E 120 87 44 54
        E 0 87 54 5b
        E 0 87 3f 58
        E 0 97 44 52
        E 0 97 3f 49
        E 0 97 56 54
        E 120 87 44 54
        E 0 87 56 55
        E 0 87 3f 57
        E 0 97 3f 4d
        E 0 97 44 56
        E 0 97 57 66
        E 120 87 3f 5a
        E 0 87 57 61
        E 0 87 44 53
        E 0 97 44 59
        E 0 97 3f 47
        E 0 97 56 52
        E 120 87 44 55
        E 0 87 56 57
        E 0 87 3f 57
        E 0 97 3f 4b
        E 0 97 44 56
        E 0 97 54 54
        E 120 87 3f 5a
        E 0 87 54 5b
        E 0 87 44 53
        E 0 97 3f 4b
        E 0 97 44 59
        E 0 97 57 69
        E 120 87 3f 5a
        E 0 87 57 62
        E 0 87 44 55
        E 0 97 44 5b
        E 0 97 3f 4d
        E 0 97 54 52
        E 70 87 38 79
        E 5 97 37 5b
        E 8 97 2b 56
        E 20 87 2c 73
        E 17 87 54 5b
        E 0 87 3f 58
        E 0 87 44 5b
        E 120 97 43 4f
        E 0 97 3e 47
        E 0 97 57 6b
        E 120 87 43 53
        E 0 87 57 69
        E 0 87 3e 57
        E 0 97 43 56
        E 0 97 3e 47
        E 0 97 57 69
        E 120 87 43 5b
        E 0 87 57 70
        E 0 87 3e 5a
        E 120 97 43 4f
        E 0 97 3e 3a
        E 0 97 57 6b
        E 120 87 43 43
        E 0 87 57 67
        E 0 87 3e 54
        E 0 97 43 54
        E 0 97 3e 47
        E 0 97 57 62
        E 120 87 43 58
        E 0 87 57 6d
        E 0 87 3e 58
        E 0 97 43 56
        E 0 97 3e 4b
        E 0 97 57 6b
        E 120 87 43 53
        E 0 87 57 69
        E 0 87 3e 54
        E 0 97 47 54
        E 0 97 43 46
        E 0 97 56 5b
        E 96 87 2b 64
        E 0 97 3c 5d
        E 4 97 30 52
        E 3 87 37 58
        E 17 87 56 64
        E 0 87 43 59
        E 0 87 47 57
        E 120 97 48 4d
        E 0 97 43 47
        E 0 97 54 4c
        E 120 87 48 57
        E 0 87 54 57
        E 0 87 43 5a
        E 0 97 48 52
        E 0 97 43 49
        E 0 97 56 4d
        E 120 87 48 59
        E 0 87 56 51
        E 0 87 43 57
        E 0 97 43 4d
        E 0 97 48 59
        E 0 97 57 62
        E 120 87 43 54
        E 0 87 57 54
        E 0 87 48 5a
        E 0 97 48 5b
        E 0 97 43 4b
        E 0 97 56 52
        E 120 87 48 51
        E 0 87 56 51
        E 0 87 43 54
        E 0 97 48 59
        E 0 97 43 4a
        E 0 97 54 4e
        E 120 87 48 55
        E 0 87 54 57
        E 0 87 43 58
        E 0 97 43 4c
        E 0 97 48 5b
        E 0 97 57 62
        E 120 87 43 59
        E 0 87 57 63
        E 0 87 48 5e
        E 0 97 43 4d
        E 0 97 48 5f
        E 0 97 54 4d
        E 120 87 43 57
        E 0 87 54 57
        E 0 87 48 5b
        E 2 97 3a 69
        E 6 97 2e 66
        E 20 87 30 60
        E 0 87 3c 60
        E 92 97 46 56
        E 0 97 41 4d
        E 0 97 54 52
        E 120 87 46 57
        E 0 87 54 52
        E 0 87 41 58
        E 0 97 41 4b
        E 0 97 46 59
        E 0 97 56 4e
        E 120 87 41 59
        E 0 87 56 50
        E 0 87 46 58
        E 0 97 46 5b
        E 0 97 41 4b
        E 0 97 57 66
        E 120 87 46 57
        E 0 87 57 60
        E 0 87 41 57
        E 0 97 46 59
        E 0 97 41 4c
        E 0 97 56 54
        E 120 87 46 58
        E 0 87 56 58
        E 0 87 41 57
        E 0 97 41 4c
        E 0 97 46 56
        E 0 97 54 4d
        E 120 87 41 5a
        E 0 87 54 59
        E 0 87 46 59
        E 0 97 46 56
        E 0 97 41 4b
        E 0 97 57 66
        E 120 87 46 58
        E 0 87 57 62
        E 0 87 41 59
        E 0 97 46 59
        E 0 97 41 4b
        E 0 97 54 4e
        E 110 87 3a 5f
        E 4 97 38 69
        E 5 97 2c 62
        E 1 87 54 4f
        E 0 87 41 55
        E 0 87 46 58
        E 19 87 2e 60
        E 101 97 44 56
        E 0 97 3f 49
        E 0 97 54 54
        E 120 87 44 54
        E 0 87 54 5b
        E 0 87 3f 58
        E 0 97 44 52
        E 0 97 3f 49
        E 0 97 56 54
        E 120 87 44 54
        E 0 87 56 55
        E 0 87 3f 57
        E 0 97 3f 4d
        E 0 97 44 56
        E 0 97 57 66
        E 120 87 3f 5a
        E 0 87 57 61
        E 0 87 44 53
        E 0 97 44 59
        E 0 97 3f 47
        E 0 97 56 52
        E 120 87 44 55
        E 0 87 56 57
        E 0 87 3f 57
        E 0 97 3f 4b
        E 0 97 44 56
        E 0 97 54 54
        E 120 87 3f 5a
        E 0 87 54 5b
        E 0 87 44 53
        E 0 97 3f 4b
        E 0 97 44 59
        E 0 97 57 69
        E 120 87 3f 5a
        E 0 87 57 62
        E 0 87 44 55
        E 0 97 44 5b
        E 0 97 3f 4d
        E 0 97 54 52
        E 80 87 38 78
        E 13 97 37 5b
        E 3 97 2b 56
        E 13 87 2c 61
        E 11 87 54 5b
        E 0 87 3f 58
        E 0 87 44 5b
        E 120 97 43 4f
        E 0 97 3e 47
        E 0 97 57 6b
        E 120 87 43 53
        E 0 87 57 69
        E 0 87 3e 57
        E 0 97 43 56
        E 0 97 3e 47
        E 0 97 57 69
        E 120 87 43 5b
        E 0 87 57 70
        E 0 87 3e 5a
        E 120 97 43 4f
        E 0 97 3e 3a
        E 0 97 57 6b
        E 120 87 43 43
        E 0 87 57 67
        E 0 87 3e 54
        E 0 97 43 54
        E 0 97 3e 47
        E 0 97 57 62
        E 120 87 43 58
        E 0 87 57 6d
        E 0 87 3e 58
        E 0 97 43 56
        E 0 97 3e 4b
        E 0 97 57 6b
        E 120 87 43 53
        E 0 87 57 69
        E 0 87 3e 54
        E 0 97 47 54
        E 0 97 43 46
        E 0 97 56 5b
        E 117 87 37 51
        E 1 97 3c 5d
        E 2 87 56 64
        E 0 87 43 59
        E 0 87 47 57
        E 0 97 48 5f
        E 0 97 4b 69
        E 0 97 43 52
        E 2 87 2b 68
        E 14 97 30 52
        E 217 87 43 45
        E 7 97 57 5d
        E 1 87 48 5a
        E 12 87 4b 58
        E 227 87 57 57
        E 0 97 43 4c
        E 0 97 4a 49
        E 0 97 59 54
        E 173 87 4a 54
        E 6 87 43 33
        E 61 87 59 49
        E 0 97 5b 4d
        E 240 87 5b 53
        E 0 97 48 59
        E 0 97 43 4b
        E 0 97 59 4f
        E 119 87 43 58
        E 25 87 48 60
        E 96 87 59 4f
        E 0 97 57 5d
        E 217 97 3a 69
        E 8 97 2e 69
        E 15 87 57 57
        E 0 97 4b 6d
        E 0 97 41 59
        E 0 97 46 5d
        E 0 97 59 4f
        E 25 87 3c 61
        E 0 87 30 61
        E 134 87 46 57
        E 26 87 41 40
        E 31 87 4b 59
        E 24 87 59 4d
        E 0 97 56 4b
        E 240 87 56 52
        E 0 97 41 4d
        E 0 97 46 5d
        E 0 97 48 56
        E 0 97 59 4e
        E 137 87 41 53
        E 40 87 46 5e
        E 39 87 48 5f
        E 24 87 59 50
        E 0 97 56 4f
        E 228 97 38 6d
        E 3 87 3a 53
        E 0 97 2c 69
        E 9 87 56 4f
        E 0 97 44 69
        E 0 97 48 59
        E 0 97 4b 5b
        E 28 87 2e 64
        E 165 87 4b 52
        E 8 87 44 4c
        E 12 87 48 5b
        E 27 97 54 49
        E 240 87 54 54
        E 0 97 44 5f
        E 0 97 4a 45
        E 0 97 56 47
        E 156 87 44 43
        E 1 87 4a 55
        E 83 87 56 4d
        E 0 97 57 5f
        E 240 87 57 5b
        E 0 97 44 62
        E 0 97 48 59
        E 0 97 56 4b
        E 128 87 44 54
        E 31 87 48 62
        E 81 87 56 49
        E 0 97 54 4b
        E 225 97 2b 59
        E 6 97 37 5b
        E 2 87 38 77
        E 7 87 54 52
        E 0 97 4a 52
        E 0 97 43 4f
        E 0 97 47 56
        E 0 97 57 54
        E 30 87 2c 6d
        E 104 87 43 4a
        E 42 87 47 52
        E 3 87 4a 5c
        E 61 87 57 54
        E 0 97 56 4d
        E 240 87 56 51
        E 0 97 47 5b
        E 0 97 4a 54
        E 0 97 43 59
        E 0 97 57 5b
        E 108 87 43 50
        E 45 87 4a 58
        E 17 87 47 5a
        E 70 87 57 5b
        E 0 97 56 4f
        E 219 97 3c 59
        E 3 87 2b 63
        E 18 87 56 5b
        E 0 97 48 5f
        E 0 97 4b 69
        E 0 97 43 52
        E 5 97 30 4d
        E 8 87 37 57
        E 220 87 43 45
        E 7 97 57 5d
        E 1 87 48 5a
        E 12 87 4b 58
        E 227 87 57 57
        E 0 97 43 4c
        E 0 97 4a 49
        E 0 97 59 54
        E 173 87 4a 54
        E 6 87 43 33
        E 61 87 59 49
        E 0 97 5b 4d
        E 240 87 5b 53
        E 0 97 48 59
        E 0 97 43 4b
        E 0 97 59 4f
        E 119 87 43 58
        E 25 87 48 60
        E 96 87 59 4f
        E 0 97 57 5d
        E 208 97 3a 69
        E 0 97 2e 62
        E 31 87 30 64
        E 1 87 57 57
        E 0 97 4b 6d
        E 0 97 41 59
        E 0 97 46 5d
        E 0 97 59 4f
        E 36 87 3c 5c
        E 123 87 46 57
        E 26 87 41 40
        E 31 87 4b 59
        E 24 87 59 4d
        E 0 97 56 4b
        E 240 87 56 52
        E 0 97 41 4d
        E 0 97 46 5d
        E 0 97 48 56
        E 0 97 59 4e
        E 137 87 41 53
        E 40 87 46 5e
        E 39 87 48 5f
        E 24 87 59 50
        E 0 97 56 4f
        E 240 87 56 4f
        E 0 97 44 69
        E 0 97 48 59
        E 0 97 4b 5b
        E 10 97 38 6d
        E 6 87 3a 54
        E 8 97 2c 62
        E 37 87 2e 63
        E 132 87 4b 52
        E 8 87 44 4c
        E 12 87 48 5b
        E 27 97 54 49
        E 240 87 54 54
        E 0 97 44 5f
        E 0 97 4a 45
        E 0 97 56 47
        E 156 87 44 43
        E 1 87 4a 55
        E 83 87 56 4d
        E 0 97 57 5f
        E 240 87 57 5b
        E 0 97 44 62
        E 0 97 48 59
        E 0 97 56 4b
        E 128 87 44 54
        E 31 87 48 62
        E 81 87 56 49
        E 0 97 54 4b
        E 225 87 38 76
        E 15 87 54 52
        E 0 97 4a 52
        E 0 97 43 4f
        E 0 97 47 56
        E 0 97 57 54
        E 2 97 37 5d
        E 0 97 2b 54
        E 34 87 2c 6f
        E 98 87 43 4a
        E 42 87 47 52
        E 3 87 4a 5c
        E 61 87 57 54
        E 0 97 56 4d
        E 240 87 56 51
        E 0 97 47 5b
        E 0 97 4a 54
        E 0 97 43 59
        E 0 97 57 5b
        E 108 87 43 50
        E 45 87 4a 58
        E 17 87 47 5a
        E 70 87 57 5b
        E 0 97 56 4f
        E 213 97 3c 64
        E 6 87 2b 62
        E 14 97 30 4e
        E 7 87 56 5b
        E 0 97 48 5f
        E 0 97 4b 69
        E 0 97 43 52
        E 4 87 37 4f
        E 229 87 43 45
        E 7 97 57 5d
        E 1 87 48 5a
        E 12 87 4b 58
        E 227 87 57 57
        E 0 97 43 4c
        E 0 97 4a 49
        E 0 97 59 54
        E 173 87 4a 54
        E 6 87 43 33
        E 61 87 59 49
        E 0 97 5b 4d
        E 240 87 5b 53
        E 0 97 48 59
        E 0 97 43 4b
        E 0 97 59 4f
        E 119 87 43 58
        E 25 87 48 60
        E 96 87 59 4f
        E 0 97 57 5d
        E 230 97 3a 69
        E 10 87 57 57
        E 0 97 4b 6d
        E 0 97 41 59
        E 0 97 46 5d
        E 0 97 59 4f
        E 1 97 2e 5f
        E 29 87 30 63
        E 25 87 3c 5e
        E 104 87 46 57
        E 26 87 41 40
        E 31 87 4b 59
        E 24 87 59 4d
        E 0 97 56 4b
        E 240 87 56 52
        E 0 97 41 4d
        E 0 97 46 5d
        E 0 97 48 56
        E 0 97 59 4e
        E 137 87 41 53
        E 40 87 46 5e
        E 39 87 48 5f
        E 24 87 59 50
        E 0 97 56 4f
        E 204 97 38 6b
        E 6 87 3a 5a
        E 9 97 2c 66
        E 21 87 56 4f
        E 0 97 44 69
        E 0 97 48 59
        E 0 97 4b 5b
        E 15 87 2e 62
        E 178 87 4b 52
        E 8 87 44 4c
        E 12 87 48 5b
        E 27 97 54 49
        E 240 87 54 54
        E 0 97 44 5f
        E 0 97 4a 45
        E 0 97 56 47
        E 156 87 44 43
        E 1 87 4a 55
        E 83 87 56 4d
        E 0 97 57 5f
        E 240 87 57 5b
        E 0 97 44 62
        E 0 97 48 59
        E 0 97 56 4b
        E 128 87 44 54
        E 31 87 48 62
        E 81 87 56 49
        E 0 97 54 4b
        E 159 87 38 78
        E 23 97 37 62
        E 2 97 2b 59
        E 23 87 2c 5c
        E 33 87 54 52
        E 0 97 4a 52
        E 0 97 43 4f
        E 0 97 47 56
        E 0 97 57 54
        E 134 87 43 4a
        E 42 87 47 52
        E 3 87 4a 5c
        E 61 87 57 54
        E 0 97 56 4d
        E 240 87 56 51
        E 0 97 47 5b
        E 0 97 4a 54
        E 0 97 43 59
        E 0 97 57 5b
        E 108 87 43 50
        E 45 87 4a 58
        E 17 87 47 5a
        E 70 87 57 5b
        E 0 97 56 4f
        E 221 87 37 44
        E 3 87 2b 63
        E 0 97 3c 5d
        E 6 97 30 4c
        E 10 87 56 5b
        E 0 97 48 5f
        E 0 97 4b 69
        E 0 97 43 52
        E 233 87 43 45
        E 7 97 57 5d
        E 1 87 48 5a
        E 12 87 4b 58
        E 227 87 57 57
        E 0 97 43 4c
        E 0 97 4a 49
        E 0 97 59 54
        E 173 87 4a 54
        E 6 87 43 33
        E 61 87 59 49
        E 0 97 5b 4d
        E 240 87 5b 53
        E 0 97 48 59
        E 0 97 43 4b
        E 0 97 59 4f
        E 119 87 43 58
        E 25 87 48 60
        E 96 87 59 4f
        E 0 97 57 5d
        E 210 97 3a 69
        E 8 97 2e 5f
        E 22 87 57 57
        E 0 97 4b 6d
        E 0 97 41 59
        E 0 97 46 5d
        E 0 97 59 4f
        E 12 87 30 68
        E 23 87 3c 5c
        E 124 87 46 57
        E 26 87 41 40
        E 31 87 4b 59
        E 24 87 59 4d
        E 0 97 56 4b
        E 240 87 56 52
        E 0 97 41 4d
        E 0 97 46 5d
        E 0 97 48 56
        E 0 97 59 4e
        E 137 87 41 53
        E 40 87 46 5e
        E 39 87 48 5f
        E 24 87 59 50
        E 0 97 56 4f
        E 187 97 38 6b
        E 20 87 3a 5a
        E 5 97 2c 5d
        E 28 87 56 4f
        E 0 97 44 69
        E 0 97 48 59
        E 0 97 4b 5b
        E 24 87 2e 62
        E 169 87 4b 52
        E 8 87 44 4c
        E 12 87 48 5b
        E 27 97 54 49
        E 240 87 54 54
        E 0 97 44 5f
        E 0 97 4a 45
        E 0 97 56 47
        E 156 87 44 43
        E 1 87 4a 55
        E 83 87 56 4d
        E 0 97 57 5f
        E 240 87 57 5b
        E 0 97 44 62
        E 0 97 48 59
        E 0 97 56 4b
        E 128 87 44 54
        E 31 87 48 62
        E 81 87 56 49
        E 0 97 54 4b
        E 164 87 38 79
        E 6 97 37 59
        E 14 97 2b 5d
        E 34 87 2c 64
        E 22 87 54 52
        E 0 97 4a 52
        E 0 97 43 4f
        E 0 97 47 56
        E 0 97 57 54
        E 134 87 43 4a
        E 42 87 47 52
        E 3 87 4a 5c
        E 61 87 57 54
        E 0 97 56 4d
        E 240 87 56 51
        E 0 97 47 5b
        E 0 97 4a 54
        E 0 97 43 59
        E 0 97 57 5b
        E 108 87 43 50
        E 45 87 4a 58
        E 17 87 47 5a
        E 70 87 57 5b
        E 0 97 56 4f
        E 204 97 3c 62
        E 3 87 2b 67
        E 11 97 30 4f
        E 3 87 37 50
        E 19 87 56 5b
        E 0 97 48 5f
        E 0 97 4b 69
        E 0 97 43 52
        E 233 87 43 45
        E 7 97 57 5d
        E 1 87 48 5a
        E 12 87 4b 58
        E 227 87 57 57
        E 0 97 43 4c
        E 0 97 4a 49
        E 0 97 59 54
        E 173 87 4a 54
        E 6 87 43 33
        E 61 87 59 49
        E 0 97 5b 4d
        E 240 87 5b 53
        E 0 97 48 59
        E 0 97 43 4b
        E 0 97 59 4f
        E 119 87 43 58
        E 25 87 48 60
        E 96 87 59 4f
        E 0 97 57 5d
        E 187 97 3a 66
        E 17 97 2e 5f
        E 25 87 30 64
        E 11 87 57 57
        E 0 97 4b 6d
        E 0 97 41 59
        E 0 97 46 5d
        E 0 97 59 4f
        E 6 87 3c 60
        E 153 87 46 57
        E 26 87 41 40
        E 31 87 4b 59
        E 24 87 59 4d
        E 0 97 56 4b
        E 240 87 56 52
        E 0 97 41 4d
        E 0 97 46 5d
        E 0 97 48 56
        E 0 97 59 4e
        E 137 87 41 53
        E 40 87 46 5e
        E 39 87 48 5f
        E 24 87 59 50
        E 0 97 56 4f
        E 204 97 38 6b
        E 2 87 3a 5a
        E 15 97 2c 66
        E 19 87 56 4f
        E 0 97 44 69
        E 0 97 48 59
        E 0 97 4b 5b
        E 15 87 2e 60
        E 178 87 4b 52
        E 8 87 44 4c
        E 12 87 48 5b
        E 27 97 54 49
        E 240 87 54 54
        E 0 97 44 5f
        E 0 97 4a 45
        E 0 97 56 47
        E 156 87 44 43
        E 1 87 4a 55
        E 83 87 56 4d
        E 0 97 57 5f
        E 240 87 57 5b
        E 0 97 44 62
        E 0 97 48 59
        E 0 97 56 4b
        E 128 87 44 54
        E 31 87 48 62
        E 81 87 56 49
        E 0 97 54 4b
        E 169 87 38 79
        E 26 97 37 5d
        E 8 97 2b 5d
        E 6 87 2c 62
        E 31 87 54 52
        E 0 97 4a 52
        E 0 97 43 4f
        E 0 97 47 56
        E 0 97 57 54
        E 134 87 43 4a
        E 42 87 47 52
        E 3 87 4a 5c
        E 61 87 57 54
        E 0 97 56 4d
        E 240 87 56 51
        E 0 97 47 5b
        E 0 97 4a 54
        E 0 97 43 59
        E 0 97 57 5b
        E 108 87 43 50
        E 45 87 4a 58
        E 17 87 47 5a
        E 70 87 57 5b
        E 0 97 56 4f
        E 212 97 3c 5f
        E 6 87 2b 68
        E 5 87 37 4d
        E 6 97 30 52
        E 11 87 56 5b
        E 0 97 48 5f
        E 0 97 4b 69
        E 0 97 43 52
        E 233 87 43 45
        E 7 97 57 5d
        E 1 87 48 5a
        E 12 87 4b 58
        E 227 87 57 57
        E 0 97 43 4c
        E 0 97 4a 49
        E 0 97 59 54
        E 173 87 4a 54
        E 6 87 43 33
        E 61 87 59 49
        E 0 97 5b 4d
        E 240 87 5b 53
        E 0 97 48 59
        E 0 97 43 4b
        E 0 97 59 4f
        E 119 87 43 58
        E 25 87 48 60
        E 96 87 59 4f
        E 0 97 57 5d
        E 206 97 3a 6b
        E 9 97 2e 66
        E 25 87 57 57
        E 0 97 4b 6d
        E 0 97 41 59
        E 0 97 46 5d
        E 0 97 59 4f
        E 6 87 30 67
        E 20 87 3c 60
        E 133 87 46 57
        E 26 87 41 40
        E 31 87 4b 59
        E 24 87 59 4d
        E 0 97 56 4b
        E 240 87 56 52
        E 0 97 41 4d
        E 0 97 46 5d
        E 0 97 48 56
        E 0 97 59 4e
        E 137 87 41 53
        E 40 87 46 5e
        E 39 87 48 5f
        E 24 87 59 50
        E 0 97 56 4f
        E 186 87 3a 70
        E 20 97 38 6f
        E 17 97 2c 69
        E 17 87 56 4f
        E 0 97 50 56
        E 0 97 4b 49
        E 0 97 4b 52
        E 0 97 48 47
        E 0 97 48 4a
        E 0 97 44 54
        E 0 97 44 57
        E 0 97 57 50
        E 10 87 2e 66
        E 196 87 38 79
        E 17 87 2c 73
        E 17 87 44 4c
        E 0 87 48 5a
        E 0 87 48 5b
        E 0 87 4b 68
        E 0 87 4b 52
        E 0 87 50 57
        E 0 87 57 54
        E 0 87 44 53
        E 49680 b0 7b 00
        CCINTERP 32
        CHASE_CC_TAKEOFFS 1
        GUID {01387E3E-1B5F-3442-ADD3-6F0E8BBC3E42}
        IGNTEMPO 0 120 4 4
        SRCCOLOR 8
        VELLANE -1 100 0
      >
    >
  >
  <TRACK {C22AFD05-9501-C94E-B025-09FCEDCEFFD2}
    NAME Glok
    PEAKCOL 16576
    BEAT -1
    AUTOMODE 0
    VOLPAN 1 0 -1 -1 1
    MUTESOLO 0 0 0
    IPHASE 0
    PLAYOFFS 0 1
    ISBUS 0 0
    BUSCOMP 0 0 0 0 0
    SHOWINMIX 1 0.6667 0.5 1 0.5 0 0 0
    SEL 0
    REC 0 0 1 0 0 0 0 0
    VU 2
    TRACKHEIGHT 0 0 0 0 0 0
    INQ 0 0 0 0.5 100 0 0 100
    NCHAN 2
    FX 1
    TRACKID {C22AFD05-9501-C94E-B025-09FCEDCEFFD2}
    PERF 0
    MIDIOUT -1
    MAINSEND 1 0
    <ITEM
      POSITION 0
      SNAPOFFS 0
      LENGTH 360.34257745299715
      LOOP 1
      ALLTAKES 0
      FADEIN 1 0 0 1 0 0 0
      FADEOUT 1 0 0 1 0 0 0
      MUTE 0 0
      SEL 0
      IGUID {5F2F128A-EBB7-9241-8C7C-A5E3D76158F9}
      IID 9
      NAME "Fantasy Lead/Glok. - 1-6--3-2_geth-1.mid"
      VOLPAN 1 0 1 -1
      SOFFS 0 0
      PLAYRATE 1 1 0 -1 0 0.0025
      CHANMODE 0
      GUID {C563ECDA-2C81-A34D-9847-D1A80097CD6A}
      <SOURCE MIDI
        HASDATA 1 480 QN
        CCINTERP 32
        POOLEDEVTS {CDCD46E1-7DE2-FB44-BBD0-A26F1DA0F663}
        <X 0 0 0 0 3 "Fantasy Lead/Glok."
          /wNGYW50YXN5IExlYWQvR2xvay4=
        >
        E 0 b8 00 00
        E 0 b8 20 01
        E 0 c8 58 00
        E 187680 b8 07 44
        E 6185 98 4b 5d
        E 469 98 48 5b
        E 20 88 4b 63
        E 492 98 43 52
        E 5 88 48 70
        E 437 98 44 52
        E 14 88 43 5b
        E 2411 88 44 61
        E 2 98 50 5d
        E 480 98 4d 5f
        E 20 88 50 64
        E 471 88 4d 6f
        E 0 98 48 64
        E 429 98 4a 52
        E 20 88 48 69
        E 998 98 4b 52
        E 27 88 4a 60
        E 673 98 4d 5b
        E 2 88 4b 72
        E 252 98 50 66
        E 14 88 4d 78
        E 709 98 4f 59
        E 70 88 50 01
        E 124 98 4d 62
        E 26 88 4f 5e
        E 214 88 4d 69
        E 22 98 4b 54
        E 945 88 4b 77
        E 243 98 4f 54
        E 254 98 4d 52
        E 18 88 4f 57
        E 232 98 4b 4e
        E 6 88 4d 71
        E 258 98 4a 4a
        E 6 88 4b 6f
        E 688 98 4d 4f
        E 35 88 4a 5e
        E 445 88 4d 73
        E 10 98 4b 5b
        E 246 88 4b 76
        E 238 98 4a 4d
        E 244 98 48 52
        E 29 88 4a 5f
        E 691 88 48 69
        E 473 98 4b 4e
        E 250 98 4a 46
        E 68 88 4b 37
        E 170 98 48 4e
        E 28 88 4a 60
        E 1335 88 48 70
        E 52 98 48 64
        E 262 88 48 70
        E 2 98 43 4b
        E 243 98 41 66
        E 29 88 43 66
        E 677 88 41 72
        E 0 98 3f 66
        E 260 88 3f 7c
        E 0 98 3e 67
        E 1920 88 3e 64
        E 497 98 4a 68
        E 240 88 4a 40
        E 0 98 4b 68
        E 120 88 4b 40
        E 0 98 4b 68
        E 120 88 4b 40
        E 0 98 4d 68
        E 240 88 4d 40
        E 0 98 4f 68
        E 720 88 4f 40
        E 7680 b8 00 00
        E 0 b8 20 01
        E 0 c8 09 00
        E 0 b8 07 7f
        E 12240 98 5b 2e
        E 240 88 5b 4a
        E 0 98 63 37
        E 240 88 63 4f
        E 0 98 62 2e
        E 240 88 62 43
        E 0 98 60 2c
        E 240 88 60 2d
        E 0 98 5f 2e
        E 240 88 5f 25
        E 0 98 60 32
        E 240 88 60 55
        E 240 98 5f 37
        E 240 88 5f 5b
        E 240 98 68 4b
        E 240 88 68 2b
        E 240 98 67 4b
        E 240 88 67 62
        E 240 98 60 2f
        E 240 88 60 4b
        E 240 98 62 30
        E 240 88 62 3a
        E 0 98 63 37
        E 240 88 63 46
        E 0 98 62 30
        E 240 88 62 42
        E 240 98 65 4b
        E 240 88 65 54
        E 240 98 5e 34
        E 720 88 5e 01
        E 240 b0 7b 00
        CCINTERP 32
        CHASE_CC_TAKEOFFS 1
        GUID {4D39C5E7-36B9-4B44-9511-102E90917BCD}
        IGNTEMPO 0 120 4 4
        SRCCOLOR 9
        VELLANE -1 100 0
      >
    >
  >
  <TRACK {88437BD7-EE4D-7746-BE88-76A4BFB6BC4F}
    NAME Drums
    PEAKCOL 16576
    BEAT -1
    AUTOMODE 0
    VOLPAN 0.00758559130429 0 -1 -1 1
    MUTESOLO 0 0 0
    IPHASE 0
    PLAYOFFS 0 1
    ISBUS 0 0
    BUSCOMP 0 0 0 0 0
    SHOWINMIX 1 0.6667 0.5 1 0.5 0 0 0
    SEL 0
    REC 0 0 1 0 0 0 0 0
    VU 2
    TRACKHEIGHT 0 0 0 0 0 0
    INQ 0 0 0 0.5 100 0 0 100
    NCHAN 2
    FX 1
    TRACKID {88437BD7-EE4D-7746-BE88-76A4BFB6BC4F}
    PERF 0
    MIDIOUT -1
    MAINSEND 1 0
    <FXCHAIN
      WNDRECT 464 238 753 619
      SHOW 0
      LASTSEL 0
      DOCKED 0
      BYPASS 0 0 0
      <VST "VST3: Cardinal FX (DISTRHO)" CardinalFX.vst3 0 "" 1558924367{2046504473616C63466E436400000000} ""
        T0zrXO5e7f4CAAAAAQAAAAAAAAACAAAAAAAAAAIAAAABAAAAAAAAAAIAAAAAAAAAfhMAAAEAAAD//xAA
        bhMAAAEAAABfX2RwZl9zdGF0ZV9iZWdpbl9fAGNvbW1lbnQAAG1vZHVsZUluZm9zAHt9AHBhdGNoAEtMVXYvUUJJM1dVQXVxTEVHanRRYTJBTWxQci8vLysvclJuYWZX
        cXFvdCt2Ny9iU2Y2Mnl2ZS8xK3pVWG9WMEtEVXNKakNWV3FrOHBwWlJTeWlUcDU4aTRCL0pDM0lxaURPa0JlQUczQVp0ODdwNjNqMnV4UE5HaWJGanJwOGV5RkFzY0NY
        b2lVT1REVWt6Q0ExVTRFS2FDc2F5MUZpUTVEQWhFY2hyUUJWSGxjQ0lRUE03VUFCU2hxclZZSnFLR1k1THdnQ29NRlFTQnFHVXRGdWlaSEtnY0VFVkZHTXRpY1NybldU
        WXM1UXpmbTFkVFFWUE83cjNaVnRWeU1ROHpzTFZZbnNnYVc0c0Zpa2hPeGJMV1doUU81VHhNSFJQRkpFMFlsclZZSk9pWktCYUlFVkdWVXlFNUdKeUlpbGpXWW5GRUV4
        SHBBYkh2L2MzcS83eTVGc3NUTFd1dHRaYUNBUVNTSXM5RXNheWxRR3hZUzFuSHZrYkU5OTdMNjhiV1drdUI0R3cxOWx6TXpNeHNrRmxyTFdXQ3RWZ3FDTkpvUFBCRTFN
        U3lsZ0poemEzRlFqRk5GeXhyS1JCTEJhT2ljVUFUMElYSk1WVmdJSkZqb3Bna0I0TUVJNkVoZ3dmSmFVU0FRQjBZbGZPSUlEbU82S0VjQ1JFcWFubzhJaGlXWTRvcWh4
        RkpqMGRFQkFzb2grSVFOUkJoV1l1bFErVThsclVVaU9XYWEzQlppOFV4UlJBS3FsaldVakN3em1WVk8reTlVMlV6YzB3UUNwb09qTXA1U0RRUm1sMkpjcHBaa2tSb0dB
        NE84R0RDQnhwOEFnR0FCR0k0SEFkVU1WR1BCcEllRDZlaG1CZ0ZBSkFRa0NUSkJrbVNkSkJjeUpBaEl1a2dTUklJU1pKOFNKSUVreVFaSUVrU0NNblNzREE4c0JoT2hT
        U0JrQWhnUUFETEVzcXBJQkZiQ2VPMjJWck16VXhidlpXS1pwYXMzVGF6cEpGb0FtMnBudjlyMitneFNrSXNBNjJuL25jdUluWW5OM3huQ29RKzM1MTVLcDczTi9tY2pt
        bCt5SDJ0Mm1Rbk9wdS9PWnZxTnRqSXE1Y0tCSjRDWVZBRmNTcDhVTUNSSXM5VTRaR2dDbzhqcXBCOGZvdDRyTjk5M0d1eFFCTU9oNUo0cEtrREJLSTZWRXQ1YzE1TnZQ
        OWN0djkvUkw1czdGNi8zOUhST0U5NTA5N3hEZi9Pek16TXFRa0NnU2dMekJROUVXZGlTa0I3L1Y3NVRlOFEwVXhQZ2ZqMVpyOWU5Y1ZrWkY0RlF0c01uWlhYdmRlV1Bl
        LzM4dmhjKzFDWEcvdSt0MmZyUm16REJobXJJa2V5Z0x5ZmFNaDY3L3B1dlpRSkNxSm81c1RVM2x1OXZ1eGRTdk4zWi92dHUvZC8rNi9tZVQrN3MvLy8vMmxqeU83V2F0
        ckc5dHVmaGxJRVNhQ2U5c3ZvL0h5ZWkwdFpDajh5NXVXK3N6Yjc3VFptNjJyL2ltdklsc202bE1oRFFnV1R0S3kxbExYV3JUWGhpS29LZ2l5Ri94NjEreHBmc3hPZCtm
        Y1lXWkV4TDdNeFBXMjM3bDFiUFZmYnh1eWV5S0VTZ0ZRT2lDSkNWUkFIQlVqaUVEMlJVKzdOOUdmamJqeHJqamxEYXd5Ulo2cFFSUjVWWkZyMis1dzE3ZHM1T0l6RHA2
        QktpaFpnUElkVDlFUWk3bTVYdDlkWXR6MGhpaWhEQlprWTJGUjBWK3owdEZXMnpKc2tvQW1IQTNsQUZVU2ljaVFlRGxVQlZCRlZ6Z1Rra0hCTUVoQ0VnaW9ncW1KQUVn
        U1JlQ0FLbXBpSXFHcFpheWtRSGhpVHhKQndUQklWQTVJZ1NCVjVPQ0lKQzZUcDhkNjhwb2wyWi80QndrQTlUMFJmNG1HN3U2MW1aKzcrZXB1WkdyTTFOcC91Y21QYTZh
        dkcyZHZibjMrczJmeksrZTNQZDV2b3FkM296N2JZdTJFcEV6d3dIS3JxTUJGMVdJb0hCN0pRd1NRNUltZGlLWGRRVlVWVVNQZ0FVWTJsWkdabVptWm1abVptWm1abVpt
        Wm1abVptWm1abVptWXV4UnlSTTdHVTYvOUQvVGJyOStjbTEwckhQZjI3Tis3N0FGR05wVVE4RG9mRFVpcWlpdUZBb0dweUFCTHhBYUlXcUdEcUFGbld1bDJMQmJkdCt3
        NERBeEpSUkNSWUNqVkprd1FORVVTa2hnZ2lVRU1FRWFjaGdnaTFjR0ZDV3Jnd0FTMWNtSEFXTGt4ZytCaG1qMkgwR0NhUFlmQVk1bzVoN0JqbWpXSGNHS2FOWWRnWVpv
        MWgxQmdtaldIUUdPYU1XZFppZ1VnUUI2Y0JEd3lIcWg0S0QvUjRPQlJMT1RUOHk4YjYwWGJQVlBWK2I1dTlQR3ozdzhOdjIvT0c5ZGdER1NnYjFsSnltNXR6blIxZEcv
        VlVUL09TVGZGVGp6ZmZuRjFmMTVBYjJ4Y1YrODdQblA5Vi9TNFhPZTMyOHhEWGU3MVpmKzE1VnpWVCtkOFdlWFhSOFpIUkdKMlRQL2Q4dlcyUjFjd1N6Wjc3TW8vVjM3
        ODU5VlR6R28xbWUvYzIwMjdMMTF3MFRIWmtNME5uemtaalRIM2Q3TzFHejdWOC9zN0h4ZFpPUDlOZDIrYk5RKzF1Tko3RzNkelZzN3Rmdzk5ZFQ4VFU3YmJiMy92THh0
        UEZhNzdFUGNYRnpkZmtYMzgwVmM2enpXdk02MFRmVmJkMlZGWTI1TXpOOUY1YlhHTytma1oxZnNkTFhOeEdReTN0bTIzVEg1dk52dnZiOXZvdW5UM1ZqSi9YOVV3dC9k
        bk1OelhWL2I1OW5WRWYzRVpqRmZrU3RkdVI3OUlzdlZudGNuZHpOUm4zb2JOOTVtZkcrK3ZkVEUvMjk4VG1OazNNWGNjOVIxVjNTNzUxWGJhM2UxUC9ialFnRHFsNHJt
        Ky9xMjY3K0pxV3ZzNmN5SSs2UE4xbzRDS3dyTVZDVGRMRVlFZmtpTlppZVNoVWtVY1ZtU2hBVW9MaHFPSkNreUJqQ0FFQWdKa2NBQlFBOGdzQWdJSXdFRklKYndZU0FF
        QUFEQVdpRk1Sd0VNTXdHTVVBQ01OUkJoQkNnQ0dJQ0J3a2xSQXdCSFQwYndHQjhtaWEzNG9VR29LZVpVQ2NScDNBSTA2c0lOMVVZR0I5ZVhEREhtNXY5LytCS01Fd09j
        bzB3YjJXYXdYRXpNR2FlVGVzR3lQWG5iQkRBbFJYTFpmRGJvUExyazFCWWQ0eTBLNi9pZG9CaWhCdUt1OHQ2WDJLZElHS3VJUGcyQkxHYW8rTkR1MG1OMEE0TUhoMTRC
        UEw5YURTelhpWGhCVCtOd3NFcVVuNGhTSHFqMElvWnFuNUZLTDU3aEs2T2RSMnVaQVpqU0lsa0dXUVdPZGFiUkhKMmJpcUJxNnlGZENIc0U0MStrSXlndWR3SWwyU0hn
        VVVoM3JHWG95SjJkUTVCSytwbElkcFphdHV0T2l0d0lYMFl6U3dMS0VNcTl5aGJSRUFVMXJTZmpqbHZ6WU9OOUp5L2NUSkJCcVBlNjh2K0RHWElrZWxpUDZ2TmNwSjlh
        M01Od29NbVdTRmc1eWpDL0VlMGNaVDBnS3pXYmdNdGNkTTVoNDZic2Q5ZUJQOEMvNnFEVU1YRUpGZ0RCc0ZrR2dRbFlyNzdRWlFrZzZXOERWRHRPd0JqRlg2THFBYXBx
        MlhIWTZIY3lDWDBjMlJsaFhzMlF6Y0NhK2dLZFRucUdBZEFla0JUVW52dnkrbDIxaUNvaWJpZzMwTC9aS2RBMjM0TE82eEZ0Y3Q0cHp4SUYwK2pLZCtlS2czaHdteHJZ
        SEFLM3Y5MUt1bktoemlPeElIQS9wOW5hM0poV0VxT1VMUUdDUmk0TW8rZXdWSG5HK25CN1dFaUhTZzhrU1E4a0tPcENyWUl3UXJ0cjlaWlNtVmFqRWQ5V0FlcVk3NFJ0
        ZnVDWEtQQ1lzUE9uaFEyNEk5VjBCbVRvbFNRNE1mMUNTdVZnU2xFcnYxVnB3Yno5R3dMNWpFSXZmc2NrdFlKaDNDbXRiWUpvMEtMaEV5M3RnT20yMDdpMkVGWURCUTBj
        My9pdGc5NGx5MzlBTDZQMlVIcEdJSThwMFo0R2pKQklGZlYrenVhM3Zhd2pEaUVkRGFWODBSaXdKQjlHWTRMWlczYkkyYkEzNmNTM1pxOTF6UDA2UjZHY0QycUVxaThi
        Z3JiZlUvbGV6eFhwR3Q4cmtyYlBFN2xlNzFYSkd2K053UnQvaWZTdmQ0cnNwV2ZOMFJ0L2oxa2k3UmM0ZXJobzJUV0NjWGhET24yTzdQQ2s5dTh0a29hWTBrNHdUdjFX
        YVBvMlFUVXc2REI0dUhjUnhyYThpakcyR0FnNjByYVk4WWdZZVl6RUZFN0FaaDJOd3BicDcxS1ppMDVwaG9VS1Z2ZDlVQ01FZk5wR0U5am8xc1FONDltalZvd2NIVEp1
        Y0NtTy9WZitVZ3BzQktQN1pFQWRPTW1RT014bTVTYjRUSjdxOFZkMzJacyt0eHhudlVteWVBY3c4WUFoaHptZ0o5ZUFCeWJxSmpUSWExMVJ2Z3FOM09yRklGc3F3cDJX
        azFMbWVlaFpWRWJ5cklpVXBWRXlsSXE2bnFhZlREQlZPNmxuUTYvR3AvVWpyb3AyaVBIQkd3U3daSVoxdURxdC9OUlVxQ1lhR0NnSTliODV0M0E5NUs3ZXd0WmtZYjlN
        VTl1VjEzbU9TWWhDSnlQQWFkVFFRa3pQMDFEYmdEWEQ1Vm1rY2lQZmtvVUN5U3pTcGN5Tjk1SGlJcENwTURCMHNDeEN6dmdTaTd6b2FoK3ZRMDNNSTlVNStaUWVnQkFV
        T3NDb2ZLWDU5bmg2UEFOdU1VcG5McTkwY2o4TFY5MmI4RW9YNFlnSzVVNFVKUm16MmFPbUp1R1dvQnhXU1o2SStBT0swak9SaisrWVpnMEpRY3NFV20vYTFMU2FpdStV
        MUh3YXdqemEyL2ltQ2JCUkZwQmtoSmJQRmp6cHcrQmRnUlpqNHkwdW81NXZQcVFrWGpyMUZCRWIvMXdOMUlUVEMzWUhEcFVFTEVKTmxydmlYaHNWRkxCb3JFQ1hMdWR0
        Zkl6c0tzTHBKblM4VEhwVUFHSnRVd1UzZytRT0haUFB5UmNRNUU1bDFvdUVIY05BbWtxUkw2RWJIc1FhMkRja2FvVkVSNWJnRHhQd2d1ZWpHblVab05rVTNyK2llTFRu
        eU5vWUJ5bmt6MFEyaHVneGZROFN5cCtlSUJ0eVF0b2tpSGFqZW95QTJqQ0x0b2p6RjVPR0JMcUhWM1Fza3pXeklQTGVudjhZSWZOTXJwV0RlT09DNU1HNExrbXJIZ2ly
        ZXkrcGZ4OHErODloVWpxQmJQKytGRXl6NjRlT0VDZXZMUVh6QWt0bjczY3AzaWNTVnNpK2JOQUxhRUNXNU90dFhYSm02SlNwUmxwQXZGWjVGa3lpZGRleCtXelNVanRy
        YXBtSW9ybDF4U29acXA0bkI0ak9icEVnZHpwbnBDaTArNTVWUm1qRUZ6Wnd3Zzh3WW1DeFNLQ2ZMYnhYSUFkVGtDYVFZWVpGdWcrSWlpM3U2dXdoSytINzlYRVRkOTdD
        Rk5Na0RybW5ZQWFYZlp2UWNzcDJuUzNLL1lpS0ZEajJBUFFpUU1ZTDgwaHM3VWY4RjBSdTRBZFBINXZZbGE0Z2RpVmxTS2dyMHI5MHR3QVBXOFVkTE14R0w2bTJaWUJB
        PT0Ac2NyZWVuc2hvdAAAd2luZG93U2l6ZQA2NDg6NTM4AF9fZHBmX3N0YXRlX2VuZF9fAF9fZHBmX3BhcmFtZXRlcnNfYmVnaW5fXwBwYXJhbV8xADAAcGFyYW1fMgAw
        AHBhcmFtXzMAMABwYXJhbV80ADAAcGFyYW1fNQAwAHBhcmFtXzYAMABwYXJhbV83ADAAcGFyYW1fOAAwAHBhcmFtXzkAMABwYXJhbV8xMAAwAHBhcmFtXzExADAAcGFy
        YW1fMTIAMABwYXJhbV8xMwAwAHBhcmFtXzE0ADAAcGFyYW1fMTUAMABwYXJhbV8xNgAwAHBhcmFtXzE3ADAAcGFyYW1fMTgAMABwYXJhbV8xOQAwAHBhcmFtXzIwADAA
        cGFyYW1fMjEAMABwYXJhbV8yMgAwAHBhcmFtXzIzADAAcGFyYW1fMjQAMABkcGZfYnlwYXNzADAAdG9vbHRpcHMAMQBjYWJsZU9wYWNpdHkANTAAY2FibGVUZW5zaW9u
        ADc1AHJhY2tCcmlnaHRuZXNzADEwMABoYWxvQnJpZ2h0bmVzcwAyNQBrbm9iTW9kZQAwAGtub2JTY3JvbGwAMABrbm9iU2Nyb2xsU2Vuc2l0aXZpdHkAMQBsb2NrTW9k
        dWxlcwAwAHJhdGVMaW1pdAAwAGJyb3dzZXJTb3J0ADMAYnJvd3Nlclpvb20ANTAAaW52ZXJ0Wm9vbQAwAF9fZHBmX3BhcmFtZXRlcnNfZW5kX18A/gAAAAAAAAAAAA==
        AAAQAAAA
      >
      FLOATPOS 0 0 0 0
      FXID {5B39FC8C-4F1D-1840-998A-71B4BA2235B6}
      WAK 0 0
    >
    <ITEM
      POSITION 0
      SNAPOFFS 0
      LENGTH 350.96757745293559
      LOOP 1
      ALLTAKES 0
      FADEIN 1 0 0 1 0 0 0
      FADEOUT 1 0 0 1 0 0 0
      MUTE 0 0
      SEL 0
      IGUID {4FD280C4-5D76-8E46-BC1E-9EBB782B3B45}
      IID 10
      NAME "Drums - 1-6--3-2_geth-1.mid"
      VOLPAN 1 0 1 -1
      SOFFS 0 0
      PLAYRATE 1 1 0 -1 0 0.0025
      CHANMODE 0
      GUID {ED3A5C77-0416-4442-9027-4C6B018729B4}
      <SOURCE MIDI
        HASDATA 1 480 QN
        CCINTERP 32
        POOLEDEVTS {980B10B2-6A71-BE4F-99B3-807448AC9023}
        <X 0 0 0 0 3 Drums
          /wNEcnVtcw==
        >
        E 0 b9 07 78
        E 0 b9 0a 40
        E 1798 99 33 48
        E 43 89 33 40
        E 0 99 33 48
        E 54 89 33 40
        E 0 99 33 48
        E 69 89 33 40
        E 1762 99 3b 48
        E 71 89 3b 40
        E 40 99 3b 4b
        E 15 89 3b 40
        E 0 99 3b 48
        E 72 89 3b 40
        E 1694 99 33 48
        E 45 89 33 40
        E 0 99 33 48
        E 55 89 33 40
        E 0 99 33 48
        E 42 99 2c 66
        E 30 89 33 40
        E 238 89 2c 46
        E 692 99 2c 66
        E 150 89 2c 50
        E 570 99 2e 59
        E 240 99 2c 66
        E 2 89 2e 6d
        E 4 99 3b 4d
        E 71 89 3b 40
        E 191 89 2c 46
        E 692 99 2c 66
        E 150 89 2c 50
        E 570 99 2e 59
        E 226 99 3b 5b
        E 14 99 2c 5f
        E 2 89 2e 6d
        E 53 89 3b 40
        E 158 89 2c 52
        E 747 99 2c 59
        E 245 89 2c 41
        E 475 99 2e 54
        E 133 99 33 48
        E 47 89 33 40
        E 0 99 33 48
        E 57 89 33 40
        E 0 99 33 48
        E 3 99 2c 62
        E 31 89 2e 70
        E 35 89 33 40
        E 159 89 2c 54
        E 735 99 2c 52
        E 286 89 2c 33
        E 434 99 2e 52
        E 92 99 33 48
        E 71 89 33 40
        E 52 99 3b 59
        E 19 89 2e 6a
        E 6 99 2c 62
        E 45 89 3b 40
        E 168 89 2c 4f
        E 747 99 2c 5f
        E 219 89 2c 45
        E 501 99 2e 52
        E 136 99 3b 48
        E 45 89 3b 40
        E 0 99 3b 48
        E 55 89 3b 40
        E 0 99 3b 4d
        E 4 99 2c 5d
        E 10 89 2e 6f
        E 56 89 3b 40
        E 150 89 2c 4a
        E 744 99 2c 54
        E 424 89 2c 35
        E 278 99 33 48
        E 18 99 2e 54
        E 52 89 33 40
        E 160 99 33 48
        E 26 89 2e 6b
        E 2 99 2c 62
        E 43 89 33 40
        E 185 89 2c 52
        E 732 99 2c 59
        E 389 89 2c 27
        E 331 99 2e 59
        E 240 99 2c 62
        E 5 89 2e 62
        E 3 99 3b 5b
        E 70 89 3b 40
        E 120 89 2c 46
        E 762 99 2c 59
        E 533 89 2c 1c
        E 187 99 2e 4f
        E 122 99 3b 48
        E 47 89 3b 40
        E 0 99 3b 48
        E 49 89 3b 40
        E 0 99 3b 48
        E 22 99 2c 62
        E 4 89 2e 63
        E 45 89 3b 40
        E 213 89 2c 4a
        E 698 99 2c 59
        E 506 89 2c 51
        E 214 99 2e 54
        E 234 99 33 4d
        E 6 99 2c 5f
        E 2 89 2e 67
        E 61 89 33 40
        E 132 89 2c 50
        E 765 99 2c 5d
        E 525 89 2c 4a
        E 195 99 2e 4e
        E 222 99 33 48
        E 18 99 2c 5f
        E 6 89 2e 67
        E 46 89 33 40
        E 150 89 2c 49
        E 758 99 2c 62
        E 242 89 2c 32
        E 478 99 2e 54
        E 82 99 33 48
        E 70 89 33 40
        E 35 99 3b 48
        E 29 89 2e 62
        E 24 99 2c 5d
        E 17 89 3b 40
        E 189 89 2c 67
        E 754 99 2c 66
        E 150 89 2c 50
        E 570 99 2e 59
        E 234 99 3b 56
        E 6 99 2c 59
        E 0 99 2c 66
        E 2 89 2e 6d
        E 5 99 24 6f
        E 57 89 3b 40
        E 172 89 2c 50
        E 32 89 2c 46
        E 212 99 58 5f
        E 77 89 24 57
        E 158 99 24 56
        E 39 89 24 67
        E 192 99 24 66
        E 14 99 2c 66
        E 37 89 58 40
        E 113 89 2c 50
        E 330 99 58 62
        E 36 89 24 54
        E 204 99 2e 59
        E 235 99 24 64
        E 5 99 2c 59
        E 2 89 2e 6d
        E 31 89 58 51
        E 203 89 2c 50
        E 244 99 58 5f
        E 37 89 24 5e
        E 198 99 24 62
        E 57 89 24 6b
        E 185 99 24 66
        E 3 99 2c 5d
        E 57 89 58 45
        E 157 89 2c 37
        E 262 89 24 5f
        E 4 99 58 5f
        E 240 99 2e 54
        E 121 89 58 01
        E 115 99 24 6b
        E 4 99 2c 5f
        E 14 89 2e 69
        E 199 89 2c 52
        E 267 99 58 62
        E 2 89 24 5c
        E 222 99 24 62
        E 55 89 24 6a
        E 109 89 58 01
        E 75 99 24 69
        E 17 99 2c 59
        E 245 89 2c 41
        E 225 89 24 61
        E 10 99 58 5f
        E 240 99 2e 54
        E 208 89 58 2a
        E 27 99 24 5f
        E 5 99 2c 62
        E 31 89 2e 70
        E 194 89 2c 54
        E 244 89 24 4b
        E 11 99 58 62
        E 211 99 24 4e
        E 49 89 24 69
        E 187 89 58 46
        E 19 99 24 64
        E 14 99 2c 52
        E 286 89 2c 33
        E 194 99 58 5f
        E 25 89 24 59
        E 215 99 2e 52
        E 223 99 24 69
        E 5 89 58 53
        E 6 89 2e 6a
        E 6 99 2c 62
        E 213 89 2c 4f
        E 224 89 24 64
        E 43 99 58 62
        E 209 99 24 5b
        E 44 89 24 6d
        E 196 99 24 69
        E 31 99 2c 5f
        E 35 89 58 51
        E 184 89 2c 45
        E 261 99 58 5f
        E 19 89 24 5f
        E 221 99 2e 52
        E 213 99 24 66
        E 27 99 2c 5d
        E 10 89 2e 6f
        E 20 89 58 50
        E 186 89 2c 4a
        E 264 99 58 62
        E 4 89 24 61
        E 226 99 24 5b
        E 69 89 24 68
        E 171 99 24 64
        E 10 99 2c 54
        E 4 89 58 4c
        E 420 89 2c 35
        E 10 89 24 5f
        E 46 99 58 5f
        E 240 99 2e 54
        E 214 89 58 4f
        E 14 99 24 64
        E 10 89 2e 6b
        E 2 99 2c 62
        E 228 89 2c 52
        E 196 89 24 59
        E 56 99 58 62
        E 219 99 24 62
        E 57 89 24 6b
        E 185 99 24 66
        E 19 99 2c 59
        E 33 89 58 3c
        E 111 89 24 68
        E 245 89 2c 27
        E 91 99 58 5f
        E 240 99 2e 59
        E 222 99 24 66
        E 18 99 2c 62
        E 5 89 2e 62
        E 13 89 58 45
        E 115 89 24 67
        E 65 89 2c 46
        E 282 99 58 62
        E 238 99 24 66
        E 56 89 24 6b
        E 179 89 58 43
        E 1 99 24 64
        E 6 99 2c 59
        E 95 89 24 69
        E 385 99 58 5f
        E 53 89 2c 1c
        E 187 99 2e 4f
        E 216 99 24 69
        E 22 89 58 4a
        E 2 99 2c 62
        E 4 89 2e 63
        E 92 89 24 5e
        E 166 89 2c 4a
        E 218 99 58 62
        E 239 99 24 59
        E 60 89 24 69
        E 177 99 24 66
        E 4 99 2c 59
        E 21 89 58 48
        E 113 89 24 68
        E 346 99 58 62
        E 26 89 2c 51
        E 214 99 2e 54
        E 224 99 24 62
        E 16 99 2c 5f
        E 2 89 2e 67
        E 60 89 58 01
        E 73 89 24 60
        E 60 89 2c 50
        E 285 99 58 62
        E 229 99 24 54
        E 84 89 24 6a
        E 167 99 2c 5d
        E 12 99 24 66
        E 62 89 58 10
        E 99 89 24 62
        E 307 99 58 62
        E 45 89 2c 4a
        E 195 99 2e 4e
        E 240 99 2c 5f
        E 6 89 2e 67
        E 2 99 24 66
        E 66 89 58 1e
        E 79 89 24 5e
        E 49 89 2c 49
        E 278 99 58 62
        E 236 99 24 66
        E 68 89 24 69
        E 176 99 2c 62
        E 4 99 24 6b
        E 85 89 58 32
        E 67 89 24 5e
        E 86 89 2c 32
        E 238 99 58 62
        E 240 99 2e 54
        E 216 89 2e 62
        E 24 99 24 61
        E 0 99 2c 5d
        E 34 89 58 54
        E 86 89 24 6e
        E 86 89 2c 67
        E 17 99 26 5a
        E 27 89 26 66
        E 1 99 26 5a
        E 227 99 24 6f
        E 2 99 58 62
        E 106 99 2f 67
        E 22 89 2f 76
        E 2 99 2f 67
        E 236 89 26 67
        E 95 99 2d 5a
        E 4 89 24 7e
        E 1 99 24 6f
        E 14 89 2d 67
        E 0 99 2d 6e
        E 0 99 2c 66
        E 1 89 58 4d
        E 149 89 2c 50
        E 95 89 2f 76
        E 118 99 2f 28
        E 45 89 2f 2d
        E 0 99 2f 2e
        E 52 89 24 7e
        E 0 99 24 6f
        E 8 89 2d 7d
        E 0 99 2d 62
        E 12 99 58 62
        E 100 89 2d 6f
        E 0 99 2d 67
        E 115 99 29 5c
        E 25 99 2e 59
        E 87 89 29 69
        E 1 99 29 6c
        E 140 89 24 7e
        E 0 99 24 6f
        E 3 99 31 75
        E 2 99 39 6f
        E 7 99 24 6f
        E 2 89 2e 6d
        E 9 99 5d 63
        E 13 89 31 7a
        E 9 89 58 51
        E 10 89 2f 35
        E 30 89 5d 64
        E 53 99 5b 67
        E 52 89 5b 6b
        E 37 89 2d 76
        E 143 99 59 65
        E 48 89 59 6b
        E 83 99 58 73
        E 96 89 24 7e
        E 5 89 39 7e
        E 3 89 24 53
        E 129 99 5b 60
        E 0 99 24 66
        E 23 99 5d 62
        E 21 89 5b 68
        E 28 89 5d 68
        E 6 89 24 62
        E 148 99 5d 65
        E 0 99 39 75
        E 12 99 24 71
        E 30 89 39 70
        E 15 89 5d 69
        E 57 89 58 58
        E 7 99 5b 62
        E 49 89 5b 69
        E 176 99 59 67
        E 42 89 29 7a
        E 3 89 59 6b
        E 95 99 58 6f
        E 67 89 24 54
        E 152 99 5b 63
        E 11 99 24 6d
        E 22 99 5d 49
        E 16 89 5b 68
        E 30 89 5d 64
        E 30 89 24 63
        E 131 99 5d 67
        E 6 99 24 71
        E 10 99 31 7b
        E 42 89 5d 6a
        E 4 89 31 78
        E 3 89 58 60
        E 45 99 5b 60
        E 50 89 5b 68
        E 183 99 59 65
        E 47 89 59 6d
        E 105 99 58 6f
        E 47 89 24 54
        E 180 99 5b 62
        E 5 99 24 69
        E 12 99 5d 5a
        E 27 89 5b 66
        E 23 89 5d 69
        E 15 89 24 62
        E 138 89 58 43
        E 26 99 34 71
        E 3 99 24 71
        E 3 99 5d 65
        E 43 89 34 70
        E 13 89 5d 69
        E 60 99 5b 67
        E 45 89 5b 6f
        E 178 99 59 67
        E 51 89 59 6d
        E 62 99 58 6f
        E 125 89 24 58
        E 109 99 5b 67
        E 18 99 5d 54
        E 0 99 24 66
        E 7 89 58 52
        E 20 89 5b 69
        E 22 89 5d 67
        E 14 89 24 66
        E 62 99 24 5b
        E 42 89 24 62
        E 50 99 31 75
        E 16 99 5d 65
        E 4 99 24 6f
        E 23 89 31 79
        E 28 89 5d 68
        E 65 99 5b 65
        E 41 89 5b 68
        E 208 99 59 65
        E 49 89 59 6b
        E 82 99 58 6f
        E 53 89 24 4d
        E 157 99 5b 63
        E 14 99 5d 60
        E 6 99 24 62
        E 23 89 5b 66
        E 17 89 58 4d
        E 2 89 5d 6b
        E 30 89 24 61
        E 169 99 5d 67
        E 2 99 24 71
        E 11 99 39 6f
        E 38 89 5d 68
        E 8 89 39 6e
        E 64 99 5b 62
        E 35 89 5b 6e
        E 200 99 59 65
        E 45 89 59 6d
        E 67 99 58 71
        E 88 89 24 50
        E 147 99 24 69
        E 3 99 5b 67
        E 17 99 5d 56
        E 12 89 58 36
        E 16 89 5b 6e
        E 14 89 5d 69
        E 7 89 24 61
        E 173 99 24 6d
        E 2 99 31 75
        E 7 99 5d 63
        E 39 89 31 79
        E 13 89 5d 67
        E 70 99 5b 67
        E 39 89 5b 68
        E 190 99 59 6b
        E 49 89 59 6b
        E 95 99 58 66
        E 89 89 24 54
        E 130 99 5b 62
        E 14 99 5d 5c
        E 5 99 24 69
        E 17 89 5b 6a
        E 14 89 58 49
        E 5 89 5d 6b
        E 27 89 24 64
        E 36 99 34 6b
        E 56 89 34 6e
        E 51 99 39 73
        E 23 99 5d 67
        E 20 99 24 6f
        E 4 89 39 6e
        E 29 89 5d 69
        E 63 99 5b 67
        E 41 89 5b 66
        E 146 89 24 5e
        E 51 99 59 67
        E 37 99 24 69
        E 10 89 59 6b
        E 74 99 58 6f
        E 108 89 24 64
        E 65 99 24 66
        E 51 89 58 4c
        E 6 89 24 6d
        E 0 99 5b 62
        E 10 99 5d 62
        E 23 89 5b 6b
        E 5 99 24 5d
        E 18 89 5d 6a
        E 41 89 24 6a
        E 160 99 31 75
        E 33 99 24 73
        E 3 99 5d 63
        E 5 89 31 7a
        E 57 89 5d 64
        E 53 99 5b 67
        E 52 89 5b 6b
        E 180 99 59 65
        E 48 89 59 6b
        E 58 99 58 73
        E 45 89 24 54
        E 141 89 58 52
        E 46 99 24 66
        E 26 99 5b 60
        E 23 99 5d 62
        E 21 89 5b 68
        E 8 89 24 62
        E 20 89 5d 68
        E 148 99 24 71
        E 6 99 5d 65
        E 0 99 39 71
        E 46 89 39 6b
        E 11 89 5d 69
        E 64 99 5b 62
        E 49 89 5b 69
        E 176 99 59 67
        E 45 89 59 6b
        E 84 99 58 71
        E 88 89 24 51
        E 138 99 24 69
        E 4 99 5b 63
        E 14 89 58 40
        E 19 99 5d 49
        E 16 89 5b 68
        E 21 89 24 60
        E 9 89 5d 64
        E 159 99 31 75
        E 2 99 5d 67
        E 14 99 24 6b
        E 35 89 31 77
        E 9 89 5d 6a
        E 52 99 5b 60
        E 50 89 5b 68
        E 183 99 59 65
        E 47 89 59 6d
        E 99 99 58 6d
        E 42 89 24 53
        E 180 99 24 69
        E 11 99 5b 62
        E 17 99 5d 5a
        E 18 89 58 39
        E 9 89 5b 66
        E 17 89 24 5c
        E 6 89 5d 69
        E 23 99 34 69
        E 59 89 34 6f
        E 63 99 39 77
        E 40 99 5d 65
        E 5 89 39 6f
        E 8 99 32 61
        E 39 89 32 40
        E 4 89 5d 69
        E 17 99 32 67
        E 41 89 32 40
        E 19 99 24 52
        E 39 89 24 40
        E 21 99 24 61
        E 40 89 24 40
        E 20 99 2d 6c
        E 40 89 2d 40
        E 20 99 2d 67
        E 39 89 2d 40
        E 21 99 24 58
        E 40 89 24 40
        E 20 99 24 58
        E 39 89 24 40
        E 21 99 29 6c
        E 40 89 29 40
        E 20 99 29 67
        E 40 89 29 40
        E 20 99 24 52
        E 39 89 24 40
        E 21 99 24 61
        E 39 89 24 40
        E 21 99 31 59
        E 0 99 26 67
        E 38 89 26 40
        E 1 89 31 40
        E 201 99 24 7d
        E 3 99 2a 6e
        E 16 89 24 40
        E 3 89 2a 40
        E 98 99 24 65
        E 3 99 2a 48
        E 16 89 24 40
        E 3 89 2a 40
        E 99 99 2a 47
        E 19 89 2a 40
        E 100 99 24 56
        E 2 99 2a 35
        E 17 89 24 40
        E 2 89 2a 40
        E 99 99 24 60
        E 3 99 2a 51
        E 17 89 24 40
        E 2 89 2a 40
        E 101 99 2a 50
        E 19 89 2a 40
        E 100 99 2e 5c
        E 0 99 26 69
        E 19 89 2e 40
        E 1 89 26 40
        E 101 99 2a 51
        E 20 89 2a 40
        E 97 99 24 7d
        E 1 99 2a 6c
        E 18 89 24 40
        E 1 89 2a 40
        E 100 99 24 65
        E 3 99 2a 45
        E 16 89 24 40
        E 3 89 2a 40
        E 101 99 2a 49
        E 19 89 2a 40
        E 98 99 24 56
        E 2 99 2a 47
        E 17 89 24 40
        E 2 89 2a 40
        E 99 99 24 60
        E 1 99 2a 58
        E 19 89 24 40
        E 0 89 2a 40
        E 103 99 2a 58
        E 19 89 2a 40
        E 99 99 26 63
        E 1 99 2e 59
        E 19 89 26 40
        E 0 89 2e 40
        E 102 99 2a 4a
        E 20 89 2a 40
        E 97 99 24 7d
        E 3 99 2a 6b
        E 16 89 24 40
        E 3 89 2a 40
        E 98 99 24 65
        E 3 99 2a 49
        E 16 89 24 40
        E 3 89 2a 40
        E 99 99 2a 46
        E 19 89 2a 40
        E 100 99 24 56
        E 3 99 2a 43
        E 16 89 24 40
        E 3 89 2a 40
        E 98 99 24 60
        E 1 99 2a 5d
        E 19 89 24 40
        E 0 89 2a 40
        E 103 99 2a 58
        E 19 89 2a 40
        E 101 99 2e 63
        E 0 99 26 5e
        E 19 89 2e 40
        E 1 89 26 40
        E 99 99 2a 53
        E 20 89 2a 40
        E 98 99 24 7d
        E 3 99 2a 73
        E 16 89 24 40
        E 3 89 2a 40
        E 98 99 24 65
        E 3 99 2a 40
        E 16 89 24 40
        E 3 89 2a 40
        E 100 99 2a 3e
        E 19 89 2a 40
        E 99 99 24 56
        E 3 99 2a 38
        E 16 89 24 40
        E 3 89 2a 40
        E 98 99 24 60
        E 3 99 2a 57
        E 17 89 24 40
        E 2 89 2a 40
        E 100 99 2a 5c
        E 19 89 2a 40
        E 101 99 2e 63
        E 1 99 26 65
        E 18 89 2e 40
        E 2 89 26 40
        E 99 99 2a 56
        E 20 89 2a 40
        E 98 99 24 7d
        E 3 99 2a 6e
        E 16 89 24 40
        E 3 89 2a 40
        E 98 99 24 65
        E 3 99 2a 48
        E 16 89 24 40
        E 3 89 2a 40
        E 99 99 2a 47
        E 19 89 2a 40
        E 100 99 24 56
        E 2 99 2a 35
        E 17 89 24 40
        E 2 89 2a 40
        E 99 99 24 60
        E 3 99 2a 51
        E 17 89 24 40
        E 2 89 2a 40
        E 101 99 2a 50
        E 19 89 2a 40
        E 100 99 2e 5c
        E 0 99 26 69
        E 19 89 2e 40
        E 1 89 26 40
        E 101 99 2a 51
        E 20 89 2a 40
        E 97 99 24 7d
        E 1 99 2a 6c
        E 18 89 24 40
        E 1 89 2a 40
        E 100 99 24 65
        E 3 99 2a 45
        E 16 89 24 40
        E 3 89 2a 40
        E 101 99 2a 49
        E 19 89 2a 40
        E 98 99 24 56
        E 2 99 2a 47
        E 17 89 24 40
        E 2 89 2a 40
        E 99 99 24 60
        E 1 99 2a 58
        E 19 89 24 40
        E 0 89 2a 40
        E 103 99 2a 58
        E 19 89 2a 40
        E 99 99 26 63
        E 1 99 2e 59
        E 19 89 26 40
        E 0 89 2e 40
        E 102 99 2a 4a
        E 20 89 2a 40
        E 97 99 24 7d
        E 3 99 2a 6b
        E 16 89 24 40
        E 3 89 2a 40
        E 98 99 24 65
        E 3 99 2a 49
        E 16 89 24 40
        E 3 89 2a 40
        E 99 99 2a 46
        E 19 89 2a 40
        E 100 99 24 56
        E 3 99 2a 43
        E 16 89 24 40
        E 3 89 2a 40
        E 98 99 24 60
        E 1 99 2a 5d
        E 19 89 24 40
        E 0 89 2a 40
        E 103 99 2a 58
        E 19 89 2a 40
        E 101 99 2e 63
        E 0 99 26 5e
        E 19 89 2e 40
        E 1 89 26 40
        E 99 99 2a 53
        E 20 89 2a 40
        E 98 99 24 7d
        E 3 99 2a 73
        E 16 89 24 40
        E 3 89 2a 40
        E 98 99 24 65
        E 3 99 2a 40
        E 16 89 24 40
        E 3 89 2a 40
        E 100 99 2a 3e
        E 19 89 2a 40
        E 99 99 24 56
        E 3 99 2a 38
        E 16 89 24 40
        E 3 89 2a 40
        E 98 99 24 60
        E 3 99 2a 57
        E 17 89 24 40
        E 2 89 2a 40
        E 100 99 2a 5c
        E 19 89 2a 40
        E 101 99 2e 63
        E 1 99 26 65
        E 18 89 2e 40
        E 2 89 26 40
        E 99 99 2a 56
        E 20 89 2a 40
        E 98 99 24 7d
        E 3 99 2a 6e
        E 16 89 24 40
        E 3 89 2a 40
        E 98 99 24 65
        E 3 99 2a 48
        E 16 89 24 40
        E 3 89 2a 40
        E 99 99 2a 47
        E 19 89 2a 40
        E 100 99 24 56
        E 2 99 2a 35
        E 17 89 24 40
        E 2 89 2a 40
        E 99 99 24 60
        E 3 99 2a 51
        E 17 89 24 40
        E 2 89 2a 40
        E 101 99 2a 50
        E 19 89 2a 40
        E 100 99 2e 5c
        E 0 99 26 69
        E 19 89 2e 40
        E 1 89 26 40
        E 101 99 2a 51
        E 20 89 2a 40
        E 97 99 24 7d
        E 1 99 2a 6c
        E 18 89 24 40
        E 1 89 2a 40
        E 100 99 24 65
        E 3 99 2a 45
        E 16 89 24 40
        E 3 89 2a 40
        E 101 99 2a 49
        E 19 89 2a 40
        E 98 99 24 56
        E 2 99 2a 47
        E 17 89 24 40
        E 2 89 2a 40
        E 99 99 24 60
        E 1 99 2a 58
        E 19 89 24 40
        E 0 89 2a 40
        E 103 99 2a 58
        E 19 89 2a 40
        E 99 99 26 63
        E 1 99 2e 59
        E 19 89 26 40
        E 0 89 2e 40
        E 102 99 2a 4a
        E 20 89 2a 40
        E 97 99 24 7d
        E 3 99 2a 6b
        E 16 89 24 40
        E 3 89 2a 40
        E 98 99 24 65
        E 3 99 2a 49
        E 16 89 24 40
        E 3 89 2a 40
        E 99 99 2a 46
        E 19 89 2a 40
        E 100 99 24 56
        E 3 99 2a 43
        E 16 89 24 40
        E 3 89 2a 40
        E 98 99 24 60
        E 1 99 2a 5d
        E 19 89 24 40
        E 0 89 2a 40
        E 103 99 2a 58
        E 19 89 2a 40
        E 101 99 2e 63
        E 0 99 26 5e
        E 19 89 2e 40
        E 1 89 26 40
        E 99 99 2a 53
        E 20 89 2a 40
        E 98 99 24 7d
        E 3 99 2a 73
        E 16 89 24 40
        E 3 89 2a 40
        E 98 99 24 65
        E 3 99 2a 40
        E 16 89 24 40
        E 3 89 2a 40
        E 100 99 2a 3e
        E 19 89 2a 40
        E 99 99 24 56
        E 3 99 2a 38
        E 16 89 24 40
        E 3 89 2a 40
        E 98 99 24 60
        E 3 99 2a 57
        E 17 89 24 40
        E 2 89 2a 40
        E 100 99 2a 5c
        E 19 89 2a 40
        E 101 99 2e 63
        E 1 99 26 65
        E 18 89 2e 40
        E 2 89 26 40
        E 99 99 2a 56
        E 20 89 2a 40
        E 98 99 24 7d
        E 3 99 2a 6e
        E 16 89 24 40
        E 3 89 2a 40
        E 98 99 24 65
        E 3 99 2a 48
        E 16 89 24 40
        E 3 89 2a 40
        E 99 99 2a 47
        E 19 89 2a 40
        E 100 99 24 56
        E 2 99 2a 35
        E 17 89 24 40
        E 2 89 2a 40
        E 99 99 24 60
        E 3 99 2a 51
        E 17 89 24 40
        E 2 89 2a 40
        E 101 99 2a 50
        E 19 89 2a 40
        E 100 99 2e 5c
        E 0 99 26 69
        E 19 89 2e 40
        E 1 89 26 40
        E 101 99 2a 51
        E 20 89 2a 40
        E 97 99 24 7d
        E 1 99 2a 6c
        E 18 89 24 40
        E 1 89 2a 40
        E 100 99 24 65
        E 3 99 2a 45
        E 16 89 24 40
        E 3 89 2a 40
        E 101 99 2a 49
        E 19 89 2a 40
        E 98 99 24 56
        E 2 99 2a 47
        E 17 89 24 40
        E 2 89 2a 40
        E 99 99 24 60
        E 1 99 2a 58
        E 19 89 24 40
        E 0 89 2a 40
        E 103 99 2a 58
        E 19 89 2a 40
        E 99 99 26 63
        E 1 99 2e 59
        E 19 89 26 40
        E 0 89 2e 40
        E 102 99 2a 4a
        E 20 89 2a 40
        E 97 99 32 64
        E 0 99 24 7d
        E 3 99 2a 6b
        E 16 89 24 40
        E 3 89 2a 40
        E 56 89 32 40
        E 42 99 32 6b
        E 0 99 24 65
        E 3 99 2a 49
        E 16 89 24 40
        E 3 89 2a 40
        E 60 89 32 40
        E 38 99 24 56
        E 1 99 2a 46
        E 19 89 2a 40
        E 58 89 24 40
        E 42 99 24 64
        E 0 99 24 56
        E 3 99 2a 43
        E 16 89 24 40
        E 3 89 2a 40
        E 58 89 24 40
        E 40 99 2d 70
        E 0 99 24 60
        E 1 99 2a 5d
        E 19 89 24 40
        E 0 89 2a 40
        E 60 89 2d 40
        E 40 99 2d 6b
        E 3 99 2a 58
        E 19 89 2a 40
        E 56 89 2d 40
        E 42 99 24 5a
        E 3 99 2e 63
        E 0 99 26 5e
        E 19 89 2e 40
        E 1 89 26 40
        E 57 89 24 40
        E 40 99 24 5a
        E 2 99 2a 53
        E 20 89 2a 40
        E 56 89 24 40
        E 42 99 29 70
        E 80 89 29 40
        E 40 99 29 6b
        E 80 89 29 40
        E 40 99 24 56
        E 78 89 24 40
        E 42 99 24 64
        E 78 89 24 40
        E 42 99 31 5c
        E 0 99 26 6b
        E 76 89 26 40
        E 2 89 31 40
        E 393 99 31 75
        E 9 99 24 6f
        E 11 99 5d 63
        E 13 89 31 7a
        E 49 89 5d 64
        E 53 99 5b 67
        E 52 89 5b 6b
        E 180 99 59 65
        E 48 89 59 6b
        E 83 99 58 73
        E 104 89 24 53
        E 129 99 5b 60
        E 0 99 24 66
        E 23 99 5d 62
        E 21 89 5b 68
        E 28 89 5d 68
        E 6 89 24 62
        E 148 99 5d 65
        E 0 99 39 75
        E 12 99 24 71
        E 30 89 39 70
        E 15 89 5d 69
        E 57 89 58 58
        E 7 99 5b 62
        E 49 89 5b 69
        E 176 99 59 67
        E 45 89 59 6b
        E 95 99 58 6f
        E 67 89 24 54
        E 152 99 5b 63
        E 11 99 24 6d
        E 22 99 5d 49
        E 16 89 5b 68
        E 30 89 5d 64
        E 30 89 24 63
        E 131 99 5d 67
        E 6 99 24 71
        E 10 99 31 7b
        E 42 89 5d 6a
        E 4 89 31 78
        E 3 89 58 60
        E 45 99 5b 60
        E 50 89 5b 68
        E 183 99 59 65
        E 47 89 59 6d
        E 105 99 58 6f
        E 47 89 24 54
        E 180 99 5b 62
        E 5 99 24 69
        E 12 99 5d 5a
        E 27 89 5b 66
        E 23 89 5d 69
        E 15 89 24 62
        E 138 89 58 43
        E 26 99 34 71
        E 3 99 24 71
        E 3 99 5d 65
        E 43 89 34 70
        E 13 89 5d 69
        E 60 99 5b 67
        E 45 89 5b 6f
        E 178 99 59 67
        E 51 89 59 6d
        E 62 99 58 6f
        E 125 89 24 58
        E 109 99 5b 67
        E 18 99 5d 54
        E 0 99 24 66
        E 7 89 58 52
        E 20 89 5b 69
        E 22 89 5d 67
        E 14 89 24 66
        E 62 99 24 5b
        E 42 89 24 62
        E 50 99 31 75
        E 16 99 5d 65
        E 4 99 24 6f
        E 23 89 31 79
        E 28 89 5d 68
        E 65 99 5b 65
        E 41 89 5b 68
        E 208 99 59 65
        E 49 89 59 6b
        E 82 99 58 6f
        E 53 89 24 4d
        E 157 99 5b 63
        E 14 99 5d 60
        E 6 99 24 62
        E 23 89 5b 66
        E 17 89 58 4d
        E 2 89 5d 6b
        E 30 89 24 61
        E 169 99 5d 67
        E 2 99 24 71
        E 11 99 39 6f
        E 38 89 5d 68
        E 8 89 39 6e
        E 64 99 5b 62
        E 35 89 5b 6e
        E 200 99 59 65
        E 45 89 59 6d
        E 67 99 58 71
        E 88 89 24 50
        E 147 99 24 69
        E 3 99 5b 67
        E 17 99 5d 56
        E 12 89 58 36
        E 16 89 5b 6e
        E 14 89 5d 69
        E 7 89 24 61
        E 173 99 24 6d
        E 2 99 31 75
        E 7 99 5d 63
        E 39 89 31 79
        E 13 89 5d 67
        E 70 99 5b 67
        E 39 89 5b 68
        E 190 99 59 6b
        E 49 89 59 6b
        E 95 99 58 66
        E 89 89 24 54
        E 130 99 5b 62
        E 14 99 5d 5c
        E 5 99 24 69
        E 17 89 5b 6a
        E 14 89 58 49
        E 5 89 5d 6b
        E 27 89 24 64
        E 36 99 34 6b
        E 56 89 34 6e
        E 51 99 39 73
        E 23 99 5d 67
        E 20 99 24 6f
        E 4 89 39 6e
        E 29 89 5d 69
        E 63 99 5b 67
        E 41 89 5b 66
        E 146 89 24 5e
        E 51 99 59 67
        E 37 99 24 69
        E 10 89 59 6b
        E 74 99 58 6f
        E 108 89 24 64
        E 65 99 24 66
        E 51 89 58 4c
        E 6 89 24 6d
        E 0 99 5b 62
        E 10 99 5d 62
        E 23 89 5b 6b
        E 5 99 24 5d
        E 18 89 5d 6a
        E 41 89 24 6a
        E 160 99 31 75
        E 33 99 24 73
        E 3 99 5d 63
        E 5 89 31 7a
        E 57 89 5d 64
        E 53 99 5b 67
        E 52 89 5b 6b
        E 180 99 59 65
        E 48 89 59 6b
        E 58 99 58 73
        E 45 89 24 54
        E 141 89 58 52
        E 46 99 24 66
        E 26 99 5b 60
        E 23 99 5d 62
        E 21 89 5b 68
        E 8 89 24 62
        E 20 89 5d 68
        E 148 99 24 71
        E 6 99 5d 65
        E 0 99 39 71
        E 46 89 39 6b
        E 11 89 5d 69
        E 64 99 5b 62
        E 49 89 5b 69
        E 176 99 59 67
        E 45 89 59 6b
        E 84 99 58 71
        E 88 89 24 51
        E 138 99 24 69
        E 4 99 5b 63
        E 14 89 58 40
        E 19 99 5d 49
        E 16 89 5b 68
        E 21 89 24 60
        E 9 89 5d 64
        E 159 99 31 75
        E 2 99 5d 67
        E 14 99 24 6b
        E 35 89 31 77
        E 9 89 5d 6a
        E 52 99 5b 60
        E 50 89 5b 68
        E 183 99 59 65
        E 47 89 59 6d
        E 99 99 58 6d
        E 42 89 24 53
        E 180 99 24 69
        E 11 99 5b 62
        E 17 99 5d 5a
        E 18 89 58 39
        E 9 89 5b 66
        E 17 89 24 5c
        E 6 89 5d 69
        E 23 99 34 69
        E 59 89 34 6f
        E 63 99 39 77
        E 40 99 5d 65
        E 5 89 39 6f
        E 8 99 32 61
        E 39 89 32 40
        E 4 89 5d 69
        E 17 99 32 67
        E 41 89 32 40
        E 19 99 24 52
        E 39 89 24 40
        E 21 99 24 61
        E 40 89 24 40
        E 20 99 2d 6c
        E 40 89 2d 40
        E 20 99 2d 67
        E 39 89 2d 40
        E 21 99 24 58
        E 40 89 24 40
        E 20 99 24 58
        E 39 89 24 40
        E 21 99 29 6c
        E 40 89 29 40
        E 20 99 29 67
        E 40 89 29 40
        E 20 99 24 52
        E 39 89 24 40
        E 21 99 24 61
        E 39 89 24 40
        E 21 99 31 59
        E 0 99 26 67
        E 38 89 26 40
        E 1 89 31 40
        E 201 99 24 7d
        E 3 99 2a 6e
        E 16 89 24 40
        E 3 89 2a 40
        E 98 99 24 65
        E 3 99 2a 48
        E 16 89 24 40
        E 3 89 2a 40
        E 99 99 2a 47
        E 19 89 2a 40
        E 100 99 24 56
        E 2 99 2a 35
        E 17 89 24 40
        E 2 89 2a 40
        E 99 99 24 60
        E 3 99 2a 51
        E 17 89 24 40
        E 2 89 2a 40
        E 101 99 2a 50
        E 19 89 2a 40
        E 100 99 2e 5c
        E 0 99 26 69
        E 19 89 2e 40
        E 1 89 26 40
        E 101 99 2a 51
        E 20 89 2a 40
        E 97 99 24 7d
        E 1 99 2a 6c
        E 18 89 24 40
        E 1 89 2a 40
        E 100 99 24 65
        E 3 99 2a 45
        E 16 89 24 40
        E 3 89 2a 40
        E 101 99 2a 49
        E 19 89 2a 40
        E 98 99 24 56
        E 2 99 2a 47
        E 17 89 24 40
        E 2 89 2a 40
        E 99 99 24 60
        E 1 99 2a 58
        E 19 89 24 40
        E 0 89 2a 40
        E 103 99 2a 58
        E 19 89 2a 40
        E 99 99 26 63
        E 1 99 2e 59
        E 19 89 26 40
        E 0 89 2e 40
        E 102 99 2a 4a
        E 20 89 2a 40
        E 97 99 24 7d
        E 3 99 2a 6b
        E 16 89 24 40
        E 3 89 2a 40
        E 98 99 24 65
        E 3 99 2a 49
        E 16 89 24 40
        E 3 89 2a 40
        E 99 99 2a 46
        E 19 89 2a 40
        E 100 99 24 56
        E 3 99 2a 43
        E 16 89 24 40
        E 3 89 2a 40
        E 98 99 24 60
        E 1 99 2a 5d
        E 19 89 24 40
        E 0 89 2a 40
        E 103 99 2a 58
        E 19 89 2a 40
        E 101 99 2e 63
        E 0 99 26 5e
        E 19 89 2e 40
        E 1 89 26 40
        E 99 99 2a 53
        E 20 89 2a 40
        E 98 99 24 7d
        E 3 99 2a 73
        E 16 89 24 40
        E 3 89 2a 40
        E 98 99 24 65
        E 3 99 2a 40
        E 16 89 24 40
        E 3 89 2a 40
        E 100 99 2a 3e
        E 19 89 2a 40
        E 99 99 24 56
        E 3 99 2a 38
        E 16 89 24 40
        E 3 89 2a 40
        E 98 99 24 60
        E 3 99 2a 57
        E 17 89 24 40
        E 2 89 2a 40
        E 100 99 2a 5c
        E 19 89 2a 40
        E 101 99 2e 63
        E 1 99 26 65
        E 18 89 2e 40
        E 2 89 26 40
        E 99 99 2a 56
        E 20 89 2a 40
        E 98 99 24 7d
        E 3 99 2a 6e
        E 16 89 24 40
        E 3 89 2a 40
        E 98 99 24 65
        E 3 99 2a 48
        E 16 89 24 40
        E 3 89 2a 40
        E 99 99 2a 47
        E 19 89 2a 40
        E 100 99 24 56
        E 2 99 2a 35
        E 17 89 24 40
        E 2 89 2a 40
        E 99 99 24 60
        E 3 99 2a 51
        E 17 89 24 40
        E 2 89 2a 40
        E 101 99 2a 50
        E 19 89 2a 40
        E 100 99 2e 5c
        E 0 99 26 69
        E 19 89 2e 40
        E 1 89 26 40
        E 101 99 2a 51
        E 20 89 2a 40
        E 97 99 24 7d
        E 1 99 2a 6c
        E 18 89 24 40
        E 1 89 2a 40
        E 100 99 24 65
        E 3 99 2a 45
        E 16 89 24 40
        E 3 89 2a 40
        E 101 99 2a 49
        E 19 89 2a 40
        E 98 99 24 56
        E 2 99 2a 47
        E 17 89 24 40
        E 2 89 2a 40
        E 99 99 24 60
        E 1 99 2a 58
        E 19 89 24 40
        E 0 89 2a 40
        E 103 99 2a 58
        E 19 89 2a 40
        E 99 99 26 63
        E 1 99 2e 59
        E 19 89 26 40
        E 0 89 2e 40
        E 102 99 2a 4a
        E 20 89 2a 40
        E 97 99 24 7d
        E 3 99 2a 6b
        E 16 89 24 40
        E 3 89 2a 40
        E 98 99 24 65
        E 3 99 2a 49
        E 16 89 24 40
        E 3 89 2a 40
        E 99 99 2a 46
        E 19 89 2a 40
        E 100 99 24 56
        E 3 99 2a 43
        E 16 89 24 40
        E 3 89 2a 40
        E 98 99 24 60
        E 1 99 2a 5d
        E 19 89 24 40
        E 0 89 2a 40
        E 103 99 2a 58
        E 19 89 2a 40
        E 101 99 2e 63
        E 0 99 26 5e
        E 19 89 2e 40
        E 1 89 26 40
        E 99 99 2a 53
        E 20 89 2a 40
        E 98 99 24 7d
        E 3 99 2a 73
        E 16 89 24 40
        E 3 89 2a 40
        E 98 99 24 65
        E 3 99 2a 40
        E 16 89 24 40
        E 3 89 2a 40
        E 100 99 2a 3e
        E 19 89 2a 40
        E 99 99 24 56
        E 3 99 2a 38
        E 16 89 24 40
        E 3 89 2a 40
        E 98 99 24 60
        E 3 99 2a 57
        E 17 89 24 40
        E 2 89 2a 40
        E 100 99 2a 5c
        E 19 89 2a 40
        E 101 99 2e 63
        E 1 99 26 65
        E 18 89 2e 40
        E 2 89 26 40
        E 99 99 2a 56
        E 20 89 2a 40
        E 98 99 24 7d
        E 3 99 2a 6e
        E 16 89 24 40
        E 3 89 2a 40
        E 98 99 24 65
        E 3 99 2a 48
        E 16 89 24 40
        E 3 89 2a 40
        E 99 99 2a 47
        E 19 89 2a 40
        E 100 99 24 56
        E 2 99 2a 35
        E 17 89 24 40
        E 2 89 2a 40
        E 99 99 24 60
        E 3 99 2a 51
        E 17 89 24 40
        E 2 89 2a 40
        E 101 99 2a 50
        E 19 89 2a 40
        E 100 99 2e 5c
        E 0 99 26 69
        E 19 89 2e 40
        E 1 89 26 40
        E 101 99 2a 51
        E 20 89 2a 40
        E 97 99 24 7d
        E 1 99 2a 6c
        E 18 89 24 40
        E 1 89 2a 40
        E 100 99 24 65
        E 3 99 2a 45
        E 16 89 24 40
        E 3 89 2a 40
        E 101 99 2a 49
        E 19 89 2a 40
        E 98 99 24 56
        E 2 99 2a 47
        E 17 89 24 40
        E 2 89 2a 40
        E 99 99 24 60
        E 1 99 2a 58
        E 19 89 24 40
        E 0 89 2a 40
        E 103 99 2a 58
        E 19 89 2a 40
        E 99 99 26 63
        E 1 99 2e 59
        E 19 89 26 40
        E 0 89 2e 40
        E 102 99 2a 4a
        E 20 89 2a 40
        E 97 99 24 7d
        E 3 99 2a 6b
        E 16 89 24 40
        E 3 89 2a 40
        E 98 99 24 65
        E 3 99 2a 49
        E 16 89 24 40
        E 3 89 2a 40
        E 99 99 2a 46
        E 19 89 2a 40
        E 100 99 24 56
        E 3 99 2a 43
        E 16 89 24 40
        E 3 89 2a 40
        E 98 99 24 60
        E 1 99 2a 5d
        E 19 89 24 40
        E 0 89 2a 40
        E 103 99 2a 58
        E 19 89 2a 40
        E 101 99 2e 63
        E 0 99 26 5e
        E 19 89 2e 40
        E 1 89 26 40
        E 99 99 2a 53
        E 20 89 2a 40
        E 98 99 24 7d
        E 3 99 2a 73
        E 16 89 24 40
        E 3 89 2a 40
        E 98 99 24 65
        E 3 99 2a 40
        E 16 89 24 40
        E 3 89 2a 40
        E 100 99 2a 3e
        E 19 89 2a 40
        E 99 99 24 56
        E 3 99 2a 38
        E 16 89 24 40
        E 3 89 2a 40
        E 98 99 24 60
        E 3 99 2a 57
        E 17 89 24 40
        E 2 89 2a 40
        E 100 99 2a 5c
        E 19 89 2a 40
        E 101 99 2e 63
        E 1 99 26 65
        E 18 89 2e 40
        E 2 89 26 40
        E 99 99 2a 56
        E 20 89 2a 40
        E 98 99 24 7d
        E 3 99 2a 6e
        E 16 89 24 40
        E 3 89 2a 40
        E 98 99 24 65
        E 3 99 2a 48
        E 16 89 24 40
        E 3 89 2a 40
        E 99 99 2a 47
        E 19 89 2a 40
        E 100 99 24 56
        E 2 99 2a 35
        E 17 89 24 40
        E 2 89 2a 40
        E 99 99 24 60
        E 3 99 2a 51
        E 17 89 24 40
        E 2 89 2a 40
        E 101 99 2a 50
        E 19 89 2a 40
        E 100 99 2e 5c
        E 0 99 26 69
        E 19 89 2e 40
        E 1 89 26 40
        E 101 99 2a 51
        E 20 89 2a 40
        E 97 99 24 7d
        E 1 99 2a 6c
        E 18 89 24 40
        E 1 89 2a 40
        E 100 99 24 65
        E 3 99 2a 45
        E 16 89 24 40
        E 3 89 2a 40
        E 101 99 2a 49
        E 19 89 2a 40
        E 98 99 24 56
        E 2 99 2a 47
        E 17 89 24 40
        E 2 89 2a 40
        E 99 99 24 60
        E 1 99 2a 58
        E 19 89 24 40
        E 0 89 2a 40
        E 103 99 2a 58
        E 19 89 2a 40
        E 99 99 26 63
        E 1 99 2e 59
        E 19 89 26 40
        E 0 89 2e 40
        E 102 99 2a 4a
        E 20 89 2a 40
        E 97 99 24 7d
        E 3 99 2a 6e
        E 16 89 24 40
        E 3 89 2a 40
        E 98 99 24 65
        E 3 99 2a 48
        E 16 89 24 40
        E 3 89 2a 40
        E 99 99 2a 47
        E 19 89 2a 40
        E 100 99 24 56
        E 2 99 2a 35
        E 17 89 24 40
        E 2 89 2a 40
        E 99 99 24 60
        E 3 99 2a 51
        E 17 89 24 40
        E 2 89 2a 40
        E 101 99 2a 50
        E 19 89 2a 40
        E 100 99 2e 5c
        E 0 99 26 69
        E 19 89 2e 40
        E 1 89 26 40
        E 101 99 2a 51
        E 20 89 2a 40
        E 97 99 24 7d
        E 1 99 2a 6c
        E 18 89 24 40
        E 1 89 2a 40
        E 100 99 24 65
        E 3 99 2a 45
        E 16 89 24 40
        E 3 89 2a 40
        E 101 99 2a 49
        E 19 89 2a 40
        E 98 99 24 56
        E 2 99 2a 47
        E 17 89 24 40
        E 2 89 2a 40
        E 99 99 24 60
        E 1 99 2a 58
        E 19 89 24 40
        E 0 89 2a 40
        E 103 99 2a 58
        E 19 89 2a 40
        E 99 99 26 63
        E 1 99 2e 59
        E 19 89 26 40
        E 0 89 2e 40
        E 102 99 2a 4a
        E 20 89 2a 40
        E 97 99 24 7d
        E 3 99 2a 6e
        E 16 89 24 40
        E 3 89 2a 40
        E 98 99 24 65
        E 3 99 2a 48
        E 16 89 24 40
        E 3 89 2a 40
        E 99 99 2a 47
        E 19 89 2a 40
        E 100 99 24 56
        E 2 99 2a 35
        E 17 89 24 40
        E 2 89 2a 40
        E 99 99 24 60
        E 3 99 2a 51
        E 17 89 24 40
        E 2 89 2a 40
        E 101 99 2a 50
        E 19 89 2a 40
        E 100 99 2e 5c
        E 0 99 26 69
        E 19 89 2e 40
        E 1 89 26 40
        E 101 99 2a 51
        E 20 89 2a 40
        E 97 99 24 7d
        E 1 99 2a 6c
        E 18 89 24 40
        E 1 89 2a 40
        E 100 99 24 65
        E 3 99 2a 45
        E 16 89 24 40
        E 3 89 2a 40
        E 101 99 2a 49
        E 19 89 2a 40
        E 98 99 24 56
        E 2 99 2a 47
        E 17 89 24 40
        E 2 89 2a 40
        E 99 99 24 60
        E 1 99 2a 58
        E 19 89 24 40
        E 0 89 2a 40
        E 103 99 2a 58
        E 19 89 2a 40
        E 99 99 26 63
        E 1 99 2e 59
        E 19 89 26 40
        E 0 89 2e 40
        E 102 99 2a 4a
        E 20 89 2a 40
        E 97 99 24 7d
        E 3 99 2a 6b
        E 16 89 24 40
        E 3 89 2a 40
        E 98 99 24 65
        E 3 99 2a 49
        E 16 89 24 40
        E 3 89 2a 40
        E 99 99 2a 46
        E 19 89 2a 40
        E 100 99 24 56
        E 3 99 2a 43
        E 16 89 24 40
        E 3 89 2a 40
        E 98 99 24 60
        E 1 99 2a 5d
        E 19 89 24 40
        E 0 89 2a 40
        E 103 99 2a 58
        E 19 89 2a 40
        E 101 99 2e 63
        E 0 99 26 5e
        E 19 89 2e 40
        E 1 89 26 40
        E 99 99 2a 53
        E 20 89 2a 40
        E 98 99 24 7d
        E 3 99 2a 73
        E 16 89 24 40
        E 3 89 2a 40
        E 98 99 24 65
        E 3 99 2a 40
        E 16 89 24 40
        E 3 89 2a 40
        E 100 99 2a 3e
        E 19 89 2a 40
        E 99 99 24 56
        E 3 99 2a 38
        E 16 89 24 40
        E 3 89 2a 40
        E 98 99 24 60
        E 3 99 2a 57
        E 17 89 24 40
        E 2 89 2a 40
        E 100 99 2a 5c
        E 19 89 2a 40
        E 101 99 2e 63
        E 1 99 26 65
        E 18 89 2e 40
        E 2 89 26 40
        E 99 99 2a 56
        E 20 89 2a 40
        E 98 99 24 7d
        E 3 99 2a 6e
        E 16 89 24 40
        E 3 89 2a 40
        E 98 99 24 65
        E 3 99 2a 48
        E 16 89 24 40
        E 3 89 2a 40
        E 99 99 2a 47
        E 19 89 2a 40
        E 100 99 24 56
        E 2 99 2a 35
        E 17 89 24 40
        E 2 89 2a 40
        E 99 99 24 60
        E 3 99 2a 51
        E 17 89 24 40
        E 2 89 2a 40
        E 101 99 2a 50
        E 19 89 2a 40
        E 100 99 2e 5c
        E 0 99 26 69
        E 19 89 2e 40
        E 1 89 26 40
        E 101 99 2a 51
        E 20 89 2a 40
        E 97 99 24 7d
        E 1 99 2a 6c
        E 18 89 24 40
        E 1 89 2a 40
        E 100 99 24 65
        E 3 99 2a 45
        E 16 89 24 40
        E 3 89 2a 40
        E 101 99 2a 49
        E 19 89 2a 40
        E 98 99 24 56
        E 2 99 2a 47
        E 17 89 24 40
        E 2 89 2a 40
        E 99 99 24 60
        E 1 99 2a 58
        E 19 89 24 40
        E 0 89 2a 40
        E 103 99 2a 58
        E 19 89 2a 40
        E 99 99 26 63
        E 1 99 2e 59
        E 19 89 26 40
        E 0 89 2e 40
        E 102 99 2a 4a
        E 20 89 2a 40
        E 97 99 24 7d
        E 3 99 2a 6b
        E 16 89 24 40
        E 3 89 2a 40
        E 98 99 24 65
        E 3 99 2a 49
        E 16 89 24 40
        E 3 89 2a 40
        E 99 99 2a 46
        E 19 89 2a 40
        E 100 99 24 56
        E 3 99 2a 43
        E 16 89 24 40
        E 3 89 2a 40
        E 98 99 24 60
        E 1 99 2a 5d
        E 19 89 24 40
        E 0 89 2a 40
        E 103 99 2a 58
        E 19 89 2a 40
        E 101 99 2e 63
        E 0 99 26 5e
        E 19 89 2e 40
        E 1 89 26 40
        E 99 99 2a 53
        E 20 89 2a 40
        E 98 99 24 7d
        E 3 99 2a 73
        E 16 89 24 40
        E 3 89 2a 40
        E 98 99 24 65
        E 3 99 2a 40
        E 16 89 24 40
        E 3 89 2a 40
        E 100 99 2a 3e
        E 19 89 2a 40
        E 99 99 24 56
        E 3 99 2a 38
        E 16 89 24 40
        E 3 89 2a 40
        E 98 99 24 60
        E 3 99 2a 57
        E 17 89 24 40
        E 2 89 2a 40
        E 100 99 2a 5c
        E 19 89 2a 40
        E 101 99 2e 63
        E 1 99 26 65
        E 18 89 2e 40
        E 2 89 26 40
        E 99 99 2a 56
        E 20 89 2a 40
        E 98 99 24 7d
        E 3 99 2a 6e
        E 16 89 24 40
        E 3 89 2a 40
        E 98 99 24 65
        E 3 99 2a 48
        E 16 89 24 40
        E 3 89 2a 40
        E 99 99 2a 47
        E 19 89 2a 40
        E 100 99 24 56
        E 2 99 2a 35
        E 17 89 24 40
        E 2 89 2a 40
        E 99 99 24 60
        E 3 99 2a 51
        E 17 89 24 40
        E 2 89 2a 40
        E 101 99 2a 50
        E 19 89 2a 40
        E 100 99 2e 5c
        E 0 99 26 69
        E 19 89 2e 40
        E 1 89 26 40
        E 101 99 2a 51
        E 20 89 2a 40
        E 97 99 24 7d
        E 1 99 2a 6c
        E 18 89 24 40
        E 1 89 2a 40
        E 100 99 24 65
        E 3 99 2a 45
        E 16 89 24 40
        E 3 89 2a 40
        E 101 99 2a 49
        E 19 89 2a 40
        E 98 99 24 56
        E 2 99 2a 47
        E 17 89 24 40
        E 2 89 2a 40
        E 99 99 24 60
        E 1 99 2a 58
        E 19 89 24 40
        E 0 89 2a 40
        E 103 99 2a 58
        E 19 89 2a 40
        E 99 99 26 63
        E 1 99 2e 59
        E 19 89 26 40
        E 0 89 2e 40
        E 102 99 2a 4a
        E 20 89 2a 40
        E 97 99 24 7d
        E 3 99 2a 6b
        E 16 89 24 40
        E 3 89 2a 40
        E 98 99 24 65
        E 3 99 2a 49
        E 16 89 24 40
        E 3 89 2a 40
        E 99 99 2a 46
        E 19 89 2a 40
        E 100 99 24 56
        E 3 99 2a 43
        E 16 89 24 40
        E 3 89 2a 40
        E 98 99 24 60
        E 1 99 2a 5d
        E 19 89 24 40
        E 0 89 2a 40
        E 103 99 2a 58
        E 19 89 2a 40
        E 101 99 2e 63
        E 0 99 26 5e
        E 19 89 2e 40
        E 1 89 26 40
        E 99 99 2a 53
        E 20 89 2a 40
        E 98 99 24 7d
        E 3 99 2a 73
        E 16 89 24 40
        E 3 89 2a 40
        E 98 99 24 65
        E 3 99 2a 40
        E 16 89 24 40
        E 3 89 2a 40
        E 100 99 2a 3e
        E 19 89 2a 40
        E 99 99 24 56
        E 3 99 2a 38
        E 16 89 24 40
        E 3 89 2a 40
        E 98 99 24 60
        E 3 99 2a 57
        E 17 89 24 40
        E 2 89 2a 40
        E 100 99 2a 5c
        E 19 89 2a 40
        E 101 99 2e 63
        E 1 99 26 65
        E 18 89 2e 40
        E 2 89 26 40
        E 99 99 2a 56
        E 20 89 2a 40
        E 98 99 24 6e
        E 0 99 24 7d
        E 3 99 2a 6e
        E 16 89 24 40
        E 3 89 2a 40
        E 98 99 24 65
        E 3 99 2a 48
        E 16 89 24 40
        E 3 89 2a 40
        E 98 89 24 6e
        E 1 99 2a 47
        E 19 89 2a 40
        E 100 99 24 56
        E 2 99 2a 35
        E 17 89 24 40
        E 2 89 2a 40
        E 65 99 26 66
        E 34 99 24 60
        E 3 99 2a 51
        E 17 89 26 66
        E 0 89 24 40
        E 2 89 2a 40
        E 0 99 26 67
        E 101 99 2a 50
        E 19 89 2a 40
        E 100 99 2e 5c
        E 0 99 26 69
        E 19 89 2e 40
        E 1 89 26 40
        E 101 99 2a 51
        E 20 89 2a 40
        E 93 99 24 7e
        E 4 99 24 7d
        E 1 99 2a 6c
        E 18 89 24 40
        E 1 89 2a 40
        E 100 99 24 65
        E 3 99 2a 45
        E 16 89 24 40
        E 3 89 2a 40
        E 70 99 2f 76
        E 31 99 2a 49
        E 13 89 2f 76
        E 4 99 2f 76
        E 2 89 2a 40
        E 98 99 24 56
        E 2 99 2a 47
        E 17 89 24 40
        E 2 89 2a 40
        E 99 99 24 60
        E 1 99 2a 58
        E 19 89 24 40
        E 0 89 2a 40
        E 103 99 2a 58
        E 19 89 2a 40
        E 99 99 26 63
        E 1 99 2e 59
        E 10 89 26 67
        E 9 89 2e 40
        E 0 89 26 40
        E 102 99 2a 4a
        E 20 89 2a 40
        E 59 99 2d 67
        E 8 89 24 7e
        E 2 99 24 7e
        E 28 89 2d 67
        E 0 99 2d 7d
        E 0 99 24 7d
        E 3 99 2a 6b
        E 16 89 24 40
        E 3 89 2a 40
        E 98 99 24 65
        E 3 99 2a 49
        E 16 89 24 40
        E 3 89 2a 40
        E 99 99 2a 46
        E 19 89 2a 40
        E 100 99 24 56
        E 3 99 2a 43
        E 16 89 24 40
        E 3 89 2a 40
        E 98 99 24 60
        E 1 99 2a 5d
        E 9 89 2f 76
        E 10 89 2a 40
        E 0 89 24 40
        E 103 99 2a 58
        E 19 89 2a 40
        E 101 99 2e 63
        E 0 99 26 5e
        E 3 99 2f 2d
        E 16 89 2e 40
        E 1 89 26 40
        E 73 89 2f 2d
        E 0 99 2f 35
        E 26 99 2a 53
        E 20 89 2a 40
        E 58 89 24 7e
        E 0 99 24 7e
        E 16 89 2d 7d
        E 0 99 2d 6f
        E 224 89 2d 6f
        E 0 99 2d 76
        E 230 99 29 69
        E 224 89 29 69
        E 2 99 29 7a
        E 280 89 24 7e
        E 0 99 24 7e
        E 10 99 39 7e
        E 14 99 24 6e
        E 86 89 2f 35
        E 34 89 24 6e
        E 103 99 26 66
        E 27 89 26 66
        E 1 99 26 67
        E 179 89 2d 76
        E 48 99 24 7e
        E 108 99 2f 76
        E 22 89 2f 76
        E 2 99 2f 76
        E 236 89 26 67
        E 95 99 2d 67
        E 4 89 24 7e
        E 1 99 24 7e
        E 14 89 2d 67
        E 0 99 2d 7d
        E 210 89 24 7e
        E 10 89 39 7e
        E 25 89 2f 76
        E 118 99 2f 2d
        E 45 89 2f 2d
        E 0 99 2f 35
        E 52 89 24 7e
        E 0 99 24 7e
        E 8 89 2d 7d
        E 0 99 2d 6f
        E 112 89 2d 6f
        E 0 99 2d 76
        E 115 99 29 69
        E 112 89 29 69
        E 1 99 29 7a
        E 140 89 24 7e
        E 0 99 24 7e
        E 5 99 39 7e
        E 7 99 24 6e
        E 43 89 2f 35
        E 77 89 24 6e
        E 95 89 2d 76
        E 8 99 26 66
        E 27 89 26 66
        E 1 99 26 67
        E 227 99 24 7e
        E 107 89 24 7e
        E 1 99 2f 76
        E 4 89 39 7e
        E 18 89 2f 76
        E 2 99 2f 76
        E 142 89 29 7a
        E 94 89 26 67
        E 95 99 2d 67
        E 4 89 24 7e
        E 1 99 24 7e
        E 14 89 2d 67
        E 0 99 2d 7d
        E 245 89 2f 76
        E 118 99 2f 2d
        E 13 89 29 7a
        E 32 89 2f 2d
        E 0 99 2f 35
        E 52 89 24 7e
        E 0 99 24 7e
        E 8 89 2d 7d
        E 0 99 2d 6f
        E 112 89 2d 6f
        E 0 99 2d 76
        E 115 99 29 69
        E 112 89 29 69
        E 1 99 29 7a
        E 140 89 24 7e
        E 0 99 24 7e
        E 5 99 39 7e
        E 7 99 24 6e
        E 43 89 2f 35
        E 77 89 24 6e
        E 95 89 2d 76
        E 8 99 26 66
        E 27 89 26 66
        E 1 99 26 67
        E 227 99 24 7e
        E 107 89 24 7e
        E 1 99 2f 76
        E 4 89 39 7e
        E 18 89 2f 76
        E 2 99 2f 76
        E 236 89 26 67
        E 95 99 2d 67
        E 4 89 24 7e
        E 1 99 24 7e
        E 14 89 2d 67
        E 0 99 2d 7d
        E 245 89 2f 76
        E 118 99 2f 2d
        E 13 89 29 7a
        E 32 89 2f 2d
        E 0 99 2f 35
        E 52 89 24 7e
        E 0 99 24 7e
        E 8 89 2d 7d
        E 0 99 2d 6f
        E 112 89 2d 6f
        E 0 99 2d 76
        E 115 99 29 69
        E 112 89 29 69
        E 1 99 29 7a
        E 140 89 24 7e
        E 0 99 24 7e
        E 5 99 39 7e
        E 7 99 24 6e
        E 43 89 2f 35
        E 77 89 24 6e
        E 95 89 2d 76
        E 8 99 26 66
        E 27 89 26 66
        E 1 99 26 67
        E 227 99 24 7e
        E 107 89 24 7e
        E 1 99 2f 76
        E 4 89 39 7e
        E 18 89 2f 76
        E 2 99 2f 76
        E 236 89 26 67
        E 95 99 2d 67
        E 4 89 24 7e
        E 1 99 24 7e
        E 14 89 2d 67
        E 0 99 2d 7d
        E 245 89 2f 76
        E 118 99 2f 2d
        E 13 89 29 7a
        E 32 89 2f 2d
        E 0 99 2f 35
        E 52 89 24 7e
        E 0 99 24 7e
        E 8 89 2d 7d
        E 0 99 2d 6f
        E 112 89 2d 6f
        E 0 99 2d 76
        E 115 99 29 69
        E 112 89 29 69
        E 1 99 29 7a
        E 140 89 24 7e
        E 0 99 24 7e
        E 5 99 39 7e
        E 7 99 24 6e
        E 43 89 2f 35
        E 77 89 24 6e
        E 95 89 2d 76
        E 8 99 26 66
        E 27 89 26 66
        E 1 99 26 67
        E 227 99 24 7e
        E 107 89 24 7e
        E 1 99 2f 76
        E 4 89 39 7e
        E 18 89 2f 76
        E 2 99 2f 76
        E 236 89 26 67
        E 95 99 2d 67
        E 4 89 24 7e
        E 1 99 24 7e
        E 14 89 2d 67
        E 0 99 2d 7d
        E 245 89 2f 76
        E 118 99 2f 2d
        E 13 89 29 7a
        E 32 89 2f 2d
        E 0 99 2f 35
        E 52 89 24 7e
        E 0 99 24 7e
        E 8 89 2d 7d
        E 0 99 2d 6f
        E 112 89 2d 6f
        E 0 99 2d 76
        E 115 99 29 69
        E 112 89 29 69
        E 1 99 29 7a
        E 140 89 24 7e
        E 0 99 24 7e
        E 5 99 39 7e
        E 7 99 24 6e
        E 43 89 2f 35
        E 77 89 24 6e
        E 95 89 2d 76
        E 8 99 26 66
        E 27 89 26 66
        E 1 99 26 67
        E 227 99 24 7e
        E 107 89 24 7e
        E 1 99 2f 76
        E 4 89 39 7e
        E 18 89 2f 76
        E 2 99 2f 76
        E 236 89 26 67
        E 95 99 2d 67
        E 4 89 24 7e
        E 1 99 24 7e
        E 14 89 2d 67
        E 0 99 2d 7d
        E 245 89 2f 76
        E 118 99 2f 2d
        E 13 89 29 7a
        E 32 89 2f 2d
        E 0 99 2f 35
        E 52 89 24 7e
        E 0 99 24 7e
        E 8 89 2d 7d
        E 0 99 2d 6f
        E 112 89 2d 6f
        E 0 99 2d 76
        E 115 99 29 69
        E 112 89 29 69
        E 1 99 29 7a
        E 140 89 24 7e
        E 0 99 24 7e
        E 5 99 39 7e
        E 7 99 24 6e
        E 43 89 2f 35
        E 77 89 24 6e
        E 95 89 2d 76
        E 8 99 26 66
        E 27 89 26 66
        E 1 99 26 67
        E 227 99 24 7e
        E 107 89 24 7e
        E 1 99 2f 76
        E 4 89 39 7e
        E 18 89 2f 76
        E 2 99 2f 76
        E 236 89 26 67
        E 95 99 2d 67
        E 4 89 24 7e
        E 1 99 24 7e
        E 14 89 2d 67
        E 0 99 2d 7d
        E 245 89 2f 76
        E 118 99 2f 2d
        E 13 89 29 7a
        E 32 89 2f 2d
        E 0 99 2f 35
        E 52 89 24 7e
        E 0 99 24 7e
        E 8 89 2d 7d
        E 0 99 2d 6f
        E 112 89 2d 6f
        E 0 99 2d 76
        E 115 99 29 69
        E 112 89 29 69
        E 1 99 29 7a
        E 140 89 24 7e
        E 0 99 24 7e
        E 5 99 39 7e
        E 7 99 24 6e
        E 43 89 2f 35
        E 77 89 24 6e
        E 95 89 2d 76
        E 8 99 26 66
        E 27 89 26 66
        E 1 99 26 67
        E 227 99 24 7e
        E 107 89 24 7e
        E 1 99 2f 76
        E 4 89 39 7e
        E 18 89 2f 76
        E 2 99 2f 76
        E 236 89 26 67
        E 95 99 2d 67
        E 4 89 24 7e
        E 1 99 24 7e
        E 14 89 2d 67
        E 0 99 2d 7d
        E 245 89 2f 76
        E 118 99 2f 2d
        E 13 89 29 7a
        E 32 89 2f 2d
        E 0 99 2f 35
        E 52 89 24 7e
        E 0 99 24 7e
        E 8 89 2d 7d
        E 0 99 2d 6f
        E 112 89 2d 6f
        E 0 99 2d 76
        E 115 99 29 69
        E 112 89 29 69
        E 1 99 29 7a
        E 140 89 24 7e
        E 0 99 24 7e
        E 5 99 39 7e
        E 7 99 24 6e
        E 43 89 2f 35
        E 77 89 24 6e
        E 95 89 2d 76
        E 8 99 26 66
        E 27 89 26 66
        E 1 99 26 67
        E 227 99 24 7e
        E 107 89 24 7e
        E 1 99 2f 76
        E 4 89 39 7e
        E 18 89 2f 76
        E 2 99 2f 76
        E 236 89 26 67
        E 95 99 2d 67
        E 4 89 24 7e
        E 1 99 24 7e
        E 14 89 2d 67
        E 0 99 2d 7d
        E 245 89 2f 76
        E 118 99 2f 2d
        E 13 89 29 7a
        E 32 89 2f 2d
        E 0 99 2f 35
        E 52 89 24 7e
        E 0 99 24 7e
        E 8 89 2d 7d
        E 0 99 2d 6f
        E 112 89 2d 6f
        E 0 99 2d 76
        E 115 99 29 69
        E 112 89 29 69
        E 1 99 29 7a
        E 140 89 24 7e
        E 0 99 24 7e
        E 5 99 39 7e
        E 7 99 24 6e
        E 43 89 2f 35
        E 77 89 24 6e
        E 95 89 2d 76
        E 8 99 26 66
        E 27 89 26 66
        E 1 99 26 67
        E 227 99 24 7e
        E 107 89 24 7e
        E 1 99 2f 76
        E 4 89 39 7e
        E 18 89 2f 76
        E 2 99 2f 76
        E 236 89 26 67
        E 95 99 2d 67
        E 4 89 24 7e
        E 1 99 24 7e
        E 14 89 2d 67
        E 0 99 2d 7d
        E 245 89 2f 76
        E 118 99 2f 2d
        E 13 89 29 7a
        E 32 89 2f 2d
        E 0 99 2f 35
        E 52 89 24 7e
        E 0 99 24 7e
        E 8 89 2d 7d
        E 0 99 2d 6f
        E 112 89 2d 6f
        E 0 99 2d 76
        E 115 99 29 69
        E 112 89 29 69
        E 1 99 29 7a
        E 140 89 24 7e
        E 0 99 24 7e
        E 5 99 39 7e
        E 7 99 24 6e
        E 43 89 2f 35
        E 77 89 24 6e
        E 95 89 2d 76
        E 8 99 26 66
        E 27 89 26 66
        E 1 99 26 67
        E 227 99 24 7e
        E 107 89 24 7e
        E 1 99 2f 76
        E 4 89 39 7e
        E 18 89 2f 76
        E 2 99 2f 76
        E 236 89 26 67
        E 95 99 2d 67
        E 4 89 24 7e
        E 1 99 24 7e
        E 14 89 2d 67
        E 0 99 2d 7d
        E 245 89 2f 76
        E 118 99 2f 2d
        E 13 89 29 7a
        E 32 89 2f 2d
        E 0 99 2f 35
        E 52 89 24 7e
        E 0 99 24 7e
        E 8 89 2d 7d
        E 0 99 2d 6f
        E 112 89 2d 6f
        E 0 99 2d 76
        E 115 99 29 69
        E 112 89 29 69
        E 1 99 29 7a
        E 140 89 24 7e
        E 0 99 24 7e
        E 5 99 39 7e
        E 7 99 24 6e
        E 43 89 2f 35
        E 77 89 24 6e
        E 95 89 2d 76
        E 8 99 26 66
        E 27 89 26 66
        E 1 99 26 67
        E 227 99 24 7e
        E 107 89 24 7e
        E 1 99 2f 76
        E 4 89 39 7e
        E 18 89 2f 76
        E 2 99 2f 76
        E 236 89 26 67
        E 95 99 2d 67
        E 4 89 24 7e
        E 1 99 24 7e
        E 14 89 2d 67
        E 0 99 2d 7d
        E 245 89 2f 76
        E 118 99 2f 2d
        E 13 89 29 7a
        E 32 89 2f 2d
        E 0 99 2f 35
        E 52 89 24 7e
        E 0 99 24 7e
        E 8 89 2d 7d
        E 0 99 2d 6f
        E 112 89 2d 6f
        E 0 99 2d 76
        E 115 99 29 69
        E 112 89 29 69
        E 1 99 29 7a
        E 140 89 24 7e
        E 0 99 24 7e
        E 3 99 31 75
        E 2 99 39 7e
        E 7 99 24 67
        E 1 99 2a 5b
        E 0 99 31 76
        E 23 89 31 7a
        E 19 89 2f 35
        E 16 89 2a 40
        E 1 99 2a 3d
        E 5 89 24 40
        E 54 99 24 73
        E 1 89 2a 40
        E 0 99 2a 59
        E 56 89 24 40
        E 4 89 2a 40
        E 1 99 2a 44
        E 34 89 2d 76
        E 25 89 2a 40
        E 0 99 24 6d
        E 1 99 2a 5e
        E 59 89 24 40
        E 0 89 2a 40
        E 0 99 2a 40
        E 59 99 24 6f
        E 1 89 2a 40
        E 1 99 2a 64
        E 55 89 24 40
        E 5 89 2a 40
        E 0 99 2a 35
        E 59 89 2a 40
        E 0 99 24 6b
        E 1 99 2a 5d
        E 8 99 58 7b
        E 50 89 2a 40
        E 0 99 2a 31
        E 11 89 24 40
        E 35 89 24 7e
        E 5 89 39 7e
        E 9 89 2a 40
        E 1 99 24 64
        E 1 99 2a 63
        E 57 89 24 40
        E 3 89 2a 40
        E 0 99 2a 41
        E 59 89 2a 40
        E 0 99 24 71
        E 1 99 2a 68
        E 31 89 31 40
        E 29 89 2a 40
        E 0 99 2a 3d
        E 3 89 24 40
        E 56 99 24 62
        E 1 89 2a 40
        E 0 99 2a 69
        E 54 89 24 40
        E 6 89 2a 40
        E 0 99 2a 39
        E 47 99 39 75
        E 12 99 24 74
        E 1 89 2a 40
        E 0 99 2a 60
        E 8 89 58 58
        E 21 89 39 70
        E 31 89 2a 40
        E 0 99 2a 36
        E 4 89 24 40
        E 55 89 2a 40
        E 0 99 24 64
        E 1 99 2a 65
        E 56 89 24 40
        E 3 89 2a 40
        E 0 99 2a 3c
        E 60 89 2a 40
        E 0 99 24 71
        E 1 99 2a 62
        E 59 89 24 40
        E 1 89 2a 40
        E 0 99 2a 44
        E 59 99 24 70
        E 1 89 2a 40
        E 0 99 2a 5a
        E 15 89 29 7a
        E 41 89 24 40
        E 3 89 2a 40
        E 1 99 2a 36
        E 53 99 58 7b
        E 6 99 24 62
        E 1 89 2a 40
        E 0 99 2a 57
        E 60 89 2a 40
        E 0 99 2a 32
        E 9 89 24 40
        E 49 99 24 64
        E 2 89 2a 40
        E 0 99 2a 65
        E 56 89 24 40
        E 3 89 2a 40
        E 1 99 2a 38
        E 58 99 24 73
        E 2 89 2a 40
        E 0 99 2a 68
        E 60 89 2a 40
        E 0 99 2a 34
        E 2 89 24 40
        E 57 89 2a 40
        E 0 99 24 61
        E 1 99 2a 58
        E 54 89 24 40
        E 5 89 2a 40
        E 0 99 2a 39
        E 49 99 31 7b
        E 5 89 58 60
        E 5 99 24 6d
        E 1 89 2a 40
        E 1 99 2a 67
        E 34 89 31 78
        E 25 89 2a 40
        E 1 99 2a 3e
        E 4 89 24 40
        E 54 89 2a 40
        E 0 99 2a 5a
        E 1 99 24 63
        E 59 89 2a 40
        E 2 99 2a 38
        E 2 89 24 40
        E 57 89 2a 40
        E 0 99 24 6d
        E 0 99 2a 5f
        E 57 89 24 40
        E 3 89 2a 40
        E 1 99 2a 33
        E 59 89 2a 40
        E 0 99 24 74
        E 1 99 2a 67
        E 59 89 24 40
        E 1 89 2a 40
        E 0 99 2a 33
        E 47 99 58 7b
        E 12 99 24 69
        E 1 89 2a 40
        E 0 99 2a 61
        E 60 89 2a 40
        E 0 99 2a 41
        E 5 89 24 40
        E 54 89 2a 40
        E 0 99 24 6a
        E 1 99 2a 68
        E 58 89 24 40
        E 1 89 2a 40
        E 1 99 2a 3b
        E 59 89 2a 40
        E 0 99 24 74
        E 1 99 2a 62
        E 60 89 2a 40
        E 0 99 2a 41
        E 2 89 24 40
        E 56 99 24 6a
        E 2 89 2a 40
        E 0 99 2a 65
        E 33 89 24 40
        E 26 99 24 64
        E 1 89 2a 40
        E 0 99 2a 3a
        E 23 89 24 40
        E 17 99 34 71
        E 7 89 58 43
        E 12 89 2a 40
        E 0 99 24 74
        E 1 99 2a 57
        E 29 89 34 70
        E 31 89 2a 40
        E 0 99 2a 3b
        E 8 89 24 40
        E 51 99 24 6d
        E 1 89 2a 40
        E 0 99 2a 63
        E 60 89 2a 40
        E 0 99 2a 3c
        E 15 89 24 40
        E 44 99 24 63
        E 1 89 2a 40
        E 0 99 2a 59
        E 59 89 2a 40
        E 1 99 2a 36
        E 2 89 24 40
        E 56 99 24 70
        E 2 89 2a 40
        E 0 99 2a 69
        E 60 89 2a 40
        E 2 89 24 40
        E 16 99 58 7b
        E 41 99 24 74
        E 1 99 2a 56
        E 60 89 2a 40
        E 4 89 24 40
        E 55 99 24 63
        E 57 89 24 40
        E 63 99 2a 5a
        E 0 99 24 6d
        E 60 89 2a 40
        E 0 89 24 40
        E 60 99 24 63
        E 57 89 24 40
        E 4 99 2c 36
        E 7 99 31 75
        E 11 89 58 52
        E 2 89 2c 40
        E 9 99 2a 31
        E 21 89 31 79
        E 9 99 24 67
        E 1 89 2a 40
        E 0 99 2a 5b
        E 0 99 31 76
        E 58 89 2a 40
        E 1 99 2a 3d
        E 5 89 24 40
        E 54 99 24 73
        E 1 89 2a 40
        E 0 99 2a 59
        E 56 89 24 40
        E 4 89 2a 40
        E 1 99 2a 44
        E 59 89 2a 40
        E 0 99 24 6d
        E 1 99 2a 5e
        E 59 89 24 40
        E 0 89 2a 40
        E 0 99 2a 40
        E 59 99 24 6f
        E 1 89 2a 40
        E 1 99 2a 64
        E 55 89 24 40
        E 5 89 2a 40
        E 0 99 2a 35
        E 43 99 58 7b
        E 16 89 2a 40
        E 0 99 24 6b
        E 1 99 2a 5d
        E 58 89 2a 40
        E 0 99 2a 31
        E 11 89 24 40
        E 49 89 2a 40
        E 1 99 24 64
        E 1 99 2a 63
        E 57 89 24 40
        E 3 89 2a 40
        E 0 99 2a 41
        E 59 89 2a 40
        E 0 99 24 71
        E 1 99 2a 68
        E 31 89 31 40
        E 29 89 2a 40
        E 0 99 2a 3d
        E 3 89 24 40
        E 56 99 24 62
        E 1 89 2a 40
        E 0 99 2a 69
        E 54 89 24 40
        E 6 89 2a 40
        E 0 99 2a 39
        E 43 89 58 4d
        E 4 99 39 6f
        E 12 99 24 74
        E 1 89 2a 40
        E 0 99 2a 60
        E 33 89 39 6e
        E 27 89 2a 40
        E 0 99 2a 36
        E 4 89 24 40
        E 55 89 2a 40
        E 0 99 24 64
        E 1 99 2a 65
        E 56 89 24 40
        E 3 89 2a 40
        E 0 99 2a 3c
        E 60 89 2a 40
        E 0 99 24 71
        E 1 99 2a 62
        E 59 89 24 40
        E 1 89 2a 40
        E 0 99 2a 44
        E 59 99 24 70
        E 1 89 2a 40
        E 0 99 2a 5a
        E 56 89 24 40
        E 3 89 2a 40
        E 1 99 2a 36
        E 24 99 58 7b
        E 35 99 24 62
        E 1 89 2a 40
        E 0 99 2a 57
        E 60 89 2a 40
        E 0 99 2a 32
        E 9 89 24 40
        E 49 99 24 64
        E 2 89 2a 40
        E 0 99 2a 65
        E 56 89 24 40
        E 3 89 2a 40
        E 1 99 2a 38
        E 58 99 24 73
        E 2 89 2a 40
        E 0 99 2a 68
        E 60 89 2a 40
        E 0 99 2a 34
        E 2 89 24 40
        E 57 89 2a 40
        E 0 99 24 61
        E 1 99 2a 58
        E 54 89 24 40
        E 5 89 2a 40
        E 0 99 2a 39
        E 24 99 31 75
        E 1 89 58 36
        E 34 99 24 6d
        E 1 89 2a 40
        E 1 99 2a 67
        E 9 89 31 79
        E 50 89 2a 40
        E 1 99 2a 3e
        E 4 89 24 40
        E 54 89 2a 40
        E 0 99 2a 5a
        E 1 99 24 63
        E 59 89 2a 40
        E 2 99 2a 38
        E 2 89 24 40
        E 57 89 2a 40
        E 0 99 24 6d
        E 0 99 2a 5f
        E 57 89 24 40
        E 3 89 2a 40
        E 1 99 2a 33
        E 59 89 2a 40
        E 0 99 24 74
        E 1 99 2a 67
        E 59 89 24 40
        E 1 89 2a 40
        E 0 99 2a 33
        E 45 99 58 7b
        E 14 99 24 69
        E 1 89 2a 40
        E 0 99 2a 61
        E 60 89 2a 40
        E 0 99 2a 41
        E 5 89 24 40
        E 54 89 2a 40
        E 0 99 24 6a
        E 1 99 2a 68
        E 58 89 24 40
        E 1 89 2a 40
        E 1 99 2a 3b
        E 59 89 2a 40
        E 0 99 24 74
        E 1 99 2a 62
        E 60 89 2a 40
        E 0 99 2a 41
        E 2 89 24 40
        E 20 99 34 6b
        E 36 99 24 6a
        E 2 89 2a 40
        E 0 99 2a 65
        E 18 89 34 6e
        E 15 89 24 40
        E 26 99 24 64
        E 1 89 2a 40
        E 0 99 2a 3a
        E 9 99 39 73
        E 14 89 24 40
        E 22 89 58 49
        E 11 89 39 6e
        E 3 89 2a 40
        E 0 99 24 74
        E 1 99 2a 57
        E 60 89 2a 40
        E 0 99 2a 3b
        E 8 89 24 40
        E 51 99 24 6d
        E 1 89 2a 40
        E 0 99 2a 63
        E 60 89 2a 40
        E 0 99 2a 3c
        E 15 89 24 40
        E 44 99 24 63
        E 1 89 2a 40
        E 0 99 2a 59
        E 59 89 2a 40
        E 1 99 2a 36
        E 2 89 24 40
        E 56 99 24 70
        E 2 89 2a 40
        E 0 99 2a 69
        E 60 89 2a 40
        E 2 89 24 40
        E 25 99 58 7b
        E 32 99 24 74
        E 1 99 2a 56
        E 60 89 2a 40
        E 4 89 24 40
        E 55 99 24 63
        E 57 89 24 40
        E 63 99 2a 5a
        E 0 99 24 6d
        E 60 89 2a 40
        E 0 89 24 40
        E 60 99 24 63
        E 57 89 24 40
        E 4 99 2c 36
        E 20 89 2c 40
        E 7 89 58 4c
        E 2 99 2a 31
        E 5 99 31 75
        E 25 99 24 67
        E 1 89 2a 40
        E 0 99 2a 5b
        E 0 99 31 76
        E 15 89 31 7a
        E 43 89 2a 40
        E 1 99 2a 3d
        E 5 89 24 40
        E 54 99 24 73
        E 1 89 2a 40
        E 0 99 2a 59
        E 56 89 24 40
        E 4 89 2a 40
        E 1 99 2a 44
        E 59 89 2a 40
        E 0 99 24 6d
        E 1 99 2a 5e
        E 59 89 24 40
        E 0 89 2a 40
        E 0 99 2a 40
        E 59 99 24 6f
        E 1 89 2a 40
        E 1 99 2a 64
        E 55 89 24 40
        E 5 89 2a 40
        E 0 99 2a 35
        E 59 89 2a 40
        E 0 99 24 6b
        E 1 99 2a 5d
        E 8 99 58 7b
        E 50 89 2a 40
        E 0 99 2a 31
        E 11 89 24 40
        E 49 89 2a 40
        E 1 99 24 64
        E 1 99 2a 63
        E 57 89 24 40
        E 3 89 2a 40
        E 0 99 2a 41
        E 59 89 2a 40
        E 0 99 24 71
        E 1 99 2a 68
        E 31 89 31 40
        E 29 89 2a 40
        E 0 99 2a 3d
        E 3 89 24 40
        E 56 99 24 62
        E 1 89 2a 40
        E 0 99 2a 69
        E 54 89 24 40
        E 6 89 2a 40
        E 0 99 2a 39
        E 47 99 39 75
        E 12 99 24 74
        E 1 89 2a 40
        E 0 99 2a 60
        E 8 89 58 58
        E 21 89 39 70
        E 31 89 2a 40
        E 0 99 2a 36
        E 4 89 24 40
        E 55 89 2a 40
        E 0 99 24 64
        E 1 99 2a 65
        E 56 89 24 40
        E 3 89 2a 40
        E 0 99 2a 3c
        E 60 89 2a 40
        E 0 99 24 71
        E 1 99 2a 62
        E 59 89 24 40
        E 1 89 2a 40
        E 0 99 2a 44
        E 59 99 24 70
        E 1 89 2a 40
        E 0 99 2a 5a
        E 56 89 24 40
        E 3 89 2a 40
        E 1 99 2a 36
        E 53 99 58 7b
        E 6 99 24 62
        E 1 89 2a 40
        E 0 99 2a 57
        E 60 89 2a 40
        E 0 99 2a 32
        E 9 89 24 40
        E 49 99 24 64
        E 2 89 2a 40
        E 0 99 2a 65
        E 56 89 24 40
        E 3 89 2a 40
        E 1 99 2a 38
        E 58 99 24 73
        E 2 89 2a 40
        E 0 99 2a 68
        E 60 89 2a 40
        E 0 99 2a 34
        E 2 89 24 40
        E 57 89 2a 40
        E 0 99 24 61
        E 1 99 2a 58
        E 54 89 24 40
        E 5 89 2a 40
        E 0 99 2a 39
        E 49 99 31 7b
        E 5 89 58 60
        E 5 99 24 6d
        E 1 89 2a 40
        E 1 99 2a 67
        E 34 89 31 78
        E 25 89 2a 40
        E 1 99 2a 3e
        E 4 89 24 40
        E 54 89 2a 40
        E 0 99 2a 5a
        E 1 99 24 63
        E 59 89 2a 40
        E 2 99 2a 38
        E 2 89 24 40
        E 57 89 2a 40
        E 0 99 24 6d
        E 0 99 2a 5f
        E 57 89 24 40
        E 3 89 2a 40
        E 1 99 2a 33
        E 59 89 2a 40
        E 0 99 24 74
        E 1 99 2a 67
        E 59 89 24 40
        E 1 89 2a 40
        E 0 99 2a 33
        E 47 99 58 7b
        E 12 99 24 69
        E 1 89 2a 40
        E 0 99 2a 61
        E 60 89 2a 40
        E 0 99 2a 41
        E 5 89 24 40
        E 54 89 2a 40
        E 0 99 24 6a
        E 1 99 2a 68
        E 58 89 24 40
        E 1 89 2a 40
        E 1 99 2a 3b
        E 59 89 2a 40
        E 0 99 24 74
        E 1 99 2a 62
        E 60 89 2a 40
        E 0 99 2a 41
        E 2 89 24 40
        E 56 99 24 6a
        E 2 89 2a 40
        E 0 99 2a 65
        E 33 89 24 40
        E 26 99 24 64
        E 1 89 2a 40
        E 0 99 2a 3a
        E 23 89 24 40
        E 17 99 34 71
        E 7 89 58 43
        E 12 89 2a 40
        E 0 99 24 74
        E 1 99 2a 57
        E 29 89 34 70
        E 31 89 2a 40
        E 0 99 2a 3b
        E 8 89 24 40
        E 51 99 24 6d
        E 1 89 2a 40
        E 0 99 2a 63
        E 60 89 2a 40
        E 0 99 2a 3c
        E 15 89 24 40
        E 44 99 24 63
        E 1 89 2a 40
        E 0 99 2a 59
        E 59 89 2a 40
        E 1 99 2a 36
        E 2 89 24 40
        E 56 99 24 70
        E 2 89 2a 40
        E 0 99 2a 69
        E 60 89 2a 40
        E 2 89 24 40
        E 16 99 58 7b
        E 41 99 24 74
        E 1 99 2a 56
        E 60 89 2a 40
        E 4 89 24 40
        E 55 99 24 63
        E 57 89 24 40
        E 63 99 2a 5a
        E 0 99 24 6d
        E 60 89 2a 40
        E 0 89 24 40
        E 60 99 24 63
        E 57 89 24 40
        E 4 99 2c 36
        E 7 99 31 75
        E 11 89 58 52
        E 2 89 2c 40
        E 9 99 2a 31
        E 21 89 31 79
        E 9 99 24 67
        E 1 89 2a 40
        E 0 99 2a 5b
        E 0 99 31 76
        E 58 89 2a 40
        E 1 99 2a 3d
        E 5 89 24 40
        E 54 99 24 73
        E 1 89 2a 40
        E 0 99 2a 59
        E 56 89 24 40
        E 4 89 2a 40
        E 1 99 2a 44
        E 59 89 2a 40
        E 0 99 24 6d
        E 1 99 2a 5e
        E 59 89 24 40
        E 0 89 2a 40
        E 0 99 2a 40
        E 59 99 24 6f
        E 1 89 2a 40
        E 1 99 2a 64
        E 55 89 24 40
        E 5 89 2a 40
        E 0 99 2a 35
        E 43 99 58 7b
        E 16 89 2a 40
        E 0 99 24 6b
        E 1 99 2a 5d
        E 58 89 2a 40
        E 0 99 2a 31
        E 11 89 24 40
        E 49 89 2a 40
        E 1 99 24 64
        E 1 99 2a 63
        E 57 89 24 40
        E 3 89 2a 40
        E 0 99 2a 41
        E 59 89 2a 40
        E 0 99 24 71
        E 1 99 2a 68
        E 31 89 31 40
        E 29 89 2a 40
        E 0 99 2a 3d
        E 3 89 24 40
        E 56 99 24 62
        E 1 89 2a 40
        E 0 99 2a 69
        E 54 89 24 40
        E 6 89 2a 40
        E 0 99 2a 39
        E 43 89 58 4d
        E 4 99 39 6f
        E 12 99 24 74
        E 1 89 2a 40
        E 0 99 2a 60
        E 33 89 39 6e
        E 27 89 2a 40
        E 0 99 2a 36
        E 4 89 24 40
        E 55 89 2a 40
        E 0 99 24 64
        E 1 99 2a 65
        E 56 89 24 40
        E 3 89 2a 40
        E 0 99 2a 3c
        E 60 89 2a 40
        E 0 99 24 71
        E 1 99 2a 62
        E 59 89 24 40
        E 1 89 2a 40
        E 0 99 2a 44
        E 59 99 24 70
        E 1 89 2a 40
        E 0 99 2a 5a
        E 56 89 24 40
        E 3 89 2a 40
        E 1 99 2a 36
        E 24 99 58 7b
        E 35 99 24 62
        E 1 89 2a 40
        E 0 99 2a 57
        E 60 89 2a 40
        E 0 99 2a 32
        E 9 89 24 40
        E 49 99 24 64
        E 2 89 2a 40
        E 0 99 2a 65
        E 56 89 24 40
        E 3 89 2a 40
        E 1 99 2a 38
        E 58 99 24 73
        E 2 89 2a 40
        E 0 99 2a 68
        E 60 89 2a 40
        E 0 99 2a 34
        E 2 89 24 40
        E 57 89 2a 40
        E 0 99 24 61
        E 1 99 2a 58
        E 54 89 24 40
        E 5 89 2a 40
        E 0 99 2a 39
        E 24 99 31 75
        E 1 89 58 36
        E 34 99 24 6d
        E 1 89 2a 40
        E 1 99 2a 67
        E 9 89 31 79
        E 50 89 2a 40
        E 1 99 2a 3e
        E 4 89 24 40
        E 54 89 2a 40
        E 0 99 2a 5a
        E 1 99 24 63
        E 59 89 2a 40
        E 2 99 2a 38
        E 2 89 24 40
        E 57 89 2a 40
        E 0 99 24 6d
        E 0 99 2a 5f
        E 57 89 24 40
        E 3 89 2a 40
        E 1 99 2a 33
        E 59 89 2a 40
        E 0 99 24 74
        E 1 99 2a 67
        E 59 89 24 40
        E 1 89 2a 40
        E 0 99 2a 33
        E 45 99 58 7b
        E 14 99 24 69
        E 1 89 2a 40
        E 0 99 2a 61
        E 60 89 2a 40
        E 0 99 2a 41
        E 5 89 24 40
        E 54 89 2a 40
        E 0 99 24 6a
        E 1 99 2a 68
        E 58 89 24 40
        E 1 89 2a 40
        E 1 99 2a 3b
        E 59 89 2a 40
        E 0 99 24 74
        E 1 99 2a 62
        E 60 89 2a 40
        E 0 99 2a 41
        E 2 89 24 40
        E 20 99 34 6b
        E 36 99 24 6a
        E 2 89 2a 40
        E 0 99 2a 65
        E 18 89 34 6e
        E 15 89 24 40
        E 26 99 24 64
        E 1 89 2a 40
        E 0 99 2a 3a
        E 9 99 39 73
        E 14 89 24 40
        E 22 89 58 49
        E 11 89 39 6e
        E 3 89 2a 40
        E 0 99 24 74
        E 1 99 2a 57
        E 60 89 2a 40
        E 0 99 2a 3b
        E 8 89 24 40
        E 51 99 24 6d
        E 1 89 2a 40
        E 0 99 2a 63
        E 60 89 2a 40
        E 0 99 2a 3c
        E 15 89 24 40
        E 44 99 24 63
        E 1 89 2a 40
        E 0 99 2a 59
        E 59 89 2a 40
        E 1 99 2a 36
        E 2 89 24 40
        E 56 99 24 70
        E 2 89 2a 40
        E 0 99 2a 69
        E 60 89 2a 40
        E 2 89 24 40
        E 25 99 58 7b
        E 32 99 24 74
        E 1 99 2a 56
        E 60 89 2a 40
        E 4 89 24 40
        E 55 99 24 63
        E 1 99 2f 74
        E 56 89 24 40
        E 4 89 2f 40
        E 59 99 2a 5a
        E 0 99 24 6d
        E 0 99 32 79
        E 25 89 32 40
        E 35 89 2a 40
        E 0 89 24 40
        E 2 99 2f 7a
        E 22 89 2f 40
        E 36 99 24 63
        E 1 99 2b 73
        E 56 89 24 40
        E 4 89 2b 40
        E 0 99 2c 36
        E 20 89 2c 40
        E 7 89 58 4c
        E 2 99 2a 31
        E 30 99 31 75
        E 0 99 24 7b
        E 1 89 2a 40
        E 15 99 34 6d
        E 25 89 31 7a
        E 12 99 28 7e
        E 26 89 24 70
        E 54 89 34 6d
        E 47 99 2c 5a
        E 15 89 28 40
        E 52 99 24 6d
        E 72 89 2c 40
        E 1 89 24 6e
        E 107 99 2e 7e
        E 89 99 24 73
        E 50 89 2e 40
        E 27 89 24 6e
        E 98 99 2e 63
        E 65 99 2c 5a
        E 2 99 24 6d
        E 72 89 2e 40
        E 2 89 24 6b
        E 63 89 2c 40
        E 6 99 2c 60
        E 75 99 30 7e
        E 26 99 24 6f
        E 35 89 2c 40
        E 42 89 24 70
        E 39 89 30 40
        E 33 99 2c 5a
        E 58 99 2b 75
        E 12 99 24 66
        E 72 89 2c 40
        E 1 89 24 6a
        E 52 89 2b 40
        E 24 99 2c 7e
        E 58 99 31 6f
        E 28 99 28 5b
        E 6 99 24 77
        E 44 89 2c 40
        E 19 89 31 77
        E 22 89 24 6e
        E 46 89 28 40
        E 21 99 2c 5a
        E 81 99 24 69
        E 61 89 2c 40
        E 16 89 24 6e
        E 72 99 2c 7e
        E 67 99 28 7e
        E 31 99 24 73
        E 41 89 2c 40
        E 39 89 24 6d
        E 28 89 28 40
        E 33 99 2c 5a
        E 86 99 24 69
        E 53 89 2c 40
        E 15 89 24 67
        E 93 99 2c 6f
        E 44 99 31 6f
        E 17 99 24 75
        E 0 99 28 7e
        E 76 89 24 6d
        E 2 89 2c 40
        E 1 89 31 77
        E 60 89 28 40
        E 50 99 2c 5a
        E 35 99 24 66
        E 77 89 24 6a
        E 27 89 2c 40
        E 108 99 2e 7e
        E 35 99 24 6f
        E 74 89 24 6f
        E 30 89 2e 40
        E 121 99 24 66
        E 4 99 2e 63
        E 65 99 2c 5a
        E 2 89 24 67
        E 72 89 2e 40
        E 65 89 2c 40
        E 6 99 2c 60
        E 30 99 24 73
        E 8 99 32 65
        E 63 89 24 70
        E 35 89 2c 40
        E 44 89 32 40
        E 66 99 24 6b
        E 4 99 2c 5a
        E 27 99 30 7e
        E 40 89 24 6d
        E 75 89 2c 40
        E 24 89 30 40
        E 53 99 2c 7e
        E 32 99 24 7b
        E 37 99 34 66
        E 9 99 28 7e
        E 31 89 24 6f
        E 27 89 2c 40
        E 50 89 34 69
        E 31 89 28 40
        E 27 99 2c 5a
        E 21 99 24 62
        E 65 89 24 63
        E 56 89 2c 40
        E 88 99 2c 7e
        E 55 99 24 75
        E 6 99 28 7e
        E 71 89 24 69
        E 7 89 2c 40
        E 58 89 28 40
        E 42 99 2c 5a
        E 32 99 24 69
        E 71 89 24 6e
        E 36 89 2c 40
        E 108 99 2c 6f
        E 32 99 34 69
        E 9 99 24 7b
        E 5 99 28 6f
        E 77 89 24 71
        E 16 89 2c 40
        E 18 89 34 6d
        E 28 89 28 40
        E 65 99 2c 5a
        E 15 99 24 6b
        E 77 89 24 6f
        E 47 89 2c 40
        E 108 99 2e 7e
        E 21 99 24 73
        E 74 89 24 6b
        E 44 89 2e 40
        E 100 99 24 69
        E 25 99 2e 63
        E 49 89 24 6e
        E 16 99 2c 5a
        E 74 89 2e 40
        E 65 89 2c 40
        E 6 99 2c 60
        E 15 99 24 79
        E 9 99 30 7e
        E 74 89 24 69
        E 38 89 2c 40
        E 27 89 30 40
        E 74 99 24 6b
        E 13 99 2c 5a
        E 7 99 2b 7e
        E 51 89 24 69
        E 84 89 2c 40
        E 4 89 2b 40
        E 73 99 2c 7e
        E 12 99 24 7b
        E 20 99 28 7e
        E 14 99 31 6d
        E 48 89 24 69
        E 42 89 2c 40
        E 7 89 31 76
        E 28 89 28 40
        E 73 99 2c 5a
        E 7 99 24 69
        E 76 89 24 6b
        E 59 89 2c 40
        E 88 99 2c 7e
        E 27 99 28 7e
        E 8 99 24 73
        E 74 89 24 6a
        E 30 89 2c 40
        E 27 89 28 40
        E 73 99 2c 5a
        E 38 99 24 69
        E 68 89 24 64
        E 33 89 2c 40
        E 108 99 2c 6f
        E 35 99 24 7b
        E 0 99 31 6b
        E 5 99 28 7e
        E 74 89 24 66
        E 17 89 31 76
        E 8 89 2c 40
        E 43 89 28 40
        E 68 99 2c 5a
        E 18 99 24 62
        E 71 89 24 64
        E 50 89 2c 40
        E 108 99 2e 7e
        E 26 99 24 75
        E 77 89 24 68
        E 36 89 2e 40
        E 120 99 24 69
        E 5 99 2e 63
        E 65 99 2c 5a
        E 7 89 24 6e
        E 67 89 2e 40
        E 65 89 2c 40
        E 6 99 2c 60
        E 18 99 32 7e
        E 17 99 24 75
        E 82 89 24 69
        E 19 89 2c 40
        E 18 89 32 40
        E 96 99 2c 5a
        E 4 99 30 6a
        E 17 99 24 69
        E 71 89 24 66
        E 48 89 30 40
        E 2 89 2c 40
        E 77 99 2c 7e
        E 46 99 24 77
        E 3 99 28 7e
        E 3 99 34 69
        E 71 89 24 70
        E 13 89 2c 40
        E 35 89 34 6e
        E 20 89 28 40
        E 53 99 2c 5a
        E 29 99 24 62
        E 66 89 24 62
        E 47 89 2c 40
        E 88 99 2c 7e
        E 35 99 28 48
        E 6 89 28 40
        E 0 99 28 7e
        E 11 99 24 77
        E 77 89 24 6b
        E 10 89 2c 40
        E 41 89 28 40
        E 59 99 2c 5a
        E 46 99 24 64
        E 65 89 24 62
        E 28 89 2c 40
        E 108 99 2c 6f
        E 35 99 34 6d
        E 0 99 28 7e
        E 5 99 24 77
        E 80 89 24 6a
        E 19 89 2c 40
        E 18 89 34 6e
        E 17 89 28 40
        E 76 99 2c 5a
        E 23 99 24 64
        E 71 89 24 64
        E 45 89 2c 40
        E 108 99 2e 7e
        E 35 99 24 75
        E 76 89 24 6e
        E 28 89 2e 40
        E 125 99 2e 63
        E 1 99 24 6b
        E 64 99 2c 5a
        E 12 89 24 6e
        E 62 89 2e 40
        E 65 89 2c 40
        E 6 99 2c 60
        E 21 99 30 7e
        E 25 99 24 75
        E 83 89 24 6d
        E 7 89 2c 40
        E 21 89 30 40
        E 93 99 2c 5a
        E 4 99 2b 7e
        E 25 99 24 66
        E 71 89 24 67
        E 42 89 2c 40
        E 1 89 2b 40
        E 76 99 2c 7e
        E 43 99 28 7e
        E 3 99 24 77
        E 11 99 31 6d
        E 71 89 24 6b
        E 8 89 2c 40
        E 18 89 31 77
        E 25 89 28 40
        E 65 99 2c 5a
        E 40 99 24 66
        E 74 89 24 6a
        E 28 89 2c 40
        E 88 99 2c 7e
        E 29 99 28 7e
        E 23 99 24 71
        E 79 89 24 6d
        E 8 89 2c 40
        E 29 89 28 40
        E 71 99 2c 5a
        E 48 99 24 64
        E 66 89 24 62
        E 25 89 2c 40
        E 108 99 2c 6f
        E 26 99 31 6f
        E 3 99 28 7e
        E 3 99 24 73
        E 82 89 24 6b
        E 17 89 31 75
        E 8 89 2c 40
        E 32 89 28 40
        E 79 99 2c 5a
        E 6 99 24 66
        E 79 89 24 6d
        E 54 89 2c 40
        E 108 99 2e 7e
        E 3 99 24 6f
        E 80 89 24 6b
        E 56 89 2e 40
        E 97 99 24 6b
        E 28 99 2e 63
        E 52 89 24 6e
        E 13 99 2c 5a
        E 74 89 2e 40
        E 65 89 2c 40
        E 6 99 2c 60
        E 12 99 24 71
        E 8 99 32 7e
        E 71 89 24 6e
        E 45 89 2c 40
        E 24 89 32 40
        E 88 99 24 64
        E 2 99 2c 5a
        E 9 99 30 7e
        E 57 89 24 63
        E 76 89 2c 40
        E 3 89 30 40
        E 74 99 2c 7e
        E 26 99 24 77
        E 5 99 34 6b
        E 37 99 28 7e
        E 43 89 24 6d
        E 25 89 2c 40
        E 9 89 34 6e
        E 62 89 28 40
        E 37 99 2c 5a
        E 12 99 24 66
        E 79 89 24 6d
        E 51 89 2c 40
        E 88 99 2c 7e
        E 40 99 24 73
        E 0 99 28 56
        E 83 89 24 68
        E 16 89 2c 40
        E 38 89 28 40
        E 62 99 2c 5a
        E 40 99 24 62
        E 65 89 24 63
        E 34 89 2c 40
        E 108 99 2c 6f
        E 28 99 24 73
        E 15 99 34 6b
        E 11 99 28 7e
        E 60 89 24 68
        E 25 89 2c 40
        E 20 89 34 6e
        E 37 89 28 40
        E 54 99 2c 5a
        E 20 99 24 66
        E 77 89 24 6e
        E 42 89 2c 40
        E 108 99 2e 7e
        E 17 99 24 6d
        E 82 89 24 6a
        E 40 89 2e 40
        E 114 99 24 64
        E 11 99 2e 63
        E 60 89 24 66
        E 5 99 2c 5a
        E 74 89 2e 40
        E 65 89 2c 40
        E 6 99 2c 60
        E 15 99 24 71
        E 22 99 30 7e
        E 60 89 24 6b
        E 39 89 2c 40
        E 43 89 30 40
        E 71 99 2c 5a
        E 3 99 24 64
        E 11 99 2b 6a
        E 60 89 24 66
        E 68 89 2c 40
        E 12 89 2b 40
        E 65 99 2c 7e
        E 23 99 24 73
        E 22 99 28 49
        E 20 99 31 6d
        E 49 89 24 6a
        E 22 89 2c 40
        E 34 89 31 76
        E 15 89 28 40
        E 59 99 2c 5a
        E 14 99 24 66
        E 80 89 24 6e
        E 48 89 2c 40
        E 88 99 2c 7e
        E 31 99 28 7e
        E 6 99 24 6f
        E 83 89 24 6b
        E 19 89 2c 40
        E 34 89 28 40
        E 66 99 2c 5a
        E 31 99 24 66
        E 71 89 24 62
        E 37 89 2c 40
        E 105 99 28 7e
        E 3 99 2c 6f
        E 17 99 24 75
        E 0 99 31 6f
        E 91 89 24 6d
        E 5 89 31 76
        E 26 89 28 40
        E 0 89 2c 40
        E 111 99 24 69
        E 0 99 2c 5a
        E 82 89 24 6d
        E 57 89 2c 40
        E 105 99 24 6d
        E 3 99 2e 7e
        E 82 89 24 6b
        E 57 89 2e 40
        E 105 99 24 6b
        E 20 99 2e 63
        E 60 89 24 6d
        E 5 99 2c 5a
        E 74 89 2e 40
        E 65 89 2c 40
        E 6 99 2c 60
        E 14 99 32 7e
        E 9 99 24 6d
        E 79 89 24 6b
        E 34 89 2c 40
        E 20 89 32 40
        E 83 99 30 50
        E 5 89 30 40
        E 0 99 30 6a
        E 6 99 2c 5a
        E 6 99 24 64
        E 68 89 24 67
        E 60 89 30 40
        E 8 89 2c 40
        E 77 99 2c 7e
        E 34 99 24 75
        E 6 99 34 69
        E 5 99 28 7e
        E 71 89 24 6a
        E 20 89 2c 40
        E 17 89 34 6d
        E 34 89 28 40
        E 57 99 2c 5a
        E 23 99 24 66
        E 76 89 24 6f
        E 43 89 2c 40
        E 88 99 2c 7e
        E 40 99 24 6f
        E 0 99 28 60
        E 79 89 24 6d
        E 20 89 2c 40
        E 43 89 28 40
        E 57 99 2c 5a
        E 39 99 24 66
        E 69 89 24 67
        E 31 89 2c 40
        E 108 99 2c 6f
        E 22 99 28 7e
        E 9 99 24 73
        E 0 99 34 6b
        E 85 89 24 69
        E 23 89 2c 40
        E 8 89 34 6e
        E 17 89 28 40
        E 86 99 2c 5a
        E 19 99 24 69
        E 80 89 24 6e
        E 40 89 2c 40
        E 108 99 2e 7e
        E 17 99 24 6d
        E 79 89 24 6d
        E 43 89 2e 40
        E 113 99 24 64
        E 12 99 2e 63
        E 65 89 24 6b
        E 0 99 2c 5a
        E 74 89 2e 40
        E 65 89 2c 40
        E 6 99 2c 60
        E 23 99 24 6f
        E 8 99 30 7e
        E 71 89 24 6d
        E 34 89 2c 40
        E 34 89 30 40
        E 80 99 2c 5a
        E 6 99 24 64
        E 22 99 2b 75
        E 51 89 24 6a
        E 63 89 2c 40
        E 23 89 2b 40
        E 54 99 2c 7e
        E 39 99 31 6f
        E 3 99 24 73
        E 14 99 28 7e
        E 69 89 24 6a
        E 11 89 2c 40
        E 6 89 31 77
        E 54 89 28 40
        E 48 99 2c 5a
        E 40 99 24 69
        E 82 89 24 6d
        E 20 89 2c 40
        E 88 99 2c 7e
        E 40 99 28 7e
        E 28 99 24 6d
        E 71 89 2c 40
        E 9 89 24 6d
        E 28 89 28 40
        E 63 99 2c 5a
        E 56 99 24 66
        E 71 89 24 6a
        E 12 89 2c 40
        E 108 99 2c 6f
        E 2 99 34 6f
        E 37 99 28 7e
        E 3 99 24 71
        E 80 89 34 6d
        E 11 89 24 6b
        E 6 89 2c 40
        E 37 89 28 40
        E 74 99 2c 5a
        E 31 99 24 64
        E 76 89 24 6d
        E 32 89 2c 40
        E 108 99 2e 7e
        E 31 99 24 6b
        E 85 89 24 6d
        E 23 89 2e 40
        E 125 99 2e 63
        E 11 99 24 66
        E 54 99 2c 5a
        E 23 89 24 6d
        E 51 89 2e 40
        E 65 89 2c 40
        E 6 99 2c 60
        E 48 99 24 6f
        E 9 99 32 7e
        E 73 89 24 6a
        E 6 89 2c 40
        E 60 89 32 40
        E 54 99 2c 5a
        E 22 99 24 69
        E 12 99 30 7e
        E 65 89 24 6d
        E 43 89 2c 40
        E 28 89 30 40
        E 49 99 2c 7e
        E 39 99 31 73
        E 14 99 24 71
        E 32 99 28 6a
        E 51 89 2c 40
        E 3 89 31 77
        E 0 89 24 6b
        E 88 89 28 40
        E 17 99 2c 5a
        E 42 99 24 69
        E 77 89 24 6d
        E 23 89 2c 40
        E 88 99 2c 7e
        E 59 99 24 73
        E 3 99 28 7e
        E 77 89 2c 40
        E 3 89 24 69
        E 59 89 28 40
        E 38 99 2c 5a
        E 56 99 24 6b
        E 77 89 24 6e
        E 6 89 2c 40
        E 108 99 2c 6f
        E 33 99 28 48
        E 3 99 34 6b
        E 17 99 24 73
        E 83 89 24 6a
        E 3 89 2c 40
        E 16 89 34 6f
        E 18 89 28 40
        E 77 99 2c 5a
        E 47 99 24 6b
        E 80 89 24 6d
        E 12 89 2c 40
        E 108 99 2e 7e
        E 45 99 24 6f
        E 79 89 24 6e
        E 15 89 2e 40
        E 125 99 2e 63
        E 16 99 24 69
        E 49 99 2c 5a
        E 25 89 24 6b
        E 49 89 2e 40
        E 65 89 2c 40
        E 6 99 2c 60
        E 39 99 24 71
        E 9 99 30 7e
        E 77 89 24 6a
        E 11 89 2c 40
        E 51 89 30 40
        E 63 99 2c 5a
        E 25 99 2b 6d
        E 3 99 24 66
        E 77 89 24 6e
        E 37 89 2c 40
        E 25 89 2b 40
        E 52 99 2c 7e
        E 28 99 31 73
        E 25 99 24 71
        E 6 99 28 75
        E 65 89 31 78
        E 11 89 24 6b
        E 1 89 2c 40
        E 62 89 28 40
        E 46 99 2c 5a
        E 48 99 24 69
        E 79 89 24 6b
        E 15 89 2c 40
        E 88 99 2c 7e
        E 56 99 28 7e
        E 14 99 24 71
        E 69 89 2c 40
        E 17 89 24 6b
        E 37 89 28 40
        E 46 99 2c 5a
        E 70 99 24 66
        E 69 89 2c 40
        E 2 89 24 68
        E 106 99 2c 6f
        E 39 99 28 7e
        E 20 99 34 6f
        E 12 99 24 79
        E 41 89 34 71
        E 14 89 28 40
        E 1 89 24 6b
        E 12 89 2c 40
        E 5691 99 33 49
        E 240 89 33 57
        E 720 99 33 47
        E 240 89 33 53
        E 720 99 33 46
        E 240 89 33 54
        E 720 99 33 49
        E 240 89 33 55
        E 480 99 3b 3a
        E 240 89 3b 26
        E 0 99 33 46
        E 240 89 33 53
        E 720 99 33 4a
        E 240 89 33 57
        E 720 99 33 47
        E 240 89 33 54
        E 720 99 33 4d
        E 240 89 33 58
        E 480 99 3b 44
        E 240 89 3b 55
        E 0 99 33 4a
        E 240 89 33 57
        E 720 99 33 46
        E 240 89 33 52
        E 720 99 33 4d
        E 240 89 33 5b
        E 720 99 33 47
        E 240 89 33 54
        E 480 99 3b 45
        E 240 89 3b 4f
        E 0 99 33 4a
        E 240 89 33 57
        E 720 99 33 46
        E 240 89 33 4c
        E 720 99 33 46
        E 240 89 33 53
        E 720 99 33 4b
        E 240 89 33 54
        E 480 99 3b 47
        E 240 89 3b 54
        E 0 99 33 46
        E 240 89 33 58
        E 720 99 33 4a
        E 240 89 33 55
        E 720 99 33 46
        E 240 89 33 51
        E 720 99 33 4b
        E 240 89 33 55
        E 480 99 3b 4a
        E 240 89 3b 5e
        E 0 99 33 4d
        E 240 89 33 59
        E 720 99 33 4b
        E 240 89 33 58
        E 720 99 33 59
        E 240 89 33 61
        E 720 99 33 59
        E 240 89 33 5a
        E 480 99 3b 44
        E 210 99 31 69
        E 30 89 3b 4b
        E 0 99 33 4f
        E 0 99 2c 59
        E 0 99 2c 66
        E 7 99 24 6f
        E 19 89 31 6b
        E 210 89 2c 50
        E 4 89 33 6f
        E 28 89 2c 46
        E 212 99 58 5f
        E 77 89 24 57
        E 158 99 24 56
        E 39 89 24 67
        E 192 99 24 66
        E 14 99 2c 66
        E 37 89 58 40
        E 113 89 2c 50
        E 330 99 58 62
        E 36 89 24 54
        E 204 99 2e 59
        E 235 99 24 64
        E 5 99 2c 59
        E 2 89 2e 6d
        E 31 89 58 51
        E 203 89 2c 50
        E 244 99 58 5c
        E 37 89 24 5e
        E 198 99 24 62
        E 57 89 24 6b
        E 185 99 24 66
        E 3 99 2c 5d
        E 57 89 58 45
        E 157 89 2c 37
        E 262 89 24 5f
        E 4 99 58 76
        E 240 99 2e 54
        E 121 89 58 01
        E 115 99 24 6b
        E 4 99 2c 5f
        E 14 89 2e 69
        E 1 99 34 6b
        E 49 89 34 77
        E 149 89 2c 52
        E 267 99 58 6d
        E 2 89 24 5c
        E 222 99 24 62
        E 55 89 24 6a
        E 109 89 58 01
        E 75 99 24 69
        E 17 99 2c 59
        E 245 89 2c 41
        E 225 89 24 61
        E 10 99 58 6d
        E 240 99 2e 54
        E 208 89 58 2a
        E 27 99 24 5f
        E 5 99 2c 62
        E 31 89 2e 70
        E 194 89 2c 54
        E 244 89 24 4b
        E 11 99 58 6d
        E 211 99 24 4e
        E 49 89 24 69
        E 187 89 58 46
        E 19 99 24 64
        E 14 99 2c 52
        E 286 89 2c 33
        E 194 99 58 6b
        E 25 89 24 59
        E 215 99 2e 52
        E 222 99 31 56
        E 1 99 24 69
        E 5 89 58 53
        E 6 89 2e 6a
        E 6 99 2c 62
        E 27 89 31 66
        E 186 89 2c 4f
        E 224 89 24 64
        E 43 99 58 65
        E 209 99 24 5b
        E 44 89 24 6d
        E 196 99 24 69
        E 31 99 2c 5f
        E 35 89 58 51
        E 184 89 2c 45
        E 261 99 58 6b
        E 19 89 24 5f
        E 221 99 2e 52
        E 213 99 34 6d
        E 0 99 24 66
        E 27 99 2c 5d
        E 10 89 2e 6f
        E 8 89 34 76
        E 12 89 58 50
        E 186 89 2c 4a
        E 264 99 58 6d
        E 4 89 24 61
        E 226 99 24 5b
        E 69 89 24 68
        E 171 99 24 64
        E 10 99 2c 54
        E 4 89 58 4c
        E 420 89 2c 35
        E 10 89 24 5f
        E 46 99 58 6d
        E 240 99 2e 54
        E 214 89 58 4f
        E 4 99 31 5d
        E 10 99 24 64
        E 10 89 2e 6b
        E 2 99 2c 62
        E 24 89 31 67
        E 204 89 2c 52
        E 196 89 24 59
        E 56 99 58 70
        E 219 99 24 62
        E 57 89 24 6b
        E 185 99 24 66
        E 19 99 2c 59
        E 33 89 58 3c
        E 111 89 24 68
        E 245 89 2c 27
        E 91 99 58 6d
        E 240 99 2e 59
        E 222 99 24 66
        E 18 99 2c 62
        E 1 99 34 69
        E 4 89 2e 62
        E 13 89 58 45
        E 32 89 34 73
        E 83 89 24 67
        E 65 89 2c 46
        E 282 99 58 6d
        E 238 99 24 66
        E 56 89 24 6b
        E 179 89 58 43
        E 1 99 24 64
        E 6 99 2c 59
        E 95 89 24 69
        E 385 99 58 6d
        E 53 89 2c 1c
        E 187 99 2e 4f
        E 216 99 24 69
        E 22 89 58 4a
        E 2 99 2c 62
        E 4 89 2e 63
        E 1 99 31 54
        E 51 89 31 60
        E 40 89 24 5e
        E 166 89 2c 4a
        E 218 99 58 62
        E 239 99 24 59
        E 60 89 24 69
        E 177 99 24 66
        E 4 99 2c 59
        E 21 89 58 48
        E 113 89 24 68
        E 346 99 58 6d
        E 26 89 2c 51
        E 214 99 2e 54
        E 224 99 24 62
        E 16 99 2c 5f
        E 2 89 2e 67
        E 4 99 34 66
        E 51 89 34 72
        E 5 89 58 01
        E 73 89 24 60
        E 60 89 2c 50
        E 285 99 58 70
        E 229 99 24 54
        E 84 89 24 6a
        E 167 99 2c 5d
        E 12 99 24 66
        E 62 89 58 10
        E 99 89 24 62
        E 307 99 58 76
        E 45 89 2c 4a
        E 195 99 2e 4e
        E 246 89 2e 67
        E 68 89 58 1e
        E 1846 b0 7b 00
        CCINTERP 32
        CHASE_CC_TAKEOFFS 1
        GUID {0B8547B7-2789-6D4A-B294-B0FD201883CC}
        IGNTEMPO 0 120 4 4
        SRCCOLOR 10
        VELLANE -1 100 0
      >
    >
  >
  <TRACK {D3C34B9E-F0FB-CC42-A614-6F1B65CBD200}
    NAME Timpani
    PEAKCOL 16576
    BEAT -1
    AUTOMODE 0
    VOLPAN 1 0 -1 -1 1
    MUTESOLO 0 0 0
    IPHASE 0
    PLAYOFFS 0 1
    ISBUS 0 0
    BUSCOMP 0 0 0 0 0
    SHOWINMIX 1 0.6667 0.5 1 0.5 0 0 0
    SEL 0
    REC 0 0 1 0 0 0 0 0
    VU 2
    TRACKHEIGHT 0 0 0 0 0 0
    INQ 0 0 0 0.5 100 0 0 100
    NCHAN 2
    FX 1
    TRACKID {D3C34B9E-F0FB-CC42-A614-6F1B65CBD200}
    PERF 0
    MIDIOUT -1
    MAINSEND 1 0
    <ITEM
      POSITION 0
      SNAPOFFS 0
      LENGTH 350.96757745293559
      LOOP 1
      ALLTAKES 0
      FADEIN 1 0 0 1 0 0 0
      FADEOUT 1 0 0 1 0 0 0
      MUTE 0 0
      SEL 0
      IGUID {B80AF251-0357-CE4D-874D-53401FF0DFB8}
      IID 11
      NAME "Timpani - 1-6--3-2_geth-1.mid"
      VOLPAN 1 0 1 -1
      SOFFS 0 0
      PLAYRATE 1 1 0 -1 0 0.0025
      CHANMODE 0
      GUID {D4B427F8-A682-064D-AE7C-260E81C86361}
      <SOURCE MIDI
        HASDATA 1 480 QN
        CCINTERP 32
        POOLEDEVTS {98A43BE6-631B-DA40-B047-D193E3FFA80A}
        <X 0 0 0 0 3 Timpani
          /wNUaW1wYW5p
        >
        E 0 ba 00 00
        E 0 ba 20 01
        E 0 ca 2f 00
        E 0 ba 07 64
        E 213600 9a 2b 41
        E 30 8a 2b 62
        E 0 9a 2b 42
        E 30 8a 2b 62
        E 0 9a 2b 43
        E 30 8a 2b 64
        E 0 9a 2b 43
        E 30 8a 2b 69
        E 0 9a 2b 44
        E 30 8a 2b 69
        E 0 9a 2b 46
        E 30 8a 2b 63
        E 0 9a 2b 46
        E 30 8a 2b 68
        E 0 9a 2b 47
        E 30 8a 2b 68
        E 0 9a 2b 48
        E 30 8a 2b 67
        E 0 9a 2b 48
        E 30 8a 2b 68
        E 0 9a 2b 49
        E 30 8a 2b 63
        E 0 9a 2b 4b
        E 30 8a 2b 62
        E 0 9a 2b 4b
        E 30 8a 2b 68
        E 0 9a 2b 4c
        E 30 8a 2b 67
        E 0 9a 2b 4d
        E 30 8a 2b 67
        E 0 9a 2b 4d
        E 30 8a 2b 67
        E 0 9a 2b 4e
        E 30 8a 2b 67
        E 0 9a 2b 50
        E 30 8a 2b 63
        E 0 9a 2b 50
        E 30 8a 2b 69
        E 0 9a 2b 51
        E 30 8a 2b 67
        E 0 9a 2b 53
        E 30 8a 2b 67
        E 0 9a 2b 54
        E 30 8a 2b 64
        E 0 9a 2b 54
        E 30 8a 2b 66
        E 0 9a 2b 55
        E 30 8a 2b 62
        E 0 9a 2b 56
        E 30 8a 2b 60
        E 0 9a 2b 57
        E 30 8a 2b 64
        E 0 9a 2b 58
        E 30 8a 2b 5f
        E 0 9a 2b 59
        E 30 8a 2b 61
        E 0 9a 2b 59
        E 30 8a 2b 60
        E 0 9a 2b 5a
        E 30 8a 2b 5b
        E 0 9a 2b 5c
        E 30 8a 2b 5b
        E 0 9a 2b 5c
        E 30 8a 2b 60
        E 0 9a 24 5d
        E 15 8a 24 73
        E 8625 9a 2e 41
        E 30 8a 2e 62
        E 0 9a 2e 42
        E 30 8a 2e 62
        E 0 9a 2e 43
        E 30 8a 2e 64
        E 0 9a 2e 43
        E 30 8a 2e 69
        E 0 9a 2e 44
        E 30 8a 2e 69
        E 0 9a 2e 46
        E 30 8a 2e 63
        E 0 9a 2e 46
        E 30 8a 2e 68
        E 0 9a 2e 47
        E 30 8a 2e 68
        E 0 9a 2e 48
        E 30 8a 2e 67
        E 0 9a 2e 48
        E 30 8a 2e 68
        E 0 9a 2e 49
        E 30 8a 2e 63
        E 0 9a 2e 4b
        E 30 8a 2e 62
        E 0 9a 2e 4b
        E 30 8a 2e 68
        E 0 9a 2e 4c
        E 30 8a 2e 67
        E 0 9a 2e 4d
        E 30 8a 2e 67
        E 0 9a 2e 4d
        E 30 8a 2e 67
        E 0 9a 2e 4e
        E 30 8a 2e 67
        E 0 9a 2e 50
        E 30 8a 2e 63
        E 0 9a 2e 50
        E 30 8a 2e 69
        E 0 9a 2e 51
        E 30 8a 2e 67
        E 0 9a 2e 53
        E 30 8a 2e 67
        E 0 9a 2e 54
        E 30 8a 2e 64
        E 0 9a 2e 54
        E 30 8a 2e 66
        E 0 9a 2e 55
        E 30 8a 2e 62
        E 0 9a 2e 56
        E 30 8a 2e 60
        E 0 9a 2e 57
        E 30 8a 2e 64
        E 0 9a 2e 58
        E 30 8a 2e 5f
        E 0 9a 2e 59
        E 30 8a 2e 61
        E 0 9a 2e 59
        E 30 8a 2e 60
        E 0 9a 2e 5a
        E 30 8a 2e 5b
        E 0 9a 2e 5c
        E 30 8a 2e 5b
        E 0 9a 2e 5c
        E 30 8a 2e 60
        E 0 9a 27 5d
        E 15 8a 27 73
        E 2865 9a 2b 41
        E 30 8a 2b 62
        E 0 9a 2b 42
        E 30 8a 2b 62
        E 0 9a 2b 43
        E 30 8a 2b 64
        E 0 9a 2b 43
        E 30 8a 2b 69
        E 0 9a 2b 44
        E 30 8a 2b 69
        E 0 9a 2b 46
        E 30 8a 2b 63
        E 0 9a 2b 46
        E 30 8a 2b 68
        E 0 9a 2b 47
        E 30 8a 2b 68
        E 0 9a 2b 48
        E 30 8a 2b 67
        E 0 9a 2b 48
        E 30 8a 2b 68
        E 0 9a 2b 49
        E 30 8a 2b 63
        E 0 9a 2b 4b
        E 30 8a 2b 62
        E 0 9a 2b 4b
        E 30 8a 2b 68
        E 0 9a 2b 4c
        E 30 8a 2b 67
        E 0 9a 2b 4d
        E 30 8a 2b 67
        E 0 9a 2b 4d
        E 30 8a 2b 67
        E 0 9a 2b 4e
        E 30 8a 2b 67
        E 0 9a 2b 50
        E 30 8a 2b 63
        E 0 9a 2b 50
        E 30 8a 2b 69
        E 0 9a 2b 51
        E 30 8a 2b 67
        E 0 9a 2b 53
        E 30 8a 2b 67
        E 0 9a 2b 54
        E 30 8a 2b 64
        E 0 9a 2b 54
        E 30 8a 2b 66
        E 0 9a 2b 55
        E 30 8a 2b 62
        E 0 9a 2b 56
        E 30 8a 2b 60
        E 0 9a 2b 57
        E 30 8a 2b 64
        E 0 9a 2b 58
        E 30 8a 2b 5f
        E 0 9a 2b 59
        E 30 8a 2b 61
        E 0 9a 2b 59
        E 30 8a 2b 60
        E 0 9a 2b 5a
        E 30 8a 2b 5b
        E 0 9a 2b 5c
        E 30 8a 2b 5b
        E 0 9a 2b 5c
        E 30 8a 2b 60
        E 0 9a 24 5d
        E 15 8a 24 73
        E 3586 9a 2b 5d
        E 62 8a 2b 6b
        E 183 9a 24 69
        E 66 8a 24 6d
        E 3768 b0 7b 00
        CCINTERP 32
        CHASE_CC_TAKEOFFS 1
        GUID {7B53CD7B-89E1-F94E-BE91-D4524049141F}
        IGNTEMPO 0 120 4 4
        SRCCOLOR 11
        VELLANE -1 100 0
      >
    >
  >
  <TRACK {B19DD06B-84B0-3F48-B4D2-21F184748372}
    NAME Piccolo
    PEAKCOL 16576
    BEAT -1
    AUTOMODE 0
    VOLPAN 1 0 -1 -1 1
    MUTESOLO 0 0 0
    IPHASE 0
    PLAYOFFS 0 1
    ISBUS 0 0
    BUSCOMP 0 0 0 0 0
    SHOWINMIX 1 0.6667 0.5 1 0.5 0 0 0
    SEL 0
    REC 0 0 1 0 0 0 0 0
    VU 2
    TRACKHEIGHT 0 0 0 0 0 0
    INQ 0 0 0 0.5 100 0 0 100
    NCHAN 2
    FX 1
    TRACKID {B19DD06B-84B0-3F48-B4D2-21F184748372}
    PERF 0
    MIDIOUT -1
    MAINSEND 1 0
    <ITEM
      POSITION 0
      SNAPOFFS 0
      LENGTH 350.96757745293559
      LOOP 1
      ALLTAKES 0
      FADEIN 1 0 0 1 0 0 0
      FADEOUT 1 0 0 1 0 0 0
      MUTE 0 0
      SEL 0
      IGUID {F15E23EA-D980-734E-86FC-322CDF444CAC}
      IID 12
      NAME "Piccolo - 1-6--3-2_geth-1.mid"
      VOLPAN 1 0 1 -1
      SOFFS 0 0
      PLAYRATE 1 1 0 -1 0 0.0025
      CHANMODE 0
      GUID {AA91CA67-ECFF-4948-AF41-457375769805}
      <SOURCE MIDI
        HASDATA 1 480 QN
        CCINTERP 32
        POOLEDEVTS {3EBE2620-2852-6441-BC30-539E1CDF88AB}
        <X 0 0 0 0 3 Piccolo
          /wNQaWNjb2xv
        >
        E 0 bb 00 00
        E 0 bb 20 01
        E 0 cb 48 00
        E 0 bb 07 44
        E 0 bb 0a 34
        E 49877 9b 5e 70
        E 250 9b 59 5f
        E 6 8b 5e 69
        E 235 8b 59 62
        E 3 9b 55 69
        E 230 8b 55 75
        E 4 9b 54 5f
        E 249 9b 52 6c
        E 11 8b 54 60
        E 1005 8b 52 78
        E 69570 9b 60 66
        E 60 9b 5e 5d
        E 15 8b 60 51
        E 45 9b 5c 5d
        E 15 8b 5e 5c
        E 45 9b 5b 5d
        E 15 8b 5c 5e
        E 60 8b 5b 55
        E 705 9b 5e 66
        E 60 9b 5c 5d
        E 15 8b 5e 55
        E 45 9b 5b 5d
        E 15 8b 5c 61
        E 45 9b 59 5d
        E 15 8b 5b 59
        E 60 8b 59 62
        E 705 9b 5c 66
        E 60 9b 5b 5d
        E 15 8b 5c 59
        E 45 9b 59 5d
        E 15 8b 5b 52
        E 45 9b 57 5d
        E 15 8b 59 43
        E 60 8b 57 6e
        E 705 9b 5b 66
        E 60 9b 59 5d
        E 15 8b 5b 54
        E 45 9b 57 5d
        E 15 8b 59 36
        E 45 9b 56 5d
        E 15 8b 57 5a
        E 60 8b 56 48
        E 705 9b 60 66
        E 60 9b 5e 5d
        E 15 8b 60 51
        E 45 9b 5c 5d
        E 15 8b 5e 5c
        E 45 9b 5b 5d
        E 15 8b 5c 5e
        E 60 8b 5b 55
        E 705 9b 5e 66
        E 60 9b 5c 5d
        E 15 8b 5e 55
        E 45 9b 5b 5d
        E 15 8b 5c 61
        E 45 9b 59 5d
        E 15 8b 5b 59
        E 60 8b 59 62
        E 705 9b 5c 66
        E 60 9b 5b 5d
        E 15 8b 5c 59
        E 45 9b 59 5d
        E 15 8b 5b 52
        E 45 9b 57 5d
        E 15 8b 59 43
        E 60 8b 57 6e
        E 705 9b 5b 66
        E 60 9b 59 5d
        E 15 8b 5b 54
        E 45 9b 57 5d
        E 15 8b 59 36
        E 45 9b 56 5d
        E 15 8b 57 5a
        E 60 8b 56 48
        E 705 9b 60 66
        E 60 9b 5e 5d
        E 15 8b 60 51
        E 45 9b 5c 5d
        E 15 8b 5e 5c
        E 45 9b 5b 5d
        E 15 8b 5c 5e
        E 60 8b 5b 55
        E 705 9b 5e 66
        E 60 9b 5c 5d
        E 15 8b 5e 55
        E 45 9b 5b 5d
        E 15 8b 5c 61
        E 45 9b 59 5d
        E 15 8b 5b 59
        E 60 8b 59 62
        E 705 9b 5c 66
        E 60 9b 5b 5d
        E 15 8b 5c 59
        E 45 9b 59 5d
        E 15 8b 5b 52
        E 45 9b 57 5d
        E 15 8b 59 43
        E 60 8b 57 6e
        E 705 9b 5b 66
        E 60 9b 59 5d
        E 15 8b 5b 54
        E 45 9b 57 5d
        E 15 8b 59 36
        E 45 9b 56 5d
        E 15 8b 57 5a
        E 60 8b 56 48
        E 705 9b 60 66
        E 60 9b 5e 5d
        E 15 8b 60 51
        E 45 9b 5c 5d
        E 15 8b 5e 5c
        E 45 9b 5b 5d
        E 15 8b 5c 5e
        E 60 8b 5b 55
        E 705 9b 5e 66
        E 60 9b 5c 5d
        E 15 8b 5e 55
        E 45 9b 5b 5d
        E 15 8b 5c 61
        E 45 9b 59 5d
        E 15 8b 5b 59
        E 60 8b 59 62
        E 705 9b 5c 66
        E 60 9b 5b 5d
        E 15 8b 5c 59
        E 45 9b 59 5d
        E 15 8b 5b 52
        E 45 9b 57 5d
        E 15 8b 59 43
        E 60 8b 57 6e
        E 705 9b 5b 66
        E 60 9b 59 5d
        E 15 8b 5b 54
        E 45 9b 57 5d
        E 15 8b 59 36
        E 45 9b 56 5d
        E 15 8b 57 5a
        E 60 8b 56 48
        E 705 9b 60 66
        E 60 9b 5e 5d
        E 15 8b 60 51
        E 45 9b 5c 5d
        E 15 8b 5e 5c
        E 45 9b 5b 5d
        E 15 8b 5c 5e
        E 60 8b 5b 55
        E 705 9b 5e 66
        E 60 9b 5c 5d
        E 15 8b 5e 55
        E 45 9b 5b 5d
        E 15 8b 5c 61
        E 45 9b 59 5d
        E 15 8b 5b 59
        E 60 8b 59 62
        E 705 9b 5c 66
        E 60 9b 5b 5d
        E 15 8b 5c 59
        E 45 9b 59 5d
        E 15 8b 5b 52
        E 45 9b 57 5d
        E 15 8b 59 43
        E 60 8b 57 6e
        E 705 9b 5b 66
        E 60 9b 59 5d
        E 15 8b 5b 54
        E 45 9b 57 5d
        E 15 8b 59 36
        E 45 9b 56 5d
        E 15 8b 57 5a
        E 60 8b 56 48
        E 705 9b 60 66
        E 60 9b 5e 5d
        E 15 8b 60 51
        E 45 9b 5c 5d
        E 15 8b 5e 5c
        E 45 9b 5b 5d
        E 15 8b 5c 5e
        E 60 8b 5b 55
        E 705 9b 5e 66
        E 60 9b 5c 5d
        E 15 8b 5e 55
        E 45 9b 5b 5d
        E 15 8b 5c 61
        E 45 9b 59 5d
        E 15 8b 5b 59
        E 60 8b 59 62
        E 705 9b 5c 66
        E 60 9b 5b 5d
        E 15 8b 5c 59
        E 45 9b 59 5d
        E 15 8b 5b 52
        E 45 9b 57 5d
        E 15 8b 59 43
        E 60 8b 57 6e
        E 705 9b 5b 66
        E 60 9b 59 5d
        E 15 8b 5b 54
        E 45 9b 57 5d
        E 15 8b 59 36
        E 45 9b 56 5d
        E 15 8b 57 5a
        E 60 8b 56 48
        E 345 9b 60 4c
        E 120 8b 60 57
        E 0 9b 62 4d
        E 120 8b 62 51
        E 0 9b 63 62
        E 120 8b 63 54
        E 0 9b 62 52
        E 120 8b 62 51
        E 0 9b 60 4e
        E 120 8b 60 57
        E 0 9b 63 62
        E 120 8b 63 63
        E 0 9b 60 4d
        E 120 8b 60 57
        E 120 9b 60 52
        E 120 8b 60 52
        E 0 9b 62 4e
        E 120 8b 62 50
        E 0 9b 63 66
        E 120 8b 63 60
        E 0 9b 62 54
        E 120 8b 62 58
        E 0 9b 60 4d
        E 120 8b 60 59
        E 0 9b 63 66
        E 120 8b 63 62
        E 0 9b 60 4e
        E 120 8b 60 4f
        E 120 9b 60 54
        E 120 8b 60 5b
        E 0 9b 62 54
        E 120 8b 62 55
        E 0 9b 63 66
        E 120 8b 63 61
        E 0 9b 62 52
        E 120 8b 62 57
        E 0 9b 60 54
        E 120 8b 60 5b
        E 0 9b 63 69
        E 120 8b 63 62
        E 0 9b 60 52
        E 120 8b 60 5b
        E 120 9b 63 6b
        E 120 8b 63 69
        E 0 9b 63 69
        E 120 8b 63 70
        E 120 9b 63 6b
        E 120 8b 63 67
        E 0 9b 63 62
        E 120 8b 63 6d
        E 0 9b 63 6b
        E 120 8b 63 69
        E 0 9b 62 5b
        E 120 8b 62 64
        E 120 9b 60 4c
        E 120 8b 60 57
        E 0 9b 62 4d
        E 120 8b 62 51
        E 0 9b 63 62
        E 120 8b 63 54
        E 0 9b 62 52
        E 120 8b 62 51
        E 0 9b 60 4e
        E 120 8b 60 57
        E 0 9b 63 62
        E 120 8b 63 63
        E 0 9b 60 4d
        E 120 8b 60 57
        E 120 9b 60 52
        E 120 8b 60 52
        E 0 9b 62 4e
        E 120 8b 62 50
        E 0 9b 63 66
        E 120 8b 63 60
        E 0 9b 62 54
        E 120 8b 62 58
        E 0 9b 60 4d
        E 120 8b 60 59
        E 0 9b 63 66
        E 120 8b 63 62
        E 0 9b 60 4e
        E 120 8b 60 4f
        E 120 9b 60 54
        E 120 8b 60 5b
        E 0 9b 62 54
        E 120 8b 62 55
        E 0 9b 63 66
        E 120 8b 63 61
        E 0 9b 62 52
        E 120 8b 62 57
        E 0 9b 60 54
        E 120 8b 60 5b
        E 0 9b 63 69
        E 120 8b 63 62
        E 0 9b 60 52
        E 120 8b 60 5b
        E 120 9b 63 6b
        E 120 8b 63 69
        E 0 9b 63 69
        E 120 8b 63 70
        E 120 9b 63 6b
        E 120 8b 63 67
        E 0 9b 63 62
        E 120 8b 63 6d
        E 0 9b 63 6b
        E 120 8b 63 69
        E 0 9b 62 5b
        E 120 8b 62 64
        E 120 9b 60 4c
        E 120 8b 60 57
        E 0 9b 62 4d
        E 120 8b 62 51
        E 0 9b 63 62
        E 120 8b 63 54
        E 0 9b 62 52
        E 120 8b 62 51
        E 0 9b 60 4e
        E 120 8b 60 57
        E 0 9b 63 62
        E 120 8b 63 63
        E 0 9b 60 4d
        E 120 8b 60 57
        E 120 9b 60 52
        E 120 8b 60 52
        E 0 9b 62 4e
        E 120 8b 62 50
        E 0 9b 63 66
        E 120 8b 63 60
        E 0 9b 62 54
        E 120 8b 62 58
        E 0 9b 60 4d
        E 120 8b 60 59
        E 0 9b 63 66
        E 120 8b 63 62
        E 0 9b 60 4e
        E 120 8b 60 4f
        E 120 9b 60 54
        E 120 8b 60 5b
        E 0 9b 62 54
        E 120 8b 62 55
        E 0 9b 63 66
        E 120 8b 63 61
        E 0 9b 62 52
        E 120 8b 62 57
        E 0 9b 60 54
        E 120 8b 60 5b
        E 0 9b 63 69
        E 120 8b 63 62
        E 0 9b 60 52
        E 120 8b 60 5b
        E 120 9b 63 6b
        E 120 8b 63 69
        E 0 9b 63 69
        E 120 8b 63 70
        E 120 9b 63 6b
        E 120 8b 63 67
        E 0 9b 63 62
        E 120 8b 63 6d
        E 0 9b 63 6b
        E 120 8b 63 69
        E 0 9b 62 5b
        E 120 8b 62 64
        E 120 9b 60 4c
        E 120 8b 60 57
        E 0 9b 62 4d
        E 120 8b 62 51
        E 0 9b 63 62
        E 120 8b 63 54
        E 0 9b 62 52
        E 120 8b 62 51
        E 0 9b 60 4e
        E 120 8b 60 57
        E 0 9b 63 62
        E 120 8b 63 63
        E 0 9b 60 4d
        E 120 8b 60 57
        E 120 9b 60 52
        E 120 8b 60 52
        E 0 9b 62 4e
        E 120 8b 62 50
        E 0 9b 63 66
        E 120 8b 63 60
        E 0 9b 62 54
        E 120 8b 62 58
        E 0 9b 60 4d
        E 120 8b 60 59
        E 0 9b 63 66
        E 120 8b 63 62
        E 0 9b 60 4e
        E 120 8b 60 4f
        E 120 9b 60 54
        E 120 8b 60 5b
        E 0 9b 62 54
        E 120 8b 62 55
        E 0 9b 63 66
        E 120 8b 63 61
        E 0 9b 62 52
        E 120 8b 62 57
        E 0 9b 60 54
        E 120 8b 60 5b
        E 0 9b 63 69
        E 120 8b 63 62
        E 0 9b 60 52
        E 120 8b 60 5b
        E 120 9b 63 6b
        E 120 8b 63 69
        E 0 9b 63 69
        E 120 8b 63 70
        E 120 9b 63 6b
        E 120 8b 63 67
        E 0 9b 63 62
        E 120 8b 63 6d
        E 0 9b 63 6b
        E 120 8b 63 69
        E 0 9b 62 5b
        E 120 8b 62 64
        E 240 9b 63 5d
        E 240 8b 63 57
        E 0 9b 65 54
        E 240 8b 65 49
        E 0 9b 67 4d
        E 240 8b 67 53
        E 0 9b 65 4f
        E 240 8b 65 4f
        E 0 9b 63 5d
        E 240 8b 63 57
        E 0 9b 65 4f
        E 240 8b 65 4d
        E 0 9b 62 4b
        E 240 8b 62 52
        E 0 9b 65 4e
        E 240 8b 65 50
        E 0 9b 62 4f
        E 240 8b 62 4f
        E 240 9b 60 49
        E 240 8b 60 54
        E 0 9b 62 47
        E 240 8b 62 4d
        E 0 9b 63 5f
        E 240 8b 63 5b
        E 0 9b 62 4b
        E 240 8b 62 49
        E 0 9b 60 4b
        E 240 8b 60 52
        E 0 9b 63 54
        E 240 8b 63 54
        E 0 9b 62 4d
        E 240 8b 62 51
        E 0 9b 63 5b
        E 240 8b 63 5b
        E 0 9b 62 4f
        E 240 8b 62 5b
        E 240 9b 63 5d
        E 240 8b 63 57
        E 0 9b 65 54
        E 240 8b 65 49
        E 0 9b 67 4d
        E 240 8b 67 53
        E 0 9b 65 4f
        E 240 8b 65 4f
        E 0 9b 63 5d
        E 240 8b 63 57
        E 0 9b 65 4f
        E 240 8b 65 4d
        E 0 9b 62 4b
        E 240 8b 62 52
        E 0 9b 65 4e
        E 240 8b 65 50
        E 0 9b 62 4f
        E 240 8b 62 4f
        E 240 9b 60 49
        E 240 8b 60 54
        E 0 9b 62 47
        E 240 8b 62 4d
        E 0 9b 63 5f
        E 240 8b 63 5b
        E 0 9b 62 4b
        E 240 8b 62 49
        E 0 9b 60 4b
        E 240 8b 60 52
        E 0 9b 63 54
        E 240 8b 63 54
        E 0 9b 62 4d
        E 240 8b 62 51
        E 0 9b 63 5b
        E 240 8b 63 5b
        E 0 9b 62 4f
        E 240 8b 62 5b
        E 240 9b 63 5d
        E 240 8b 63 57
        E 0 9b 65 54
        E 240 8b 65 49
        E 0 9b 67 4d
        E 240 8b 67 53
        E 0 9b 65 4f
        E 240 8b 65 4f
        E 0 9b 63 5d
        E 240 8b 63 57
        E 0 9b 65 4f
        E 240 8b 65 4d
        E 0 9b 62 4b
        E 240 8b 62 52
        E 0 9b 65 4e
        E 240 8b 65 50
        E 0 9b 62 4f
        E 240 8b 62 4f
        E 240 9b 60 49
        E 240 8b 60 54
        E 0 9b 62 47
        E 240 8b 62 4d
        E 0 9b 63 5f
        E 240 8b 63 5b
        E 0 9b 62 4b
        E 240 8b 62 49
        E 0 9b 60 4b
        E 240 8b 60 52
        E 0 9b 63 54
        E 240 8b 63 54
        E 0 9b 62 4d
        E 240 8b 62 51
        E 0 9b 63 5b
        E 240 8b 63 5b
        E 0 9b 62 4f
        E 240 8b 62 5b
        E 240 9b 63 5d
        E 240 8b 63 57
        E 0 9b 65 54
        E 240 8b 65 49
        E 0 9b 67 4d
        E 240 8b 67 53
        E 0 9b 65 4f
        E 240 8b 65 4f
        E 0 9b 63 5d
        E 240 8b 63 57
        E 0 9b 65 4f
        E 240 8b 65 4d
        E 0 9b 62 4b
        E 240 8b 62 52
        E 0 9b 65 4e
        E 240 8b 65 50
        E 0 9b 62 4f
        E 240 8b 62 4f
        E 240 9b 60 49
        E 240 8b 60 54
        E 0 9b 62 47
        E 240 8b 62 4d
        E 0 9b 63 5f
        E 240 8b 63 5b
        E 0 9b 62 4b
        E 240 8b 62 49
        E 0 9b 60 4b
        E 240 8b 60 52
        E 0 9b 63 54
        E 240 8b 63 54
        E 0 9b 62 4d
        E 240 8b 62 51
        E 0 9b 63 5b
        E 240 8b 63 5b
        E 0 9b 62 4f
        E 240 8b 62 5b
        E 240 9b 63 5d
        E 240 8b 63 57
        E 0 9b 65 54
        E 240 8b 65 49
        E 0 9b 67 4d
        E 240 8b 67 53
        E 0 9b 65 4f
        E 240 8b 65 4f
        E 0 9b 63 5d
        E 240 8b 63 57
        E 0 9b 65 4f
        E 240 8b 65 4d
        E 0 9b 62 4b
        E 240 8b 62 52
        E 0 9b 65 4e
        E 240 8b 65 50
        E 0 9b 62 4f
        E 240 8b 62 4f
        E 240 9b 60 49
        E 240 8b 60 54
        E 0 9b 62 47
        E 240 8b 62 4d
        E 0 9b 63 5f
        E 240 8b 63 5b
        E 0 9b 62 4b
        E 240 8b 62 49
        E 0 9b 60 4b
        E 240 8b 60 52
        E 0 9b 63 54
        E 240 8b 63 54
        E 0 9b 62 4d
        E 240 8b 62 51
        E 0 9b 63 5b
        E 240 8b 63 5b
        E 0 9b 62 4f
        E 240 8b 62 5b
        E 240 9b 63 5d
        E 240 8b 63 57
        E 0 9b 65 54
        E 240 8b 65 49
        E 0 9b 67 4d
        E 240 8b 67 53
        E 0 9b 65 4f
        E 240 8b 65 4f
        E 0 9b 63 5d
        E 240 8b 63 57
        E 0 9b 65 4f
        E 240 8b 65 4d
        E 0 9b 62 4b
        E 240 8b 62 52
        E 0 9b 65 4e
        E 240 8b 65 50
        E 0 9b 62 4f
        E 240 8b 62 4f
        E 0 9b 63 50
        E 240 8b 63 54
        E 49680 b0 7b 00
        CCINTERP 32
        CHASE_CC_TAKEOFFS 1
        GUID {27A84CC9-4425-4942-907C-5EE9B17E819C}
        IGNTEMPO 0 120 4 4
        SRCCOLOR 12
        VELLANE -1 100 0
      >
    >
  >
  <TRACK {2F76FBFF-CBC1-524F-B4E1-802B52A04D58}
    NAME Flute
    PEAKCOL 16576
    BEAT -1
    AUTOMODE 0
    VOLPAN 1 0 -1 -1 1
    MUTESOLO 0 0 0
    IPHASE 0
    PLAYOFFS 0 1
    ISBUS 0 0
    BUSCOMP 0 0 0 0 0
    SHOWINMIX 1 0.6667 0.5 1 0.5 0 0 0
    SEL 0
    REC 0 0 1 0 0 0 0 0
    VU 2
    TRACKHEIGHT 0 0 0 0 0 0
    INQ 0 0 0 0.5 100 0 0 100
    NCHAN 2
    FX 1
    TRACKID {2F76FBFF-CBC1-524F-B4E1-802B52A04D58}
    PERF 0
    MIDIOUT -1
    MAINSEND 1 0
    <ITEM
      POSITION 0
      SNAPOFFS 0
      LENGTH 351.90507745299715
      LOOP 1
      ALLTAKES 0
      FADEIN 1 0 0 1 0 0 0
      FADEOUT 1 0 0 1 0 0 0
      MUTE 0 0
      SEL 0
      IGUID {DAAF68D9-07A6-5342-B5B9-384E6CCD441B}
      IID 13
      NAME "Flute - 1-6--3-2_geth-1.mid"
      VOLPAN 1 0 1 -1
      SOFFS 0 0
      PLAYRATE 1 1 0 -1 0 0.0025
      CHANMODE 0
      GUID {F4695A49-0645-B142-905D-B8399263FDB6}
      <SOURCE MIDI
        HASDATA 1 480 QN
        CCINTERP 32
        POOLEDEVTS {4C946FB5-A0C4-3C45-8BDA-89164D8170DA}
        <X 0 0 0 0 3 Flute
          /wNGbHV0ZQ==
        >
        E 0 bc 00 00
        E 0 bc 20 01
        E 0 cc 49 00
        E 0 bc 07 58
        E 0 bc 0a 58
        E 49883 9c 52 67
        E 251 9c 4d 5f
        E 6 8c 52 6e
        E 240 9c 49 5f
        E 13 8c 4d 5c
        E 217 8c 49 78
        E 2 9c 48 5f
        E 247 9c 46 5f
        E 22 8c 48 62
        E 976 9c 52 5f
        E 8 8c 46 79
        E 491 bc 40 7f
        E 153 8c 52 51
        E 304 9c 50 5f
        E 10 bc 40 00
        E 298 bc 40 7f
        E 171 8c 50 59
        E 454 bc 40 00
        E 4 9c 4e 5f
        E 281 bc 40 7f
        E 138 8c 4e 45
        E 499 9c 4d 5f
        E 7 bc 40 00
        E 227 bc 40 7f
        E 168 8c 4d 4f
        E 548 bc 40 00
        E 11 9c 52 5f
        E 472 9c 54 5f
        E 2 8c 52 6f
        E 261 9c 52 65
        E 15 8c 54 49
        E 218 9c 50 5f
        E 27 8c 52 6b
        E 427 8c 50 73
        E 22 9c 52 63
        E 238 9c 50 5f
        E 30 8c 52 60
        E 91 bc 40 7f
        E 67 8c 50 78
        E 55 bc 40 00
        E 10 9c 4e 5f
        E 450 8c 4e 68
        E 25 9c 50 65
        E 236 9c 4e 5f
        E 6 8c 50 6d
        E 201 8c 4e 6e
        E 54 9c 4d 5f
        E 487 bc 40 7f
        E 148 8c 4d 63
        E 328 bc 40 00
        E 8 9c 52 5f
        E 463 9c 54 5f
        E 1 8c 52 6f
        E 248 9c 52 5f
        E 8 8c 54 57
        E 223 9c 50 63
        E 22 8c 52 72
        E 436 8c 50 72
        E 27 9c 52 5f
        E 238 8c 52 5c
        E 13 9c 50 5f
        E 77 bc 40 7f
        E 98 8c 50 71
        E 71 9c 4e 5f
        E 5 bc 40 00
        E 438 8c 4e 6f
        E 12 9c 50 65
        E 238 8c 50 60
        E 28 9c 4e 65
        E 183 8c 4e 6e
        E 59 9c 4d 5f
        E 525 bc 40 7f
        E 183 8c 4d 5c
        E 230 bc 40 00
        E 15336 9c 52 70
        E 541 bc 40 7f
        E 98 8c 52 49
        E 404 9c 50 5f
        E 12 bc 40 00
        E 430 bc 40 7f
        E 106 8c 50 57
        E 357 bc 40 00
        E 3 9c 4e 63
        E 477 bc 40 7f
        E 53 8c 4e 4f
        E 399 bc 40 00
        E 9 9c 4d 5f
        E 461 bc 40 7f
        E 43 8c 4d 60
        E 425 bc 40 00
        E 4 9c 52 63
        E 489 9c 54 5f
        E 4 8c 52 6d
        E 238 9c 52 65
        E 17 8c 54 4c
        E 221 9c 50 65
        E 30 8c 52 6f
        E 420 8c 50 73
        E 37 9c 52 69
        E 242 9c 50 67
        E 15 8c 52 61
        E 103 bc 40 7f
        E 68 8c 50 79
        E 63 bc 40 00
        E 8 9c 4e 5f
        E 436 8c 4e 6a
        E 25 9c 50 63
        E 262 8c 50 71
        E 0 9c 4e 65
        E 202 8c 4e 66
        E 42 9c 4d 5f
        E 481 bc 40 7f
        E 165 8c 4d 64
        E 304 bc 40 00
        E 26 9c 52 65
        E 495 9c 54 5f
        E 3 8c 52 6e
        E 231 9c 52 65
        E 1 8c 54 55
        E 226 9c 50 5f
        E 32 8c 52 70
        E 427 8c 50 77
        E 31 9c 52 63
        E 209 8c 52 60
        E 3 9c 50 65
        E 80 bc 40 7f
        E 94 8c 50 76
        E 74 9c 4e 5f
        E 9 bc 40 00
        E 462 8c 4e 70
        E 21 9c 50 5f
        E 235 8c 50 5b
        E 12 9c 4e 5f
        E 176 8c 4e 72
        E 53 9c 4d 5f
        E 411 bc 40 7f
        E 149 8c 4d 61
        E 404 bc 40 00
        E 31213 9c 54 66
        E 60 9c 52 5d
        E 15 8c 54 51
        E 45 9c 50 5d
        E 15 8c 52 5c
        E 45 9c 4f 5d
        E 15 8c 50 5e
        E 60 8c 4f 55
        E 705 9c 52 66
        E 60 9c 50 5d
        E 15 8c 52 55
        E 45 9c 4f 5d
        E 15 8c 50 61
        E 45 9c 4d 5d
        E 15 8c 4f 59
        E 60 8c 4d 62
        E 705 9c 50 66
        E 60 9c 4f 5d
        E 15 8c 50 59
        E 45 9c 4d 5d
        E 15 8c 4f 52
        E 45 9c 4b 5d
        E 15 8c 4d 43
        E 60 8c 4b 6e
        E 705 9c 4f 66
        E 60 9c 4d 5d
        E 15 8c 4f 54
        E 45 9c 4b 5d
        E 15 8c 4d 36
        E 45 9c 4a 5d
        E 15 8c 4b 5a
        E 60 8c 4a 48
        E 705 9c 54 66
        E 60 9c 52 5d
        E 15 8c 54 51
        E 45 9c 50 5d
        E 15 8c 52 5c
        E 45 9c 4f 5d
        E 15 8c 50 5e
        E 60 8c 4f 55
        E 705 9c 52 66
        E 60 9c 50 5d
        E 15 8c 52 55
        E 45 9c 4f 5d
        E 15 8c 50 61
        E 45 9c 4d 5d
        E 15 8c 4f 59
        E 60 8c 4d 62
        E 705 9c 50 66
        E 60 9c 4f 5d
        E 15 8c 50 59
        E 45 9c 4d 5d
        E 15 8c 4f 52
        E 45 9c 4b 5d
        E 15 8c 4d 43
        E 60 8c 4b 6e
        E 705 9c 4f 66
        E 60 9c 4d 5d
        E 15 8c 4f 54
        E 45 9c 4b 5d
        E 15 8c 4d 36
        E 45 9c 4a 5d
        E 15 8c 4b 5a
        E 60 8c 4a 48
        E 705 9c 54 66
        E 60 9c 52 5d
        E 15 8c 54 51
        E 45 9c 50 5d
        E 15 8c 52 5c
        E 45 9c 4f 5d
        E 15 8c 50 5e
        E 60 8c 4f 55
        E 705 9c 52 66
        E 60 9c 50 5d
        E 15 8c 52 55
        E 45 9c 4f 5d
        E 15 8c 50 61
        E 45 9c 4d 5d
        E 15 8c 4f 59
        E 60 8c 4d 62
        E 705 9c 50 66
        E 60 9c 4f 5d
        E 15 8c 50 59
        E 45 9c 4d 5d
        E 15 8c 4f 52
        E 45 9c 4b 5d
        E 15 8c 4d 43
        E 60 8c 4b 6e
        E 705 9c 4f 66
        E 60 9c 4d 5d
        E 15 8c 4f 54
        E 45 9c 4b 5d
        E 15 8c 4d 36
        E 45 9c 4a 5d
        E 15 8c 4b 5a
        E 60 8c 4a 48
        E 705 9c 54 66
        E 60 9c 52 5d
        E 15 8c 54 51
        E 45 9c 50 5d
        E 15 8c 52 5c
        E 45 9c 4f 5d
        E 15 8c 50 5e
        E 60 8c 4f 55
        E 705 9c 52 66
        E 60 9c 50 5d
        E 15 8c 52 55
        E 45 9c 4f 5d
        E 15 8c 50 61
        E 45 9c 4d 5d
        E 15 8c 4f 59
        E 60 8c 4d 62
        E 705 9c 50 66
        E 60 9c 4f 5d
        E 15 8c 50 59
        E 45 9c 4d 5d
        E 15 8c 4f 52
        E 45 9c 4b 5d
        E 15 8c 4d 43
        E 60 8c 4b 6e
        E 705 9c 4f 66
        E 60 9c 4d 5d
        E 15 8c 4f 54
        E 45 9c 4b 5d
        E 15 8c 4d 36
        E 45 9c 4a 5d
        E 15 8c 4b 5a
        E 60 8c 4a 48
        E 705 9c 54 66
        E 60 9c 52 5d
        E 15 8c 54 51
        E 45 9c 50 5d
        E 15 8c 52 5c
        E 45 9c 4f 5d
        E 15 8c 50 5e
        E 60 8c 4f 55
        E 705 9c 52 66
        E 60 9c 50 5d
        E 15 8c 52 55
        E 45 9c 4f 5d
        E 15 8c 50 61
        E 45 9c 4d 5d
        E 15 8c 4f 59
        E 60 8c 4d 62
        E 705 9c 50 66
        E 60 9c 4f 5d
        E 15 8c 50 59
        E 45 9c 4d 5d
        E 15 8c 4f 52
        E 45 9c 4b 5d
        E 15 8c 4d 43
        E 60 8c 4b 6e
        E 705 9c 4f 66
        E 60 9c 4d 5d
        E 15 8c 4f 54
        E 45 9c 4b 5d
        E 15 8c 4d 36
        E 45 9c 4a 5d
        E 15 8c 4b 5a
        E 60 8c 4a 48
        E 705 9c 54 66
        E 60 9c 52 5d
        E 15 8c 54 51
        E 45 9c 50 5d
        E 15 8c 52 5c
        E 45 9c 4f 5d
        E 15 8c 50 5e
        E 60 8c 4f 55
        E 705 9c 52 66
        E 60 9c 50 5d
        E 15 8c 52 55
        E 45 9c 4f 5d
        E 15 8c 50 61
        E 45 9c 4d 5d
        E 15 8c 4f 59
        E 60 8c 4d 62
        E 705 9c 50 66
        E 60 9c 4f 5d
        E 15 8c 50 59
        E 45 9c 4d 5d
        E 15 8c 4f 52
        E 45 9c 4b 5d
        E 15 8c 4d 43
        E 60 8c 4b 6e
        E 705 9c 4f 66
        E 60 9c 4d 5d
        E 15 8c 4f 54
        E 45 9c 4b 5d
        E 15 8c 4d 36
        E 45 9c 4a 5d
        E 15 8c 4b 5a
        E 60 8c 4a 48
        E 345 9c 54 4c
        E 120 8c 54 57
        E 0 9c 56 4d
        E 120 8c 56 51
        E 0 9c 57 62
        E 120 8c 57 54
        E 0 9c 56 52
        E 120 8c 56 51
        E 0 9c 54 4e
        E 120 8c 54 57
        E 0 9c 57 62
        E 120 8c 57 63
        E 0 9c 54 4d
        E 120 8c 54 57
        E 120 9c 54 52
        E 120 8c 54 52
        E 0 9c 56 4e
        E 120 8c 56 50
        E 0 9c 57 66
        E 120 8c 57 60
        E 0 9c 56 54
        E 120 8c 56 58
        E 0 9c 54 4d
        E 120 8c 54 59
        E 0 9c 57 66
        E 120 8c 57 62
        E 0 9c 54 4e
        E 120 8c 54 4f
        E 120 9c 54 54
        E 120 8c 54 5b
        E 0 9c 56 54
        E 120 8c 56 55
        E 0 9c 57 66
        E 120 8c 57 61
        E 0 9c 56 52
        E 120 8c 56 57
        E 0 9c 54 54
        E 120 8c 54 5b
        E 0 9c 57 69
        E 120 8c 57 62
        E 0 9c 54 52
        E 120 8c 54 5b
        E 120 9c 57 6b
        E 120 8c 57 69
        E 0 9c 57 69
        E 120 8c 57 70
        E 120 9c 57 6b
        E 120 8c 57 67
        E 0 9c 57 62
        E 120 8c 57 6d
        E 0 9c 57 6b
        E 120 8c 57 69
        E 0 9c 56 5b
        E 120 8c 56 64
        E 120 9c 54 4c
        E 120 8c 54 57
        E 0 9c 56 4d
        E 120 8c 56 51
        E 0 9c 57 62
        E 120 8c 57 54
        E 0 9c 56 52
        E 120 8c 56 51
        E 0 9c 54 4e
        E 120 8c 54 57
        E 0 9c 57 62
        E 120 8c 57 63
        E 0 9c 54 4d
        E 120 8c 54 57
        E 120 9c 54 52
        E 120 8c 54 52
        E 0 9c 56 4e
        E 120 8c 56 50
        E 0 9c 57 66
        E 120 8c 57 60
        E 0 9c 56 54
        E 120 8c 56 58
        E 0 9c 54 4d
        E 120 8c 54 59
        E 0 9c 57 66
        E 120 8c 57 62
        E 0 9c 54 4e
        E 120 8c 54 4f
        E 120 9c 54 54
        E 120 8c 54 5b
        E 0 9c 56 54
        E 120 8c 56 55
        E 0 9c 57 66
        E 120 8c 57 61
        E 0 9c 56 52
        E 120 8c 56 57
        E 0 9c 54 54
        E 120 8c 54 5b
        E 0 9c 57 69
        E 120 8c 57 62
        E 0 9c 54 52
        E 120 8c 54 5b
        E 120 9c 57 6b
        E 120 8c 57 69
        E 0 9c 57 69
        E 120 8c 57 70
        E 120 9c 57 6b
        E 120 8c 57 67
        E 0 9c 57 62
        E 120 8c 57 6d
        E 0 9c 57 6b
        E 120 8c 57 69
        E 0 9c 56 5b
        E 120 8c 56 64
        E 120 9c 54 4c
        E 120 8c 54 57
        E 0 9c 56 4d
        E 120 8c 56 51
        E 0 9c 57 62
        E 120 8c 57 54
        E 0 9c 56 52
        E 120 8c 56 51
        E 0 9c 54 4e
        E 120 8c 54 57
        E 0 9c 57 62
        E 120 8c 57 63
        E 0 9c 54 4d
        E 120 8c 54 57
        E 120 9c 54 52
        E 120 8c 54 52
        E 0 9c 56 4e
        E 120 8c 56 50
        E 0 9c 57 66
        E 120 8c 57 60
        E 0 9c 56 54
        E 120 8c 56 58
        E 0 9c 54 4d
        E 120 8c 54 59
        E 0 9c 57 66
        E 120 8c 57 62
        E 0 9c 54 4e
        E 120 8c 54 4f
        E 120 9c 54 54
        E 120 8c 54 5b
        E 0 9c 56 54
        E 120 8c 56 55
        E 0 9c 57 66
        E 120 8c 57 61
        E 0 9c 56 52
        E 120 8c 56 57
        E 0 9c 54 54
        E 120 8c 54 5b
        E 0 9c 57 69
        E 120 8c 57 62
        E 0 9c 54 52
        E 120 8c 54 5b
        E 120 9c 57 6b
        E 120 8c 57 69
        E 0 9c 57 69
        E 120 8c 57 70
        E 120 9c 57 6b
        E 120 8c 57 67
        E 0 9c 57 62
        E 120 8c 57 6d
        E 0 9c 57 6b
        E 120 8c 57 69
        E 0 9c 56 5b
        E 120 8c 56 64
        E 120 9c 54 4c
        E 120 8c 54 57
        E 0 9c 56 4d
        E 120 8c 56 51
        E 0 9c 57 62
        E 120 8c 57 54
        E 0 9c 56 52
        E 120 8c 56 51
        E 0 9c 54 4e
        E 120 8c 54 57
        E 0 9c 57 62
        E 120 8c 57 63
        E 0 9c 54 4d
        E 120 8c 54 57
        E 120 9c 54 52
        E 120 8c 54 52
        E 0 9c 56 4e
        E 120 8c 56 50
        E 0 9c 57 66
        E 120 8c 57 60
        E 0 9c 56 54
        E 120 8c 56 58
        E 0 9c 54 4d
        E 120 8c 54 59
        E 0 9c 57 66
        E 120 8c 57 62
        E 0 9c 54 4e
        E 120 8c 54 4f
        E 120 9c 54 54
        E 120 8c 54 5b
        E 0 9c 56 54
        E 120 8c 56 55
        E 0 9c 57 66
        E 120 8c 57 61
        E 0 9c 56 52
        E 120 8c 56 57
        E 0 9c 54 54
        E 120 8c 54 5b
        E 0 9c 57 69
        E 120 8c 57 62
        E 0 9c 54 52
        E 120 8c 54 5b
        E 120 9c 57 6b
        E 120 8c 57 69
        E 0 9c 57 69
        E 120 8c 57 70
        E 120 9c 57 6b
        E 120 8c 57 67
        E 0 9c 57 62
        E 120 8c 57 6d
        E 0 9c 57 6b
        E 120 8c 57 69
        E 0 9c 56 5b
        E 120 8c 56 64
        E 240 9c 57 5d
        E 240 8c 57 57
        E 0 9c 59 54
        E 240 8c 59 49
        E 0 9c 5b 4d
        E 240 8c 5b 53
        E 0 9c 59 4f
        E 240 8c 59 4f
        E 0 9c 57 5d
        E 240 8c 57 57
        E 0 9c 59 4f
        E 240 8c 59 4d
        E 0 9c 56 4b
        E 240 8c 56 52
        E 0 9c 59 4e
        E 240 8c 59 50
        E 0 9c 56 4f
        E 240 8c 56 4f
        E 240 9c 54 49
        E 240 8c 54 54
        E 0 9c 56 47
        E 240 8c 56 4d
        E 0 9c 57 5f
        E 240 8c 57 5b
        E 0 9c 56 4b
        E 240 8c 56 49
        E 0 9c 54 4b
        E 240 8c 54 52
        E 0 9c 57 54
        E 240 8c 57 54
        E 0 9c 56 4d
        E 240 8c 56 51
        E 0 9c 57 5b
        E 240 8c 57 5b
        E 0 9c 56 4f
        E 240 8c 56 5b
        E 240 9c 57 5d
        E 240 8c 57 57
        E 0 9c 59 54
        E 240 8c 59 49
        E 0 9c 5b 4d
        E 240 8c 5b 53
        E 0 9c 59 4f
        E 240 8c 59 4f
        E 0 9c 57 5d
        E 240 8c 57 57
        E 0 9c 59 4f
        E 240 8c 59 4d
        E 0 9c 56 4b
        E 240 8c 56 52
        E 0 9c 59 4e
        E 240 8c 59 50
        E 0 9c 56 4f
        E 240 8c 56 4f
        E 240 9c 54 49
        E 240 8c 54 54
        E 0 9c 56 47
        E 240 8c 56 4d
        E 0 9c 57 5f
        E 240 8c 57 5b
        E 0 9c 56 4b
        E 240 8c 56 49
        E 0 9c 54 4b
        E 240 8c 54 52
        E 0 9c 57 54
        E 240 8c 57 54
        E 0 9c 56 4d
        E 240 8c 56 51
        E 0 9c 57 5b
        E 240 8c 57 5b
        E 0 9c 56 4f
        E 240 8c 56 5b
        E 240 9c 57 5d
        E 240 8c 57 57
        E 0 9c 59 54
        E 240 8c 59 49
        E 0 9c 5b 4d
        E 240 8c 5b 53
        E 0 9c 59 4f
        E 240 8c 59 4f
        E 0 9c 57 5d
        E 240 8c 57 57
        E 0 9c 59 4f
        E 240 8c 59 4d
        E 0 9c 56 4b
        E 240 8c 56 52
        E 0 9c 59 4e
        E 240 8c 59 50
        E 0 9c 56 4f
        E 240 8c 56 4f
        E 240 9c 54 49
        E 240 8c 54 54
        E 0 9c 56 47
        E 240 8c 56 4d
        E 0 9c 57 5f
        E 240 8c 57 5b
        E 0 9c 56 4b
        E 240 8c 56 49
        E 0 9c 54 4b
        E 240 8c 54 52
        E 0 9c 57 54
        E 240 8c 57 54
        E 0 9c 56 4d
        E 240 8c 56 51
        E 0 9c 57 5b
        E 240 8c 57 5b
        E 0 9c 56 4f
        E 240 8c 56 5b
        E 240 9c 57 5d
        E 240 8c 57 57
        E 0 9c 59 54
        E 240 8c 59 49
        E 0 9c 5b 4d
        E 240 8c 5b 53
        E 0 9c 59 4f
        E 240 8c 59 4f
        E 0 9c 57 5d
        E 240 8c 57 57
        E 0 9c 59 4f
        E 240 8c 59 4d
        E 0 9c 56 4b
        E 240 8c 56 52
        E 0 9c 59 4e
        E 240 8c 59 50
        E 0 9c 56 4f
        E 240 8c 56 4f
        E 240 9c 54 49
        E 240 8c 54 54
        E 0 9c 56 47
        E 240 8c 56 4d
        E 0 9c 57 5f
        E 240 8c 57 5b
        E 0 9c 56 4b
        E 240 8c 56 49
        E 0 9c 54 4b
        E 240 8c 54 52
        E 0 9c 57 54
        E 240 8c 57 54
        E 0 9c 56 4d
        E 240 8c 56 51
        E 0 9c 57 5b
        E 240 8c 57 5b
        E 0 9c 56 4f
        E 240 8c 56 5b
        E 240 9c 57 5d
        E 240 8c 57 57
        E 0 9c 59 54
        E 240 8c 59 49
        E 0 9c 5b 4d
        E 240 8c 5b 53
        E 0 9c 59 4f
        E 240 8c 59 4f
        E 0 9c 57 5d
        E 240 8c 57 57
        E 0 9c 59 4f
        E 240 8c 59 4d
        E 0 9c 56 4b
        E 240 8c 56 52
        E 0 9c 59 4e
        E 240 8c 59 50
        E 0 9c 56 4f
        E 240 8c 56 4f
        E 240 9c 54 49
        E 240 8c 54 54
        E 0 9c 56 47
        E 240 8c 56 4d
        E 0 9c 57 5f
        E 240 8c 57 5b
        E 0 9c 56 4b
        E 240 8c 56 49
        E 0 9c 54 4b
        E 240 8c 54 52
        E 0 9c 57 54
        E 240 8c 57 54
        E 0 9c 56 4d
        E 240 8c 56 51
        E 0 9c 57 5b
        E 240 8c 57 5b
        E 0 9c 56 4f
        E 240 8c 56 5b
        E 240 9c 57 5d
        E 240 8c 57 57
        E 0 9c 59 54
        E 240 8c 59 49
        E 0 9c 5b 4d
        E 240 8c 5b 53
        E 0 9c 59 4f
        E 240 8c 59 4f
        E 0 9c 57 5d
        E 240 8c 57 57
        E 0 9c 59 4f
        E 240 8c 59 4d
        E 0 9c 56 4b
        E 240 8c 56 52
        E 0 9c 59 4e
        E 240 8c 59 50
        E 0 9c 56 4f
        E 240 8c 56 4f
        E 0 9c 57 50
        E 240 8c 57 54
        E 24720 bc 43 7f
        E 5743 9c 37 52
        E 0 9c 4f 52
        E 474 9c 33 52
        E 0 9c 4b 52
        E 32 8c 37 61
        E 0 8c 4f 61
        E 428 9c 32 4b
        E 0 9c 4a 4b
        E 5 8c 33 6b
        E 0 8c 4b 6b
        E 487 9c 30 4e
        E 0 9c 48 4e
        E 7 8c 32 68
        E 0 8c 4a 68
        E 463 9c 38 54
        E 0 9c 50 54
        E 12 8c 30 62
        E 0 8c 48 62
        E 1851 8c 38 64
        E 0 8c 50 64
        E 65 9c 38 5d
        E 0 9c 50 5d
        E 501 9c 35 3d
        E 0 9c 4d 3d
        E 8 8c 38 5b
        E 0 8c 50 5b
        E 444 9c 33 4f
        E 0 9c 4b 4f
        E 9 8c 35 61
        E 0 8c 4d 61
        E 420 8c 33 5c
        E 0 8c 4b 5c
        E 49 9c 33 43
        E 0 9c 4b 43
        E 462 9c 32 47
        E 0 9c 4a 47
        E 10 8c 33 75
        E 0 8c 4b 75
        E 504 9c 3a 54
        E 0 9c 52 54
        E 25 8c 32 4c
        E 0 8c 4a 4c
        E 440 8c 3a 64
        E 0 8c 52 64
        E 0 9c 3c 47
        E 0 9c 54 47
        E 667 9c 3a 4e
        E 0 9c 52 4e
        E 9 8c 3c 64
        E 0 8c 54 64
        E 203 8c 3a 64
        E 0 8c 52 64
        E 52 9c 3a 4e
        E 0 9c 52 4e
        E 946 9c 38 52
        E 0 9c 50 52
        E 4 8c 3a 5b
        E 0 8c 52 5b
        E 494 8c 38 79
        E 0 8c 50 79
        E 3 9c 37 4b
        E 0 9c 4f 4b
        E 481 9c 38 5f
        E 0 9c 50 5f
        E 16 8c 37 62
        E 0 8c 4f 62
        E 479 9c 37 54
        E 0 9c 4f 54
        E 9 8c 38 79
        E 0 8c 50 79
        E 451 9c 44 66
        E 0 9c 5c 66
        E 17 8c 37 59
        E 0 8c 4f 59
        E 472 9c 43 52
        E 0 9c 5b 52
        E 16 8c 44 6b
        E 0 8c 5c 6b
        E 481 8c 43 67
        E 0 8c 5b 67
        E 0 9c 41 59
        E 0 9c 59 59
        E 510 9c 3f 5b
        E 0 9c 57 5b
        E 24 8c 41 60
        E 0 8c 59 60
        E 441 9c 3e 4e
        E 0 9c 56 4e
        E 16 8c 3f 5c
        E 0 8c 57 5c
        E 471 8c 3e 66
        E 0 8c 56 66
        E 2 9c 3c 4c
        E 0 9c 54 4c
        E 515 9c 3f 4f
        E 0 9c 57 4f
        E 18 8c 3c 53
        E 0 8c 54 53
        E 1877 9c 3c 4b
        E 0 9c 54 4b
        E 14 8c 3f 5c
        E 0 8c 57 5c
        E 475 9c 37 4c
        E 0 9c 4f 4c
        E 3 8c 3c 63
        E 0 8c 54 63
        E 467 9c 35 4e
        E 0 9c 4d 4e
        E 30 8c 37 62
        E 0 8c 4f 62
        E 487 9c 33 5b
        E 0 9c 4b 5b
        E 4 8c 35 69
        E 0 8c 4d 69
        E 456 9c 4f 4d
        E 0 9c 37 4d
        E 19 8c 33 77
        E 0 8c 4b 77
        E 461 8c 4f 5c
        E 0 8c 37 5c
        E 478 9c 57 4e
        E 228 9c 56 4c
        E 7 8c 57 6a
        E 260 9c 54 4c
        E 13 8c 56 5a
        E 213 9c 53 4f
        E 11 8c 54 64
        E 221 bc 43 00
        E 36 8c 53 5c
        E 444 b0 7b 00
        CCINTERP 32
        CHASE_CC_TAKEOFFS 1
        GUID {5383CBF4-3E4C-2846-ACB5-B16765DA65C0}
        IGNTEMPO 0 120 4 4
        SRCCOLOR 13
        VELLANE -1 100 0
      >
    >
  >
  <TRACK {370E4FBC-D9B5-D246-81D0-89E601FB1C85}
    NAME Oboe
    PEAKCOL 16576
    BEAT -1
    AUTOMODE 0
    VOLPAN 1 0 -1 -1 1
    MUTESOLO 0 0 0
    IPHASE 0
    PLAYOFFS 0 1
    ISBUS 0 0
    BUSCOMP 0 0 0 0 0
    SHOWINMIX 1 0.6667 0.5 1 0.5 0 0 0
    SEL 0
    REC 0 0 1 0 0 0 0 0
    VU 2
    TRACKHEIGHT 0 0 0 0 0 0
    INQ 0 0 0 0.5 100 0 0 100
    NCHAN 2
    FX 1
    TRACKID {370E4FBC-D9B5-D246-81D0-89E601FB1C85}
    PERF 0
    MIDIOUT -1
    MAINSEND 1 0
    <ITEM
      POSITION 0
      SNAPOFFS 0
      LENGTH 350.96757745293559
      LOOP 1
      ALLTAKES 0
      FADEIN 1 0 0 1 0 0 0
      FADEOUT 1 0 0 1 0 0 0
      MUTE 0 0
      SEL 0
      IGUID {2036E84F-BDE7-C84A-89E5-AAAA0F53519A}
      IID 14
      NAME "Oboe - 1-6--3-2_geth-1.mid"
      VOLPAN 1 0 1 -1
      SOFFS 0 0
      PLAYRATE 1 1 0 -1 0 0.0025
      CHANMODE 0
      GUID {CE318F7F-2649-1642-95F3-FA3151C3BE3D}
      <SOURCE MIDI
        HASDATA 1 480 QN
        CCINTERP 32
        POOLEDEVTS {62AFAB56-D9A8-4D47-9FDB-0ADC5A02F6D3}
        <X 0 0 0 0 3 Oboe
          /wNPYm9l
        >
        E 0 bd 00 00
        E 0 bd 20 01
        E 0 cd 44 00
        E 0 bd 07 56
        E 0 bd 0a 30
        E 51079 9d 41 65
        E 267 9d 3d 6c
        E 9 8d 41 63
        E 222 8d 3d 62
        E 10 9d 3c 70
        E 257 8d 3c 69
        E 20 9d 3a 70
        E 492 bd 40 7f
        E 162 8d 3a 58
        E 295 9d 38 63
        E 10 bd 40 00
        E 298 bd 40 7f
        E 242 8d 38 58
        E 383 bd 40 00
        E 11 9d 36 5f
        E 274 bd 40 7f
        E 205 8d 36 58
        E 439 bd 40 00
        E 4 9d 35 5f
        E 223 bd 40 7f
        E 124 8d 35 45
        E 592 bd 40 00
        E 19 9d 3a 5f
        E 886 8d 3a 61
        E 78 9d 38 5f
        E 831 bd 40 7f
        E 57 8d 38 6f
        E 65 bd 40 00
        E 14 9d 36 5f
        E 959 8d 36 79
        E 11 9d 35 5f
        E 485 bd 40 7f
        E 135 8d 35 39
        E 341 bd 40 00
        E 14 9d 3a 5f
        E 850 8d 3a 64
        E 84 9d 38 70
        E 816 bd 40 7f
        E 94 8d 38 66
        E 75 9d 36 5f
        E 5 bd 40 00
        E 930 8d 36 7a
        E 28 9d 35 5f
        E 525 bd 40 7f
        E 167 8d 35 55
        E 246 bd 40 00
        E 15344 9d 3a 73
        E 533 bd 40 7f
        E 85 8d 3a 5c
        E 417 9d 38 65
        E 12 bd 40 00
        E 430 bd 40 7f
        E 161 8d 38 59
        E 302 bd 40 00
        E 7 9d 36 5f
        E 473 bd 40 7f
        E 143 8d 36 39
        E 309 bd 40 00
        E 11 9d 35 5f
        E 459 bd 40 7f
        E 58 8d 35 54
        E 410 bd 40 00
        E 10 9d 3a 65
        E 906 8d 3a 6f
        E 61 9d 38 70
        E 843 bd 40 7f
        E 68 8d 38 72
        E 63 bd 40 00
        E 1 9d 36 5f
        E 968 8d 36 78
        E 7 9d 35 5f
        E 480 bd 40 7f
        E 147 8d 35 40
        E 322 bd 40 00
        E 21 9d 3a 5f
        E 910 8d 3a 68
        E 51 9d 38 67
        E 782 bd 40 7f
        E 82 8d 38 66
        E 86 9d 36 5f
        E 9 bd 40 00
        E 940 8d 36 79
        E 4 9d 35 5f
        E 426 bd 40 7f
        E 179 8d 35 53
        E 374 bd 40 00
        E 30733 9d 48 6b
        E 938 9d 46 5f
        E 13 8d 48 64
        E 959 9d 44 5f
        E 23 8d 46 6d
        E 937 8d 44 73
        E 0 9d 43 4c
        E 923 8d 43 69
        E 13 9d 48 56
        E 1001 9d 46 59
        E 19 8d 48 69
        E 907 9d 44 54
        E 20 8d 46 60
        E 935 9d 43 4a
        E 6 8d 44 72
        E 951 8d 43 69
        E 13 9d 48 54
        E 982 9d 46 4f
        E 16 8d 48 6a
        E 935 9d 44 4f
        E 19 8d 46 5f
        E 900 9d 43 47
        E 2 8d 44 6b
        E 967 8d 43 68
        E 10 9d 48 4e
        E 980 9d 46 54
        E 15 8d 48 64
        E 929 9d 44 52
        E 20 8d 46 63
        E 953 9d 43 45
        E 6 8d 44 6d
        E 916 8d 43 67
        E 0 9d 48 4e
        E 1003 9d 46 54
        E 22 8d 48 64
        E 926 9d 44 59
        E 7 8d 46 6b
        E 929 9d 43 45
        E 1 8d 44 6b
        E 946 8d 43 61
        E 8 9d 48 4f
        E 969 9d 46 4f
        E 13 8d 48 5f
        E 947 9d 44 54
        E 22 8d 46 5b
        E 960 8d 44 6a
        E 0 9d 43 49
        E 936 8d 43 69
        E 13 9d 48 54
        E 991 9d 46 54
        E 14 8d 48 6b
        E 942 9d 44 59
        E 9 8d 46 63
        E 940 9d 43 47
        E 6 8d 44 64
        E 931 8d 43 68
        E 2 9d 48 59
        E 985 9d 46 54
        E 13 8d 48 6b
        E 947 9d 44 54
        E 18 8d 46 61
        E 928 9d 43 49
        E 2 8d 44 70
        E 959 8d 43 68
        E 4 9d 48 4d
        E 979 9d 46 59
        E 13 8d 48 6b
        E 948 9d 44 54
        E 22 8d 46 63
        E 917 9d 43 46
        E 6 8d 44 6a
        E 957 8d 43 67
        E 9 9d 48 4d
        E 980 9d 46 59
        E 16 8d 48 69
        E 907 9d 44 59
        E 15 8d 46 64
        E 926 8d 44 71
        E 3 9d 43 49
        E 875 8d 43 58
        E 137 9d 48 54
        E 1275 8d 48 63
        E 119 9d 46 5b
        E 801 8d 46 6a
        E 182 9d 44 5d
        E 1372 8d 44 5b
        E 59 9d 43 4b
        E 335 8d 43 5b
        E 165 9d 43 4e
        E 321 8d 43 01
        E 139 9d 48 4e
        E 1341 8d 48 66
        E 79 9d 46 52
        E 881 8d 46 62
        E 71 9d 44 54
        E 1329 8d 44 5e
        E 105 9d 43 47
        E 315 8d 43 59
        E 204 9d 43 4e
        E 336 8d 43 01
        E 133 9d 48 54
        E 1312 8d 48 67
        E 100 9d 46 4f
        E 806 8d 46 6e
        E 114 9d 44 59
        E 1411 8d 44 5c
        E 91 9d 43 46
        E 307 8d 43 59
        E 207 9d 43 49
        E 315 8d 43 43
        E 154 9d 48 4d
        E 1300 8d 48 62
        E 100 9d 46 52
        E 835 8d 46 66
        E 125 9d 44 54
        E 1306 8d 44 57
        E 128 9d 43 4b
        E 278 8d 43 58
        E 216 9d 43 4a
        E 261 8d 43 41
        E 230 9d 48 4d
        E 1284 8d 48 67
        E 108 9d 46 4f
        E 838 8d 46 61
        E 148 9d 44 52
        E 1343 8d 44 57
        E 99 9d 43 4b
        E 281 8d 43 58
        E 225 9d 43 54
        E 196 8d 43 57
        E 292 9d 48 54
        E 1264 8d 48 62
        E 128 9d 46 52
        E 886 8d 46 5f
        E 119 9d 44 5d
        E 240 8d 44 6f
        E 24740 bd 43 7f
        E 5743 9d 43 52
        E 474 9d 3f 52
        E 32 8d 43 61
        E 428 9d 3e 4b
        E 5 8d 3f 6b
        E 487 9d 3c 4e
        E 7 8d 3e 68
        E 463 9d 44 54
        E 12 8d 3c 62
        E 1851 8d 44 64
        E 65 9d 44 5d
        E 501 9d 41 3d
        E 8 8d 44 5b
        E 444 9d 3f 4f
        E 9 8d 41 61
        E 420 8d 3f 5c
        E 49 9d 3f 43
        E 462 9d 3e 47
        E 10 8d 3f 75
        E 504 9d 46 54
        E 25 8d 3e 4c
        E 440 8d 46 64
        E 0 9d 48 47
        E 667 9d 46 4e
        E 9 8d 48 64
        E 203 8d 46 64
        E 52 9d 46 4e
        E 946 9d 44 52
        E 4 8d 46 5b
        E 494 8d 44 79
        E 3 9d 43 4b
        E 481 9d 44 5f
        E 16 8d 43 62
        E 479 9d 43 54
        E 9 8d 44 79
        E 451 9d 50 66
        E 17 8d 43 59
        E 472 9d 4f 52
        E 16 8d 50 6b
        E 481 8d 4f 67
        E 0 9d 4d 59
        E 510 9d 4b 5b
        E 24 8d 4d 60
        E 441 9d 4a 4e
        E 16 8d 4b 5c
        E 471 8d 4a 66
        E 2 9d 48 4c
        E 515 9d 4b 4f
        E 18 8d 48 53
        E 1877 9d 48 4b
        E 14 8d 4b 5c
        E 475 9d 43 4c
        E 3 8d 48 63
        E 467 9d 41 4e
        E 30 8d 43 62
        E 487 9d 3f 5b
        E 4 8d 41 69
        E 456 9d 43 4d
        E 19 8d 3f 77
        E 461 8d 43 5c
        E 1431 bd 43 00
        E 0 b0 7b 00
        CCINTERP 32
        CHASE_CC_TAKEOFFS 1
        GUID {8F4E17FC-E8BB-8245-82B1-21929011555A}
        IGNTEMPO 0 120 4 4
        SRCCOLOR 14
        VELLANE -1 100 0
      >
    >
  >
  <TRACK {9ADC098A-41B7-B943-8ED6-059D8BC0C8E4}
    NAME Clarinet
    PEAKCOL 16576
    BEAT -1
    AUTOMODE 0
    VOLPAN 1 0 -1 -1 1
    MUTESOLO 0 0 0
    IPHASE 0
    PLAYOFFS 0 1
    ISBUS 0 0
    BUSCOMP 0 0 0 0 0
    SHOWINMIX 1 0.6667 0.5 1 0.5 0 0 0
    SEL 0
    REC 0 0 1 0 0 0 0 0
    VU 2
    TRACKHEIGHT 62 0 0 0 0 0
    INQ 0 0 0 0.5 100 0 0 100
    NCHAN 2
    FX 1
    TRACKID {9ADC098A-41B7-B943-8ED6-059D8BC0C8E4}
    PERF 0
    MIDIOUT -1
    MAINSEND 1 0
    <ITEM
      POSITION 0
      SNAPOFFS 0
      LENGTH 350.96757745293559
      LOOP 1
      ALLTAKES 0
      FADEIN 1 0 0 1 0 0 0
      FADEOUT 1 0 0 1 0 0 0
      MUTE 0 0
      SEL 0
      IGUID {8965AC0B-75B2-B54F-8580-B3417FD49A35}
      IID 15
      NAME "Clarinet - 1-6--3-2_geth-1.mid"
      VOLPAN 1 0 1 -1
      SOFFS 0 0
      PLAYRATE 1 1 0 -1 0 0.0025
      CHANMODE 0
      GUID {23D2FC10-110B-F142-94B8-6C32F4FCA6DE}
      <SOURCE MIDI
        HASDATA 1 480 QN
        CCINTERP 32
        POOLEDEVTS {3849F4E6-8847-094B-A0AF-833EF1B64BC5}
        <X 0 0 0 0 3 Clarinet
          /wNDbGFyaW5ldA==
        >
        E 0 be 00 00
        E 0 be 20 01
        E 0 ce 47 00
        E 0 be 07 52
        E 0 be 0a 4c
        E 51079 9e 41 65
        E 267 9e 3d 6c
        E 9 8e 41 63
        E 222 8e 3d 62
        E 10 9e 3c 70
        E 257 8e 3c 69
        E 20 9e 3a 70
        E 492 be 40 7f
        E 162 8e 3a 58
        E 295 9e 38 63
        E 10 be 40 00
        E 298 be 40 7f
        E 242 8e 38 58
        E 383 be 40 00
        E 11 9e 36 5f
        E 274 be 40 7f
        E 205 8e 36 58
        E 439 be 40 00
        E 4 9e 35 5f
        E 223 be 40 7f
        E 124 8e 35 45
        E 592 be 40 00
        E 19 9e 3a 5f
        E 886 8e 3a 61
        E 78 9e 38 5f
        E 831 be 40 7f
        E 57 8e 38 6f
        E 65 be 40 00
        E 14 9e 36 5f
        E 959 8e 36 79
        E 11 9e 35 5f
        E 485 be 40 7f
        E 135 8e 35 39
        E 341 be 40 00
        E 14 9e 3a 5f
        E 850 8e 3a 64
        E 84 9e 38 70
        E 816 be 40 7f
        E 94 8e 38 66
        E 75 9e 36 5f
        E 5 be 40 00
        E 930 8e 36 7a
        E 28 9e 35 5f
        E 525 be 40 7f
        E 167 8e 35 55
        E 246 be 40 00
        E 15344 9e 3a 73
        E 533 be 40 7f
        E 85 8e 3a 5c
        E 417 9e 38 65
        E 12 be 40 00
        E 430 be 40 7f
        E 161 8e 38 59
        E 302 be 40 00
        E 7 9e 36 5f
        E 473 be 40 7f
        E 143 8e 36 39
        E 309 be 40 00
        E 11 9e 35 5f
        E 459 be 40 7f
        E 58 8e 35 54
        E 410 be 40 00
        E 10 9e 3a 65
        E 906 8e 3a 6f
        E 61 9e 38 70
        E 843 be 40 7f
        E 68 8e 38 72
        E 63 be 40 00
        E 1 9e 36 5f
        E 968 8e 36 78
        E 7 9e 35 5f
        E 480 be 40 7f
        E 147 8e 35 40
        E 322 be 40 00
        E 21 9e 3a 5f
        E 910 8e 3a 68
        E 51 9e 38 67
        E 782 be 40 7f
        E 82 8e 38 66
        E 86 9e 36 5f
        E 9 be 40 00
        E 940 8e 36 79
        E 4 9e 35 5f
        E 426 be 40 7f
        E 179 8e 35 53
        E 374 be 40 00
        E 30733 9e 37 6b
        E 0 9e 3c 6b
        E 938 9e 35 5f
        E 0 9e 3a 5f
        E 13 8e 37 64
        E 0 8e 3c 64
        E 959 9e 33 5f
        E 0 9e 38 5f
        E 23 8e 35 6d
        E 0 8e 3a 6d
        E 937 8e 33 73
        E 0 8e 38 73
        E 0 9e 32 4c
        E 0 9e 37 4c
        E 923 8e 32 69
        E 0 8e 37 69
        E 13 9e 37 56
        E 0 9e 3c 56
        E 1001 9e 35 59
        E 0 9e 3a 59
        E 19 8e 37 69
        E 0 8e 3c 69
        E 907 9e 33 54
        E 0 9e 38 54
        E 20 8e 35 60
        E 0 8e 3a 60
        E 935 9e 32 4a
        E 0 9e 37 4a
        E 6 8e 33 72
        E 0 8e 38 72
        E 951 8e 32 69
        E 0 8e 37 69
        E 13 9e 37 54
        E 0 9e 3c 54
        E 982 9e 35 4f
        E 0 9e 3a 4f
        E 16 8e 37 6a
        E 0 8e 3c 6a
        E 935 9e 33 4f
        E 0 9e 38 4f
        E 19 8e 35 5f
        E 0 8e 3a 5f
        E 900 9e 32 47
        E 0 9e 37 47
        E 2 8e 33 6b
        E 0 8e 38 6b
        E 967 8e 32 68
        E 0 8e 37 68
        E 10 9e 37 4e
        E 0 9e 3c 4e
        E 980 9e 35 54
        E 0 9e 3a 54
        E 15 8e 37 64
        E 0 8e 3c 64
        E 929 9e 33 52
        E 0 9e 38 52
        E 20 8e 35 63
        E 0 8e 3a 63
        E 953 9e 32 45
        E 0 9e 37 45
        E 6 8e 33 6d
        E 0 8e 38 6d
        E 916 8e 32 67
        E 0 8e 37 67
        E 0 9e 37 4e
        E 0 9e 3c 4e
        E 1003 9e 35 54
        E 0 9e 3a 54
        E 22 8e 37 64
        E 0 8e 3c 64
        E 926 9e 33 59
        E 0 9e 38 59
        E 7 8e 35 6b
        E 0 8e 3a 6b
        E 929 9e 32 45
        E 0 9e 37 45
        E 1 8e 33 6b
        E 0 8e 38 6b
        E 946 8e 32 61
        E 0 8e 37 61
        E 8 9e 37 4f
        E 0 9e 3c 4f
        E 969 9e 35 4f
        E 0 9e 3a 4f
        E 13 8e 37 5f
        E 0 8e 3c 5f
        E 947 9e 33 54
        E 0 9e 38 54
        E 22 8e 35 5b
        E 0 8e 3a 5b
        E 960 8e 33 6a
        E 0 8e 38 6a
        E 0 9e 32 49
        E 0 9e 37 49
        E 936 8e 32 69
        E 0 8e 37 69
        E 13 9e 37 54
        E 0 9e 3c 54
        E 991 9e 35 54
        E 0 9e 3a 54
        E 14 8e 37 6b
        E 0 8e 3c 6b
        E 942 9e 33 59
        E 0 9e 38 59
        E 9 8e 35 63
        E 0 8e 3a 63
        E 940 9e 32 47
        E 0 9e 37 47
        E 6 8e 33 64
        E 0 8e 38 64
        E 931 8e 32 68
        E 0 8e 37 68
        E 2 9e 37 59
        E 0 9e 3c 59
        E 985 9e 35 54
        E 0 9e 3a 54
        E 13 8e 37 6b
        E 0 8e 3c 6b
        E 947 9e 33 54
        E 0 9e 38 54
        E 18 8e 35 61
        E 0 8e 3a 61
        E 928 9e 32 49
        E 0 9e 37 49
        E 2 8e 33 70
        E 0 8e 38 70
        E 959 8e 32 68
        E 0 8e 37 68
        E 4 9e 37 4d
        E 0 9e 3c 4d
        E 979 9e 35 59
        E 0 9e 3a 59
        E 13 8e 37 6b
        E 0 8e 3c 6b
        E 948 9e 33 54
        E 0 9e 38 54
        E 22 8e 35 63
        E 0 8e 3a 63
        E 917 9e 32 46
        E 0 9e 37 46
        E 6 8e 33 6a
        E 0 8e 38 6a
        E 957 8e 32 67
        E 0 8e 37 67
        E 9 9e 37 4d
        E 0 9e 3c 4d
        E 980 9e 35 59
        E 0 9e 3a 59
        E 16 8e 37 69
        E 0 8e 3c 69
        E 907 9e 33 59
        E 0 9e 38 59
        E 15 8e 35 64
        E 0 8e 3a 64
        E 926 8e 33 71
        E 0 8e 38 71
        E 3 9e 32 49
        E 0 9e 37 49
        E 875 8e 32 58
        E 0 8e 37 58
        E 137 9e 37 54
        E 0 9e 3c 54
        E 1275 8e 37 63
        E 0 8e 3c 63
        E 119 9e 35 5b
        E 0 9e 3a 5b
        E 801 8e 35 6a
        E 0 8e 3a 6a
        E 182 9e 33 5d
        E 0 9e 38 5d
        E 1372 8e 33 5b
        E 0 8e 38 5b
        E 59 9e 32 4b
        E 0 9e 37 4b
        E 335 8e 32 5b
        E 0 8e 37 5b
        E 165 9e 32 4e
        E 0 9e 37 4e
        E 321 8e 32 01
        E 0 8e 37 01
        E 139 9e 37 4e
        E 0 9e 3c 4e
        E 1341 8e 37 66
        E 0 8e 3c 66
        E 79 9e 35 52
        E 0 9e 3a 52
        E 881 8e 35 62
        E 0 8e 3a 62
        E 71 9e 33 54
        E 0 9e 38 54
        E 1329 8e 33 5e
        E 0 8e 38 5e
        E 105 9e 32 47
        E 0 9e 37 47
        E 315 8e 32 59
        E 0 8e 37 59
        E 204 9e 32 4e
        E 0 9e 37 4e
        E 336 8e 32 01
        E 0 8e 37 01
        E 133 9e 37 54
        E 0 9e 3c 54
        E 1312 8e 37 67
        E 0 8e 3c 67
        E 100 9e 35 4f
        E 0 9e 3a 4f
        E 806 8e 35 6e
        E 0 8e 3a 6e
        E 114 9e 33 59
        E 0 9e 38 59
        E 1411 8e 33 5c
        E 0 8e 38 5c
        E 91 9e 32 46
        E 0 9e 37 46
        E 307 8e 32 59
        E 0 8e 37 59
        E 207 9e 32 49
        E 0 9e 37 49
        E 315 8e 32 43
        E 0 8e 37 43
        E 154 9e 37 4d
        E 0 9e 3c 4d
        E 1300 8e 37 62
        E 0 8e 3c 62
        E 100 9e 35 52
        E 0 9e 3a 52
        E 835 8e 35 66
        E 0 8e 3a 66
        E 125 9e 33 54
        E 0 9e 38 54
        E 1306 8e 33 57
        E 0 8e 38 57
        E 128 9e 32 4b
        E 0 9e 37 4b
        E 278 8e 32 58
        E 0 8e 37 58
        E 216 9e 32 4a
        E 0 9e 37 4a
        E 261 8e 32 41
        E 0 8e 37 41
        E 230 9e 37 4d
        E 0 9e 3c 4d
        E 1284 8e 37 67
        E 0 8e 3c 67
        E 108 9e 35 4f
        E 0 9e 3a 4f
        E 838 8e 35 61
        E 0 8e 3a 61
        E 148 9e 33 52
        E 0 9e 38 52
        E 1343 8e 33 57
        E 0 8e 38 57
        E 99 9e 32 4b
        E 0 9e 37 4b
        E 281 8e 32 58
        E 0 8e 37 58
        E 225 9e 32 54
        E 0 9e 37 54
        E 196 8e 32 57
        E 0 8e 37 57
        E 292 9e 37 54
        E 0 9e 3c 54
        E 1264 8e 37 62
        E 0 8e 3c 62
        E 128 9e 35 52
        E 0 9e 3a 52
        E 886 8e 35 5f
        E 0 8e 3a 5f
        E 119 9e 33 5d
        E 0 9e 38 5d
        E 240 8e 33 6f
        E 0 8e 38 6f
        E 24740 be 43 7f
        E 5743 9e 43 52
        E 474 9e 3f 52
        E 32 8e 43 61
        E 428 9e 3e 4b
        E 5 8e 3f 6b
        E 487 9e 3c 4e
        E 7 8e 3e 68
        E 463 9e 44 54
        E 12 8e 3c 62
        E 1851 8e 44 64
        E 65 9e 44 5d
        E 501 9e 41 3d
        E 8 8e 44 5b
        E 444 9e 3f 4f
        E 9 8e 41 61
        E 420 8e 3f 5c
        E 49 9e 3f 43
        E 462 9e 3e 47
        E 10 8e 3f 75
        E 504 9e 46 54
        E 25 8e 3e 4c
        E 440 8e 46 64
        E 0 9e 48 47
        E 667 9e 46 4e
        E 9 8e 48 64
        E 203 8e 46 64
        E 52 9e 46 4e
        E 946 9e 44 52
        E 4 8e 46 5b
        E 494 8e 44 79
        E 3 9e 43 4b
        E 481 9e 44 5f
        E 16 8e 43 62
        E 479 9e 43 54
        E 9 8e 44 79
        E 451 9e 50 66
        E 17 8e 43 59
        E 472 9e 4f 52
        E 16 8e 50 6b
        E 481 8e 4f 67
        E 0 9e 4d 59
        E 510 9e 4b 5b
        E 24 8e 4d 60
        E 441 9e 4a 4e
        E 16 8e 4b 5c
        E 471 8e 4a 66
        E 2 9e 48 4c
        E 515 9e 4b 4f
        E 18 8e 48 53
        E 1877 9e 48 4b
        E 14 8e 4b 5c
        E 475 9e 43 4c
        E 3 8e 48 63
        E 467 9e 41 4e
        E 30 8e 43 62
        E 487 9e 3f 5b
        E 4 8e 41 69
        E 456 9e 43 4d
        E 19 8e 3f 77
        E 461 8e 43 5c
        E 1431 be 43 00
        E 0 b0 7b 00
        CCINTERP 32
        CHASE_CC_TAKEOFFS 1
        GUID {B19D8105-33CE-5845-BD83-6B07285A3A90}
        IGNTEMPO 0 120 4 4
        SRCCOLOR 15
        VELLANE -1 100 0
      >
    >
  >
  <TRACK {16EB291D-48B0-2340-AC8A-DC00DF6E99F2}
    NAME Bassoon
    PEAKCOL 16576
    BEAT -1
    AUTOMODE 0
    VOLPAN 0.54793648037502 0 -1 -1 1
    MUTESOLO 0 0 0
    IPHASE 0
    PLAYOFFS 0 1
    ISBUS 0 0
    BUSCOMP 0 0 0 0 0
    SHOWINMIX 1 0.6667 0.5 1 0.5 0 0 0
    SEL 0
    REC 0 0 1 0 0 0 0 0
    VU 2
    TRACKHEIGHT 65 0 0 0 0 0
    INQ 0 0 0 0.5 100 0 0 100
    NCHAN 2
    FX 1
    TRACKID {16EB291D-48B0-2340-AC8A-DC00DF6E99F2}
    PERF 0
    MIDIOUT -1
    MAINSEND 1 0
    <FXCHAIN
      WNDRECT 524 656 537 221
      SHOW 1
      LASTSEL 0
      DOCKED 0
      BYPASS 0 0 0
      <VST "VSTi: FL Studio VSTi (multi) (Image-Line) (32 out)" "FL Studio VSTi.vst" 0 "" 1179398454<565354464C3136666C73747564696F76> ""
        NjFMRu5e7f4AAAAAIAAAAAEAAAAAAAAAAgAAAAAAAAAEAAAAAAAAAAgAAAAAAAAAEAAAAAAAAAAgAAAAAAAAAEAAAAAAAAAAgAAAAAAAAAAAAQAAAAAAAAACAAAAAAAA
        AAQAAAAAAAAACAAAAAAAAAAQAAAAAAAAACAAAAAAAAAAQAAAAAAAAACAAAAAAAAAAAABAAAAAAAAAAIAAAAAAAAABAAAAAAAAAAIAAAAAAAAABAAAAAAAAAAIAAAAAAA
        AABAAAAAAAAAAIAAAAAAAAAAAAEAAAAAAAAAAgAAAAAAAAAEAAAAAAAAAAgAAAAAAAAAEAAAAAAAAAAgAAAAAAAAAEAAAAAAAAAAgAAAAADhAgAAAQAAAAAAEAA=
        +v//fwEBAAAAAAAAAAEAAABEZWZhdWx0AAAAAAAAAAAAAAAAAAAAAAABAAAApAIAAAAAAAABAAAAAAIAAAAAAAD/////////////////////////////////////////
        ////////////////////////////////////////////////////////////////////////////////////////////////////////////////////////////////
        ////////////////////////////////////////////////////////////////////////////////////////////////////////////////////////////////
        ////////////////////////////////////////////////////////////////////////////////////////////////////////////////////////////////
        ////////////////////////////////////////////////////////////////////////////////////////////////////////////////////////////////
        ////////////////////////////////////////////////////////////////////////////////////////////////////////////////////////////////
        /wIAAABAAAAAAAAAAP////////////////////////////////////////////////////////////////////////////////////8DAAAAQAAAAAAAAAD/////////
        ////////////////////////////////////////////////////////////////////////////AAAAAAAAAAA=
        AERlZmF1bHQAEAAAAA==
      >
      WET 0.739956 0
      PRESETNAME Default
      FLOATPOS 0 0 0 0
      FXID {A96DF723-7610-3141-A978-8BE0DF0B8D3B}
      WAK 0 0
    >
    <ITEM
      POSITION 0
      SNAPOFFS 0
      LENGTH 350.96757745293559
      LOOP 1
      ALLTAKES 0
      FADEIN 1 0 0 1 0 0 0
      FADEOUT 1 0 0 1 0 0 0
      MUTE 0 0
      SEL 0
      IGUID {0FB9822E-D91F-FF4B-8369-E14145962E0E}
      IID 16
      NAME "French Horn/Bassoon - 1-6--3-2_geth-1.mid"
      VOLPAN 1 0 1 -1
      SOFFS 0 0
      PLAYRATE 1 1 0 -1 0 0.0025
      CHANMODE 0
      GUID {6F2C08BD-9770-7C4B-9166-ADECC5A677C4}
      <SOURCE MIDI
        HASDATA 1 480 QN
        CCINTERP 32
        POOLEDEVTS {18310BE4-468C-914C-8DE6-17B647B1082B}
        <X 0 0 0 0 3 "French Horn/Bassoon"
          /wNGcmVuY2ggSG9ybi9CYXNzb29u
        >
        E 0 bf 00 00
        E 0 bf 20 01
        E 0 cf 3c 00
        E 0 bf 07 5c
        E 0 bf 0a 50
        E 31145 9f 49 5d
        E 469 9f 46 5b
        E 20 8f 49 63
        E 492 9f 41 52
        E 5 8f 46 70
        E 437 9f 42 52
        E 14 8f 41 5b
        E 2411 8f 42 61
        E 2 9f 4e 5d
        E 480 9f 4b 5f
        E 20 8f 4e 64
        E 471 8f 4b 6f
        E 0 9f 46 64
        E 429 9f 48 52
        E 20 8f 46 69
        E 998 9f 49 52
        E 27 8f 48 60
        E 673 9f 4b 5b
        E 2 8f 49 72
        E 252 9f 4e 66
        E 14 8f 4b 78
        E 709 9f 4d 59
        E 70 8f 4e 01
        E 124 9f 4b 62
        E 26 8f 4d 5e
        E 476 8f 4b 69
        E 0 9f 49 54
        E 945 8f 49 77
        E 3 9f 4d 54
        E 254 9f 4b 52
        E 18 8f 4d 57
        E 232 9f 49 4e
        E 6 8f 4b 71
        E 258 9f 48 4a
        E 6 8f 49 6f
        E 688 9f 4b 4f
        E 35 8f 48 5e
        E 695 8f 4b 73
        E 0 9f 49 5b
        E 244 9f 48 4d
        E 2 8f 49 76
        E 242 9f 46 52
        E 29 8f 48 5f
        E 1164 9f 49 4e
        E 11 8f 46 69
        E 239 9f 48 46
        E 68 8f 49 37
        E 170 9f 46 4e
        E 28 8f 48 60
        E 1335 8f 46 70
        E 52 9f 46 64
        E 262 8f 46 70
        E 2 9f 41 4b
        E 243 9f 3f 66
        E 29 8f 41 66
        E 677 8f 3f 72
        E 0 9f 3d 66
        E 260 8f 3d 7c
        E 0 9f 41 3f
        E 667 8f 41 64
        E 49 9f 41 5d
        E 232 9f 49 5d
        E 9 8f 41 50
        E 208 8f 49 79
        E 2 9f 48 5f
        E 240 9f 46 5d
        E 27 8f 48 59
        E 233 8f 46 6d
        E 1 9f 45 56
        E 230 9f 46 5d
        E 26 8f 45 60
        E 13 bf 07 40
        E 0 bf 0a 50
        E 1881 8f 46 73
        E 39 bf 00 00
        E 0 bf 20 01
        E 0 cf 46 00
        E 27 9f 2e 6c
        E 677 8f 2e 62
        E 269 9f 2c 67
        E 577 8f 2c 60
        E 369 9f 2a 65
        E 492 8f 2a 4b
        E 427 9f 29 5f
        E 343 8f 29 53
        E 613 9f 2e 65
        E 889 8f 2e 5c
        E 82 9f 2c 69
        E 894 8f 2c 68
        E 74 9f 2a 67
        E 946 8f 2a 70
        E 23 9f 29 5f
        E 610 8f 29 4c
        E 361 9f 2e 63
        E 835 9f 35 5f
        E 17 8f 2e 5e
        E 83 8f 35 60
        E 3 9f 2c 70
        E 918 8f 2c 61
        E 72 9f 2a 67
        E 922 8f 2a 78
        E 36 9f 29 5f
        E 682 8f 29 5b
        E 267 9f 2e 77
        E 89 8f 2e 75
        E 389 9f 2e 70
        E 65 8f 2e 72
        E 365 9f 2e 73
        E 68 8f 2e 73
        E 454 9f 2e 73
        E 68 8f 2e 71
        E 400 9f 2e 70
        E 65 8f 2e 72
        E 381 9f 2e 73
        E 73 8f 2e 73
        E 381 9f 2e 77
        E 85 8f 2e 75
        E 397 9f 33 7f
        E 147 8f 33 5c
        E 353 9f 2e 73
        E 101 8f 2e 6a
        E 402 9f 2e 6c
        E 71 8f 2e 6f
        E 386 9f 2e 77
        E 76 8f 2e 76
        E 433 9f 2e 75
        E 76 8f 2e 75
        E 381 9f 2e 77
        E 79 8f 2e 72
        E 389 9f 2e 77
        E 76 8f 2e 75
        E 400 9f 2e 7d
        E 95 8f 2e 75
        E 392 9f 33 7d
        E 111 8f 33 6b
        E 359 9f 2e 7d
        E 82 8f 2e 75
        E 421 9f 2e 73
        E 77 8f 2e 75
        E 408 9f 2e 7d
        E 81 8f 2e 77
        E 419 9f 2e 79
        E 73 8f 2e 77
        E 384 9f 2e 75
        E 60 8f 2e 75
        E 408 9f 2e 70
        E 65 8f 2e 72
        E 414 9f 2e 77
        E 84 8f 2e 77
        E 372 9f 33 77
        E 9 9f 33 7d
        E 81 8f 33 73
        E 25 8f 33 77
        E 391 9f 2e 79
        E 74 8f 2e 76
        E 421 9f 2e 77
        E 71 8f 2e 79
        E 414 9f 2e 79
        E 62 8f 2e 76
        E 411 9f 2e 79
        E 76 8f 2e 76
        E 400 9f 2e 79
        E 73 8f 2e 78
        E 411 9f 2e 79
        E 76 8f 2e 76
        E 416 9f 2e 7f
        E 85 8f 2e 76
        E 353 9f 33 7d
        E 27 9f 33 7f
        E 52 8f 33 73
        E 63 8f 33 75
        E 389 9f 2e 77
        E 641 8f 2e 59
        E 388 9f 2c 6c
        E 622 8f 2c 50
        E 294 9f 2a 69
        E 600 8f 2a 49
        E 335 9f 29 5f
        E 501 8f 29 5a
        E 436 9f 2e 67
        E 893 8f 2e 5a
        E 72 9f 2c 77
        E 915 8f 2c 6b
        E 60 9f 2a 73
        E 955 8f 2a 70
        E 23 9f 29 5f
        E 624 8f 29 40
        E 344 9f 2e 63
        E 901 8f 2e 71
        E 58 9f 2c 77
        E 873 8f 2c 5e
        E 77 9f 2a 63
        E 942 8f 2a 62
        E 35 9f 29 63
        E 578 8f 29 59
        E 397 9f 2e 77
        E 74 8f 2e 79
        E 375 9f 2e 75
        E 68 8f 2e 75
        E 381 9f 2e 70
        E 57 8f 2e 78
        E 443 9f 2e 77
        E 74 8f 2e 77
        E 386 9f 2e 77
        E 76 8f 2e 77
        E 397 9f 2e 6c
        E 77 8f 2e 73
        E 418 9f 2e 77
        E 82 8f 2e 76
        E 381 9f 33 7f
        E 95 8f 33 77
        E 405 9f 2e 79
        E 74 8f 2e 76
        E 394 9f 2e 77
        E 71 8f 2e 73
        E 394 9f 2e 77
        E 79 8f 2e 73
        E 411 9f 2e 79
        E 79 8f 2e 76
        E 405 9f 2e 70
        E 63 8f 2e 71
        E 383 9f 2e 79
        E 76 8f 2e 77
        E 422 9f 2e 7d
        E 81 8f 2e 72
        E 395 9f 33 7f
        E 92 8f 33 79
        E 422 9f 2e 79
        E 73 8f 2e 76
        E 408 9f 2e 73
        E 66 8f 2e 71
        E 399 9f 2e 79
        E 77 8f 2e 76
        E 419 9f 2e 77
        E 73 8f 2e 77
        E 386 9f 2e 79
        E 74 8f 2e 78
        E 402 9f 2e 77
        E 76 8f 2e 77
        E 411 9f 2e 7d
        E 82 8f 2e 75
        E 394 9f 33 7d
        E 0 9f 33 73
        E 90 8f 33 75
        E 3 8f 33 77
        E 399 9f 2e 7d
        E 77 8f 2e 78
        E 413 9f 2e 79
        E 65 8f 2e 75
        E 403 9f 2e 7f
        E 73 8f 2e 78
        E 411 9f 2e 7d
        E 71 8f 2e 79
        E 381 9f 2e 79
        E 68 8f 2e 78
        E 408 9f 2e 79
        E 73 8f 2e 77
        E 416 9f 2e 7f
        E 74 8f 2e 76
        E 380 9f 33 7f
        E 14 9f 33 7f
        E 103 8f 33 71
        E 8 8f 33 76
        E 411 9f 30 7d
        E 106 8f 30 6e
        E 376 9f 30 7b
        E 89 8f 30 6f
        E 387 9f 30 7b
        E 87 8f 30 6f
        E 402 9f 30 7b
        E 87 8f 30 6f
        E 389 9f 30 73
        E 85 8f 30 6d
        E 375 9f 30 75
        E 90 8f 30 6e
        E 394 9f 30 79
        E 87 8f 30 70
        E 411 9f 29 75
        E 147 8f 29 58
        E 372 9f 30 73
        E 96 8f 30 70
        E 397 9f 30 70
        E 89 8f 30 6e
        E 354 9f 30 77
        E 95 8f 30 6f
        E 400 9f 30 73
        E 95 8f 30 6f
        E 359 9f 30 73
        E 90 8f 30 6e
        E 373 9f 30 70
        E 100 8f 30 6d
        E 373 9f 30 79
        E 92 8f 30 6f
        E 406 9f 29 79
        E 166 8f 29 5c
        E 326 9f 30 77
        E 98 8f 30 6f
        E 394 9f 30 73
        E 98 8f 30 6e
        E 370 9f 30 7b
        E 90 8f 30 6f
        E 375 9f 30 70
        E 98 8f 30 6e
        E 381 9f 30 70
        E 98 8f 30 70
        E 351 9f 30 70
        E 106 8f 30 69
        E 370 9f 30 73
        E 120 8f 30 6e
        E 375 9f 29 77
        E 130 8f 29 5f
        E 338 9f 30 73
        E 100 8f 30 6f
        E 436 9f 30 6e
        E 98 8f 30 6e
        E 380 9f 30 79
        E 98 8f 30 6f
        E 395 9f 30 79
        E 95 8f 30 70
        E 378 9f 30 75
        E 98 8f 30 70
        E 353 9f 30 73
        E 104 8f 30 6a
        E 364 9f 30 79
        E 104 8f 30 6b
        E 391 9f 29 7d
        E 183 8f 29 60
        E 338 9f 30 6b
        E 938 9f 2e 5f
        E 13 8f 30 64
        E 959 9f 2c 5f
        E 23 8f 2e 6d
        E 937 8f 2c 73
        E 0 9f 2b 4c
        E 923 8f 2b 69
        E 13 9f 30 56
        E 1001 9f 2e 59
        E 19 8f 30 69
        E 907 9f 2c 54
        E 20 8f 2e 60
        E 935 9f 2b 4a
        E 6 8f 2c 72
        E 951 8f 2b 69
        E 13 9f 30 54
        E 982 9f 2e 4f
        E 16 8f 30 6a
        E 935 9f 2c 4f
        E 19 8f 2e 5f
        E 900 9f 2b 47
        E 2 8f 2c 6b
        E 967 8f 2b 68
        E 10 9f 30 4e
        E 980 9f 2e 54
        E 15 8f 30 64
        E 929 9f 2c 52
        E 20 8f 2e 63
        E 953 9f 2b 45
        E 6 8f 2c 6d
        E 916 8f 2b 67
        E 0 9f 30 4e
        E 1003 9f 2e 54
        E 22 8f 30 64
        E 926 9f 2c 59
        E 7 8f 2e 6b
        E 929 9f 2b 45
        E 1 8f 2c 6b
        E 946 8f 2b 61
        E 8 9f 30 4f
        E 969 9f 2e 4f
        E 13 8f 30 5f
        E 947 9f 2c 54
        E 22 8f 2e 5b
        E 960 8f 2c 6a
        E 0 9f 2b 49
        E 936 8f 2b 69
        E 13 9f 30 54
        E 991 9f 2e 54
        E 14 8f 30 6b
        E 942 9f 2c 59
        E 9 8f 2e 63
        E 940 9f 2b 47
        E 6 8f 2c 64
        E 931 8f 2b 68
        E 2 9f 30 59
        E 985 9f 2e 54
        E 13 8f 30 6b
        E 947 9f 2c 54
        E 18 8f 2e 61
        E 928 9f 2b 49
        E 2 8f 2c 70
        E 959 8f 2b 68
        E 4 9f 30 4d
        E 979 9f 2e 59
        E 13 8f 30 6b
        E 948 9f 2c 54
        E 22 8f 2e 63
        E 917 9f 2b 46
        E 6 8f 2c 6a
        E 957 8f 2b 67
        E 9 9f 30 4d
        E 980 9f 2e 59
        E 16 8f 30 69
        E 907 9f 2c 59
        E 15 8f 2e 64
        E 926 8f 2c 71
        E 3 9f 2b 49
        E 875 8f 2b 58
        E 137 9f 30 54
        E 1275 8f 30 63
        E 119 9f 2e 5b
        E 801 8f 2e 6a
        E 182 9f 2c 5d
        E 1372 8f 2c 5b
        E 59 9f 2b 4b
        E 335 8f 2b 5b
        E 165 9f 2b 4e
        E 321 8f 2b 01
        E 139 9f 30 4e
        E 1341 8f 30 66
        E 79 9f 2e 52
        E 881 8f 2e 62
        E 71 9f 2c 54
        E 1329 8f 2c 5e
        E 105 9f 2b 47
        E 315 8f 2b 59
        E 204 9f 2b 4e
        E 336 8f 2b 01
        E 133 9f 30 54
        E 1312 8f 30 67
        E 100 9f 2e 4f
        E 806 8f 2e 6e
        E 114 9f 2c 59
        E 1411 8f 2c 5c
        E 91 9f 2b 46
        E 307 8f 2b 59
        E 207 9f 2b 49
        E 315 8f 2b 43
        E 154 9f 30 4d
        E 1300 8f 30 62
        E 100 9f 2e 52
        E 835 8f 2e 66
        E 125 9f 2c 54
        E 1306 8f 2c 57
        E 128 9f 2b 4b
        E 278 8f 2b 58
        E 216 9f 2b 4a
        E 261 8f 2b 41
        E 230 9f 30 4d
        E 1284 8f 30 67
        E 108 9f 2e 4f
        E 838 8f 2e 61
        E 148 9f 2c 52
        E 1343 8f 2c 57
        E 99 9f 2b 4b
        E 281 8f 2b 58
        E 225 9f 2b 54
        E 196 8f 2b 57
        E 292 9f 30 54
        E 1264 8f 30 62
        E 128 9f 2e 52
        E 886 8f 2e 5f
        E 119 9f 2c 5d
        E 240 8f 2c 6f
        E 49700 b0 7b 00
        CCINTERP 32
        CHASE_CC_TAKEOFFS 1
        GUID {9748170A-1207-2F4B-ADDF-E90CBBD1F64C}
        IGNTEMPO 0 120 4 4
        SRCCOLOR 16
        VELLANE -1 100 0
      >
    >
  >
  <TRACK {AA6BAB8C-30AF-5744-89E4-62B29DA58ADF}
    NAME "PC88 FX-VGM"
    PEAKCOL 16576
    BEAT -1
    AUTOMODE 0
    VOLPAN 1 0 -1 -1 1
    MUTESOLO 0 0 0
    IPHASE 0
    PLAYOFFS 0 1
    ISBUS 0 0
    BUSCOMP 0 0 0 0 0
    SHOWINMIX 1 0.6667 0.5 1 0.5 0 0 0
    SEL 0
    REC 0 0 1 0 0 0 0 0
    VU 2
    TRACKHEIGHT 67 0 0 0 0 0
    INQ 0 0 0 0.5 100 0 0 100
    NCHAN 2
    FX 1
    TRACKID {AA6BAB8C-30AF-5744-89E4-62B29DA58ADF}
    PERF 0
    MIDIOUT -1
    MAINSEND 1 0
    <ITEM
      POSITION 0
      SNAPOFFS 0
      LENGTH 350.96757745293559
      LOOP 1
      ALLTAKES 0
      FADEIN 1 0 0 1 0 0 0
      FADEOUT 1 0 0 1 0 0 0
      MUTE 0 0
      SEL 0
      IGUID {F58CAD95-90A1-FF41-87D3-02D07AC8F6C8}
      IID 17
      NAME "PC88 FX-VGM - 1-6--3-2_geth-1.mid"
      VOLPAN 1 0 1 -1
      SOFFS 0 0
      PLAYRATE 1 1 0 -1 0 0.0025
      CHANMODE 0
      GUID {55C73A57-2171-154D-8791-CA2D4917767D}
      <SOURCE MIDI
        HASDATA 1 480 QN
        CCINTERP 32
        POOLEDEVTS {0C3E2030-5E80-F74D-A165-86F8519922F9}
        <X 0 0 0 0 3 "PC88 FX-VGM"
          /wNQQzg4IEZYLVZHTQ==
        >
        E 0 bf 5a 6d
        E 0 bf 5c 44
        E 235680 b0 7b 00
        CCINTERP 32
        CHASE_CC_TAKEOFFS 1
        GUID {54E1F027-8A91-D940-BBF7-76AA6A278A02}
        IGNTEMPO 0 120 4 4
        SRCCOLOR 17
        VELLANE -1 100 0
      >
    >
  >
  <TRACK {304FD18B-345D-4045-8CD0-03238DFCE891}
    NAME Gethsemane
    PEAKCOL 16576
    BEAT -1
    AUTOMODE 0
    VOLPAN 1 0 -1 -1 1
    MUTESOLO 0 0 0
    IPHASE 0
    PLAYOFFS 0 1
    ISBUS 0 0
    BUSCOMP 0 0 0 0 0
    SHOWINMIX 1 0.6667 0.5 1 0.5 0 0 0
    SEL 0
    REC 0 0 1 0 0 0 0 0
    VU 2
    TRACKHEIGHT 62 0 0 0 0 0
    INQ 0 0 0 0.5 100 0 0 100
    NCHAN 2
    FX 1
    TRACKID {304FD18B-345D-4045-8CD0-03238DFCE891}
    PERF 0
    MIDIOUT -1
    MAINSEND 1 0
    <ITEM
      POSITION 0
      SNAPOFFS 0
      LENGTH 350.96757745293559
      LOOP 1
      ALLTAKES 0
      FADEIN 1 0 0 1 0 0 0
      FADEOUT 1 0 0 1 0 0 0
      MUTE 0 0
      SEL 0
      IGUID {6A505832-BF26-DD4C-98FF-B87EBDD9E5BD}
      IID 18
      NAME "Gethsemane - 1-6--3-2_geth-1.mid"
      VOLPAN 1 0 1 -1
      SOFFS 0 0
      PLAYRATE 1 1 0 -1 0 0.0025
      CHANMODE 0
      GUID {748BC1BC-8BE2-5044-ACBE-F79F6C274823}
      <SOURCE MIDI
        HASDATA 1 480 QN
        CCINTERP 32
        POOLEDEVTS {FBEA345C-C9BD-C04F-8576-AF768AFD9351}
        <X 0 0 0 0 3 Gethsemane
          /wNHZXRoc2VtYW5l
        >
        E 235680 b0 7b 00
        CCINTERP 32
        CHASE_CC_TAKEOFFS 1
        GUID {67EBC9DB-D2F6-9C4C-A895-9C4079B8CCE1}
        IGNTEMPO 0 120 4 4
        SRCCOLOR 18
        VELLANE -1 100 0
      >
    >
  >
  <TRACK {EEF02BF9-C9A8-5041-A162-2708F608CBC1}
    NAME "by Andrew Lloyd Webber"
    PEAKCOL 16576
    BEAT -1
    AUTOMODE 0
    VOLPAN 1 0 -1 -1 1
    MUTESOLO 0 0 0
    IPHASE 0
    PLAYOFFS 0 1
    ISBUS 0 0
    BUSCOMP 0 0 0 0 0
    SHOWINMIX 1 0.6667 0.5 1 0.5 0 0 0
    SEL 0
    REC 0 0 1 0 0 0 0 0
    VU 2
    TRACKHEIGHT 65 0 0 0 0 0
    INQ 0 0 0 0.5 100 0 0 100
    NCHAN 2
    FX 1
    TRACKID {EEF02BF9-C9A8-5041-A162-2708F608CBC1}
    PERF 0
    MIDIOUT -1
    MAINSEND 1 0
    <ITEM
      POSITION 0
      SNAPOFFS 0
      LENGTH 350.96757745293559
      LOOP 1
      ALLTAKES 0
      FADEIN 1 0 0 1 0 0 0
      FADEOUT 1 0 0 1 0 0 0
      MUTE 0 0
      SEL 0
      IGUID {50E463D3-1FC6-414D-8ED1-65FA07935A46}
      IID 19
      NAME "by Andrew Lloyd Webber - 1-6--3-2_geth-1.mid"
      VOLPAN 1 0 1 -1
      SOFFS 0 0
      PLAYRATE 1 1 0 -1 0 0.0025
      CHANMODE 0
      GUID {2A933118-00C6-0D43-9B56-D95D79DA0FDF}
      <SOURCE MIDI
        HASDATA 1 480 QN
        CCINTERP 32
        POOLEDEVTS {ED13DFA4-E4A0-5F42-AD51-261893140A6E}
        <X 0 0 0 0 3 "by Andrew Lloyd Webber"
          /wNieSBBbmRyZXcgTGxveWQgV2ViYmVy
        >
        E 235680 b0 7b 00
        CCINTERP 32
        CHASE_CC_TAKEOFFS 1
        GUID {AE458E5B-6BE8-5A48-92C9-8E60A66A707C}
        IGNTEMPO 0 120 4 4
        SRCCOLOR 19
        VELLANE -1 100 0
      >
    >
  >
  <TRACK {FD7DDAAA-98ED-5A4C-B45F-B7A768B163BE}
    NAME "Arranged and"
    PEAKCOL 16576
    BEAT -1
    AUTOMODE 0
    VOLPAN 1 0 -1 -1 1
    MUTESOLO 0 0 0
    IPHASE 0
    PLAYOFFS 0 1
    ISBUS 0 0
    BUSCOMP 0 0 0 0 0
    SHOWINMIX 1 0.6667 0.5 1 0.5 0 0 0
    SEL 0
    REC 0 0 1 0 0 0 0 0
    VU 2
    TRACKHEIGHT 65 0 0 0 0 0
    INQ 0 0 0 0.5 100 0 0 100
    NCHAN 2
    FX 1
    TRACKID {FD7DDAAA-98ED-5A4C-B45F-B7A768B163BE}
    PERF 0
    MIDIOUT -1
    MAINSEND 1 0
    <ITEM
      POSITION 0
      SNAPOFFS 0
      LENGTH 350.96757745293559
      LOOP 1
      ALLTAKES 0
      FADEIN 1 0 0 1 0 0 0
      FADEOUT 1 0 0 1 0 0 0
      MUTE 0 0
      SEL 0
      IGUID {B780F70E-05B9-E547-96CC-A6C381DE2BDD}
      IID 20
      NAME "Arranged and - 1-6--3-2_geth-1.mid"
      VOLPAN 1 0 1 -1
      SOFFS 0 0
      PLAYRATE 1 1 0 -1 0 0.0025
      CHANMODE 0
      GUID {4480FBEF-BD73-B249-B463-5D0A6445CD9F}
      <SOURCE MIDI
        HASDATA 1 480 QN
        CCINTERP 32
        POOLEDEVTS {8F186886-8247-634A-806F-5687BFA18747}
        <X 0 0 0 0 3 "Arranged and"
          /wNBcnJhbmdlZCBhbmQ=
        >
        E 235680 b0 7b 00
        CCINTERP 32
        CHASE_CC_TAKEOFFS 1
        GUID {BF8487E4-A01D-B54D-9488-617D0115D1E8}
        IGNTEMPO 0 120 4 4
        SRCCOLOR 20
        VELLANE -1 100 0
      >
    >
  >
  <TRACK {CA1BF3F1-037C-F948-A6ED-F173B3962545}
    NAME "Sequenced by"
    PEAKCOL 16576
    BEAT -1
    AUTOMODE 0
    VOLPAN 1 0 -1 -1 1
    MUTESOLO 0 0 0
    IPHASE 0
    PLAYOFFS 0 1
    ISBUS 0 0
    BUSCOMP 0 0 0 0 0
    SHOWINMIX 1 0.6667 0.5 1 0.5 0 0 0
    SEL 0
    REC 0 0 1 0 0 0 0 0
    VU 2
    TRACKHEIGHT 0 0 0 0 0 0
    INQ 0 0 0 0.5 100 0 0 100
    NCHAN 2
    FX 1
    TRACKID {CA1BF3F1-037C-F948-A6ED-F173B3962545}
    PERF 0
    MIDIOUT -1
    MAINSEND 1 0
    <ITEM
      POSITION 0
      SNAPOFFS 0
      LENGTH 350.96757745293559
      LOOP 1
      ALLTAKES 0
      FADEIN 1 0 0 1 0 0 0
      FADEOUT 1 0 0 1 0 0 0
      MUTE 0 0
      SEL 0
      IGUID {01FFB59E-FF9A-474E-B137-136797024B25}
      IID 21
      NAME "Sequenced by - 1-6--3-2_geth-1.mid"
      VOLPAN 1 0 1 -1
      SOFFS 0 0
      PLAYRATE 1 1 0 -1 0 0.0025
      CHANMODE 0
      GUID {99A1511F-822D-5C45-9A20-550A72A0BA8F}
      <SOURCE MIDI
        HASDATA 1 480 QN
        CCINTERP 32
        POOLEDEVTS {1F43CB0C-2C4A-8948-844D-145A7098E8B0}
        <X 0 0 0 0 3 "Sequenced by"
          /wNTZXF1ZW5jZWQgYnk=
        >
        E 235680 b0 7b 00
        CCINTERP 32
        CHASE_CC_TAKEOFFS 1
        GUID {DDFF99BB-8D1B-DC42-B545-2BE4D139145F}
        IGNTEMPO 0 120 4 4
        SRCCOLOR 21
        VELLANE -1 100 0
      >
    >
  >
  <TRACK {6BFA4478-7E33-5A41-89B4-8E53547A35D7}
    NAME "Charles Alexander Hay"
    PEAKCOL 16576
    BEAT -1
    AUTOMODE 0
    VOLPAN 1 0 -1 -1 1
    MUTESOLO 0 0 0
    IPHASE 0
    PLAYOFFS 0 1
    ISBUS 0 0
    BUSCOMP 0 0 0 0 0
    SHOWINMIX 1 0.6667 0.5 1 0.5 0 0 0
    SEL 1
    REC 0 0 1 0 0 0 0 0
    VU 2
    TRACKHEIGHT 62 0 0 0 0 0
    INQ 0 0 0 0.5 100 0 0 100
    NCHAN 2
    FX 1
    TRACKID {6BFA4478-7E33-5A41-89B4-8E53547A35D7}
    PERF 0
    MIDIOUT -1
    MAINSEND 1 0
    <ITEM
      POSITION 0
      SNAPOFFS 0
      LENGTH 350.96757745293559
      LOOP 1
      ALLTAKES 0
      FADEIN 1 0 0 1 0 0 0
      FADEOUT 1 0 0 1 0 0 0
      MUTE 0 0
      SEL 0
      IGUID {3BA27CC6-2D2F-7045-8554-09A79747C667}
      IID 22
      NAME "Charles Alexander Hay - 1-6--3-2_geth-1.mid"
      VOLPAN 1 0 1 -1
      SOFFS 0 0
      PLAYRATE 1 1 0 -1 0 0.0025
      CHANMODE 0
      GUID {8A5953F8-9370-414E-AD9F-381D06324658}
      <SOURCE MIDI
        HASDATA 1 480 QN
        CCINTERP 32
        POOLEDEVTS {A340CEB0-D666-914E-AB02-88DEFADAC9E2}
        <X 0 0 0 0 3 "Charles Alexander Hay"
          /wNDaGFybGVzIEFsZXhhbmRlciBIYXk=
        >
        E 235680 b0 7b 00
        CCINTERP 32
        CHASE_CC_TAKEOFFS 1
        GUID {653128C7-1FE2-D24C-AD71-D4E0847E030C}
        IGNTEMPO 0 120 4 4
        SRCCOLOR 22
        VELLANE -1 100 0
      >
    >
  >
  <TRACK {AB4E2609-FC0C-1349-9C8D-8B3718FB003C}
    NAME cahay@earthlink
    PEAKCOL 16576
    BEAT -1
    AUTOMODE 0
    VOLPAN 1 0 -1 -1 1
    MUTESOLO 0 0 0
    IPHASE 0
    PLAYOFFS 0 1
    ISBUS 0 0
    BUSCOMP 0 0 0 0 0
    SHOWINMIX 1 0.6667 0.5 1 0.5 0 0 0
    SEL 0
    REC 0 0 1 0 0 0 0 0
    VU 2
    TRACKHEIGHT 62 0 0 0 0 0
    INQ 0 0 0 0.5 100 0 0 100
    NCHAN 2
    FX 1
    TRACKID {AB4E2609-FC0C-1349-9C8D-8B3718FB003C}
    PERF 0
    MIDIOUT -1
    MAINSEND 1 0
    <ITEM
      POSITION 0
      SNAPOFFS 0
      LENGTH 350.96757745293559
      LOOP 1
      ALLTAKES 0
      FADEIN 1 0 0 1 0 0 0
      FADEOUT 1 0 0 1 0 0 0
      MUTE 0 0
      SEL 0
      IGUID {109D0F61-08F8-424D-A175-2ADEF71B1369}
      IID 23
      NAME "cahay@earthlink.net - 1-6--3-2_geth-1.mid"
      VOLPAN 1 0 1 -1
      SOFFS 0 0
      PLAYRATE 1 1 0 -1 0 0.0025
      CHANMODE 0
      GUID {8E023375-D100-AA4C-8574-BE21709ABCD1}
      <SOURCE MIDI
        HASDATA 1 480 QN
        CCINTERP 32
        POOLEDEVTS {0CF85E54-2FC5-1542-A34D-251F6D2A70F5}
        <X 0 0 0 0 3 cahay@earthlink.net
          /wNjYWhheUBlYXJ0aGxpbmsubmV0
        >
        E 235680 b0 7b 00
        CCINTERP 32
        CHASE_CC_TAKEOFFS 1
        GUID {50326EF3-E650-4D4E-987F-A4F5ACDBA43D}
        IGNTEMPO 0 120 4 4
        SRCCOLOR 23
        VELLANE -1 100 0
      >
    >
  >
  <TRACK {E355D134-B545-824E-8311-3AFEDADDE786}
    NAME www.helicon
    PEAKCOL 16576
    BEAT -1
    AUTOMODE 0
    VOLPAN 1 0 -1 -1 1
    MUTESOLO 0 0 0
    IPHASE 0
    PLAYOFFS 0 1
    ISBUS 0 0
    BUSCOMP 0 0 0 0 0
    SHOWINMIX 1 0.6667 0.5 1 0.5 0 0 0
    SEL 0
    REC 0 0 1 0 0 0 0 0
    VU 2
    TRACKHEIGHT 63 0 0 0 0 0
    INQ 0 0 0 0.5 100 0 0 100
    NCHAN 2
    FX 1
    TRACKID {E355D134-B545-824E-8311-3AFEDADDE786}
    PERF 0
    MIDIOUT -1
    MAINSEND 1 0
    <ITEM
      POSITION 0
      SNAPOFFS 0
      LENGTH 350.96757745293559
      LOOP 1
      ALLTAKES 0
      FADEIN 1 0 0 1 0 0 0
      FADEOUT 1 0 0 1 0 0 0
      MUTE 0 0
      SEL 0
      IGUID {A9117AAD-E945-6943-9D2B-DC9EE17DF210}
      IID 24
      NAME "www.helicon.biz - 1-6--3-2_geth-1.mid"
      VOLPAN 1 0 1 -1
      SOFFS 0 0
      PLAYRATE 1 1 0 -1 0 0.0025
      CHANMODE 0
      GUID {E90CB255-18EA-9F4D-A0AB-27EC73762D8A}
      <SOURCE MIDI
        HASDATA 1 480 QN
        CCINTERP 32
        POOLEDEVTS {E552021C-64BD-3944-A911-124E7E006344}
        <X 0 0 0 0 3 www.helicon.biz
          /wN3d3cuaGVsaWNvbi5iaXo=
        >
        E 235680 b0 7b 00
        CCINTERP 32
        CHASE_CC_TAKEOFFS 1
        GUID {60DBFCE5-D868-3B42-AEBA-B0937580B6ED}
        IGNTEMPO 0 120 4 4
        SRCCOLOR 24
        VELLANE -1 100 0
      >
    >
  >
>
